<svg xmlns="http://www.w3.org/2000/svg" width="290.054" height="135.257" viewBox="0 0 290.054 135.257">
  <g id="Group_5962" data-name="Group 5962" transform="translate(-879.24 -681.623)">
    <g id="Group_5957" data-name="Group 5957" transform="translate(879.24 759.14)">
      <g id="Group_5952" data-name="Group 5952">
        <path id="Path_34431" data-name="Path 34431" d="M879.24,753.252h17.767v39.975H928.1v13.324H879.24Z" transform="translate(-879.24 -748.811)" fill="#e28413"/>
        <path id="Path_34432" data-name="Path 34432" d="M879.24,749.371h17.767v39.974H928.1v13.324H879.24Z" transform="translate(-879.24 -749.371)" fill="#ffe000"/>
        <rect id="Rectangle_38356" data-name="Rectangle 38356" width="4.442" height="4.442" transform="translate(0.001)" fill="#fff"/>
      </g>
      <g id="Group_5953" data-name="Group 5953" transform="translate(60.708)">
        <path id="Path_34433" data-name="Path 34433" d="M976.713,806.551H936.739v-4.442H932.3V757.694h4.442v-4.442h39.974v4.442h4.442v44.416h-4.442ZM963.388,775.46v-8.882H950.063v26.65h13.325V775.46Z" transform="translate(-932.297 -748.811)" fill="#e28413"/>
        <path id="Path_34434" data-name="Path 34434" d="M976.713,802.669H936.739v-4.442H932.3V753.812h4.442v-4.441h39.974v4.441h4.442v44.416h-4.442Zm-13.324-31.09V762.7H950.063v26.65h13.325V771.579Z" transform="translate(-932.297 -749.371)" fill="#ffe000"/>
        <rect id="Rectangle_38357" data-name="Rectangle 38357" width="4.442" height="4.442" transform="translate(4.477)" fill="#fff"/>
      </g>
      <g id="Group_5954" data-name="Group 5954" transform="translate(120.599)">
        <path id="Path_34435" data-name="Path 34435" d="M1029.056,806.551H989.082v-4.442H984.64V757.694h4.442v-4.442h39.974v4.442h4.442v44.416h-4.442ZM1015.73,775.46v-8.882h-13.324v26.65h13.324V775.46Z" transform="translate(-984.64 -748.811)" fill="#e28413"/>
        <path id="Path_34436" data-name="Path 34436" d="M1029.056,802.669H989.082v-4.442H984.64V753.812h4.442v-4.441h39.974v4.441h4.442v44.416h-4.442Zm-13.325-31.09V762.7h-13.324v26.65h13.324V771.579Z" transform="translate(-984.64 -749.371)" fill="#ffe000"/>
        <rect id="Rectangle_38358" data-name="Rectangle 38358" width="4.442" height="4.442" transform="translate(4.477)" fill="#fff"/>
      </g>
      <g id="Group_5955" data-name="Group 5955" transform="translate(180.898)">
        <path id="Path_34437" data-name="Path 34437" d="M1037.34,793.227h31.09v-8.884h-26.65V779.9h-4.441V757.694h4.441v-4.442H1086.2v13.325h-31.09v8.882h26.65V779.9h4.441v22.208h-4.441v4.442H1037.34Z" transform="translate(-1037.34 -748.811)" fill="#e28413"/>
        <path id="Path_34438" data-name="Path 34438" d="M1037.34,789.345h31.09v-8.884h-26.65v-4.442h-4.441V753.812h4.441v-4.441H1086.2V762.7h-31.09v8.884h26.65v4.441h4.441v22.208h-4.441v4.442H1037.34Z" transform="translate(-1037.34 -749.371)" fill="#ffe000"/>
        <rect id="Rectangle_38359" data-name="Rectangle 38359" width="4.442" height="4.442" transform="translate(4.441)" fill="#fff"/>
      </g>
      <g id="Group_5956" data-name="Group 5956" transform="translate(241.196)">
        <path id="Path_34439" data-name="Path 34439" d="M1094.481,802.109h-4.442V757.694h4.442v-4.442H1138.9v13.325h-31.091v8.882h13.325v8.884h-13.325v8.884H1138.9v13.324h-44.416Z" transform="translate(-1090.039 -748.811)" fill="#e28413"/>
        <path id="Path_34440" data-name="Path 34440" d="M1094.481,798.227h-4.442V753.812h4.442v-4.441H1138.9V762.7h-31.091v8.884h13.325v8.882h-13.325v8.884H1138.9v13.324h-44.416Z" transform="translate(-1090.039 -749.371)" fill="#ffe000"/>
        <rect id="Rectangle_38360" data-name="Rectangle 38360" width="4.442" height="4.442" transform="translate(4.585)" fill="#fff"/>
      </g>
    </g>
    <g id="Group_5961" data-name="Group 5961" transform="translate(937.319 681.623)">
      <g id="Group_5958" data-name="Group 5958" transform="translate(125.04 0)">
        <path id="Path_34441" data-name="Path 34441" d="M1083.7,738.8h-39.974v-4.442h-4.441V685.505h17.766v39.974h13.324V685.505h17.766v48.856H1083.7Z" transform="translate(-1039.28 -681.063)" fill="#e28413"/>
        <path id="Path_34442" data-name="Path 34442" d="M1083.7,734.921h-39.974V730.48h-4.441V681.623h17.766V721.6h13.324V681.623h17.766V730.48H1083.7Z" transform="translate(-1039.28 -681.623)" fill="#ffe000"/>
        <rect id="Rectangle_38361" data-name="Rectangle 38361" width="4.442" height="4.442" fill="#fff"/>
        <rect id="Rectangle_38362" data-name="Rectangle 38362" width="4.442" height="4.442" transform="translate(31.073)" fill="#fff"/>
      </g>
      <g id="Group_5959" data-name="Group 5959" transform="translate(0 0)">
        <path id="Path_34443" data-name="Path 34443" d="M930,685.505h17.767v13.324h4.441v4.442h8.884v-4.442h4.442V685.505H983.3v17.766h-4.442v8.884h-4.442V716.6h-8.882V738.8H947.766V716.6h-8.884v-4.441h-4.442v-8.884H930Z" transform="translate(-929.999 -681.063)" fill="#e28413"/>
        <path id="Path_34444" data-name="Path 34444" d="M930,681.623h17.767v13.324h4.441v4.442h8.884v-4.442h4.442V681.623H983.3v17.766h-4.442v8.884h-4.442v4.442h-8.882v22.207H947.766V712.714h-8.884v-4.442h-4.442v-8.884H930Z" transform="translate(-929.999 -681.623)" fill="#ffe000"/>
        <rect id="Rectangle_38363" data-name="Rectangle 38363" width="4.442" height="4.442" transform="translate(0)" fill="#fff"/>
        <rect id="Rectangle_38364" data-name="Rectangle 38364" width="4.442" height="4.442" transform="translate(35.533)" fill="#fff"/>
      </g>
      <g id="Group_5960" data-name="Group 5960" transform="translate(64.741)">
        <path id="Path_34445" data-name="Path 34445" d="M1031,738.8H991.023v-4.442h-4.442V689.947h4.442v-4.442H1031v4.442h4.441v44.414H1031Zm-13.325-31.09v-8.884h-13.324v26.65h13.324V707.713Z" transform="translate(-986.581 -681.063)" fill="#e28413"/>
        <path id="Path_34446" data-name="Path 34446" d="M1031,734.921H991.023V730.48h-4.442V686.065h4.442v-4.442H1031v4.442h4.441V730.48H1031Zm-13.325-31.09v-8.884h-13.324V721.6h13.324V703.831Z" transform="translate(-986.581 -681.623)" fill="#ffe000"/>
        <rect id="Rectangle_38365" data-name="Rectangle 38365" width="4.442" height="4.442" transform="translate(4.477)" fill="#fff"/>
      </g>
    </g>
  </g>
</svg>
