<svg xmlns="http://www.w3.org/2000/svg" width="79.294" height="71.5" viewBox="0 0 79.294 71.5">
  <g id="Group_7690" data-name="Group 7690" transform="translate(-329.444 -655)">
    <g id="Group_7688" data-name="Group 7688" transform="translate(-733.524 230.412)">
      <path id="Path_36282" data-name="Path 36282" d="M1472.013,643.984a.275.275,0,0,1,.008-.551.275.275,0,1,1-.008.551Z" transform="translate(-338.689 -183.022)" fill="#0acd7a"/>
      <path id="Path_36283" data-name="Path 36283" d="M1471.93,648.916a.275.275,0,0,1-.261-.285.27.27,0,0,1,.279-.265.281.281,0,0,1,.271.286.275.275,0,0,1-.289.264Z" transform="translate(-338.628 -187.147)" fill="#0acd7a"/>
      <path id="Path_36284" data-name="Path 36284" d="M1471.631,653.84a.275.275,0,1,1,.036-.549.275.275,0,0,1-.036.549Z" transform="translate(-338.38 -191.266)" fill="#0acd7a"/>
      <path id="Path_36285" data-name="Path 36285" d="M1471.288,658.759a.275.275,0,0,1,.05-.548.275.275,0,1,1-.05.548Z" transform="translate(-338.105 -195.381)" fill="#0acd7a"/>
      <path id="Path_36286" data-name="Path 36286" d="M1470.733,663.662a.275.275,0,0,1,.063-.547.275.275,0,0,1-.063.547Z" transform="translate(-337.641 -199.481)" fill="#0acd7a"/>
      <path id="Path_36287" data-name="Path 36287" d="M1470.114,668.555a.27.27,0,0,1-.228-.311.279.279,0,0,1,.31-.234.272.272,0,0,1,.235.312.28.28,0,0,1-.317.232Z" transform="translate(-337.134 -203.574)" fill="#0acd7a"/>
      <path id="Path_36288" data-name="Path 36288" d="M1469.321,673.422a.279.279,0,0,1-.227-.318.275.275,0,0,1,.543.093.271.271,0,0,1-.316.225Z" transform="translate(-336.471 -207.645)" fill="#0acd7a"/>
      <path id="Path_36289" data-name="Path 36289" d="M1468.428,678.28a.272.272,0,0,1-.212-.323.283.283,0,0,1,.327-.216.268.268,0,0,1,.213.323.279.279,0,0,1-.328.216Z" transform="translate(-335.735 -211.71)" fill="#0acd7a"/>
      <path id="Path_36290" data-name="Path 36290" d="M1467.517,682.545a.28.28,0,0,1-.211-.329.275.275,0,0,1,.538.12.271.271,0,0,1-.327.209Z" transform="translate(-334.975 -215.277)" fill="#0acd7a"/>
      <path id="Path_36291" data-name="Path 36291" d="M1466.381,687.353a.272.272,0,0,1-.2-.333.282.282,0,0,1,.338-.2.268.268,0,0,1,.2.333.278.278,0,0,1-.338.2Z" transform="translate(-334.034 -219.301)" fill="#0acd7a"/>
      <path id="Path_36292" data-name="Path 36292" d="M1465.122,692.111a.281.281,0,0,1-.194-.34.274.274,0,0,1,.336-.192.277.277,0,0,1,.194.34.27.27,0,0,1-.336.193Z" transform="translate(-332.982 -223.279)" fill="#0acd7a"/>
      <path id="Path_36293" data-name="Path 36293" d="M1463.718,696.85a.274.274,0,0,1-.18-.343.281.281,0,0,1,.347-.182.269.269,0,0,1,.18.343.277.277,0,0,1-.347.182Z" transform="translate(-331.817 -227.247)" fill="#0acd7a"/>
      <path id="Path_36294" data-name="Path 36294" d="M1462.231,701.539a.282.282,0,0,1-.177-.35.272.272,0,0,1,.344-.175.278.278,0,0,1,.177.35.268.268,0,0,1-.345.175Z" transform="translate(-330.576 -231.167)" fill="#0acd7a"/>
      <path id="Path_36295" data-name="Path 36295" d="M1460.565,706.193a.275.275,0,0,1-.163-.352.28.28,0,0,1,.355-.164.271.271,0,0,1,.163.352.276.276,0,0,1-.355.164Z" transform="translate(-329.191 -235.064)" fill="#0acd7a"/>
      <path id="Path_36296" data-name="Path 36296" d="M1458.851,710.8a.279.279,0,0,1-.154-.357.271.271,0,0,1,.352-.157.28.28,0,0,1,.16.359.271.271,0,0,1-.358.155Z" transform="translate(-327.765 -238.918)" fill="#0acd7a"/>
      <path id="Path_36297" data-name="Path 36297" d="M1456.932,715.36a.275.275,0,1,1,.216-.506.275.275,0,0,1-.216.506Z" transform="translate(-326.163 -242.735)" fill="#0acd7a"/>
      <path id="Path_36298" data-name="Path 36298" d="M1454.97,719.877a.275.275,0,0,1,.228-.5.275.275,0,1,1-.228.5Z" transform="translate(-324.531 -246.514)" fill="#0acd7a"/>
      <path id="Path_36299" data-name="Path 36299" d="M1453.074,723.82a.275.275,0,1,1,.24-.5.275.275,0,1,1-.24.5Z" transform="translate(-322.947 -249.814)" fill="#0acd7a"/>
      <path id="Path_36300" data-name="Path 36300" d="M1450.885,728.236a.27.27,0,0,1-.113-.368.272.272,0,0,1,.366-.121.275.275,0,1,1-.254.489Z" transform="translate(-321.125 -253.51)" fill="#0acd7a"/>
      <path id="Path_36301" data-name="Path 36301" d="M1448.538,732.574a.275.275,0,0,1,.264-.483.275.275,0,1,1-.264.483Z" transform="translate(-319.164 -257.14)" fill="#0acd7a"/>
      <path id="Path_36302" data-name="Path 36302" d="M1446.106,736.878a.271.271,0,0,1-.094-.374.281.281,0,0,1,.376-.1.269.269,0,0,1,.1.376.279.279,0,0,1-.381.1Z" transform="translate(-317.137 -260.746)" fill="#0acd7a"/>
      <path id="Path_36303" data-name="Path 36303" d="M1443.554,741.081a.28.28,0,0,1-.091-.38.275.275,0,1,1,.468.29.271.271,0,0,1-.377.09Z" transform="translate(-315.006 -264.26)" fill="#0acd7a"/>
      <path id="Path_36304" data-name="Path 36304" d="M1440.887,745.251a.273.273,0,0,1-.076-.379.282.282,0,0,1,.384-.077.269.269,0,0,1,.076.379.278.278,0,0,1-.385.077Z" transform="translate(-312.783 -267.755)" fill="#0acd7a"/>
      <path id="Path_36305" data-name="Path 36305" d="M1438.139,749.32a.281.281,0,0,1-.072-.385.273.273,0,0,1,.38-.071.277.277,0,0,1,.072.385.269.269,0,0,1-.38.071Z" transform="translate(-310.487 -271.155)" fill="#0acd7a"/>
      <path id="Path_36306" data-name="Path 36306" d="M1435.243,753.336a.274.274,0,0,1-.057-.383.281.281,0,0,1,.387-.057.27.27,0,0,1,.057.383.276.276,0,0,1-.387.057Z" transform="translate(-308.072 -274.523)" fill="#0acd7a"/>
      <path id="Path_36307" data-name="Path 36307" d="M1432.3,757.265a.283.283,0,0,1-.051-.388.272.272,0,0,1,.382-.052.279.279,0,0,1,.053.389.269.269,0,0,1-.385.051Z" transform="translate(-305.616 -277.807)" fill="#0acd7a"/>
      <path id="Path_36308" data-name="Path 36308" d="M1429.546,760.684a.275.275,0,0,1-.038-.386.28.28,0,0,1,.389-.038.271.271,0,0,1,.038.386.276.276,0,0,1-.389.038Z" transform="translate(-303.316 -280.675)" fill="#0acd7a"/>
      <path id="Path_36309" data-name="Path 36309" d="M1426.416,764.465a.282.282,0,0,1-.031-.389.271.271,0,0,1,.384-.033.279.279,0,0,1,.034.391.269.269,0,0,1-.387.03Z" transform="translate(-300.704 -283.836)" fill="#0acd7a"/>
      <path id="Path_36310" data-name="Path 36310" d="M1423.116,768.158a.276.276,0,0,1-.019-.388.279.279,0,0,1,.39-.019.275.275,0,0,1-.371.407Z" transform="translate(-297.947 -286.932)" fill="#0acd7a"/>
      <path id="Path_36311" data-name="Path 36311" d="M1419.784,771.779a.274.274,0,0,1-.007-.386.27.27,0,0,1,.385-.014.281.281,0,0,1,.014.393.276.276,0,0,1-.392.007Z" transform="translate(-295.166 -289.963)" fill="#0acd7a"/>
      <path id="Path_36312" data-name="Path 36312" d="M1416.307,775.287a.275.275,0,0,1,.39-.389.275.275,0,0,1-.39.389Z" transform="translate(-292.262 -292.901)" fill="#0acd7a"/>
      <path id="Path_36313" data-name="Path 36313" d="M1412.775,778.739a.27.27,0,0,1,.015-.385.275.275,0,1,1,.378.4.28.28,0,0,1-.393-.015Z" transform="translate(-289.313 -295.795)" fill="#0acd7a"/>
      <path id="Path_36314" data-name="Path 36314" d="M1409.134,782.051a.275.275,0,0,1,.408-.369.275.275,0,1,1-.408.369Z" transform="translate(-286.271 -298.565)" fill="#0acd7a"/>
      <path id="Path_36315" data-name="Path 36315" d="M1405.416,785.32a.271.271,0,0,1,.035-.384.281.281,0,0,1,.388.032.269.269,0,0,1-.032.388.279.279,0,0,1-.391-.035Z" transform="translate(-283.166 -301.31)" fill="#0acd7a"/>
      <path id="Path_36316" data-name="Path 36316" d="M1401.618,788.43a.28.28,0,0,1,.04-.389.275.275,0,0,1,.346.429.271.271,0,0,1-.386-.04Z" transform="translate(-279.993 -303.908)" fill="#0acd7a"/>
      <path id="Path_36317" data-name="Path 36317" d="M1398.175,791.157a.271.271,0,0,1,.053-.382.283.283,0,0,1,.387.052.269.269,0,0,1-.052.385.279.279,0,0,1-.389-.055Z" transform="translate(-277.118 -306.201)" fill="#0acd7a"/>
      <path id="Path_36318" data-name="Path 36318" d="M1394.229,794.075a.28.28,0,0,1,.059-.386.275.275,0,1,1,.324.445.271.271,0,0,1-.383-.059Z" transform="translate(-273.82 -308.638)" fill="#0acd7a"/>
      <path id="Path_36319" data-name="Path 36319" d="M1390.186,796.935a.272.272,0,0,1,.073-.379.282.282,0,0,1,.385.074.269.269,0,0,1-.073.379.278.278,0,0,1-.385-.074Z" transform="translate(-270.443 -311.042)" fill="#0acd7a"/>
      <path id="Path_36320" data-name="Path 36320" d="M1386.1,799.655a.282.282,0,0,1,.079-.384.273.273,0,0,1,.379.078.277.277,0,0,1-.079.383.269.269,0,0,1-.379-.078Z" transform="translate(-267.028 -313.313)" fill="#0acd7a"/>
      <path id="Path_36321" data-name="Path 36321" d="M1381.9,802.287a.273.273,0,0,1,.092-.376.281.281,0,0,1,.38.094.27.27,0,0,1-.092.376.277.277,0,0,1-.38-.094Z" transform="translate(-263.524 -315.526)" fill="#0acd7a"/>
      <path id="Path_36322" data-name="Path 36322" d="M1377.686,804.8a.283.283,0,0,1,.1-.379.272.272,0,0,1,.374.1.278.278,0,0,1-.1.379.268.268,0,0,1-.374-.1Z" transform="translate(-259.999 -317.625)" fill="#0acd7a"/>
      <path id="Path_36323" data-name="Path 36323" d="M1373.353,807.2a.275.275,0,0,1,.112-.371.28.28,0,0,1,.374.113.27.27,0,0,1-.112.371.276.276,0,0,1-.374-.113Z" transform="translate(-256.379 -319.641)" fill="#0acd7a"/>
      <path id="Path_36324" data-name="Path 36324" d="M1369.008,809.492a.283.283,0,0,1,.12-.372.271.271,0,0,1,.368.116.279.279,0,0,1-.118.375.268.268,0,0,1-.37-.119Z" transform="translate(-252.747 -321.562)" fill="#0acd7a"/>
      <path id="Path_36325" data-name="Path 36325" d="M1364.555,811.647a.275.275,0,0,1,.131-.365.279.279,0,0,1,.367.132.271.271,0,0,1-.131.365.275.275,0,0,1-.368-.132Z" transform="translate(-249.026 -323.374)" fill="#0acd7a"/>
      <path id="Path_36326" data-name="Path 36326" d="M1360.609,813.488a.283.283,0,0,1,.138-.366.271.271,0,0,1,.362.134.279.279,0,0,1-.137.368.268.268,0,0,1-.363-.137Z" transform="translate(-245.728 -324.914)" fill="#0acd7a"/>
      <path id="Path_36327" data-name="Path 36327" d="M1356.056,815.421a.275.275,0,0,1,.149-.358.279.279,0,0,1,.36.15.271.271,0,0,1-.149.358.275.275,0,0,1-.36-.15Z" transform="translate(-241.923 -326.541)" fill="#0acd7a"/>
      <path id="Path_36328" data-name="Path 36328" d="M1351.494,817.271a.281.281,0,0,1,.158-.356.271.271,0,0,1,.354.153.28.28,0,0,1-.156.361.27.27,0,0,1-.356-.158Z" transform="translate(-238.109 -328.09)" fill="#0acd7a"/>
      <path id="Path_36329" data-name="Path 36329" d="M1346.85,818.956a.276.276,0,0,1,.167-.351.279.279,0,0,1,.352.168.272.272,0,0,1-.167.351.275.275,0,0,1-.352-.168Z" transform="translate(-234.228 -329.508)" fill="#0acd7a"/>
      <path id="Path_36330" data-name="Path 36330" d="M1342.194,820.573a.279.279,0,0,1,.176-.345.27.27,0,0,1,.346.17.28.28,0,0,1-.174.353.272.272,0,0,1-.348-.178Z" transform="translate(-230.336 -330.865)" fill="#0acd7a"/>
      <path id="Path_36331" data-name="Path 36331" d="M1337.473,822.01a.275.275,0,1,1,.528-.156.275.275,0,1,1-.528.156Z" transform="translate(-226.39 -332.073)" fill="#0acd7a"/>
      <path id="Path_36332" data-name="Path 36332" d="M1332.737,823.388a.277.277,0,0,1,.194-.335.27.27,0,0,1,.336.188.28.28,0,0,1-.192.343.273.273,0,0,1-.338-.2Z" transform="translate(-222.431 -333.231)" fill="#0acd7a"/>
      <path id="Path_36333" data-name="Path 36333" d="M1327.951,824.577a.275.275,0,1,1,.535-.129.275.275,0,1,1-.535.129Z" transform="translate(-218.429 -334.231)" fill="#0acd7a"/>
      <path id="Path_36334" data-name="Path 36334" d="M1323.149,825.716a.275.275,0,0,1,.212-.323.269.269,0,0,1,.326.2.281.281,0,0,1-.209.333.276.276,0,0,1-.328-.215Z" transform="translate(-214.415 -335.19)" fill="#0acd7a"/>
      <path id="Path_36335" data-name="Path 36335" d="M1318.862,826.548a.275.275,0,1,1,.541-.1.272.272,0,0,1-.219.321.275.275,0,0,1-.323-.219Z" transform="translate(-210.83 -335.891)" fill="#0acd7a"/>
      <path id="Path_36336" data-name="Path 36336" d="M1314.013,827.446a.278.278,0,0,1,.227-.314.27.27,0,0,1,.315.221.28.28,0,0,1-.226.322.272.272,0,0,1-.317-.229Z" transform="translate(-206.776 -336.647)" fill="#0acd7a"/>
      <path id="Path_36337" data-name="Path 36337" d="M1309.13,828.146a.275.275,0,1,1,.546-.074.275.275,0,1,1-.546.074Z" transform="translate(-202.694 -337.238)" fill="#0acd7a"/>
      <path id="Path_36338" data-name="Path 36338" d="M1304.24,828.8a.273.273,0,0,1,.243-.3.27.27,0,0,1,.3.236.281.281,0,0,1-.242.311.277.277,0,0,1-.3-.247Z" transform="translate(-198.604 -337.792)" fill="#0acd7a"/>
      <path id="Path_36339" data-name="Path 36339" d="M1299.329,829.235a.275.275,0,1,1,.548-.047.275.275,0,1,1-.548.047Z" transform="translate(-194.498 -338.16)" fill="#0acd7a"/>
      <path id="Path_36340" data-name="Path 36340" d="M1294.411,829.634a.275.275,0,0,1,.549-.032.275.275,0,1,1-.549.032Z" transform="translate(-190.385 -338.505)" fill="#0acd7a"/>
      <path id="Path_36341" data-name="Path 36341" d="M1289.482,829.807a.275.275,0,1,1,.55-.02.275.275,0,1,1-.55.02Z" transform="translate(-186.263 -338.65)" fill="#0acd7a"/>
      <path id="Path_36342" data-name="Path 36342" d="M1284.551,829.936a.27.27,0,0,1,.273-.271.277.277,0,0,1,.277.271.274.274,0,0,1-.273.28.28.28,0,0,1-.277-.279Z" transform="translate(-182.139 -338.77)" fill="#0acd7a"/>
      <path id="Path_36343" data-name="Path 36343" d="M1279.618,829.863a.279.279,0,0,1,.281-.271.275.275,0,0,1-.011.551.272.272,0,0,1-.27-.279Z" transform="translate(-178.014 -338.709)" fill="#0acd7a"/>
      <path id="Path_36344" data-name="Path 36344" d="M1275.253,829.751a.27.27,0,0,1,.286-.257.277.277,0,0,1,.263.284.273.273,0,0,1-.287.266.28.28,0,0,1-.263-.293Z" transform="translate(-174.363 -338.626)" fill="#0acd7a"/>
      <path id="Path_36345" data-name="Path 36345" d="M1270.328,829.436a.279.279,0,0,1,.294-.257.275.275,0,0,1-.038.549.272.272,0,0,1-.256-.292Z" transform="translate(-170.243 -338.363)" fill="#0acd7a"/>
      <path id="Path_36346" data-name="Path 36346" d="M1265.414,829.04a.271.271,0,0,1,.3-.243.283.283,0,0,1,.248.3.268.268,0,0,1-.3.246.279.279,0,0,1-.247-.305Z" transform="translate(-166.134 -338.043)" fill="#0acd7a"/>
      <path id="Path_36347" data-name="Path 36347" d="M1260.509,828.484a.28.28,0,0,1,.307-.242.275.275,0,1,1-.067.547.27.27,0,0,1-.24-.3Z" transform="translate(-162.031 -337.578)" fill="#0acd7a"/>
      <path id="Path_36348" data-name="Path 36348" d="M1255.627,827.813a.273.273,0,0,1,.312-.228.282.282,0,0,1,.231.317.269.269,0,0,1-.312.228.278.278,0,0,1-.231-.317Z" transform="translate(-157.947 -337.028)" fill="#0acd7a"/>
      <path id="Path_36349" data-name="Path 36349" d="M1250.753,827.019a.282.282,0,0,1,.319-.227.273.273,0,0,1,.224.316.277.277,0,0,1-.319.227.269.269,0,0,1-.224-.316Z" transform="translate(-153.87 -336.365)" fill="#0acd7a"/>
      <path id="Path_36350" data-name="Path 36350" d="M1245.918,826.075a.274.274,0,0,1,.324-.212.281.281,0,0,1,.214.328.27.27,0,0,1-.324.212.277.277,0,0,1-.214-.328Z" transform="translate(-149.825 -335.585)" fill="#0acd7a"/>
      <path id="Path_36351" data-name="Path 36351" d="M1241.087,825.046a.283.283,0,0,1,.331-.209.272.272,0,0,1,.207.326.279.279,0,0,1-.331.21.268.268,0,0,1-.207-.327Z" transform="translate(-145.783 -334.727)" fill="#0acd7a"/>
      <path id="Path_36352" data-name="Path 36352" d="M1236.311,823.832a.276.276,0,0,1,.335-.2.28.28,0,0,1,.2.337.271.271,0,0,1-.335.2.275.275,0,0,1-.2-.337Z" transform="translate(-141.788 -333.72)" fill="#0acd7a"/>
      <path id="Path_36353" data-name="Path 36353" d="M1232.085,822.717a.282.282,0,0,1,.34-.192.271.271,0,0,1,.191.336.279.279,0,0,1-.341.194.268.268,0,0,1-.19-.338Z" transform="translate(-138.251 -332.791)" fill="#0acd7a"/>
      <path id="Path_36354" data-name="Path 36354" d="M1227.374,821.263a.276.276,0,0,1,.344-.179.279.279,0,0,1,.18.346.272.272,0,0,1-.345.179.275.275,0,0,1-.18-.346Z" transform="translate(-134.31 -331.582)" fill="#0acd7a"/>
      <path id="Path_36355" data-name="Path 36355" d="M1222.679,819.767a.276.276,0,0,1,.348-.169.271.271,0,0,1,.174.344.281.281,0,0,1-.352.177.274.274,0,0,1-.17-.352Z" transform="translate(-130.382 -330.34)" fill="#0acd7a"/>
      <path id="Path_36356" data-name="Path 36356" d="M1218.044,818.061a.275.275,0,0,1,.516.192.275.275,0,1,1-.516-.192Z" transform="translate(-126.504 -328.916)" fill="#0acd7a"/>
      <path id="Path_36357" data-name="Path 36357" d="M1213.441,816.307a.275.275,0,0,1,.511.206.275.275,0,1,1-.511-.206Z" transform="translate(-122.651 -327.457)" fill="#0acd7a"/>
      <path id="Path_36358" data-name="Path 36358" d="M1208.893,814.38a.275.275,0,0,1,.506.217.275.275,0,0,1-.506-.217Z" transform="translate(-118.846 -325.848)" fill="#0acd7a"/>
      <path id="Path_36359" data-name="Path 36359" d="M1204.4,812.37a.271.271,0,0,1,.363-.13.281.281,0,0,1,.134.365.27.27,0,0,1-.365.134.28.28,0,0,1-.132-.37Z" transform="translate(-115.082 -324.175)" fill="#0acd7a"/>
      <path id="Path_36360" data-name="Path 36360" d="M1199.944,810.23a.28.28,0,0,1,.37-.127.275.275,0,0,1-.244.493.271.271,0,0,1-.125-.367Z" transform="translate(-111.357 -322.388)" fill="#0acd7a"/>
      <path id="Path_36361" data-name="Path 36361" d="M1195.566,807.972a.273.273,0,0,1,.37-.112.282.282,0,0,1,.113.375.269.269,0,0,1-.37.112.278.278,0,0,1-.113-.375Z" transform="translate(-107.692 -320.507)" fill="#0acd7a"/>
      <path id="Path_36362" data-name="Path 36362" d="M1191.718,805.892a.28.28,0,0,1,.376-.109.275.275,0,0,1-.268.481.27.27,0,0,1-.107-.372Z" transform="translate(-104.472 -318.77)" fill="#0acd7a"/>
      <path id="Path_36363" data-name="Path 36363" d="M1187.459,803.415a.274.274,0,0,1,.375-.094.282.282,0,0,1,.095.38.269.269,0,0,1-.375.093.277.277,0,0,1-.095-.38Z" transform="translate(-100.907 -316.706)" fill="#0acd7a"/>
      <path id="Path_36364" data-name="Path 36364" d="M1183.23,800.864a.282.282,0,0,1,.382-.09.273.273,0,0,1,.089.377.278.278,0,0,1-.381.09.269.269,0,0,1-.089-.376Z" transform="translate(-97.368 -314.575)" fill="#0acd7a"/>
      <path id="Path_36365" data-name="Path 36365" d="M1179.116,798.153a.275.275,0,0,1,.38-.075.28.28,0,0,1,.075.384.271.271,0,0,1-.38.075.276.276,0,0,1-.075-.384Z" transform="translate(-93.923 -312.315)" fill="#0acd7a"/>
      <path id="Path_36366" data-name="Path 36366" d="M1175.022,795.4a.282.282,0,0,1,.384-.067.271.271,0,0,1,.07.379.279.279,0,0,1-.386.071.269.269,0,0,1-.067-.383Z" transform="translate(-90.496 -310.018)" fill="#0acd7a"/>
      <path id="Path_36367" data-name="Path 36367" d="M1171.057,792.467a.275.275,0,0,1,.441.33.275.275,0,1,1-.441-.33Z" transform="translate(-87.177 -307.569)" fill="#0acd7a"/>
      <path id="Path_36368" data-name="Path 36368" d="M1167.122,789.5a.274.274,0,0,1,.384-.043.27.27,0,0,1,.05.382.28.28,0,0,1-.39.052.277.277,0,0,1-.044-.39Z" transform="translate(-83.881 -305.091)" fill="#0acd7a"/>
      <path id="Path_36369" data-name="Path 36369" d="M1163.3,786.371a.275.275,0,0,1,.425.351.275.275,0,1,1-.425-.351Z" transform="translate(-80.685 -302.48)" fill="#0acd7a"/>
      <path id="Path_36370" data-name="Path 36370" d="M1159.54,783.185a.27.27,0,0,1,.385-.022.275.275,0,0,1-.362.415.281.281,0,0,1-.023-.393Z" transform="translate(-77.533 -299.822)" fill="#0acd7a"/>
      <path id="Path_36371" data-name="Path 36371" d="M1156.295,780.259a.275.275,0,0,1,.407.371.275.275,0,1,1-.407-.371Z" transform="translate(-74.816 -297.377)" fill="#0acd7a"/>
      <path id="Path_36372" data-name="Path 36372" d="M1152.7,776.887a.27.27,0,0,1,.385,0,.278.278,0,0,1,.009.388.272.272,0,0,1-.391.009.28.28,0,0,1,0-.393Z" transform="translate(-71.802 -294.563)" fill="#0acd7a"/>
      <path id="Path_36373" data-name="Path 36373" d="M1149.2,773.412a.279.279,0,0,1,.39,0,.275.275,0,1,1-.392.386.271.271,0,0,1,0-.388Z" transform="translate(-68.872 -291.659)" fill="#0acd7a"/>
      <path id="Path_36374" data-name="Path 36374" d="M1145.792,769.844a.272.272,0,0,1,.386.016.283.283,0,0,1-.015.391.268.268,0,0,1-.387-.015.279.279,0,0,1,.017-.392Z" transform="translate(-66.019 -288.68)" fill="#0acd7a"/>
      <path id="Path_36375" data-name="Path 36375" d="M1142.465,766.2a.281.281,0,0,1,.391.021.275.275,0,0,1-.412.365.27.27,0,0,1,.021-.387Z" transform="translate(-63.234 -285.638)" fill="#0acd7a"/>
      <path id="Path_36376" data-name="Path 36376" d="M1139.265,762.45a.273.273,0,0,1,.385.036.282.282,0,0,1-.036.39.269.269,0,0,1-.385-.036.277.277,0,0,1,.036-.39Z" transform="translate(-60.551 -282.504)" fill="#0acd7a"/>
      <path id="Path_36377" data-name="Path 36377" d="M1136.12,758.653a.282.282,0,0,1,.39.041.273.273,0,0,1-.041.384.278.278,0,0,1-.39-.041.269.269,0,0,1,.041-.384Z" transform="translate(-57.919 -279.332)" fill="#0acd7a"/>
      <path id="Path_36378" data-name="Path 36378" d="M1133.134,754.724a.274.274,0,0,1,.384.055.281.281,0,0,1-.056.387.27.27,0,0,1-.384-.056.276.276,0,0,1,.056-.387Z" transform="translate(-55.414 -276.051)" fill="#0acd7a"/>
      <path id="Path_36379" data-name="Path 36379" d="M1130.183,750.775a.283.283,0,0,1,.386.063.272.272,0,0,1-.06.381.279.279,0,0,1-.388-.061.268.268,0,0,1,.063-.383Z" transform="translate(-52.942 -272.751)" fill="#0acd7a"/>
      <path id="Path_36380" data-name="Path 36380" d="M1127.732,747.156a.275.275,0,0,1,.381.075.28.28,0,0,1-.075.384.27.27,0,0,1-.38-.074.277.277,0,0,1,.075-.384Z" transform="translate(-50.887 -269.728)" fill="#0acd7a"/>
      <path id="Path_36381" data-name="Path 36381" d="M1124.98,743.063a.282.282,0,0,1,.381.082.271.271,0,0,1-.079.378.279.279,0,0,1-.385-.081.268.268,0,0,1,.082-.379Z" transform="translate(-48.581 -266.309)" fill="#0acd7a"/>
      <path id="Path_36382" data-name="Path 36382" d="M1122.422,738.845a.276.276,0,0,1,.377.094.279.279,0,0,1-.094.379.271.271,0,0,1-.377-.094.275.275,0,0,1,.094-.379Z" transform="translate(-46.437 -262.784)" fill="#0acd7a"/>
      <path id="Path_36383" data-name="Path 36383" d="M1095.338,641.334a.272.272,0,0,1,.271.275.283.283,0,0,1-.279.275.268.268,0,0,1-.271-.275.278.278,0,0,1,.279-.275Z" transform="translate(-23.665 -181.267)" fill="#0acd7a"/>
      <path id="Path_36384" data-name="Path 36384" d="M1095.412,636.4a.281.281,0,0,1,.271.282.274.274,0,0,1-.279.268.277.277,0,0,1-.271-.282.269.269,0,0,1,.279-.268Z" transform="translate(-23.727 -177.141)" fill="#0acd7a"/>
      <path id="Path_36385" data-name="Path 36385" d="M1095.611,631.474a.273.273,0,0,1,.257.289.281.281,0,0,1-.293.26.269.269,0,0,1-.257-.289.277.277,0,0,1,.293-.26Z" transform="translate(-23.881 -173.02)" fill="#0acd7a"/>
      <path id="Path_36386" data-name="Path 36386" d="M1095.931,626.549a.282.282,0,0,1,.257.3.273.273,0,0,1-.292.253.278.278,0,0,1-.257-.3.268.268,0,0,1,.292-.253Z" transform="translate(-24.15 -168.901)" fill="#0acd7a"/>
      <path id="Path_36387" data-name="Path 36387" d="M1096.337,622.2a.273.273,0,0,1,.243.3.281.281,0,0,1-.305.246.27.27,0,0,1-.243-.3.277.277,0,0,1,.305-.246Z" transform="translate(-24.477 -165.266)" fill="#0acd7a"/>
      <path id="Path_36388" data-name="Path 36388" d="M1096.9,617.3a.282.282,0,0,1,.242.309.273.273,0,0,1-.3.238.278.278,0,0,1-.242-.309.269.269,0,0,1,.3-.238Z" transform="translate(-24.95 -161.163)" fill="#0acd7a"/>
      <path id="Path_36389" data-name="Path 36389" d="M1097.617,612.423a.275.275,0,0,1,.227.314.28.28,0,0,1-.317.229.27.27,0,0,1-.228-.314.276.276,0,0,1,.317-.229Z" transform="translate(-25.536 -157.085)" fill="#0acd7a"/>
      <path id="Path_36390" data-name="Path 36390" d="M1098.426,607.553a.283.283,0,0,1,.222.32.271.271,0,0,1-.315.222.279.279,0,0,1-.226-.321.268.268,0,0,1,.319-.221Z" transform="translate(-26.211 -153.011)" fill="#0acd7a"/>
      <path id="Path_36391" data-name="Path 36391" d="M1099.407,602.722a.276.276,0,0,1,.212.326.279.279,0,0,1-.327.212.272.272,0,0,1-.212-.326.275.275,0,0,1,.327-.213Z" transform="translate(-27.023 -148.97)" fill="#0acd7a"/>
      <path id="Path_36392" data-name="Path 36392" d="M1100.46,597.906a.275.275,0,0,1,.2.33.27.27,0,0,1-.325.206.281.281,0,0,1-.21-.333.275.275,0,0,1,.335-.2Z" transform="translate(-27.897 -144.94)" fill="#0acd7a"/>
      <path id="Path_36393" data-name="Path 36393" d="M1101.7,593.129a.275.275,0,0,1-.142.532.275.275,0,1,1,.142-.532Z" transform="translate(-28.932 -140.944)" fill="#0acd7a"/>
      <path id="Path_36394" data-name="Path 36394" d="M1103,588.378a.27.27,0,0,1,.181.34.273.273,0,0,1-.337.188.277.277,0,0,1-.191-.343.281.281,0,0,1,.348-.185Z" transform="translate(-30.005 -136.969)" fill="#0acd7a"/>
      <path id="Path_36395" data-name="Path 36395" d="M1104.5,583.667a.275.275,0,0,1-.167.525.275.275,0,0,1,.167-.525Z" transform="translate(-31.258 -133.027)" fill="#0acd7a"/>
      <path id="Path_36396" data-name="Path 36396" d="M1105.852,579.528a.27.27,0,0,1,.164.349.275.275,0,1,1-.52-.181.28.28,0,0,1,.356-.167Z" transform="translate(-32.38 -129.564)" fill="#0acd7a"/>
      <path id="Path_36397" data-name="Path 36397" d="M1107.579,574.893a.279.279,0,0,1,.161.355.275.275,0,1,1-.515-.195.272.272,0,0,1,.354-.161Z" transform="translate(-33.826 -125.686)" fill="#0acd7a"/>
      <path id="Path_36398" data-name="Path 36398" d="M1109.359,570.309a.272.272,0,0,1,.146.357.283.283,0,0,1-.361.15.269.269,0,0,1-.149-.358.279.279,0,0,1,.363-.149Z" transform="translate(-35.302 -121.85)" fill="#0acd7a"/>
      <path id="Path_36399" data-name="Path 36399" d="M1111.314,565.76a.28.28,0,0,1,.144.364.275.275,0,0,1-.5-.221.27.27,0,0,1,.36-.143Z" transform="translate(-36.939 -118.044)" fill="#0acd7a"/>
      <path id="Path_36400" data-name="Path 36400" d="M1113.348,561.285a.273.273,0,0,1,.129.365.282.282,0,0,1-.37.131.27.27,0,0,1-.129-.365.277.277,0,0,1,.369-.13Z" transform="translate(-38.628 -114.298)" fill="#0acd7a"/>
      <path id="Path_36401" data-name="Path 36401" d="M1115.517,556.833a.282.282,0,0,1,.126.371.273.273,0,0,1-.366.124.278.278,0,0,1-.126-.371.269.269,0,0,1,.366-.124Z" transform="translate(-40.444 -110.573)" fill="#0acd7a"/>
      <path id="Path_36402" data-name="Path 36402" d="M1117.8,552.479a.275.275,0,0,1,.111.372.28.28,0,0,1-.375.112.271.271,0,0,1-.111-.372.276.276,0,0,1,.375-.112Z" transform="translate(-42.339 -106.928)" fill="#0acd7a"/>
      <path id="Path_36403" data-name="Path 36403" d="M1120.179,548.141a.282.282,0,0,1,.1.376.271.271,0,0,1-.371.105.279.279,0,0,1-.108-.378.269.269,0,0,1,.375-.1Z" transform="translate(-44.331 -103.297)" fill="#0acd7a"/>
      <path id="Path_36404" data-name="Path 36404" d="M1122.694,543.914a.275.275,0,0,1-.286.47.275.275,0,1,1,.286-.47Z" transform="translate(-46.426 -99.76)" fill="#0acd7a"/>
      <path id="Path_36405" data-name="Path 36405" d="M1124.989,540.185a.28.28,0,0,1,.083.379.271.271,0,0,1-.376.087.28.28,0,0,1-.089-.383.271.271,0,0,1,.381-.084Z" transform="translate(-48.342 -96.637)" fill="#0acd7a"/>
      <path id="Path_36406" data-name="Path 36406" d="M1127.711,536.083a.275.275,0,0,1-.309.456.275.275,0,0,1,.309-.456Z" transform="translate(-50.612 -93.204)" fill="#0acd7a"/>
      <path id="Path_36407" data-name="Path 36407" d="M1130.5,532.02a.275.275,0,0,1-.319.448.275.275,0,1,1,.319-.448Z" transform="translate(-52.942 -89.802)" fill="#0acd7a"/>
      <path id="Path_36408" data-name="Path 36408" d="M1133.445,528.054a.275.275,0,1,1-.33.441.275.275,0,0,1,.33-.441Z" transform="translate(-55.399 -86.483)" fill="#0acd7a"/>
      <path id="Path_36409" data-name="Path 36409" d="M1136.435,524.152a.271.271,0,0,1,.04.383.279.279,0,0,1-.385.045.272.272,0,0,1-.046-.388.28.28,0,0,1,.391-.041Z" transform="translate(-57.89 -83.215)" fill="#0acd7a"/>
      <path id="Path_36410" data-name="Path 36410" d="M1139.588,520.332a.279.279,0,0,1,.036.389.275.275,0,0,1-.422-.353.271.271,0,0,1,.386-.035Z" transform="translate(-60.528 -80.017)" fill="#0acd7a"/>
      <path id="Path_36411" data-name="Path 36411" d="M1142.782,516.6a.272.272,0,0,1,.021.386.283.283,0,0,1-.391.022.268.268,0,0,1-.022-.386.279.279,0,0,1,.392-.021Z" transform="translate(-63.189 -76.895)" fill="#0acd7a"/>
      <path id="Path_36412" data-name="Path 36412" d="M1146.123,512.94a.281.281,0,0,1,.016.391.274.274,0,0,1-.387.016.277.277,0,0,1-.016-.391.27.27,0,0,1,.387-.016Z" transform="translate(-65.986 -73.827)" fill="#0acd7a"/>
      <path id="Path_36413" data-name="Path 36413" d="M1149.521,509.4a.274.274,0,0,1,0,.387.282.282,0,0,1-.392,0,.27.27,0,0,1,0-.387.277.277,0,0,1,.392,0Z" transform="translate(-68.817 -70.859)" fill="#0acd7a"/>
      <path id="Path_36414" data-name="Path 36414" d="M1152.633,506.3a.281.281,0,0,1,0,.392.274.274,0,0,1-.387,0,.277.277,0,0,1,0-.392.269.269,0,0,1,.387,0Z" transform="translate(-71.422 -68.264)" fill="#0acd7a"/>
      <path id="Path_36415" data-name="Path 36415" d="M1156.206,502.93a.274.274,0,0,1-.017.387.281.281,0,0,1-.391-.018.27.27,0,0,1,.017-.387.277.277,0,0,1,.391.018Z" transform="translate(-74.4 -65.443)" fill="#0acd7a"/>
      <path id="Path_36416" data-name="Path 36416" d="M1159.883,499.6a.283.283,0,0,1-.023.391.272.272,0,0,1-.385-.022.278.278,0,0,1,.023-.392.268.268,0,0,1,.386.023Z" transform="translate(-77.478 -62.658)" fill="#0acd7a"/>
      <path id="Path_36417" data-name="Path 36417" d="M1163.64,496.444a.275.275,0,0,1-.037.386.28.28,0,0,1-.389-.037.271.271,0,0,1,.037-.386.275.275,0,0,1,.389.037Z" transform="translate(-80.61 -60.009)" fill="#0acd7a"/>
      <path id="Path_36418" data-name="Path 36418" d="M1167.478,493.31a.28.28,0,0,1-.046.386.271.271,0,0,1-.383-.042.28.28,0,0,1,.043-.391.27.27,0,0,1,.387.047Z" transform="translate(-83.82 -57.383)" fill="#0acd7a"/>
      <path id="Path_36419" data-name="Path 36419" d="M1171.4,490.354a.275.275,0,1,1-.442.328.275.275,0,0,1,.442-.328Z" transform="translate(-87.096 -54.907)" fill="#0acd7a"/>
      <path id="Path_36420" data-name="Path 36420" d="M1175.392,487.435a.275.275,0,0,1-.449.318.281.281,0,0,1,.063-.389.278.278,0,0,1,.386.071Z" transform="translate(-90.429 -52.459)" fill="#0acd7a"/>
      <path id="Path_36421" data-name="Path 36421" d="M1179.475,484.682a.275.275,0,0,1-.458.305.275.275,0,0,1,.458-.305Z" transform="translate(-93.841 -50.154)" fill="#0acd7a"/>
      <path id="Path_36422" data-name="Path 36422" d="M1183.605,481.988a.27.27,0,0,1-.09.374.275.275,0,0,1-.293-.466.281.281,0,0,1,.383.092Z" transform="translate(-97.29 -47.893)" fill="#0acd7a"/>
      <path id="Path_36423" data-name="Path 36423" d="M1187.348,479.732a.275.275,0,0,1-.473.282.275.275,0,0,1,.473-.282Z" transform="translate(-100.418 -46.005)" fill="#0acd7a"/>
      <path id="Path_36424" data-name="Path 36424" d="M1191.607,477.246a.27.27,0,0,1-.108.369.275.275,0,0,1-.27-.48.281.281,0,0,1,.378.111Z" transform="translate(-103.976 -43.918)" fill="#0acd7a"/>
      <path id="Path_36425" data-name="Path 36425" d="M1195.956,474.915a.275.275,0,0,1-.486.258.275.275,0,0,1,.486-.258Z" transform="translate(-107.612 -41.966)" fill="#0acd7a"/>
      <path id="Path_36426" data-name="Path 36426" d="M1200.336,472.666a.271.271,0,0,1-.127.364.28.28,0,0,1-.368-.124.271.271,0,0,1,.124-.369.28.28,0,0,1,.371.13Z" transform="translate(-111.27 -40.076)" fill="#0acd7a"/>
      <path id="Path_36427" data-name="Path 36427" d="M1204.805,470.557a.28.28,0,0,1-.134.367.275.275,0,1,1-.231-.5.271.271,0,0,1,.365.133Z" transform="translate(-115.008 -38.311)" fill="#0acd7a"/>
      <path id="Path_36428" data-name="Path 36428" d="M1209.3,468.55a.271.271,0,0,1-.146.357.283.283,0,0,1-.362-.146.268.268,0,0,1,.145-.359.279.279,0,0,1,.363.149Z" transform="translate(-118.757 -36.624)" fill="#0acd7a"/>
      <path id="Path_36429" data-name="Path 36429" d="M1213.871,466.67a.28.28,0,0,1-.153.36.275.275,0,0,1-.2-.511.27.27,0,0,1,.357.151Z" transform="translate(-122.586 -35.049)" fill="#0acd7a"/>
      <path id="Path_36430" data-name="Path 36430" d="M1218.462,464.908a.272.272,0,0,1-.164.349.283.283,0,0,1-.355-.167.268.268,0,0,1,.164-.349.279.279,0,0,1,.355.167Z" transform="translate(-126.419 -33.567)" fill="#0acd7a"/>
      <path id="Path_36431" data-name="Path 36431" d="M1223.127,463.263a.281.281,0,0,1-.171.352.275.275,0,1,1-.177-.521.27.27,0,0,1,.348.169Z" transform="translate(-130.323 -32.189)" fill="#0acd7a"/>
      <path id="Path_36432" data-name="Path 36432" d="M1227.267,461.908a.271.271,0,0,1-.181.34.283.283,0,0,1-.346-.183.268.268,0,0,1,.181-.342.279.279,0,0,1,.347.185Z" transform="translate(-133.78 -31.047)" fill="#0acd7a"/>
      <path id="Path_36433" data-name="Path 36433" d="M1232.006,460.5a.28.28,0,0,1-.188.343.275.275,0,0,1-.152-.529.271.271,0,0,1,.34.187Z" transform="translate(-137.745 -29.869)" fill="#0acd7a"/>
      <path id="Path_36434" data-name="Path 36434" d="M1236.754,459.2a.271.271,0,0,1-.2.331.283.283,0,0,1-.336-.2.268.268,0,0,1,.2-.332.279.279,0,0,1,.337.2Z" transform="translate(-141.711 -28.775)" fill="#0acd7a"/>
      <path id="Path_36435" data-name="Path 36435" d="M1241.558,458.041a.28.28,0,0,1-.205.333.275.275,0,0,1-.124-.536.271.271,0,0,1,.33.2Z" transform="translate(-145.73 -27.8)" fill="#0acd7a"/>
      <path id="Path_36436" data-name="Path 36436" d="M1246.368,456.994a.272.272,0,0,1-.215.321.283.283,0,0,1-.326-.219.268.268,0,0,1,.216-.32.278.278,0,0,1,.326.219Z" transform="translate(-149.749 -26.914)" fill="#0acd7a"/>
      <path id="Path_36437" data-name="Path 36437" d="M1251.223,456.075a.281.281,0,0,1-.222.322.275.275,0,0,1-.1-.542.27.27,0,0,1,.319.22Z" transform="translate(-153.81 -26.145)" fill="#0acd7a"/>
      <path id="Path_36438" data-name="Path 36438" d="M1256.085,455.284a.273.273,0,0,1-.232.309.282.282,0,0,1-.314-.235.269.269,0,0,1,.232-.309.278.278,0,0,1,.314.235Z" transform="translate(-157.874 -25.472)" fill="#0acd7a"/>
      <path id="Path_36439" data-name="Path 36439" d="M1260.978,454.614a.281.281,0,0,1-.239.31.273.273,0,0,1-.307-.236.277.277,0,0,1,.239-.31.269.269,0,0,1,.307.236Z" transform="translate(-161.967 -24.911)" fill="#0acd7a"/>
      <path id="Path_36440" data-name="Path 36440" d="M1265.877,454.085a.273.273,0,0,1-.248.3.282.282,0,0,1-.3-.251.269.269,0,0,1,.248-.3.277.277,0,0,1,.3.251Z" transform="translate(-166.062 -24.458)" fill="#0acd7a"/>
      <path id="Path_36441" data-name="Path 36441" d="M1270.233,453.711a.281.281,0,0,1-.254.3.274.274,0,0,1-.295-.251.277.277,0,0,1,.254-.3.27.27,0,0,1,.294.251Z" transform="translate(-169.705 -24.145)" fill="#0acd7a"/>
      <path id="Path_36442" data-name="Path 36442" d="M1275.154,453.422a.273.273,0,0,1-.262.285.282.282,0,0,1-.288-.265.269.269,0,0,1,.262-.284.277.277,0,0,1,.288.265Z" transform="translate(-173.82 -23.892)" fill="#0acd7a"/>
      <path id="Path_36443" data-name="Path 36443" d="M1280.086,453.248a.282.282,0,0,1-.269.285.273.273,0,0,1-.281-.266.278.278,0,0,1,.269-.285.269.269,0,0,1,.281.266Z" transform="translate(-177.945 -23.746)" fill="#0acd7a"/>
      <path id="Path_36444" data-name="Path 36444" d="M1285.017,453.229a.274.274,0,0,1-.277.271.281.281,0,0,1-.274-.279.27.27,0,0,1,.277-.271.277.277,0,0,1,.274.279Z" transform="translate(-182.068 -23.719)" fill="#0acd7a"/>
      <path id="Path_36445" data-name="Path 36445" d="M1289.949,453.3a.283.283,0,0,1-.284.27.272.272,0,0,1-.267-.279.278.278,0,0,1,.284-.271.268.268,0,0,1,.267.28Z" transform="translate(-186.194 -23.781)" fill="#0acd7a"/>
      <path id="Path_36446" data-name="Path 36446" d="M1294.876,453.556a.275.275,0,0,1-.291.257.28.28,0,0,1-.259-.293.271.271,0,0,1,.291-.257.275.275,0,0,1,.259.293Z" transform="translate(-190.314 -23.98)" fill="#0acd7a"/>
      <path id="Path_36447" data-name="Path 36447" d="M1299.8,453.883a.28.28,0,0,1-.3.251.271.271,0,0,1-.252-.292.28.28,0,0,1,.3-.257.27.27,0,0,1,.251.3Z" transform="translate(-194.429 -24.25)" fill="#0acd7a"/>
      <path id="Path_36448" data-name="Path 36448" d="M1304.7,454.4a.275.275,0,1,1-.547-.062.275.275,0,0,1,.547.062Z" transform="translate(-198.534 -24.676)" fill="#0acd7a"/>
      <path id="Path_36449" data-name="Path 36449" d="M1309.6,454.977a.273.273,0,0,1-.31.23.27.27,0,0,1-.236-.3.281.281,0,0,1,.311-.241.278.278,0,0,1,.234.315Z" transform="translate(-202.628 -25.149)" fill="#0acd7a"/>
      <path id="Path_36450" data-name="Path 36450" d="M1313.915,455.67a.275.275,0,1,1-.543-.089.275.275,0,1,1,.543.089Z" transform="translate(-206.24 -25.726)" fill="#0acd7a"/>
      <path id="Path_36451" data-name="Path 36451" d="M1318.774,456.488a.275.275,0,0,1-.541-.1.275.275,0,1,1,.541.1Z" transform="translate(-210.304 -26.401)" fill="#0acd7a"/>
      <path id="Path_36452" data-name="Path 36452" d="M1323.6,457.513a.275.275,0,1,1-.538-.116.275.275,0,0,1,.538.116Z" transform="translate(-214.345 -27.257)" fill="#0acd7a"/>
      <path id="Path_36453" data-name="Path 36453" d="M1328.414,458.583a.27.27,0,0,1-.331.2.277.277,0,0,1-.2-.33.273.273,0,0,1,.333-.2.28.28,0,0,1,.2.338Z" transform="translate(-218.37 -28.139)" fill="#0acd7a"/>
      <path id="Path_36454" data-name="Path 36454" d="M1333.183,459.861a.279.279,0,0,1-.338.195.275.275,0,1,1,.144-.531.272.272,0,0,1,.194.336Z" transform="translate(-222.358 -29.209)" fill="#0acd7a"/>
      <path id="Path_36455" data-name="Path 36455" d="M1337.933,461.2a.272.272,0,0,1-.341.18.283.283,0,0,1-.184-.345.268.268,0,0,1,.342-.182.278.278,0,0,1,.183.347Z" transform="translate(-226.335 -30.314)" fill="#0acd7a"/>
      <path id="Path_36456" data-name="Path 36456" d="M1342.626,462.705a.281.281,0,0,1-.348.178.275.275,0,1,1,.172-.523.27.27,0,0,1,.177.345Z" transform="translate(-230.258 -31.578)" fill="#0acd7a"/>
      <path id="Path_36457" data-name="Path 36457" d="M1347.3,464.3a.273.273,0,0,1-.351.163.282.282,0,0,1-.165-.355.269.269,0,0,1,.351-.163.277.277,0,0,1,.165.355Z" transform="translate(-234.17 -32.902)" fill="#0acd7a"/>
      <path id="Path_36458" data-name="Path 36458" d="M1351.909,466.036a.282.282,0,0,1-.357.161.272.272,0,0,1-.158-.353.277.277,0,0,1,.357-.161.269.269,0,0,1,.158.353Z" transform="translate(-238.025 -34.353)" fill="#0acd7a"/>
      <path id="Path_36459" data-name="Path 36459" d="M1355.967,467.668a.274.274,0,0,1-.359.146.281.281,0,0,1-.147-.363.27.27,0,0,1,.358-.146.277.277,0,0,1,.148.363Z" transform="translate(-241.425 -35.706)" fill="#0acd7a"/>
      <path id="Path_36460" data-name="Path 36460" d="M1360.489,469.621a.282.282,0,0,1-.365.143.273.273,0,0,1-.141-.36.278.278,0,0,1,.365-.143.268.268,0,0,1,.141.36Z" transform="translate(-245.205 -37.341)" fill="#0acd7a"/>
      <path id="Path_36461" data-name="Path 36461" d="M1364.966,471.7a.275.275,0,0,1-.366.128.28.28,0,0,1-.129-.369.271.271,0,0,1,.366-.128.275.275,0,0,1,.129.369Z" transform="translate(-248.955 -39.07)" fill="#0acd7a"/>
      <path id="Path_36462" data-name="Path 36462" d="M1369.386,473.877a.279.279,0,0,1-.37.119.271.271,0,0,1-.123-.366.28.28,0,0,1,.373-.125.271.271,0,0,1,.12.371Z" transform="translate(-252.652 -40.887)" fill="#0acd7a"/>
      <path id="Path_36463" data-name="Path 36463" d="M1373.744,476.2a.275.275,0,1,1-.483-.264.275.275,0,1,1,.483.264Z" transform="translate(-256.301 -42.82)" fill="#0acd7a"/>
      <path id="Path_36464" data-name="Path 36464" d="M1378.052,478.588a.275.275,0,0,1-.477-.275.275.275,0,1,1,.477.275Z" transform="translate(-259.906 -44.813)" fill="#0acd7a"/>
      <path id="Path_36465" data-name="Path 36465" d="M1382.278,481.141a.275.275,0,1,1-.47-.286.275.275,0,1,1,.47.286Z" transform="translate(-263.443 -46.945)" fill="#0acd7a"/>
      <path id="Path_36466" data-name="Path 36466" d="M1386.463,483.742a.271.271,0,0,1-.378.077.279.279,0,0,1-.082-.379.272.272,0,0,1,.381-.082.28.28,0,0,1,.078.385Z" transform="translate(-266.949 -49.11)" fill="#0acd7a"/>
      <path id="Path_36467" data-name="Path 36467" d="M1390.544,486.519a.279.279,0,0,1-.384.073.275.275,0,1,1,.311-.454.271.271,0,0,1,.072.381Z" transform="translate(-270.362 -51.435)" fill="#0acd7a"/>
      <path id="Path_36468" data-name="Path 36468" d="M1394.135,489.006a.271.271,0,0,1-.381.058.281.281,0,0,1-.062-.384.27.27,0,0,1,.384-.062.279.279,0,0,1,.06.388Z" transform="translate(-273.373 -53.503)" fill="#0acd7a"/>
      <path id="Path_36469" data-name="Path 36469" d="M1398.072,491.978a.28.28,0,0,1-.387.054.275.275,0,0,1,.333-.438.271.271,0,0,1,.054.384Z" transform="translate(-276.664 -55.991)" fill="#0acd7a"/>
      <path id="Path_36470" data-name="Path 36470" d="M1401.972,495a.273.273,0,0,1-.385.039.282.282,0,0,1-.04-.39.268.268,0,0,1,.385-.039.278.278,0,0,1,.04.39Z" transform="translate(-279.934 -58.508)" fill="#0acd7a"/>
      <path id="Path_36471" data-name="Path 36471" d="M1405.756,498.163a.281.281,0,0,1-.39.034.273.273,0,0,1-.034-.385.277.277,0,0,1,.39-.035.27.27,0,0,1,.034.386Z" transform="translate(-283.096 -61.155)" fill="#0acd7a"/>
      <path id="Path_36472" data-name="Path 36472" d="M1409.48,501.4a.274.274,0,0,1-.387.02.281.281,0,0,1-.02-.391.27.27,0,0,1,.387-.02.277.277,0,0,1,.02.391Z" transform="translate(-286.22 -63.849)" fill="#0acd7a"/>
      <path id="Path_36473" data-name="Path 36473" d="M1413.107,504.739a.283.283,0,0,1-.391.014.272.272,0,0,1-.015-.386.278.278,0,0,1,.392-.015.268.268,0,0,1,.014.387Z" transform="translate(-289.251 -66.646)" fill="#0acd7a"/>
      <path id="Path_36474" data-name="Path 36474" d="M1416.645,508.174a.276.276,0,0,1-.388,0,.279.279,0,0,1,0-.391.272.272,0,0,1,.388,0,.275.275,0,0,1,0,.39Z" transform="translate(-292.22 -69.509)" fill="#0acd7a"/>
      <path id="Path_36475" data-name="Path 36475" d="M1420.1,511.692a.278.278,0,0,1-.387-.01.271.271,0,0,1,0-.385.28.28,0,0,1,.393,0,.272.272,0,0,1-.01.391Z" transform="translate(-295.113 -72.45)" fill="#0acd7a"/>
      <path id="Path_36476" data-name="Path 36476" d="M1423.448,515.316a.275.275,0,1,1-.369-.408.275.275,0,1,1,.369.408Z" transform="translate(-297.916 -75.474)" fill="#0acd7a"/>
      <path id="Path_36477" data-name="Path 36477" d="M1426.355,518.578a.276.276,0,0,1-.385-.03.27.27,0,0,1,.023-.384.28.28,0,0,1,.393.024.274.274,0,0,1-.031.39Z" transform="translate(-300.351 -78.2)" fill="#0acd7a"/>
      <path id="Path_36478" data-name="Path 36478" d="M1429.513,522.364a.275.275,0,1,1-.349-.426.275.275,0,0,1,.349.426Z" transform="translate(-302.997 -81.362)" fill="#0acd7a"/>
      <path id="Path_36479" data-name="Path 36479" d="M1432.609,526.207a.275.275,0,0,1-.337-.435.275.275,0,1,1,.337.435Z" transform="translate(-305.593 -84.571)" fill="#0acd7a"/>
      <path id="Path_36480" data-name="Path 36480" d="M1435.554,530.16a.275.275,0,0,1-.328-.442.275.275,0,1,1,.328.442Z" transform="translate(-308.058 -87.875)" fill="#0acd7a"/>
      <path id="Path_36481" data-name="Path 36481" d="M1438.454,534.154a.271.271,0,0,1-.379-.072.28.28,0,0,1,.068-.383.271.271,0,0,1,.384.068.28.28,0,0,1-.073.386Z" transform="translate(-310.493 -91.208)" fill="#0acd7a"/>
      <path id="Path_36482" data-name="Path 36482" d="M1441.178,538.263a.279.279,0,0,1-.383-.078.275.275,0,1,1,.46-.3.271.271,0,0,1-.077.38Z" transform="translate(-312.77 -94.645)" fill="#0acd7a"/>
      <path id="Path_36483" data-name="Path 36483" d="M1443.855,542.4a.272.272,0,0,1-.375-.091.283.283,0,0,1,.092-.38.268.268,0,0,1,.376.09.279.279,0,0,1-.093.382Z" transform="translate(-315.021 -98.096)" fill="#0acd7a"/>
      <path id="Path_36484" data-name="Path 36484" d="M1446.369,546.65a.281.281,0,0,1-.379-.1.275.275,0,0,1,.475-.278.27.27,0,0,1-.1.375Z" transform="translate(-317.12 -101.653)" fill="#0acd7a"/>
      <path id="Path_36485" data-name="Path 36485" d="M1157.044,637.165a32.338,32.338,0,0,1-60.433,16.193l-3.292.882a2.938,2.938,0,0,0,1.038.641h0a2.673,2.673,0,0,1,1.764,2.75h0a2.946,2.946,0,0,0,2.543,3.177h0a2.673,2.673,0,0,1,2.3,2.324h0a2.946,2.946,0,0,0,3.148,2.579h0a2.673,2.673,0,0,1,2.73,1.795h0a2.946,2.946,0,0,0,3.615,1.868h0a2.673,2.673,0,0,1,3.044,1.188h0a2.946,2.946,0,0,0,3.925,1.076h0a2.672,2.672,0,0,1,3.224.53h0a2.946,2.946,0,0,0,4.063.236h0a2.673,2.673,0,0,1,3.264-.152h0a2.947,2.947,0,0,0,4.023-.614h0a2.673,2.673,0,0,1,3.161-.828h0a2.946,2.946,0,0,0,3.808-1.437h0a2.673,2.673,0,0,1,2.92-1.467h0a2.947,2.947,0,0,0,3.426-2.2h0a2.673,2.673,0,0,1,2.551-2.042h0a2.946,2.946,0,0,0,2.894-2.861h0a2.673,2.673,0,0,1,2.071-2.528h0a2.946,2.946,0,0,0,2.236-3.4h0a2.673,2.673,0,0,1,1.5-2.9h0a2.946,2.946,0,0,0,1.48-3.791h0a2.673,2.673,0,0,1,.864-3.151h0a2.946,2.946,0,0,0,.66-4.016h0a2.673,2.673,0,0,1,.19-3.262h0a2.935,2.935,0,0,0,.691-1.5l-3.4.912Z" transform="translate(-22.209 -177.017)" fill="#0acd7a"/>
      <path id="Path_36486" data-name="Path 36486" d="M1070.165,460.529a32.338,32.338,0,0,1,60.433-16.193l3.292-.882a2.93,2.93,0,0,0-1.038-.641h0a2.673,2.673,0,0,1-1.764-2.75h0a2.946,2.946,0,0,0-2.543-3.177h0a2.673,2.673,0,0,1-2.3-2.324h0a2.946,2.946,0,0,0-3.148-2.579h0a2.673,2.673,0,0,1-2.73-1.8h0a2.946,2.946,0,0,0-3.615-1.868h0a2.672,2.672,0,0,1-3.043-1.188h0a2.946,2.946,0,0,0-3.925-1.076h0a2.673,2.673,0,0,1-3.224-.53h0a2.946,2.946,0,0,0-4.063-.236h0a2.673,2.673,0,0,1-3.264.152h0a2.947,2.947,0,0,0-4.023.614h0a2.673,2.673,0,0,1-3.161.828h0a2.946,2.946,0,0,0-3.807,1.437h0a2.673,2.673,0,0,1-2.919,1.467h0a2.946,2.946,0,0,0-3.426,2.2h0a2.673,2.673,0,0,1-2.551,2.042h0a2.946,2.946,0,0,0-2.894,2.861h0a2.673,2.673,0,0,1-2.071,2.527h0a2.946,2.946,0,0,0-2.236,3.4h0a2.673,2.673,0,0,1-1.5,2.9h0a2.946,2.946,0,0,0-1.48,3.791h0a2.673,2.673,0,0,1-.864,3.151h0a2.946,2.946,0,0,0-.66,4.016h0a2.673,2.673,0,0,1-.19,3.262h0a2.934,2.934,0,0,0-.691,1.5l3.4-.912Z" transform="translate(0)" fill="#0acd7a"/>
      <path id="Path_36487" data-name="Path 36487" d="M1134.6,548.126l-67.2,18.006a.327.327,0,0,1-.169-.633l67.2-18.006a.327.327,0,0,1,.169.632Z" transform="translate(-0.192 -102.778)" fill="#0acd7a"/>
      <path id="Path_36488" data-name="Path 36488" d="M1155.307,625.4l-67.2,18.006a.327.327,0,0,1-.169-.633l67.2-18.005a.327.327,0,1,1,.169.633Z" transform="translate(-17.509 -167.403)" fill="#0acd7a"/>
      <path id="Path_36489" data-name="Path 36489" d="M1108.474,606.273l1.119-.3.313-1.119.633.974,1.155-.043-.728.9.4,1.086-1.08-.416-.912.716.063-1.157-.963-.642Z" transform="translate(-34.884 -150.759)" fill="#0acd7a"/>
      <path id="Path_36490" data-name="Path 36490" d="M1123.847,551.294l-.38-.2-.375.716,1.357,1.67.025-.043-2.147-.166-.379.724.384.2.138-.261,1.954,1.022-.138.261.387.2.485-.931-.387-.2-.132.256-1.495-.782-.025.043,2.231.147.025-.043-1.393-1.756-.026.05,1.5.785-.14.265.387.2.491-.935-.387-.2-.133.253-1.954-1.022.133-.253,0-.005Z" transform="translate(-46.153 -105.799)" fill="#0acd7a"/>
      <path id="Path_36491" data-name="Path 36491" d="M1134.013,543.657l-.359-.23-.561.869.362.233.156-.243,1.841,1.187-.156.243.359.233.561-.869-.359-.234-.153.239-1.841-1.187.153-.239,0,0Z" transform="translate(-55.474 -99.386)" fill="#0acd7a"/>
      <path id="Path_36492" data-name="Path 36492" d="M1141.442,534.887a1.727,1.727,0,0,1-.144.15c-.19.2-.365.236-.561.095a.426.426,0,0,1-.109-.59.513.513,0,0,1,.036-.049.647.647,0,0,1,.292-.213l.276.206.288-.387-.4-.3a1.076,1.076,0,0,0-.788.442c-.016.017-.027.036-.037.049a.88.88,0,0,0,.168,1.2.915.915,0,0,0,1.166-.21c.049-.049.092-.1.145-.147.226-.226.445-.32.688-.138a.513.513,0,0,1,.115.737c-.017.024-.036.049-.071.095a.746.746,0,0,1-.417.276l-.243-.179-.291.391.333.247.01-.013a1.187,1.187,0,0,0,.909-.494l.073-.1a.929.929,0,0,0-.167-1.3.943.943,0,0,0-1.275.223Z" transform="translate(-61.36 -91.337)" fill="#0acd7a"/>
      <path id="Path_36493" data-name="Path 36493" d="M1150.66,523.537a1.084,1.084,0,0,1-.154.14c-.205.18-.383.2-.565.043a.422.422,0,0,1-.058-.6c.014-.02.025-.03.037-.046a.679.679,0,0,1,.31-.185l.259.227.319-.359-.372-.332a1.1,1.1,0,0,0-.825.376c-.012.016-.027.034-.037.046a.875.875,0,0,0,.068,1.211.91.91,0,0,0,1.177-.108c.057-.045.1-.09.154-.137.248-.205.472-.278.7-.076a.51.51,0,0,1,.05.741c-.021.022-.04.047-.078.09a.735.735,0,0,1-.441.237l-.224-.2-.324.367.31.273.01-.013a1.18,1.18,0,0,0,.95-.413c.051-.057.013-.013.081-.091a.93.93,0,0,0-.054-1.31.945.945,0,0,0-1.295.113Z" transform="translate(-69.078 -81.823)" fill="#0acd7a"/>
      <path id="Path_36494" data-name="Path 36494" d="M1158.018,514.079l-.3-.3-.734.73.3.3.2-.2,1.544,1.557-.2.2.3.3.734-.73-.3-.3-.2.2-1.544-1.557.2-.2,0,0Z" transform="translate(-75.456 -74.589)" fill="#0acd7a"/>
      <path id="Path_36495" data-name="Path 36495" d="M1169.336,506.16a1.1,1.1,0,1,1,.086-1.512,1.045,1.045,0,0,1-.086,1.512Zm-1.684-2.017a1.528,1.528,0,1,0,2.133.2,1.509,1.509,0,0,0-2.133-.2Z" transform="translate(-83.947 -66.239)" fill="#0acd7a"/>
      <path id="Path_36496" data-name="Path 36496" d="M1182.991,488.463l-.237-.368-.885.57.238.371.233-.151,1.03,1.593.036-.026-2.361-1.246-.738.468.238.371.256-.164,1.194,1.848-.256.164.236.365.887-.574-.236-.365-.236.152-1.031-1.6-.035.029,2.386,1.229.711-.457-.242-.374-.256.164-1.187-1.837.256-.164v0Z" transform="translate(-94.959 -53.111)" fill="#0acd7a"/>
      <path id="Path_36497" data-name="Path 36497" d="M1231.715,470.415l.735.9,1.146-.175-.624.978.518,1.034-1.12-.293-.823.814-.069-1.155-1.03-.535,1.08-.421.188-1.144Z" transform="translate(-136.892 -38.325)" fill="#0acd7a"/>
      <path id="Path_36498" data-name="Path 36498" d="M1286.8,464.812l.024-.428-.81-.047-.957,1.927.05,0-.74-2.023-.816-.045-.025.435.3.016-.122,2.2-.3-.016-.025.435,1.05.058.025-.435-.288-.015.092-1.685-.05,0,.791,2.091.05,0,1.021-1.994-.056,0-.094,1.69-.3-.019-.025.435,1.054.06.025-.435-.288-.015.122-2.2.288.015v-.007Z" transform="translate(-181.163 -33.127)" fill="#0acd7a"/>
      <path id="Path_36499" data-name="Path 36499" d="M1306.024,466.628l.063-.419-1.022-.151-.064.426.285.042-.322,2.166-.285-.042-.064.426,1.022.151.064-.426-.281-.04.323-2.166.281.04v-.007Z" transform="translate(-198.918 -34.682)" fill="#0acd7a"/>
      <path id="Path_36500" data-name="Path 36500" d="M1314.249,469.648a1.048,1.048,0,0,1-.2-.072c-.264-.087-.368-.231-.317-.469a.422.422,0,0,1,.494-.343c.024,0,.038.006.059.011a.681.681,0,0,1,.315.179l-.072.336.47.1.1-.486a1.1,1.1,0,0,0-.731-.539l-.059-.011a.878.878,0,0,0-1.024.654.907.907,0,0,0,.672.973c.063.026.124.043.19.071.3.113.478.27.413.568a.515.515,0,0,1-.625.411l-.115-.025a.783.783,0,0,1-.425-.268l.063-.294-.476-.1-.089.406.018.005a1.188,1.188,0,0,0,.827.625c.074.016.017,0,.119.024a.93.93,0,0,0,1.116-.691.94.94,0,0,0-.731-1.067Z" transform="translate(-205.848 -36.59)" fill="#0acd7a"/>
      <path id="Path_36501" data-name="Path 36501" d="M1327.807,473.338a.96.96,0,0,1-.188-.088c-.254-.11-.346-.26-.277-.493a.428.428,0,0,1,.522-.3l.057.017a.635.635,0,0,1,.3.2l-.1.33.46.144.146-.474a1.1,1.1,0,0,0-.684-.6c-.022-.007-.043-.011-.058-.018a.879.879,0,0,0-1.078.563.909.909,0,0,0,.588,1.025c.062.036.121.057.185.089.288.14.452.311.362.6a.515.515,0,0,1-.656.357l-.115-.035a.79.79,0,0,1-.4-.3l.088-.287-.464-.146-.121.4.015.006a1.192,1.192,0,0,0,.769.693c.072.024.018.005.115.035a.931.931,0,0,0,1.172-.594.943.943,0,0,0-.638-1.128Z" transform="translate(-217.116 -39.671)" fill="#0acd7a"/>
      <path id="Path_36502" data-name="Path 36502" d="M1340.269,475.986l.151-.4-.966-.37-.153.4.268.1-.78,2.048-.268-.1-.153.4.966.371.153-.4-.268-.1.779-2.048.268.1,0,0Z" transform="translate(-227.147 -42.343)" fill="#0acd7a"/>
      <path id="Path_36503" data-name="Path 36503" d="M1349.605,483.9a1.1,1.1,0,1,1,1.409-.545,1.043,1.043,0,0,1-1.409.545Zm1.142-2.366a1.528,1.528,0,1,0,.694,2.025,1.518,1.518,0,0,0-.694-2.025Z" transform="translate(-235.705 -47.504)" fill="#0acd7a"/>
      <path id="Path_36504" data-name="Path 36504" d="M1367,489.952l.235-.366-.884-.57-.238.367.231.149-1.026,1.6.042.022.156-2.665-.731-.476-.238.367.255.165-1.191,1.852-.255-.165-.235.366.888.573.235-.366-.236-.154,1.029-1.6-.041-.019-.136,2.679.713.458.239-.374-.255-.166,1.184-1.84.255.166Z" transform="translate(-247.852 -53.038)" fill="#0acd7a"/>
      <path id="Path_36505" data-name="Path 36505" d="M1406.605,526.8l-.512,1.04.633.971-1.151-.163-.728.9-.194-1.141L1403.57,528l1.022-.538.062-1.16.833.808,1.118-.3Z" transform="translate(-281.676 -85.061)" fill="#0acd7a"/>
      <path id="Path_36506" data-name="Path 36506" d="M1443.8,662.339l-1.119.3-.317,1.116-.633-.97-1.155.043.731-.9-.4-1.082,1.079.413.911-.719-.058,1.159.963.642Z" transform="translate(-312.623 -197.327)" fill="#0acd7a"/>
      <path id="Path_36507" data-name="Path 36507" d="M1423.231,711.652l.376.2.375-.717-1.359-1.666-.022.042,2.143.164.379-.725-.383-.2-.138.261-1.954-1.022.138-.261-.387-.2-.485.931.387.2.132-.256,1.5.782.024-.043-2.231-.147-.022.042,1.4,1.755.024-.046-1.5-.784.14-.265-.387-.2-.488.932.387.2.133-.253,1.954,1.022-.133.253.008,0Z" transform="translate(-296.155 -236.621)" fill="#0acd7a"/>
      <path id="Path_36508" data-name="Path 36508" d="M1418.79,728.534l.355.231.561-.869-.362-.232-.156.243-1.841-1.187.156-.243-.359-.233-.561.869.359.233.153-.239,1.841,1.187-.153.239Z" transform="translate(-292.559 -252.277)" fill="#0acd7a"/>
      <path id="Path_36509" data-name="Path 36509" d="M1412.282,736.058a1.419,1.419,0,0,1,.141-.15c.193-.2.367-.24.561-.094a.424.424,0,0,1,.109.591.51.51,0,0,1-.036.049.651.651,0,0,1-.292.214l-.275-.2-.286.383.4.3a1.081,1.081,0,0,0,.788-.442c.015-.017.026-.037.036-.049a.876.876,0,0,0-.171-1.2.919.919,0,0,0-1.166.21c-.049.049-.092.1-.142.147-.229.226-.445.32-.688.138a.513.513,0,0,1-.118-.736c.017-.024.036-.049.07-.094a.746.746,0,0,1,.42-.277l.239.18.291-.391-.333-.247-.01.013a1.188,1.188,0,0,0-.909.494l-.073.1a.929.929,0,0,0,.167,1.3.944.944,0,0,0,1.278-.224Z" transform="translate(-287.594 -259.08)" fill="#0acd7a"/>
      <path id="Path_36510" data-name="Path 36510" d="M1403.328,747.109a1.892,1.892,0,0,1,.154-.137c.207-.184.383-.205.565-.043a.423.423,0,0,1,.061.6c-.014.02-.025.03-.037.046a.692.692,0,0,1-.313.186l-.258-.227-.319.359.372.329a1.082,1.082,0,0,0,.826-.373c.012-.016.027-.034.037-.046a.875.875,0,0,0-.068-1.211.909.909,0,0,0-1.177.108c-.053.047-.1.093-.155.134-.244.207-.471.281-.7.079a.51.51,0,0,1-.05-.741c.021-.022.04-.047.078-.09a.735.735,0,0,1,.441-.237l.224.2.323-.367-.31-.273-.01.013a1.18,1.18,0,0,0-.951.413c-.051.056-.013.013-.081.091a.933.933,0,0,0,.055,1.313.944.944,0,0,0,1.293-.119Z" transform="translate(-280.142 -268.297)" fill="#0acd7a"/>
      <path id="Path_36511" data-name="Path 36511" d="M1396.017,756.207l.3.3.733-.73-.3-.307-.2.2L1395,754.12l.2-.2-.3-.3-.734.731.3.3.2-.2,1.543,1.554-.2.2,0,.005Z" transform="translate(-273.812 -275.166)" fill="#0acd7a"/>
      <path id="Path_36512" data-name="Path 36512" d="M1384.062,763.5a1.1,1.1,0,1,1-.087,1.51,1.04,1.04,0,0,1,.087-1.51Zm1.684,2.017a1.528,1.528,0,1,0-2.134-.2,1.514,1.514,0,0,0,2.134.2Z" transform="translate(-264.683 -282.888)" fill="#0acd7a"/>
      <path id="Path_36513" data-name="Path 36513" d="M1364.763,775.368l.236.365.885-.573-.237-.368-.233.152-1.03-1.593-.036.026,2.362,1.242.735-.467-.237-.368-.256.164-1.194-1.848.256-.164-.236-.365-.888.574.236.365.236-.152,1.03,1.6.038-.03-2.389-1.228-.71.461.242.373.255-.167,1.188,1.837-.255.167v0Z" transform="translate(-248.026 -290.184)" fill="#0acd7a"/>
      <path id="Path_36514" data-name="Path 36514" d="M1320.987,798.07l-.738-.9-1.145.178.624-.981-.517-1.031,1.119.29.823-.814.069,1.155,1.03.535-1.08.421-.185,1.143Z" transform="translate(-211.037 -309.625)" fill="#0acd7a"/>
      <path id="Path_36515" data-name="Path 36515" d="M1264.387,803.694l-.024.428.81.047.956-1.927-.05,0,.74,2.023.816.045.025-.435-.3-.016.122-2.2.3.016.025-.435-1.05-.058-.025.435.287.015-.092,1.685.05,0-.791-2.092-.05,0-1.02,2,.054.005.094-1.693.3.015.025-.435-1.054-.06-.025.435.288.018-.122,2.2-.288-.018v.007Z" transform="translate(-165.256 -314.839)" fill="#0acd7a"/>
      <path id="Path_36516" data-name="Path 36516" d="M1255.254,802.328l-.063.419,1.022.151.061-.425-.285-.042.323-2.166.285.042.064-.426-1.022-.151-.064.426.281.04-.323,2.166-.281-.04,0,.006Z" transform="translate(-157.585 -313.735)" fill="#0acd7a"/>
      <path id="Path_36517" data-name="Path 36517" d="M1243.277,799.73a.912.912,0,0,1,.2.065c.262.091.365.232.314.47a.422.422,0,0,1-.491.345c-.024,0-.038-.006-.059-.01a.7.7,0,0,1-.319-.182l.075-.336-.469-.1-.107.486a1.1,1.1,0,0,0,.73.536l.059.011a.878.878,0,0,0,1.024-.653.909.909,0,0,0-.669-.974c-.069-.025-.127-.042-.194-.07-.3-.114-.475-.271-.413-.568a.515.515,0,0,1,.625-.411l.115.025a.781.781,0,0,1,.424.269l-.063.294.476.1.089-.406-.018-.005a1.19,1.19,0,0,0-.827-.625c-.074-.017-.017,0-.119-.024a.93.93,0,0,0-1.116.691.948.948,0,0,0,.732,1.072Z" transform="translate(-146.905 -312.242)" fill="#0acd7a"/>
      <path id="Path_36518" data-name="Path 36518" d="M1228.976,796.09a1.15,1.15,0,0,1,.188.088c.254.11.346.26.277.493a.432.432,0,0,1-.522.3l-.057-.018a.686.686,0,0,1-.3-.207l.1-.33-.459-.141-.146.474a1.091,1.091,0,0,0,.681.6c.022.007.043.012.057.018a.88.88,0,0,0,1.078-.565.905.905,0,0,0-.588-1.026c-.062-.036-.121-.057-.185-.089-.291-.14-.449-.311-.359-.6a.511.511,0,0,1,.653-.356l.112.036a.765.765,0,0,1,.4.3l-.088.287.464.146.12-.4-.015-.006a1.191,1.191,0,0,0-.769-.694c-.072-.023-.018-.005-.115-.035a.927.927,0,0,0-1.169.594.941.941,0,0,0,.635,1.128Z" transform="translate(-134.895 -309.215)" fill="#0acd7a"/>
      <path id="Path_36519" data-name="Path 36519" d="M1218.029,792.73l-.151.4.966.37.153-.4-.268-.1.779-2.048.268.1.153-.4-.966-.371-.153.4.268.1-.779,2.048-.268-.1,0,0Z" transform="translate(-126.38 -305.831)" fill="#0acd7a"/>
      <path id="Path_36520" data-name="Path 36520" d="M1203.879,785.741a1.1,1.1,0,1,1-1.409.546,1.042,1.042,0,0,1,1.409-.546Zm-1.139,2.365a1.527,1.527,0,1,0-.7-2.024,1.514,1.514,0,0,0,.7,2.024Z" transform="translate(-113.008 -301.588)" fill="#0acd7a"/>
      <path id="Path_36521" data-name="Path 36521" d="M1180.743,773.979l-.234.369.888.569.237-.37-.231-.149,1.026-1.6-.038-.02-.157,2.662.729.48.237-.37-.255-.166,1.191-1.851.255.165.235-.366-.888-.573-.235.366.236.154-1.029,1.6.041.019.133-2.679-.713-.458-.239.374.258.165-1.184,1.84-.258-.165Z" transform="translate(-95.128 -290.347)" fill="#0acd7a"/>
      <path id="Path_36522" data-name="Path 36522" d="M1146.032,741.763l.515-1.041-.635-.97,1.148.164.727-.9.2,1.143,1.082.412-1.022.538-.062,1.16-.83-.81-1.121.3Z" transform="translate(-66.194 -262.959)" fill="#0acd7a"/>
    </g>
    <text id="Complete" transform="matrix(0.966, -0.259, 0.259, 0.966, 333.585, 704.637)" fill="#0acd7a" font-size="24" font-family="Gamer"><tspan x="0" y="0">COMPLETE</tspan></text>
  </g>
</svg>
