<svg xmlns="http://www.w3.org/2000/svg" xmlns:xlink="http://www.w3.org/1999/xlink" width="66.406" height="68.343" viewBox="0 0 66.406 68.343">
  <defs>
    <linearGradient id="linear-gradient" x1="0.5" x2="0.5" y2="1" gradientUnits="objectBoundingBox">
      <stop offset="0" stop-color="#581809"/>
      <stop offset="1" stop-color="#54240f"/>
    </linearGradient>
    <radialGradient id="radial-gradient" cx="0.049" cy="0.83" r="1.231" gradientTransform="translate(0.115) scale(0.77 1)" gradientUnits="objectBoundingBox">
      <stop offset="0" stop-color="#1cbeca"/>
      <stop offset="1" stop-color="#54240f"/>
    </radialGradient>
    <radialGradient id="radial-gradient-2" cx="0.222" cy="-0.266" r="1.303" gradientTransform="translate(0.024) scale(0.952 1)" gradientUnits="objectBoundingBox">
      <stop offset="0.097" stop-color="#c35f14"/>
      <stop offset="1"/>
    </radialGradient>
    <radialGradient id="radial-gradient-3" cx="0.585" cy="-2.435" r="3.526" gradientTransform="translate(0.149) scale(0.702 1)" xlink:href="#radial-gradient-2"/>
  </defs>
  <g id="Group_719" data-name="Group 719" transform="translate(0 9.431)">
    <path id="Path_796" data-name="Path 796" d="M683.943,649.844a9.475,9.475,0,0,1-9.477,9.476H636.562a9.479,9.479,0,0,1-9.477-9.476V611.938a9.476,9.476,0,0,1,9.477-9.477h37.905a9.472,9.472,0,0,1,9.477,9.477Z" transform="translate(-626.933 -600.409)" fill="#3f1b0b"/>
    <path id="Path_797" data-name="Path 797" d="M683.9,647.392a9.475,9.475,0,0,1-9.477,9.477h-37.9a9.479,9.479,0,0,1-9.477-9.477,22.3,22.3,0,0,1-.082-3.613,2.217,2.217,0,0,1,2.744-1.538,15.467,15.467,0,0,0-2.57-1.021c.151-2.873-.083-5.862-.094-8.746-.026-7.663,0-15.324,0-22.987a9.477,9.477,0,0,1,9.477-9.477h37.9a9.473,9.473,0,0,1,9.477,9.477c0,1.829.377,5.961-1.7,7.087.727.166,1.507,2,1.539,2.547.078,1.266.11,2.746.1,4.015-.012,2.711.019,5.431.028,8.144.012,4.5-.014,9,.015,13.494Q683.9,646.081,683.9,647.392Z" transform="translate(-626.888 -599.852)" fill="url(#linear-gradient)"/>
    <path id="Path_798" data-name="Path 798" d="M671.318,649.475c2.169-.3,11.826-.727,12.781.9-.977,1.122-2.474,1.421-3.847,1.9a63.2,63.2,0,0,1-11.615,2.414c-4.2.613-12.089-1.306-15.587,1.2,3.271.409,6.85,0,10.178.13,3.7.145,7.388.409,11.091.45,4.082.046,9.383,1.351,11.866-2.483,2.139-3.3,1.863-9.175,1.934-12.946.085-4.55.172-9.1.461-13.644a84.439,84.439,0,0,0-.52-11.913,19.04,19.04,0,0,0-.441-4.372c-.215,2.062-.219,4.155-.249,6.228a13.228,13.228,0,0,1-1.995.678,34.156,34.156,0,0,1-4.473.195,6.961,6.961,0,0,0,1.774.265c2.041.118,5.414,1.293,3.887,4.012-1.061,1.892-3.87,2.5-5.825,2.793-1.2.179-2.418.245-3.63.339a9.572,9.572,0,0,0-2.986.527c1.449.449,3.187-.077,4.662-.149.794-.04,8.332-.349,8.264.111-1,6.749-.278,10.46-.923,15-.21,1.481-.807,5.877-1.959,6.878-1.085.941-4.285.587-5.6.7C676.144,648.886,673.729,649.142,671.318,649.475Z" transform="translate(-632.824 -602.369)" fill="#4a1a0a"/>
    <path id="Path_799" data-name="Path 799" d="M682.351,625.589c.3-3.194.5-8.475-3.444-9.549.851-.428,2.671.232,3.293-.422.977-1.029.255-7.053.016-8.5-.358-2.157-1.927-3.893-3.475-5.371a6.809,6.809,0,0,0-3.714-1.738H637.122c-2.333,0-5.951,2.636-6.444,4.952a48.691,48.691,0,0,0-.7,8.118c-.3,7.146-.018,13.729-.251,20.872a24.407,24.407,0,0,0-.069,4.6c.307,1.863.874,1.833,2.7,2.711-2.171-1.045-1.094,5.767-.73,6.513a9.077,9.077,0,0,0,4.883,4.323c4.835,2.05,11.635.339,16.8.663,6.7.418,13.5.391,20.234.448,8.414.07,7.528-4.993,7.9-11.876C681.724,636.051,681.859,630.836,682.351,625.589Z" transform="translate(-627.493 -599.852)" fill="#95401a"/>
    <g id="Group_242" data-name="Group 242" transform="translate(2.07 1.744)" opacity="0.85">
      <g id="Group_240" data-name="Group 240">
        <path id="Path_800" data-name="Path 800" d="M687.19,658.152c-1.174.084-2.349.186-3.522.282-5.938.483-11.9.973-17.839,1.277-3.351.17-6.991.554-10.311-.053,3.941,2.433,9.17,2.2,13.617,2.029,5.951-.23,11.793-.344,17.754-.352A24.179,24.179,0,0,0,687.19,658.152Z" transform="translate(-635.454 -614.789)" fill="#54240f" opacity="0.51"/>
        <path id="Path_801" data-name="Path 801" d="M651.652,646.543a209.707,209.707,0,0,0-22.079.7,9.717,9.717,0,0,0,.084,1.851c.016.1.035.163.052.247a249.976,249.976,0,0,1,33.348-2.435C659.225,646.858,655.467,646.645,651.652,646.543Z" transform="translate(-629.565 -612.142)" fill="#54240f" opacity="0.51"/>
        <path id="Path_802" data-name="Path 802" d="M672.477,663.677c-.881.055-1.754.1-2.626.149-5.124.263-10.477.745-15.6.382-4.967-.352-9.688-1.033-14.686-.088,2.3.091,4.458.746,6.871.667,4.237-.14,8.127.914,12.363.942a73.309,73.309,0,0,0,14.009-1.573c2.782-.523,5.431-.082,8.238-.317A39.774,39.774,0,0,0,672.477,663.677Z" transform="translate(-631.833 -616.008)" fill="#54240f" opacity="0.51"/>
        <path id="Path_803" data-name="Path 803" d="M663.844,631.346c6.254.061,12.435.061,18.649-.06a23.015,23.015,0,0,0,.062-2.772q-5.23-.127-10.47-.168c-13.5-.128-26.795,1.185-40.21,1.927-.657.038-1.316.068-1.971.1v1.048C641.186,631.915,652.62,631.237,663.844,631.346Z" transform="translate(-629.642 -608.024)" fill="#54240f" opacity="0.51"/>
        <path id="Path_804" data-name="Path 804" d="M681.885,651.919c-1-.02-2.1-.209-2.94-.244q-2.4-.107-4.789-.25c-11.241-.661-22.568-1.811-33.809-.568q-4.509.5-9.02,1.141c.366.195.823.385,1.428.677-.859-.414-1.2.407-1.291,1.589.635-.107,1.269-.216,1.907-.311,7.249-1.084,13.928-.857,21.151-1.132,4.871-.182,9.741-.386,14.616-.451,2.434-.031,4.864-.028,7.3.024.322.008,3.664.166,5.406.353h0C681.859,652.47,681.87,652.2,681.885,651.919Z" transform="translate(-629.965 -613.008)" fill="#54240f" opacity="0.51"/>
        <path id="Path_805" data-name="Path 805" d="M654.49,657.614c-3.5.167-7.057-.211-10.569-.168-4.115.043-8.245.692-12.358.528a12.669,12.669,0,0,0,.516,2.834c.011.023.025.042.037.063,3.985-1.121,15.857-2.784,17.193-2.9C651,657.833,652.745,657.693,654.49,657.614Z" transform="translate(-630.018 -614.628)" fill="#54240f" opacity="0.51"/>
        <path id="Path_806" data-name="Path 806" d="M641.214,619.986c13.125.772,26.279.385,39.423.705a4.163,4.163,0,0,0-1.636-.864,5.529,5.529,0,0,1,2.137-.115c-.132-.268-.247-.533-.389-.806a.414.414,0,0,1-.046-.092c-10-.888-19.992-1.838-30.047-2.039q-5.665-.112-11.333-.053c-3.061.035-6.225.219-9.258.315-.044,1.051-.073,2.086-.1,3.116C632.838,619.689,640.112,619.922,641.214,619.986Z" transform="translate(-629.657 -605.384)" fill="#54240f" opacity="0.51"/>
        <path id="Path_807" data-name="Path 807" d="M643.859,640.749a113.094,113.094,0,0,1-14.019-.47c-.012.877-.035,1.762-.064,2.655,9.825-.2,19.664-.537,29.5.177,7.479.543,15.031.284,22.551.26q.075-1.556.169-3.109C669.281,639.549,656.67,640.245,643.859,640.749Z" transform="translate(-629.613 -610.66)" fill="#54240f" opacity="0.51"/>
        <path id="Path_808" data-name="Path 808" d="M630.292,611.307a23.379,23.379,0,0,1,2.518-.715,75.564,75.564,0,0,1,16.944-.872c5.64.394,11.231,1.743,16.867,2.451,4.38.549,9.043.8,13.3,1.916.978.257,1.962.442,2.941.617.007-1.03-.067-2.189-.164-3.223-.711-.231-1.382-.55-2.1-.806-.882-.316-1.755-.673-2.666-.915a48.875,48.875,0,0,0-6.775-.966c-8.539-.99-17.194-1.419-25.737-.218-4.842.68-10.118,1.759-15.067,1.793C630.332,610.681,630.309,610.994,630.292,611.307Z" transform="translate(-629.73 -603.374)" fill="#54240f" opacity="0.51"/>
        <path id="Path_809" data-name="Path 809" d="M694.885,605.624l0,0,0,.007C694.928,605.67,694.928,605.668,694.885,605.624Z" transform="translate(-644.385 -602.869)" fill="#54240f" opacity="0.51"/>
        <path id="Path_810" data-name="Path 810" d="M674.484,602.111c-3.042-.185-6.087.213-9.141.112a37.415,37.415,0,0,0-6.053.119c-1.92.249-4.272,1.528-6.112,1.538,6.364-.039,12.826-.16,19.154-.572,1.259-.081,2.7-.163,4.182-.148,3.244.036,6.672.544,8.786,2.54a8.436,8.436,0,0,0-2.476-2.595C680.279,601.655,677.24,602.28,674.484,602.111Z" transform="translate(-634.922 -602.062)" fill="#54240f" opacity="0.51"/>
      </g>
      <g id="Group_241" data-name="Group 241" transform="translate(0.138 0.986)">
        <path id="Path_811" data-name="Path 811" d="M650.5,610.724a67.649,67.649,0,0,0-13.781.142c5.2-.532,9.489-1.3,14.758-1.066a117.661,117.661,0,0,1,17.1,2.464c2.219.431,4.446.56,6.71.96C666.85,613.129,658.6,611.562,650.5,610.724Z" transform="translate(-631.325 -604.794)" fill="#a44d18"/>
        <path id="Path_812" data-name="Path 812" d="M662.736,604.71a52.2,52.2,0,0,1,5.263.107c4.533.344,9.981-.512,14.125,1.717-1.6-.859-2.479-2.121-4.386-2.58-4.786-1.155-9.987-.354-14.837-.243-2.749.062-5.464-.025-8.219.2-2.8.233-5.595.591-8.39.9-2.379.268-5.583,1.11-7.95.666,3.986.748,8.956.288,12.989.008C655.124,605.229,658.93,604.813,662.736,604.71Z" transform="translate(-631.694 -603.337)" fill="#a44d18"/>
        <path id="Path_813" data-name="Path 813" d="M632.647,621.04c6.216-1.071,13.8-.429,20.081.012,6.18.428,12.263-.229,18.443-.357a30.086,30.086,0,0,1,9.6.987c-6.308-.039-12.82.03-19.109.363a141.937,141.937,0,0,1-18.346-.539c-3.527-.259-7.751-.744-11.215-.113Z" transform="translate(-630.278 -607.221)" fill="#a44d18"/>
        <path id="Path_814" data-name="Path 814" d="M644.881,632.625c-2.634.057-5.269.256-7.887.274-2.29.016-4.95-.429-7.059.731a5.172,5.172,0,0,1-.124-1.266c3.318-.137,6.622-.6,9.943-.7,4.633-.146,9.266.4,13.9.158,6.049-.322,12.255-.237,18.272-.378,3.449-.078,6.991-.43,10.346-.263a142.858,142.858,0,0,1-18.495,1.45C657.425,632.568,651.149,632.49,644.881,632.625Z" transform="translate(-629.758 -609.645)" fill="#a44d18"/>
        <path id="Path_815" data-name="Path 815" d="M685.65,644.355c-1.588-.471-4.422.147-6.128.206-2.6.089-5.209.1-7.815.084-5.249-.042-10.5-.244-15.745-.336-2.622-.046-5.286-.781-7.968-.625,6.78-1.306,12.993.694,19.743.552,4.2-.09,8.392-.1,12.636-.056C682.089,644.2,683.984,643.861,685.65,644.355Z" transform="translate(-633.884 -612.391)" fill="#a44d18"/>
        <path id="Path_816" data-name="Path 816" d="M660.651,648.262c-5.283.28-10.647-.041-15.911.419-4.968.435-9.952,1.2-15,.874,6.731-.607,13.448-1,20.175-1.566,6.427-.544,12.963-.422,19.519-.363,3.723.036,7.3.641,10.782.827C673.737,648.7,667.272,647.916,660.651,648.262Z" transform="translate(-629.743 -613.374)" fill="#a44d18"/>
        <path id="Path_817" data-name="Path 817" d="M665.733,654.17c-8.724,1.111-18.663.648-27.433-.083,6.769-.964,13.5-.621,20.295-.348,5.184.209,10.171-.639,15.2-.933a48.061,48.061,0,0,1,8.067.255C676.616,653.994,671.009,653.495,665.733,654.17Z" transform="translate(-631.685 -614.546)" fill="#a44d18"/>
        <path id="Path_818" data-name="Path 818" d="M679.407,661.779c-6.1,1.078-17.577,3.964-22.886-.734C663.254,663.686,672.525,662.993,679.407,661.779Z" transform="translate(-635.819 -616.431)" fill="#a44d18"/>
        <path id="Path_819" data-name="Path 819" d="M675.593,621.475c-10.915-.11-21.962,2.105-32.9,1.064-3.874-.368-7.49-.478-11.552-.473,3.08-.012,6.033-.829,9.17-.714,3.421.127,6.824.639,10.254.509,6.444-.243,12.891-.506,19.342-.44Z" transform="translate(-630.061 -607.422)" fill="#c35f14"/>
        <path id="Path_820" data-name="Path 820" d="M661.8,611.821c-2.227-.646-4.506-1-6.731-1.562,7.183.4,14.41,1.862,21.545,2.826,2.1.285,4.113.662,6.186,1.055,2.307.437,3.778.714,5.665,1.029-4.4.006-8.777-.64-13.161-1.065A74.161,74.161,0,0,1,661.8,611.821Z" transform="translate(-635.489 -604.908)" fill="#c35f14"/>
        <path id="Path_821" data-name="Path 821" d="M650.713,633.165a98.516,98.516,0,0,0-11.113-.059c-1.87.061-9.38-1.429-9.785,1.2,1.293-.427,2.836,0,4.2.055a51.4,51.4,0,0,0,6.771.005,106.426,106.426,0,0,1,10.752-.887q3.268.034,6.54.064C655.62,633.517,653.168,633.365,650.713,633.165Z" transform="translate(-629.759 -610.009)" fill="#c35f14"/>
        <path id="Path_822" data-name="Path 822" d="M676.1,652.906c1.932-.018,3.886-.209,5.814-.107,1.437.075,2.753.778,4.162.8a58.594,58.594,0,0,1-5.9-.105c-2.768.012-5.536.043-8.291.324-6.247.637-12.34-.057-18.6-.113C660.892,653.773,668.493,652.969,676.1,652.906Z" transform="translate(-635.085 -614.553)" fill="#c35f14"/>
        <path id="Path_823" data-name="Path 823" d="M682.423,662.132a26.694,26.694,0,0,0-4.336.273c-1.257.087-2.537.444-3.806.57a33.809,33.809,0,0,1-8.906-.156c-1.122-.192-2.243-.465-3.361-.574,3.259.032,6.562.22,9.814.063C675.381,662.139,678.868,661.546,682.423,662.132Z" transform="translate(-637.065 -616.621)" fill="#c35f14"/>
      </g>
    </g>
    <g id="Group_243" data-name="Group 243" transform="translate(2.34 15.534)">
      <path id="Path_824" data-name="Path 824" d="M630.726,661.129c-.472.182-.793.366-.795.526a26.849,26.849,0,0,1,.08-3.473c2.046.031,4.042.423,6.116.264,1.686-.128,4.829.054,7.188-.157-4.137,1.04-5.772,1.337-8.7,1.825A29.1,29.1,0,0,0,630.726,661.129Z" transform="translate(-629.915 -628.585)" fill="#54240f"/>
      <path id="Path_825" data-name="Path 825" d="M635.469,654.236c-1.8.283-3.618.277-5.379.671a3.04,3.04,0,0,0-.105-2.445c1.3.257,2.906-.267,4.223-.339,1.707-.094,3.382-.254,5.1-.227,3.5.054,6.986.436,10.487.438q2.527,0,5.055,0c-2.716,1-6.625.782-9.728.68C641.842,652.907,638.682,653.731,635.469,654.236Z" transform="translate(-629.931 -627.158)" fill="#54240f"/>
      <path id="Path_826" data-name="Path 826" d="M634.033,665.731c2.2-.472,4.555-.034,6.716.166,2.086.193,4.615-.167,6.653.313-3.836,1.08-7.7,1.013-11.518,2.462a4.6,4.6,0,0,0-1.692-2.783Z" transform="translate(-630.849 -630.25)" fill="#54240f"/>
      <path id="Path_827" data-name="Path 827" d="M689.308,660.68c-4.339-.268-8.689.006-12.987-.707a17.349,17.349,0,0,1,2.411-.211c4.166-.264,8.49-.339,12.582-1.239.5-.111,1.007-.233,1.505-.38a15.927,15.927,0,0,0-.4,3.287C691.829,660.8,690.146,660.734,689.308,660.68Z" transform="translate(-640.445 -628.576)" fill="#4a1a0a"/>
      <path id="Path_828" data-name="Path 828" d="M694.948,628.79a5.391,5.391,0,0,1,.083,1.675c-2.451-.194-8.256-.491-12.233-1.024C683.528,629.382,694.948,628.79,694.948,628.79Z" transform="translate(-641.914 -621.916)" fill="#4a1a0a"/>
      <path id="Path_829" data-name="Path 829" d="M693.332,620.007c-.042,0-.083,0-.125,0-1.362.012-2.727-.012-4.091-.012a21.507,21.507,0,0,0-4.792.092,33.023,33.023,0,0,1,8.816,1.236,16.787,16.787,0,0,1,1.841.6,1.026,1.026,0,0,1,.344-1.258A2.969,2.969,0,0,0,693.332,620.007Z" transform="translate(-642.261 -619.899)" fill="#4a1a0a"/>
    </g>
    <path id="Path_830" data-name="Path 830" d="M682.4,607.118c-.358-2.157-1.927-3.893-3.475-5.371a6.809,6.809,0,0,0-3.714-1.738H637.3c-2.332,0-5.951,2.636-6.444,4.952a28.548,28.548,0,0,0-.508,3.845c.652-1.648.813-5.381,5.61-6.032,10.938-1.486,38.5-1.9,42.586.485,4.238,2.469-6.712,3.3-8.816,3.384a108.664,108.664,0,0,1,12.982,3.06h0C682.607,608.573,682.475,607.594,682.4,607.118Z" transform="translate(-627.674 -599.852)" fill="#c35f14"/>
    <path id="Path_831" data-name="Path 831" d="M670.978,612.36c-.536-.067-1.073-.134-1.609-.2,4.235,1.41,8.494,1.9,13.115,2.85,1.177.241,9.072.615,8.739,3.4.125-1.055.656-1.9.483-3.024-2.233-.374-4.874-.755-6.853-1.085C680.112,613.508,675.781,612.957,670.978,612.36Z" transform="translate(-636.527 -602.608)" fill="#de8d30"/>
    <path id="Path_832" data-name="Path 832" d="M630.83,604.961a34.123,34.123,0,0,0-.607,5.651,9.815,9.815,0,0,0,6.047,1.141c5.4-.426,13.794-3.576,14.936-9.558a5.948,5.948,0,0,0,.027-2.186h-13.96C634.941,600.009,631.322,602.645,630.83,604.961Z" transform="translate(-627.645 -599.852)" fill="#fff280" opacity="0.39"/>
    <path id="Path_833" data-name="Path 833" d="M638.681,618.381c.828.711.287,2.686-1.2,4.4s-3.361,2.537-4.187,1.822-.281-2.683,1.206-4.4S637.858,617.668,638.681,618.381Z" transform="translate(-628.254 -603.962)" fill="#fff280" opacity="0.27"/>
    <path id="Path_834" data-name="Path 834" d="M672.431,658.681c-4.247,0-8.812.067-13.167.241-1.91.075-15.907,1.392-11.062-3.409-3.311.928-13.412,4.335-14.62-.983-.832-3.657,8.765-7.028,11.239-5.635-2.721-1.53-6.367-1.106-9.42-2.036-5.848-1.789-4.087-8.942-3.515-13.456-1.328,12.11,12.281,14.561,21.117,14.856-5.586-.186-4.06,5.886-.649,7.611C657.968,658.7,666.321,658.222,672.431,658.681Z" transform="translate(-627.864 -607.429)" fill="#2e1e36" opacity="0.49"/>
    <g id="Group_244" data-name="Group 244" transform="translate(3.169)">
      <path id="Path_835" data-name="Path 835" d="M631.006,604.915c-.08-.02.08-.849,1.017-1.966a8.743,8.743,0,0,1,5.3-2.923.9.9,0,0,1,.171-.014l.117,0,.238-.006.482-.012,1-.023,2.115-.041,4.666-.066c3.284-.035,6.892-.056,10.673-.056s7.39.02,10.674.056l4.665.066,2.115.041,1,.023a4.464,4.464,0,0,1,1.069.187,8.921,8.921,0,0,1,3.076,1.709,10.4,10.4,0,0,1,1.8,1.9c.851,1.171.975,2.009.887,2.025-.1.037-.387-.68-1.316-1.675a11.844,11.844,0,0,0-1.85-1.616,8.6,8.6,0,0,0-2.848-1.368,3.639,3.639,0,0,0-.813-.107l-1,.022-2.115.041-4.665.066c-3.284.036-6.891.056-10.674.056s-7.389-.02-10.673-.056l-4.666-.066-4.012-.082a8.042,8.042,0,0,0-3.019.908,9.193,9.193,0,0,0-1.993,1.4C631.433,604.251,631.106,604.963,631.006,604.915Z" transform="translate(-630.987 -599.806)" fill="#fff280"/>
    </g>
    <g id="Group_245" data-name="Group 245" transform="translate(2.916 16.908)">
      <path id="Path_836" data-name="Path 836" d="M684.71,621.68l-.484,0c-5.225,0-10.543.789-15.668.761,3.013.015,6.165.446,9.132.537,2.668.081,5.323-.691,8.026-.247,2.233.366,4.717,1.563,5.342,3.877C691.3,622.125,688.283,621.71,684.71,621.68Z" transform="translate(-639.259 -621.677)" fill="#de8d30"/>
      <path id="Path_837" data-name="Path 837" d="M690.747,637.554q.077-2.705.106-5.416c-.744,1.744-.561,4.036-.835,5.887-.468,3.167-.638,3.337-3.742,3.344-3.53.013-7.052.358-10.581.359-2.36,0-5.222-.155-7.579.534,2.948-.1,6.063.051,8.928-.04,4.09-.132,8.294.048,12.382.183-.405,3.418.474,6.806.474,10.084C689.9,647.528,690.6,642.529,690.747,637.554Z" transform="translate(-639.159 -624.051)" fill="#de8d30"/>
      <path id="Path_838" data-name="Path 838" d="M682.345,662.014a15.422,15.422,0,0,1,1.7-.118,25.32,25.32,0,0,1,3.041.047c.392.036,5.787.172,5.809.066-.559,2.756-1.99,4.483-4.209,4.868,2.063-.986,2.43-2.195,2.932-4.322C688.211,662.535,685.428,662.3,682.345,662.014Z" transform="translate(-642.387 -630.797)" fill="#de8d30"/>
      <path id="Path_839" data-name="Path 839" d="M644.474,633.147a27.289,27.289,0,0,1,4.568.48c-.852-.077-1.69.173-2.562.174-3.4,0-6.679.151-10.1-.059-1.273-.078-2.557-.019-3.816-.06-.635-.018-1.276,0-1.907,0a40.611,40.611,0,0,1,6.366-.423C639.449,633.223,641.982,633.074,644.474,633.147Z" transform="translate(-630.66 -624.275)" fill="#de8d30"/>
    </g>
    <path id="Path_840" data-name="Path 840" d="M675.487,662.558c-6.322-.764-12.7-.907-19.063-1.065-4.614-.112-9.242.208-13.847-.2-3.562-.319-9.054-.521-11.786-3.079,4.193-.251,8.456-.488,12.687-1-3.528-.266-7.091-.036-10.627-.118-1.315-.031-2.685.079-3.954-.08-.281-2.073-.227-4.268-.3-6.371-.139-3.974,7.255-3.025,9.839-4.091-2.659-.276-10.118.8-9.926-.356,0,0-1.289-18.794-1.422-20.847.047,2.565.224,19.089.09,21.624a15.414,15.414,0,0,1,2.568,1.021c-2.321-1.036-2.639,3.3-2.656,4.59a9.6,9.6,0,0,0,2.772,7.262,9.441,9.441,0,0,0,6.7,2.776h37.905A9.362,9.362,0,0,0,675.487,662.558Z" transform="translate(-626.933 -605.601)" fill="url(#radial-gradient)"/>
    <path id="Path_841" data-name="Path 841" d="M682.43,615.618c.977-1.029.255-7.053.016-8.5-.358-2.157-1.927-3.893-3.475-5.371a6.808,6.808,0,0,0-3.714-1.738s-37.855,0-37.9,0c-9.16.4-6.553,12.715-6.081,20.3.869,13.886,4.761,20.631,16.792,27.631,6.665,3.879,22.192,1.927,28.778-6.23,2.17-2.689,4.075-4.259,5.2-8.122.131-2.666.289-5.327.539-8,.3-3.195.5-8.475-3.444-9.549C679.989,615.612,681.809,616.272,682.43,615.618Z" transform="translate(-627.723 -599.852)" fill="url(#radial-gradient-2)" style="mix-blend-mode: screen;isolation: isolate"/>
    <path id="Path_842" data-name="Path 842" d="M639.007,652.432a4.117,4.117,0,0,1-2.909-1.191,4.024,4.024,0,0,1-1.2-2.877v-1.5c0-3.247,0-10.515,0-12.746q-.023-7.26,0-14.516l.007-7.4a4.031,4.031,0,0,1,1.2-2.878,4.131,4.131,0,0,1,2.911-1.191h36.552a4.131,4.131,0,0,1,2.911,1.191,4.034,4.034,0,0,1,1.2,2.878l-.008,5.345c-.011,5.6-.023,13.709-.016,15.462q0,2.587,0,5.18c0,2.57-.005,5.143.012,7.714.007.819.01,1.644.01,2.465a4.025,4.025,0,0,1-1.2,2.877,4.114,4.114,0,0,1-2.908,1.191Z" transform="translate(-628.702 -601.695)" fill="#de8d30"/>
    <path id="Path_843" data-name="Path 843" d="M639.007,651.138a4.11,4.11,0,0,1-2.909-1.2,4.059,4.059,0,0,1-1.2-2.894v-1.509c0-3.265,0-10.571,0-12.816q-.023-7.3,0-14.593l.007-7.441a4.061,4.061,0,0,1,1.2-2.893,4.115,4.115,0,0,1,2.911-1.2h36.552a4.115,4.115,0,0,1,2.911,1.2,4.063,4.063,0,0,1,1.2,2.893l-.008,5.372c-.011,5.634-.023,13.784-.016,15.546q0,2.6,0,5.208c0,2.584-.005,5.17.012,7.754.007.823.01,1.654.01,2.479a4.061,4.061,0,0,1-1.2,2.894,4.107,4.107,0,0,1-2.908,1.2Z" transform="translate(-628.702 -601.347)" fill="url(#linear-gradient)"/>
    <path id="Path_844" data-name="Path 844" d="M634.9,613.547a4.065,4.065,0,0,1,1.2-2.894,4.12,4.12,0,0,1,2.911-1.2h36.552a4.12,4.12,0,0,1,2.911,1.2,4.052,4.052,0,0,1,1.2,2.849l.005-2.813a4.063,4.063,0,0,0-1.2-2.893,4.115,4.115,0,0,0-2.911-1.2H639.009a4.114,4.114,0,0,0-2.911,1.2,4.061,4.061,0,0,0-1.2,2.893l-.007,7.441q0,1,0,1.99Z" transform="translate(-628.704 -601.347)" fill="#2a1208"/>
    <g id="Group_246" data-name="Group 246" transform="translate(6.186 8.451)">
      <path id="Path_845" data-name="Path 845" d="M668.684,626.862a.2.2,0,0,1,.011.022C668.684,626.694,668.6,626.705,668.684,626.862Z" transform="translate(-642.55 -614.369)" fill="#95401a" opacity="0.25"/>
      <path id="Path_846" data-name="Path 846" d="M663.774,626.942a248.47,248.47,0,0,0-16.819,28.247c2.142.618,4.344.264,6.555.176,1.2-.05,6.922-14.643,8.267-16.541,2.937,2.894,9.3,16.777,9.3,16.777s2.043,0,4.12-.007c-.676-.623-7.171-20.272-11.426-28.666C663.772,626.932,663.774,626.933,663.774,626.942Z" transform="translate(-637.628 -614.41)" fill="#95401a" opacity="0.25"/>
      <path id="Path_847" data-name="Path 847" d="M665.238,647.056c-.513,1.5-3,8.336-4.823,13.262h3.634c.52-2.05,1.031-4.127,1.543-6.268.5.8,1.6,3.611,2.713,6.268h3.1C669.4,655.906,666.265,649.5,665.238,647.056Z" transform="translate(-640.682 -618.978)" fill="#95401a" opacity="0.25"/>
      <path id="Path_848" data-name="Path 848" d="M678.218,611.964c2.352,5.869,6.976,15.808,11.264,24.8q0-1.971,0-3.943c-.005-1.1,0-4.718,0-8.649A101.362,101.362,0,0,0,678.218,611.964Z" transform="translate(-644.721 -611.015)" fill="#95401a" opacity="0.25"/>
      <path id="Path_849" data-name="Path 849" d="M638.3,617.018a4.36,4.36,0,0,1-3.407-1.419l0,3.47c0,1.171,0,2.341,0,3.511,7.47-5.232,14.919-10.389,16.673-11.842C650.225,611.849,640.015,616.98,638.3,617.018Z" transform="translate(-634.89 -610.737)" fill="#95401a" opacity="0.25"/>
      <path id="Path_850" data-name="Path 850" d="M656.777,610.737c-3.779,2.5-15.926,11.664-21.883,16.092,0,2.278-.007,4.555,0,6.833.005,1.17.005,3.709.005,6.339C641.989,628.53,653.857,613.519,656.777,610.737Z" transform="translate(-634.89 -610.737)" fill="#95401a" opacity="0.25"/>
      <path id="Path_851" data-name="Path 851" d="M678.472,651.052a4.038,4.038,0,0,0,1.181-2.675C675.811,640.232,667.8,619.9,663.8,611.5c-7.574,4.039-22.2,24.363-28.9,34.21v2.452a4.092,4.092,0,0,0,3.3,4.01c9.03-14.656,20-30.512,24.553-35.27,1.069,2.6,14.009,31.366,14.674,34.888A4.122,4.122,0,0,0,678.472,651.052Z" transform="translate(-634.892 -610.909)" fill="#95401a" opacity="0.25"/>
    </g>
    <path id="Path_852" data-name="Path 852" d="M657.725,623.6c-8.1-.323-14.058,1.5-22.834,4.661,0,3.4-.008,4.91,0,8.313.007,2.244.005,9.551,0,12.816V650.9a4.059,4.059,0,0,0,1.2,2.894,4.11,4.11,0,0,0,2.909,1.2h36.552a4.108,4.108,0,0,0,2.908-1.2,4.061,4.061,0,0,0,1.2-2.894c0-.825,0-1.655-.01-2.479-.017-2.584-.013-5.17-.012-7.754q0-2.6,0-5.208c-.005-1.159,0-3.184,0-7.334C672.967,626.046,667.6,623.993,657.725,623.6Z" transform="translate(-628.703 -605.196)" fill="url(#radial-gradient-3)" style="mix-blend-mode: screen;isolation: isolate"/>
    <g id="Group_725" data-name="Group 725" transform="translate(10 -9.431)">
      <path id="Path_2352" data-name="Path 2352" d="M678.175,638.848a23.572,23.572,0,1,1,0-33.332A23.5,23.5,0,0,1,678.175,638.848Z" transform="translate(-637.9 -589.382)" fill="#4c4e6c"/>
      <path id="Path_2353" data-name="Path 2353" d="M663.968,652.852a23.951,23.951,0,0,1-19.143-6.772,22.323,22.323,0,0,1-6.772-19.143,23.569,23.569,0,0,1,25.915,25.915Z" transform="translate(-637.888 -596.61)" fill="#4c4e6c"/>
      <path id="Path_2354" data-name="Path 2354" d="M676.775,637.449a19.711,19.711,0,1,1,0-27.872A19.647,19.647,0,0,1,676.775,637.449Z" transform="translate(-639.231 -590.713)" fill="#3f2f3d"/>
      <path id="Path_2355" data-name="Path 2355" d="M682.547,630.307H643.13a19.709,19.709,0,0,0,39.417.062Z" transform="translate(-639.232 -597.507)" fill="#f48400"/>
      <path id="Path_2356" data-name="Path 2356" d="M682.545,627.06c0,1.768-1.645,3.393-4.385,4.666-3.613,1.68-9.131,2.753-15.323,2.753s-11.71-1.073-15.323-2.753c-2.746-1.274-4.391-2.9-4.391-4.666,0-4.095,8.826-7.416,19.714-7.416S682.545,622.966,682.545,627.06Z" transform="translate(-639.23 -594.774)" fill="#f4ff00"/>
      <path id="Path_2357" data-name="Path 2357" d="M665.5,622.034c-6.621,0-11.988,2.02-11.988,4.51,0,1.075,1,2.063,2.67,2.838a26.769,26.769,0,0,0,18.636,0c1.666-.775,2.667-1.763,2.667-2.838C677.483,624.054,672.12,622.034,665.5,622.034Zm4,5.728a11.485,11.485,0,0,1-7.992,0c-.716-.332-1.145-.756-1.145-1.217,0-1.068,2.3-1.933,5.141-1.933s5.14.866,5.14,1.933C670.638,627.005,670.209,627.429,669.494,627.762Z" transform="translate(-641.893 -595.387)" fill="#ffa100"/>
      <path id="Path_2358" data-name="Path 2358" d="M663.684,614.077a3,3,0,1,1,0-4.245A3,3,0,0,1,663.684,614.077Z" transform="translate(-643.188 -592.033)" fill="#646694"/>
      <path id="Path_2359" data-name="Path 2359" d="M676.309,635.942l-7.5-1.418L657.7,627.653l-8.583-12.514-.971-9.712,1.266-4.656-.731-.731-5.912,5.913h0c-5.493,5.493-2,17.888,7.792,27.685s22.192,13.285,27.685,7.792h0l5.913-5.912-.666-.666Z" transform="translate(-638.472 -589.748)" fill="#b02929"/>
      <path id="Path_2360" data-name="Path 2360" d="M687.6,621.543a16.327,16.327,0,0,1-3.322,9.98h0a6.54,6.54,0,0,1-.492.558c-4.616,4.616-15.19,1.525-23.617-6.9s-11.519-19-6.9-23.617a6.645,6.645,0,0,1,1.249-.973v0l.011-.005a7.552,7.552,0,0,1,1.937-.826,22.792,22.792,0,0,1,8.308-1.674c-5.787-2.138-11.083-1.9-14.183,1.2-5.493,5.493-2,17.888,7.792,27.685s22.192,13.285,27.686,7.792C688.985,631.832,689.362,626.948,687.6,621.543Z" transform="translate(-640.475 -588.886)" fill="#ff4848"/>
      <path id="Path_2361" data-name="Path 2361" d="M660.953,642.7a1.994,1.994,0,1,1-1.995-1.994A1.995,1.995,0,0,1,660.953,642.7Z" transform="translate(-642.779 -600.174)" fill="#ff4848"/>
      <path id="Path_2362" data-name="Path 2362" d="M672.257,649.411a1.893,1.893,0,1,1-2.415,0A1.723,1.723,0,0,1,672.257,649.411Z" transform="translate(-645.886 -602.279)" fill="#ff4848"/>
      <path id="Path_2363" data-name="Path 2363" d="M650.6,628.835a1.893,1.893,0,1,1-2.1,1.2A1.723,1.723,0,0,1,650.6,628.835Z" transform="translate(-640.574 -597.109)" fill="#ff4848"/>
      <path id="Path_2364" data-name="Path 2364" d="M684.4,653.464c.431.564.119,1.526-.7,2.15s-1.826.674-2.257.111-.119-1.525.7-2.15S683.971,652.9,684.4,653.464Z" transform="translate(-649.005 -603.343)" fill="#ff4848"/>
      <ellipse id="Ellipse_563" data-name="Ellipse 563" cx="1.86" cy="1.284" rx="1.86" ry="1.284" transform="translate(3.382 24.811) rotate(-67.607)" fill="#ff4848"/>
      <g id="Group_557" data-name="Group 557" transform="translate(27.734 0)">
        <path id="Path_2365" data-name="Path 2365" d="M681.229,600.377l-4.916,4.915.006.006a2.847,2.847,0,0,0-.248.207c-1.875,1.875-.684,6.108,2.661,9.452s7.576,4.536,9.452,2.661l4.081-4.376Z" transform="translate(-675.184 -589.835)" fill="#4c4e6c"/>
        <path id="Path_2366" data-name="Path 2366" d="M680.991,600.7l-4.676,4.675.006.006a2.829,2.829,0,0,0-.248.207c-1.256,1.256-1.13,3.57.089,5.965l5.359-5.359Z" transform="translate(-675.185 -589.917)" fill="#fff"/>
        <path id="Path_2367" data-name="Path 2367" d="M703.708,595.417c.729.729.974,1.667.547,2.093s-1.365.182-2.093-.547-.975-1.667-.547-2.093S702.978,594.687,703.708,595.417Z" transform="translate(-681.905 -588.369)" fill="#7ba847"/>
        <g id="Group_553" data-name="Group 553" transform="translate(2.14 10.274)">
          <path id="Path_2368" data-name="Path 2368" d="M678.061,600.017h0Z" transform="translate(-678.061 -600.017)" fill="#bac6cc"/>
          <path id="Path_2369" data-name="Path 2369" d="M699.922,621.878h0Z" transform="translate(-683.665 -605.621)" fill="#bac6cc"/>
        </g>
        <g id="Group_554" data-name="Group 554" transform="translate(3.236 6.793)">
          <path id="Path_2370" data-name="Path 2370" d="M696.985,612.785c-2.517,2.517-8.2.919-12.687-3.57s-6.087-10.169-3.57-12.687,8.2-.919,12.687,3.57S699.5,610.267,696.985,612.785Z" transform="translate(-679.535 -595.335)" fill="#bac6cc"/>
        </g>
        <g id="Group_555" data-name="Group 555" transform="translate(3.298 0)">
          <ellipse id="Ellipse_564" data-name="Ellipse 564" cx="6.446" cy="11.495" rx="6.446" ry="11.495" transform="matrix(0.707, -0.707, 0.707, 0.707, 0, 9.116)" fill="#fff"/>
        </g>
        <g id="Group_556" data-name="Group 556" transform="translate(10.467 3.057)">
          <path id="Path_2371" data-name="Path 2371" d="M703.706,601.93l-3.211,3.212-.013-.013a1.636,1.636,0,0,1-.915.35l-3.885.222a1.627,1.627,0,0,1-1.251-.477l-4.693-4.692a1.615,1.615,0,0,1-.476-1.251l.218-3.888a1.642,1.642,0,0,1,.353-.913l-.012-.012,3.211-3.212,2.45,2.45a1.623,1.623,0,0,1,.683.4l4.692,4.693a1.578,1.578,0,0,1,.4.679Z" transform="translate(-689.258 -590.554)" fill="#b1b2c9"/>
          <path id="Path_2372" data-name="Path 2372" d="M704.679,603.72l-3.211,3.212-.013-.013a1.636,1.636,0,0,1-.915.35l-3.885.222a1.627,1.627,0,0,1-1.251-.477l-2.348-2.348,6.427-6.426,2.348,2.348a1.578,1.578,0,0,1,.4.679Z" transform="translate(-690.232 -592.344)" fill="#4c4e6c"/>
          <rect id="Rectangle_9519" data-name="Rectangle 9519" width="6.637" height="4.346" transform="translate(3.551 6.905) rotate(45)" fill="#646694"/>
          <path id="Path_2373" data-name="Path 2373" d="M693.391,595.966l.223-3.889a1.636,1.636,0,0,1,1.54-1.54l3.889-.222a1.633,1.633,0,0,1,1.25.477l4.694,4.693a1.638,1.638,0,0,1,.477,1.251l-.223,3.889a1.636,1.636,0,0,1-1.54,1.54l-3.889.222a1.633,1.633,0,0,1-1.25-.477l-4.694-4.693A1.641,1.641,0,0,1,693.391,595.966Z" transform="translate(-690.317 -590.311)" fill="#9597b6"/>
          <path id="Path_2374" data-name="Path 2374" d="M696.275,596.842l.143-2.508a1.055,1.055,0,0,1,.993-.994l2.508-.143a1.056,1.056,0,0,1,.807.307l3.026,3.027a1.054,1.054,0,0,1,.307.806l-.143,2.508a1.055,1.055,0,0,1-.993.993l-2.508.144a1.057,1.057,0,0,1-.807-.308l-3.026-3.026A1.056,1.056,0,0,1,696.275,596.842Z" transform="translate(-691.057 -591.051)" fill="#646694"/>
        </g>
      </g>
    </g>
  </g>
</svg>
