<svg xmlns="http://www.w3.org/2000/svg" width="70.168" height="18.908" viewBox="0 0 70.168 18.908">
  <g id="Group_7693" data-name="Group 7693" transform="translate(-324.968 -87.5)">
    <path id="Path_36279" data-name="Path 36279" d="M-1332.269-209.017v1.261h10.084v-1.261Zm10.084,1.261v1.26h1.26v1.261h1.261v-2.521Zm2.521,2.521v2.521h1.26v-2.521Zm1.26,2.521v5.042h1.26v-5.042Zm0,5.042h-1.26v1.261h1.26Zm-1.26,1.261h-1.261v1.26h1.261Zm-1.261,1.26h-1.26v3.782h1.26Zm-1.26,3.782h-2.521v-2.521h-1.261v2.521h-2.521v-2.521h-1.26v2.521h-2.521v1.261h10.084Zm-10.084,0v-3.782h-1.26v3.782Zm-1.26-3.782v-1.26h-1.26v1.26Zm-1.26-1.26v-1.261h-1.261v1.261Zm-1.261-1.261v-5.042h-1.26v5.042Zm0-5.042h1.261v-2.521h-1.261Zm1.261-2.521h1.26V-206.5h1.26v-1.26h-2.521Zm0,2.521v3.782h1.26v1.261h3.782v-1.261h1.26v-3.782h-1.26v-1.261h-3.782v1.261Zm15.126,0h-1.261v-1.261h-3.781v1.261h-1.261v3.782h1.261v1.261h3.781v-1.261h1.261Zm-8.824,5.042v2.521h2.521v-2.521Zm0,0" transform="translate(1712.279 296.517)"/>
    <path id="Path_36280" data-name="Path 36280" d="M-1332.269-209.017v1.261h10.084v-1.261Zm10.084,1.261v1.26h1.26v1.261h1.261v-2.521Zm2.521,2.521v2.521h1.26v-2.521Zm1.26,2.521v5.042h1.26v-5.042Zm0,5.042h-1.26v1.261h1.26Zm-1.26,1.261h-1.261v1.26h1.261Zm-1.261,1.26h-1.26v3.782h1.26Zm-1.26,3.782h-2.521v-2.521h-1.261v2.521h-2.521v-2.521h-1.26v2.521h-2.521v1.261h10.084Zm-10.084,0v-3.782h-1.26v3.782Zm-1.26-3.782v-1.26h-1.26v1.26Zm-1.26-1.26v-1.261h-1.261v1.261Zm-1.261-1.261v-5.042h-1.26v5.042Zm0-5.042h1.261v-2.521h-1.261Zm1.261-2.521h1.26V-206.5h1.26v-1.26h-2.521Zm0,2.521v3.782h1.26v1.261h3.782v-1.261h1.26v-3.782h-1.26v-1.261h-3.782v1.261Zm15.126,0h-1.261v-1.261h-3.781v1.261h-1.261v3.782h1.261v1.261h3.781v-1.261h1.261Zm-8.824,5.042v2.521h2.521v-2.521Zm0,0" transform="translate(1687.279 296.517)" fill="#e3e3e3"/>
    <path id="Path_36281" data-name="Path 36281" d="M-1332.269-209.017v1.261h10.084v-1.261Zm10.084,1.261v1.26h1.26v1.261h1.261v-2.521Zm2.521,2.521v2.521h1.26v-2.521Zm1.26,2.521v5.042h1.26v-5.042Zm0,5.042h-1.26v1.261h1.26Zm-1.26,1.261h-1.261v1.26h1.261Zm-1.261,1.26h-1.26v3.782h1.26Zm-1.26,3.782h-2.521v-2.521h-1.261v2.521h-2.521v-2.521h-1.26v2.521h-2.521v1.261h10.084Zm-10.084,0v-3.782h-1.26v3.782Zm-1.26-3.782v-1.26h-1.26v1.26Zm-1.26-1.26v-1.261h-1.261v1.261Zm-1.261-1.261v-5.042h-1.26v5.042Zm0-5.042h1.261v-2.521h-1.261Zm1.261-2.521h1.26V-206.5h1.26v-1.26h-2.521Zm0,2.521v3.782h1.26v1.261h3.782v-1.261h1.26v-3.782h-1.26v-1.261h-3.782v1.261Zm15.126,0h-1.261v-1.261h-3.781v1.261h-1.261v3.782h1.261v1.261h3.781v-1.261h1.261Zm-8.824,5.042v2.521h2.521v-2.521Zm0,0" transform="translate(1662.279 296.517)" fill="#e3e3e3"/>
  </g>
</svg>
