<svg xmlns="http://www.w3.org/2000/svg" width="24.131" height="27.754" viewBox="0 0 24.131 27.754">
  <g id="Group_7674" data-name="Group 7674" transform="translate(-340.866 -599.948)">
    <g id="Group_7683" data-name="Group 7683">
      <path id="Path_36257" data-name="Path 36257" d="M345.171,621.013c-.443-.023-3.265.382-3.309-.6,0-.034.013-.027.04.019a6.731,6.731,0,0,0,1.622,3.1c.808,1.137.363,2.026.775,3.184s1.64.875,2.674.944a29.953,29.953,0,0,0,6.566-.4,4.563,4.563,0,0,1,.812-3.5c1.4-1.6,4.233-1.4,4.974-3.769.527-1.684-.86-4.46-1.671-5.9.705,2.712-2.9,4.838-4.874,5.645A18.186,18.186,0,0,1,345.171,621.013Z" fill="#332e2f" fill-rule="evenodd"/>
      <path id="Path_36258" data-name="Path 36258" d="M349.955,625.039c-.016-.186-.035-.371-.065-.549a6.041,6.041,0,0,0,1.191-.058c-.03.994.249,1.923.178,2.926a2.676,2.676,0,0,1,1.747-.436c.262-1.526-.356-2.48.842-3.713a10.269,10.269,0,0,1,3.738-2.29c2.046-.916,1.7-2.716,1.1-4.539-.993-3.034-2.387-5.972-5.388-7.474a8.742,8.742,0,0,0-8.163.107,9.106,9.106,0,0,0-4.22,8.867,7.5,7.5,0,0,0,2.33,4.737c1.091.968,1.592.982,1.6,2.558,0,1.667.48,1.877,2.113,2.089a12.66,12.66,0,0,0,.32-2.866,1.622,1.622,0,0,1,.651.006c.07,1.011-.036,2.047-.007,3.074a5.469,5.469,0,0,1,1.994-.051A21.037,21.037,0,0,0,349.955,625.039Z" fill="#d3c3af" fill-rule="evenodd"/>
      <g id="Group_7682" data-name="Group 7682">
        <path id="Path_36259" data-name="Path 36259" d="M353.3,608.906a8.812,8.812,0,0,0-7.788-.093,9.609,9.609,0,0,1,5.054.878c4.03,2.119,4.674,7.451,3.414,11.447a6.664,6.664,0,0,1-2.9,3.513c.014.911.243,1.779.178,2.707a2.676,2.676,0,0,1,1.747-.436c.262-1.526-.356-2.48.842-3.713a10.269,10.269,0,0,1,3.738-2.29c2.046-.916,1.7-2.716,1.1-4.539C357.691,613.346,356.3,610.408,353.3,608.906Z" fill="#857769" fill-rule="evenodd"/>
        <path id="Path_36260" data-name="Path 36260" d="M347.915,627.478a5.469,5.469,0,0,1,1.994-.051c.03-.7.087-1.477.051-2.206a6.467,6.467,0,0,1-2.023.478C347.926,626.29,347.9,626.886,347.915,627.478Z" fill="#857769" fill-rule="evenodd"/>
        <path id="Path_36261" data-name="Path 36261" d="M346.951,627.264a8.839,8.839,0,0,0,.252-1.567,4.61,4.61,0,0,1-2.373-.831c.005.1.008.195.008.309C344.843,626.842,345.318,627.052,346.951,627.264Z" fill="#857769" fill-rule="evenodd"/>
      </g>
      <path id="Path_36262" data-name="Path 36262" d="M357.894,615.818c.413,1.179,1.045,2.734.352,3.9-.891,1.5-2.938,1.219-3.909,2.495.2-1.074,1.1-1.562,1.95-2.144a3.97,3.97,0,0,0,1.672-3.916Z" fill="#332e2f" fill-rule="evenodd"/>
      <path id="Path_36263" data-name="Path 36263" d="M346.162,621.246c-.149.835.487,1.534,1.023,2.33a19.763,19.763,0,0,1,2.062-2.4c-.7-1.13-.958-3.21-1.9-4.113C347.073,618.508,346.411,619.833,346.162,621.246Z" fill="#332e2f" fill-rule="evenodd"/>
      <path id="Path_36264" data-name="Path 36264" d="M343.534,619.543c2.067.4,2.157-3.378,1.459-4.535a1.76,1.76,0,0,0-3.374.651C341.465,617.042,341.889,619.22,343.534,619.543Z" fill="#332e2f" fill-rule="evenodd"/>
      <path id="Path_36265" data-name="Path 36265" d="M352.987,614.136c1.152.634.931,3.1.093,4.071-.995,1.142-3.206,1.842-3.606-.073a3.818,3.818,0,0,1,2.458-4.1A1.475,1.475,0,0,1,352.987,614.136Z" fill="#332e2f" fill-rule="evenodd"/>
      <path id="Path_36266" data-name="Path 36266" d="M346.6,609.19c-2.192.041-4.225,2.387-4.94,4.247.979.017,1.97-.286,2.941-.193.858.082,1.455.711,2.237.506a16.223,16.223,0,0,0,3.42-1.964c.176-.614-1.336-1.471-1.814-1.731-.676-.369-1.433-.558-2.112-.935Z" fill="#e4ddd1" fill-rule="evenodd"/>
    </g>
    <path id="Path_36267" data-name="Path 36267" d="M354.462,610.26a8.77,8.77,0,0,0-1.814-1.487,7.581,7.581,0,0,0-5.686-.364c.345,1.983,2.954,3.093,3.759,4.936.627,1.434,1.191,2.635,2.9,2.783a18.651,18.651,0,0,0,4.941-.339,4.968,4.968,0,0,0-1.4-2.484C356.279,612.394,355.417,611.245,354.462,610.26Z" fill="#332e2f" fill-rule="evenodd" opacity="0.45"/>
    <g id="Group_7686" data-name="Group 7686">
      <path id="Path_36268" data-name="Path 36268" d="M361.435,616.732l-.029.02a6.93,6.93,0,0,1-.957.319,5.009,5.009,0,0,1-1.017.243,11.166,11.166,0,0,1-2.492-.013c-1.708-.148-2.272-1.348-2.9-2.783a8.053,8.053,0,0,0-2.654-3.255c-1.561-1.292-1.522-2.527-1.006-4.417.282,2.069,1.97,4.266,3.439,5.685,2.2,2.123,7.533,2.392,9.635-.1A10.671,10.671,0,0,0,362.2,615.4,3.908,3.908,0,0,1,361.435,616.732Z" fill="#332e2f" fill-rule="evenodd"/>
      <g id="Group_7684" data-name="Group 7684" opacity="0.45">
        <path id="Path_36269" data-name="Path 36269" d="M361.933,603.578c-.785-1.185-1.744-2.793-3.232-3.167a16.163,16.163,0,0,0-5.249.007c-2.24.284-3.455,2.55-4.426,4.36-.881,1.641-1.848,3.371-.7,5.109,1.073,1.631,3.243,1.985,4.286,3.559a10.99,10.99,0,0,1,.912,2A2.838,2.838,0,0,0,354.841,617c-.261-.137.292-2.447.666-2.613.455.612.27,1.918.37,2.71.539.023,1.074.043,1.6.079a7.347,7.347,0,0,1-.223-2.736,10.434,10.434,0,0,1,1.115.083,10.229,10.229,0,0,1,.084,2.22c.139,0,1.055-.021,1.11-.147.481-1.188-.023-1.638.945-2.7a9.139,9.139,0,0,0,2.213-4.182C363.332,607.3,363.322,605.676,361.933,603.578Z" fill="#332e2f" fill-rule="evenodd"/>
      </g>
      <path id="Path_36270" data-name="Path 36270" d="M363.822,603.6c-.787-1.184-1.743-2.794-3.231-3.168a16.232,16.232,0,0,0-5.251.006c-2.239.286-3.453,2.553-4.424,4.362-.881,1.641-1.85,3.373-.7,5.109,1.072,1.631,3.241,1.986,4.285,3.559a11.1,11.1,0,0,1,.914,2,2.817,2.817,0,0,0,1.319,1.553c-.26-.137.293-2.447.667-2.611.455.609.27,1.918.37,2.71.538.019,1.075.043,1.6.078a7.341,7.341,0,0,1-.224-2.734,10.1,10.1,0,0,1,1.115.08,10.174,10.174,0,0,1,.083,2.22c.141,0,1.056-.017,1.11-.145.483-1.189-.023-1.639.947-2.7a9.168,9.168,0,0,0,2.212-4.183C365.222,607.32,365.213,605.694,363.822,603.6Z" fill="#d3c3af" fill-rule="evenodd"/>
      <g id="Group_7685" data-name="Group 7685">
        <path id="Path_36271" data-name="Path 36271" d="M356.947,617.142a11.661,11.661,0,0,1,.128-2.313,7.159,7.159,0,0,1-2.231-5.3,10.155,10.155,0,0,1,1.847-5.922c1.077-1.712,2.086-3.706,4.559-2.971a9.238,9.238,0,0,0-6.1-.3c-2.5.769-3.1,2.353-4.23,4.469-.881,1.641-1.85,3.373-.7,5.109,1.072,1.631,3.241,1.986,4.285,3.559.834,1.321.273,3.508,2.444,3.837A1.326,1.326,0,0,0,356.947,617.142Z" fill="#857769" fill-rule="evenodd"/>
        <path id="Path_36272" data-name="Path 36272" d="M361.732,615.265a2.235,2.235,0,0,1-1.382.816c-.006.233-.014.459-.013.682.141,0,1.056-.017,1.11-.145A4.5,4.5,0,0,0,361.732,615.265Z" fill="#857769" fill-rule="evenodd"/>
        <path id="Path_36273" data-name="Path 36273" d="M359.363,617.2a4.272,4.272,0,0,1-.23-1.2,5.162,5.162,0,0,1-1.449-.7c.07.607.021,1.316.082,1.821C358.3,617.138,358.841,617.162,359.363,617.2Z" fill="#857769" fill-rule="evenodd"/>
      </g>
      <path id="Path_36274" data-name="Path 36274" d="M362.03,606.277c-1.335.97-2.362,3.176-1.4,4.282a1.832,1.832,0,0,0,2.109.461c1.137-.505,2.5-3.787,1.539-4.778A1.616,1.616,0,0,0,362.03,606.277Z" fill="#332e2f" fill-rule="evenodd"/>
      <path id="Path_36275" data-name="Path 36275" d="M358.682,608.625c-.11-2.384-2.791-4.37-5.1-2.959-1.176.723-.215,2.943.275,3.868C355.06,611.8,358.814,611.565,358.682,608.625Z" fill="#332e2f" fill-rule="evenodd"/>
      <path id="Path_36276" data-name="Path 36276" d="M359.31,609.213a6.841,6.841,0,0,0,1.589,3.241,8.44,8.44,0,0,1-1.956,1.456c.1-.064-1.005-1.739-.982-2.056a8.811,8.811,0,0,1,1.078-2.308Z" fill="#332e2f" fill-rule="evenodd"/>
      <path id="Path_36277" data-name="Path 36277" d="M360.826,604.159c.6.231,1.271.375,1.81.6,1.851.766,1.124-.626.362-1.54-.549-.654-2.4-2.8-3.392-2.2C358.34,601.79,360.022,603.848,360.826,604.159Z" fill="#e4ddd1" fill-rule="evenodd"/>
      <path id="Path_36278" data-name="Path 36278" d="M350.939,610.25c.76.624,1.616.816,2.275,1.627a10.047,10.047,0,0,1-1.984-3.584,6.671,6.671,0,0,1,1.2-5.064,29.427,29.427,0,0,0-1.758,2.739C349.924,607.387,349.542,609.1,350.939,610.25Z" fill="#332e2f" fill-rule="evenodd"/>
    </g>
  </g>
</svg>
