<svg xmlns="http://www.w3.org/2000/svg" xmlns:xlink="http://www.w3.org/1999/xlink" width="22.974" height="18.026" viewBox="0 0 22.974 18.026">
  <defs>
    <linearGradient id="linear-gradient" x1="0.5" x2="0.5" y2="1" gradientUnits="objectBoundingBox">
      <stop offset="0" stop-color="#800015"/>
      <stop offset="1" stop-color="#cf2d33"/>
    </linearGradient>
    <linearGradient id="linear-gradient-2" x1="0.5" x2="0.5" y2="1" gradientUnits="objectBoundingBox">
      <stop offset="0" stop-color="#b5282d"/>
      <stop offset="1" stop-color="#601"/>
    </linearGradient>
    <linearGradient id="linear-gradient-3" y1="0.5" x2="1" y2="0.5" gradientUnits="objectBoundingBox">
      <stop offset="0" stop-color="#b0001d"/>
      <stop offset="1" stop-color="#ff383f"/>
    </linearGradient>
    <linearGradient id="linear-gradient-4" x1="0" y1="0.5" x2="1" y2="0.5" xlink:href="#linear-gradient"/>
    <linearGradient id="linear-gradient-8" x1="0.5" x2="0.5" y2="1" gradientUnits="objectBoundingBox">
      <stop offset="0" stop-color="#ff383f"/>
      <stop offset="1" stop-color="#b0001d"/>
    </linearGradient>
    <linearGradient id="linear-gradient-9" y1="0.5" x2="1" y2="0.5" gradientUnits="objectBoundingBox">
      <stop offset="0" stop-color="#b00000"/>
      <stop offset="1" stop-color="#ff4338"/>
    </linearGradient>
    <linearGradient id="linear-gradient-10" x1="0.5" x2="0.5" y2="1" gradientUnits="objectBoundingBox">
      <stop offset="0" stop-color="#872000"/>
      <stop offset="0.334" stop-color="#a54115"/>
      <stop offset="0.771" stop-color="#c7682e"/>
      <stop offset="1" stop-color="#d57738"/>
    </linearGradient>
    <linearGradient id="linear-gradient-11" y1="0.5" x2="1" y2="0.5" gradientUnits="objectBoundingBox">
      <stop offset="0" stop-color="#d57738"/>
      <stop offset="0.229" stop-color="#c7682e"/>
      <stop offset="0.666" stop-color="#a54115"/>
      <stop offset="1" stop-color="#872000"/>
    </linearGradient>
    <linearGradient id="linear-gradient-12" y1="0.5" x2="1" y2="0.5" gradientUnits="objectBoundingBox">
      <stop offset="0" stop-color="#ffcf9c"/>
      <stop offset="0.213" stop-color="#db9b6e"/>
      <stop offset="0.511" stop-color="#ae5933"/>
      <stop offset="0.728" stop-color="#912f0e"/>
      <stop offset="0.839" stop-color="#872000"/>
    </linearGradient>
    <linearGradient id="linear-gradient-13" x1="0" y1="0.5" x2="1" y2="0.5" xlink:href="#linear-gradient-10"/>
    <linearGradient id="linear-gradient-16" x1="0.274" y1="-0.28" x2="0.712" y2="1.083" xlink:href="#linear-gradient-10"/>
    <linearGradient id="linear-gradient-17" x1="0.5" y1="0" x2="0.5" y2="1" xlink:href="#linear-gradient-11"/>
    <linearGradient id="linear-gradient-18" x1="-0.076" y1="-2.094" x2="0.935" y2="-2.094" xlink:href="#linear-gradient-11"/>
  </defs>
  <g id="Group_737" data-name="Group 737" transform="translate(-762.947 -807.003)">
    <path id="Path_3107" data-name="Path 3107" d="M890.347,995.32a4.652,4.652,0,0,0-2.273-.76c-2.468-.112-3.763,2.1-5.612,1.571-.816-.232-.6-.674-1.732-1.347a5.782,5.782,0,0,0-6.126.032,4.778,4.778,0,0,0-1.565,2.03l1.057-.66a6.868,6.868,0,0,1,2.152-.89,9.2,9.2,0,0,1,1.993-.279,3.341,3.341,0,0,1,1.712.407c.048.028.1.06.155.093.109.067.231.141.364.211a1.343,1.343,0,0,0-.414,1.036,1.378,1.378,0,0,0,.873,1.153,1.2,1.2,0,0,0,.444.083,2.9,2.9,0,0,0,1.38-.512c.069-.04.135-.079.2-.114l.4-.224a11.878,11.878,0,0,1,3.716-1.474,10.226,10.226,0,0,1,1.053-.1,11.988,11.988,0,0,1,1.5.015Z" transform="translate(-104.871 -178.054)" fill="url(#linear-gradient)"/>
    <path id="Path_3108" data-name="Path 3108" d="M890.347,995.32a4.652,4.652,0,0,0-2.273-.76c-2.468-.112-3.763,2.1-5.612,1.571-.816-.232-.6-.674-1.732-1.347a5.782,5.782,0,0,0-6.126.032,4.778,4.778,0,0,0-1.565,2.03l1.057-.66a6.868,6.868,0,0,1,2.152-.89,9.2,9.2,0,0,1,1.993-.279,3.341,3.341,0,0,1,1.712.407c.048.028.1.06.155.093.109.067.231.141.364.211a1.343,1.343,0,0,0-.414,1.036,1.378,1.378,0,0,0,.873,1.153,1.2,1.2,0,0,0,.444.083,2.9,2.9,0,0,0,1.38-.512c.069-.04.135-.079.2-.114l.4-.224a11.878,11.878,0,0,1,3.716-1.474,10.226,10.226,0,0,1,1.053-.1,11.988,11.988,0,0,1,1.5.015Z" transform="translate(-104.871 -178.054)" fill="url(#linear-gradient-2)" style="mix-blend-mode: multiply;isolation: isolate"/>
    <path id="Path_3109" data-name="Path 3109" d="M837.595,808.821l-1.33,2.851h0l-.379.813L833.4,817.82l-2.877-1.342.862-1.85h0l.865-1.856,2.467-5.292a.855.855,0,0,1,.636-.445,2.2,2.2,0,0,1,2.174,1.014A.854.854,0,0,1,837.595,808.821Z" transform="translate(-64.37)" fill="url(#linear-gradient-3)"/>
    <path id="Path_3110" data-name="Path 3110" d="M835.885,922.644l-2.487,5.334-2.877-1.342.862-1.85h0c.375.809.789,1,1.018,1.061C833.369,926.092,834.758,924.873,835.885,922.644Z" transform="translate(-64.37 -110.157)" fill="url(#linear-gradient-4)"/>
    <path id="Path_3111" data-name="Path 3111" d="M1039.021,926.005a.579.579,0,0,1-.481.2h-.02a2.425,2.425,0,0,1-.387-.038,10.055,10.055,0,0,0-2.755-.307,11.419,11.419,0,0,0-4.256,1.742c-.472.262-1.149.744-1.707.523a1.02,1.02,0,0,1-.641-.834,1.184,1.184,0,0,1,1.1-1.137l1.553-4.523.213-.619a1.78,1.78,0,0,0,.345.422l.04.035a1.488,1.488,0,0,0,.563.3,1.821,1.821,0,0,0,.229.049h.008c.578.087,1.249-.059,2.063-.013a4.985,4.985,0,0,1,3.343,1.419,3.564,3.564,0,0,1,.783,1.577c.017.07.033.138.047.2.01.046.02.091.029.134C1039.183,925.6,1039.152,925.841,1039.021,926.005Z" transform="translate(-253.221 -108.601)" fill="url(#linear-gradient-3)"/>
    <path id="Path_3112" data-name="Path 3112" d="M1038.54,934.7h-.02a2.419,2.419,0,0,1-.387-.038,10.057,10.057,0,0,0-2.755-.307,11.419,11.419,0,0,0-4.256,1.742c-.472.262-1.149.744-1.707.523a1.02,1.02,0,0,1-.641-.833,1.184,1.184,0,0,1,1.1-1.137l1.553-4.523c.18-.071.366-.136.557-.2-.072.962-.163,1.794-.25,2.465a5.016,5.016,0,0,1-.554,2.181c-.371.6-.813.882-.751.971a22.864,22.864,0,0,0,2.244-.964,8.089,8.089,0,0,1,3.143-.562A7.041,7.041,0,0,1,1038.54,934.7Z" transform="translate(-253.221 -117.099)" fill="url(#linear-gradient-3)" style="mix-blend-mode: multiply;isolation: isolate"/>
    <path id="Path_3113" data-name="Path 3113" d="M901.438,839.326a2.9,2.9,0,0,1-.011.3,4.065,4.065,0,0,1-.5,1.535c-.077.153-.154.3-.222.445-.807,1.709-.477,3.1-1.333,3.967a1.049,1.049,0,0,1-.417.272c-.573.19-1.15-.249-1.523-.465a5.584,5.584,0,0,0-3.969-.168,7.214,7.214,0,0,0-2.267.937l3.615-7.751.582-1.248c.067-.026.153-.058.254-.092h0a5.95,5.95,0,0,1,1.723-.313,4.829,4.829,0,0,1,2,.362,4.31,4.31,0,0,1,1.637,1.051,1.816,1.816,0,0,1,.383.712A1.692,1.692,0,0,1,901.438,839.326Z" transform="translate(-122.17 -28.332)" fill="url(#linear-gradient-3)"/>
    <path id="Path_3114" data-name="Path 3114" d="M899.376,853.76a1.03,1.03,0,0,1-.417.272c-.572.19-1.15-.25-1.523-.465a5.584,5.584,0,0,0-3.969-.168,7.212,7.212,0,0,0-2.267.937l3.615-7.751.582-1.248c-.206.654-.556,1.734-1.039,3.059-.967,2.651-1.308,3.273-.962,3.752.7.964,3.072-.224,4.209.95a1.987,1.987,0,0,0,1.227.726A1.422,1.422,0,0,0,899.376,853.76Z" transform="translate(-122.17 -36.516)" fill="url(#linear-gradient-8)" style="mix-blend-mode: multiply;isolation: isolate"/>
    <path id="Path_3115" data-name="Path 3115" d="M872.317,808.821q-3.676,5.255-4.864,4.743-.347-.15-.481-.792l2.467-5.292a.855.855,0,0,1,.636-.445,2.2,2.2,0,0,1,2.174,1.014A.854.854,0,0,1,872.317,808.821Z" transform="translate(-99.092)" fill="url(#linear-gradient-9)" style="mix-blend-mode: screen;isolation: isolate"/>
    <g id="Group_739" data-name="Group 739" transform="translate(762.947 816.002)">
      <path id="Path_3116" data-name="Path 3116" d="M765.9,1140.573l0,.007-.006.014c-.007.016-.016.031-.024.046-.27.47-1.078.566-1.847.208s-1.214-1.04-1.026-1.549c0-.012.009-.024.014-.036l.012-.025c.245-.506,1.078-.619,1.869-.25S766.12,1140.06,765.9,1140.573Z" transform="translate(-762.947 -1132.037)" fill="url(#linear-gradient-10)"/>
      <path id="Path_3117" data-name="Path 3117" d="M770.406,998.594l-.257.55v0l-.725,1.555h0l-2.149,4.609c.224-.512-.225-1.219-1.011-1.586a2.434,2.434,0,0,0-.436-.155,1.212,1.212,0,0,0-1.432.405l.749-1.605,2.387-5.119a.693.693,0,0,1,.2-.249,1.186,1.186,0,0,1,.746-.227,2.1,2.1,0,0,1,.656.109h0a2.319,2.319,0,0,1,.272.107,2.279,2.279,0,0,1,.65.449A1.058,1.058,0,0,1,770.406,998.594Z" transform="translate(-764.324 -996.776)" fill="url(#linear-gradient-11)"/>
      <path id="Path_3118" data-name="Path 3118" d="M779.887,1010.456a.242.242,0,0,1-.39.068,2.642,2.642,0,0,0-.746-.514,2.006,2.006,0,0,0-.5-.178,1.313,1.313,0,0,0-.375-.005h-.007a.242.242,0,0,1-.259-.342l2.589-5.458a.323.323,0,0,1,.094-.117.831.831,0,0,1,.517-.146,1.724,1.724,0,0,1,.476.071l.067.021a1.958,1.958,0,0,1,.229.09,1.92,1.92,0,0,1,.543.374c.259.26.37.548.282.736l-.292.624Z" transform="translate(-776.89 -1003.433)" opacity="0.7" fill="url(#linear-gradient-12)" style="mix-blend-mode: screen;isolation: isolate"/>
      <g id="Group_738" data-name="Group 738" transform="translate(0.523 0)" style="mix-blend-mode: multiply;isolation: isolate">
        <path id="Path_3119" data-name="Path 3119" d="M777.706,999.325a1.675,1.675,0,0,1-.1.258,2.438,2.438,0,0,1-.136.234,1.782,1.782,0,0,1-.371.4,4.262,4.262,0,0,0-.362.334,4.186,4.186,0,0,0-.315.376,8.342,8.342,0,0,0-.544.84,19.674,19.674,0,0,0-.916,1.8,13.643,13.643,0,0,1,.757-1.889,8.291,8.291,0,0,1,.506-.893,3.791,3.791,0,0,1,.316-.417,4.554,4.554,0,0,1,.368-.368,1.485,1.485,0,0,0,.3-.352,2.192,2.192,0,0,0,.112-.208,1.394,1.394,0,0,0,.081-.213,2.982,2.982,0,0,0,.089-.95c-.007-.162-.025-.325-.041-.494s-.035-.333-.061-.492a1.982,1.982,0,0,0-.049-.225l-.016-.047-.007-.016-.016.018a1.206,1.206,0,0,0-.128.176,6.618,6.618,0,0,0-.43.883c-.128.309-.246.623-.366.938-.241.627-.458,1.271-.724,1.9-.132.314-.269.625-.421.931s-.315.6-.49.9l-.067.109c-.022.037-.049.075-.073.11q-.077.105-.16.2a1.958,1.958,0,0,1-.179.192.544.544,0,0,1-.115.085.192.192,0,0,1-.044.016.093.093,0,0,1-.111-.06.232.232,0,0,1-.01-.044.563.563,0,0,1,.01-.14c.008-.044.018-.086.029-.127.021-.083.047-.165.074-.245.055-.161.116-.319.179-.476-.046.163-.089.327-.126.492-.018.082-.037.164-.05.246a.818.818,0,0,0-.015.235.022.022,0,0,0,0,.007l.009-.005a.457.457,0,0,0,.082-.073,1.979,1.979,0,0,0,.153-.191c.048-.067.094-.136.137-.207.021-.035.041-.069.059-.106l.057-.112a16.428,16.428,0,0,0,.8-1.845c.116-.315.225-.633.335-.952s.216-.641.329-.961.233-.638.361-.955c.064-.158.131-.316.2-.473a4.391,4.391,0,0,1,.246-.468,1.186,1.186,0,0,1,.746-.227l.022.039c.014.027.024.052.035.078l.024.072a2.317,2.317,0,0,1,.057.271c.027.175.044.346.059.515s.033.34.036.517A3.3,3.3,0,0,1,777.706,999.325Z" transform="translate(-773.978 -996.776)" fill="url(#linear-gradient-13)"/>
        <path id="Path_3120" data-name="Path 3120" d="M820.756,1001.354v0l-.725,1.555h0c-.064.084-.129.168-.2.25-.2.243-.4.474-.616.7-.107.113-.219.224-.326.331a2.571,2.571,0,0,0-.284.327,3.166,3.166,0,0,0-.391.776c-.048.139-.087.28-.122.427l-.027.113a1.258,1.258,0,0,1-.037.13.2.2,0,0,1-.009.023c0,.009-.006.014-.013.028a.276.276,0,0,1-.029.042l-.011.013-.018.016a.216.216,0,0,1-.058.034.221.221,0,0,1-.094.01.225.225,0,0,1-.072-.024.2.2,0,0,1-.037-.026l-.016-.014-.008-.01a.267.267,0,0,1-.041-.061.688.688,0,0,1-.052-.149,2.315,2.315,0,0,1-.052-.5,3.268,3.268,0,0,1,.034-.488,2.731,2.731,0,0,1,.11-.477l.037-.117c.012-.039.031-.077.046-.115a1.72,1.72,0,0,1,.106-.224,2.912,2.912,0,0,1,.609-.76c.231-.216.466-.4.659-.624a2.83,2.83,0,0,0,.636-1.622,6.932,6.932,0,0,0-.019-1.829,5.05,5.05,0,0,1,.172.911,6.883,6.883,0,0,1,.027.933,3.778,3.778,0,0,1-.146.935,2.462,2.462,0,0,1-.449.856,3.778,3.778,0,0,1-.323.354c-.112.11-.226.213-.332.319a2.581,2.581,0,0,0-.523.688,1.648,1.648,0,0,0-.087.2.956.956,0,0,0-.039.1l-.031.1a2.352,2.352,0,0,0-.095.422c-.01.078-.017.155-.021.233a3.311,3.311,0,0,1,.437-.83,2.872,2.872,0,0,1,.331-.36c.113-.108.224-.21.331-.317s.21-.216.317-.328.21-.222.312-.335a3.994,3.994,0,0,0,.936-1.515,3.574,3.574,0,0,0,.148-.891,5.172,5.172,0,0,0-.042-.918,4.4,4.4,0,0,1,.144.918A3.6,3.6,0,0,1,820.756,1001.354Z" transform="translate(-815.455 -998.986)" fill="url(#linear-gradient-13)"/>
        <path id="Path_3121" data-name="Path 3121" d="M825.538,1025.687c0-.066-.006-.131-.014-.194a.594.594,0,0,0-.018-.1c-.009-.03-.021-.065-.052-.077a.106.106,0,0,1,.048.078.456.456,0,0,1,.01.1.81.81,0,0,1-.024.188.939.939,0,0,1-.151.337,1.456,1.456,0,0,1-.241.253c-.018.016-.037.031-.056.045.021-.111.042-.229.069-.346a2.168,2.168,0,0,1,.114-.365,1.03,1.03,0,0,1,.089-.169.574.574,0,0,1,.059-.074.116.116,0,0,1,.083-.041.116.116,0,0,0-.085.039.737.737,0,0,0-.067.069c-.043.048-.083.1-.123.15-.08.1-.162.207-.239.315a2.082,2.082,0,0,0-.209.346.98.98,0,0,0-.071.209c0,.021-.007.043-.009.068v.042a.477.477,0,0,0,.008.055.337.337,0,0,0,.014.041.2.2,0,0,0,.024.044.231.231,0,0,0,.109.081.265.265,0,0,0,.151,0,.5.5,0,0,0,.137-.063.819.819,0,0,0,.094-.073.939.939,0,0,0,.146-.167,1.134,1.134,0,0,0,.171-.39A1.59,1.59,0,0,0,825.538,1025.687Zm-.525.841v0a.013.013,0,0,1,0,.009A.02.02,0,0,0,825.013,1026.528Z" transform="translate(-822.248 -1023.967)" fill="url(#linear-gradient-11)"/>
      </g>
      <path id="Path_3122" data-name="Path 3122" d="M765.95,1153.063a.648.648,0,0,1-.047.155l0,.007-.006.014c-.007.016-.016.031-.024.046-.27.47-1.078.566-1.846.208-.718-.335-1.155-.953-1.054-1.448a1.853,1.853,0,0,0,1.09,1.206A1.509,1.509,0,0,0,765.95,1153.063Z" transform="translate(-762.955 -1144.683)" fill="url(#linear-gradient-16)" style="mix-blend-mode: multiply;isolation: isolate"/>
      <path id="Path_3123" data-name="Path 3123" d="M765.9,1140.573l0,.007-.006.014c-.007.016-.016.031-.024.046-.27.47-1.078.566-1.847.208s-1.214-1.04-1.026-1.549c0-.012.009-.024.014-.036l.012-.025c.245-.506,1.078-.619,1.869-.25S766.12,1140.06,765.9,1140.573Z" transform="translate(-762.947 -1132.037)" opacity="0.3" fill="url(#linear-gradient-17)" style="mix-blend-mode: multiply;isolation: isolate"/>
      <path id="Path_3124" data-name="Path 3124" d="M792.9,1029.933c-.247-.09-2.242,4.208-2,4.344a5.931,5.931,0,0,0,1.72-2.91C792.76,1030.92,793.009,1029.974,792.9,1029.933Z" transform="translate(-789.555 -1028.359)" fill="#fff" opacity="0.75" style="mix-blend-mode: screen;isolation: isolate"/>
      <path id="Path_3125" data-name="Path 3125" d="M769.606,1143.479a4.522,4.522,0,0,1,1,.194,2.86,2.86,0,0,1,.47.2,1.582,1.582,0,0,1,.4.293.724.724,0,0,1,.239.424.268.268,0,0,1-.033.144.548.548,0,0,1-.042.064l-.054.054a.881.881,0,0,1-.257.138,1.916,1.916,0,0,1-1.121,0,1.472,1.472,0,0,1-.485-.253,1.258,1.258,0,0,1-.324-.371.559.559,0,0,1-.074-.237.353.353,0,0,1,0-.071.332.332,0,0,1,.026-.076.316.316,0,0,1,.143-.127.786.786,0,0,1,.319-.055,1.97,1.97,0,0,1,.278.024,3.217,3.217,0,0,1,.512.123,2.018,2.018,0,0,1,.471.214.308.308,0,0,1,.1.106.1.1,0,0,1,.01.046.091.091,0,0,1-.016.047.129.129,0,0,1-.032.032.159.159,0,0,1-.034.021.56.56,0,0,1-.132.044c-.043.01-.086.016-.129.022a4.218,4.218,0,0,1-.511.029c.164-.031.329-.061.484-.1a.794.794,0,0,0,.2-.078.037.037,0,0,0,.017-.018s0,0-.006,0a.261.261,0,0,0-.064-.045,1.976,1.976,0,0,0-.438-.149,3.4,3.4,0,0,0-.473-.081,1.656,1.656,0,0,0-.228-.006.448.448,0,0,0-.166.032c-.013.008-.012.012-.016.018s0,.011,0,.018a.175.175,0,0,0,0,.027.366.366,0,0,0,.056.144,1.035,1.035,0,0,0,.261.281,1.1,1.1,0,0,0,.363.187,1.573,1.573,0,0,0,.861.013.583.583,0,0,0,.158-.075l.025-.022c.007-.008.01-.015.017-.022a.075.075,0,0,0,.016-.047.314.314,0,0,0-.043-.144.859.859,0,0,0-.049-.079l-.026-.04c-.01-.013-.021-.025-.032-.037a.906.906,0,0,0-.067-.074l-.076-.07c-.056-.043-.112-.088-.175-.128a2.57,2.57,0,0,0-.406-.217A6.022,6.022,0,0,0,769.606,1143.479Z" transform="translate(-769.029 -1136.523)" fill="url(#linear-gradient-18)" style="mix-blend-mode: multiply;isolation: isolate"/>
      <path id="Path_3126" data-name="Path 3126" d="M826.931,998.594l-.257.55v0l-.725,1.555h0l-2.149,4.609a.85.85,0,0,0-.066-.741l1.8-3.868h0l.725-1.555v0l.257-.55a1.058,1.058,0,0,0-.355-1.153,2.279,2.279,0,0,0-.65-.449,2.318,2.318,0,0,0-.272-.107h0a2.183,2.183,0,0,0-.44-.1,1.553,1.553,0,0,1,.2-.013,2.1,2.1,0,0,1,.656.109h0a2.319,2.319,0,0,1,.272.107,2.279,2.279,0,0,1,.65.449A1.058,1.058,0,0,1,826.931,998.594Z" transform="translate(-820.85 -996.776)" fill="url(#linear-gradient-11)" style="mix-blend-mode: multiply;isolation: isolate"/>
    </g>
    <path id="Path_3127" data-name="Path 3127" d="M985.684,840.988c-.414,1.009-.916,1.985-1.363,2.981-.156.348-.339,1.215-.692,1.4-.308.165-.7-.306-.951-.421a4.041,4.041,0,0,0-1.369-.337,1.474,1.474,0,0,1-.55-.1.654.654,0,0,1-.306-.478,5.6,5.6,0,0,1,.388-2.671,18.317,18.317,0,0,1,.663-2.094,1.784,1.784,0,0,1,2.011-1.049,4.663,4.663,0,0,1,.822.256c.127.053.293.122.475.211a1.788,1.788,0,0,1,.876,2.283Z" transform="translate(-207.133 -29.702)" fill="url(#linear-gradient-9)" style="mix-blend-mode: screen;isolation: isolate"/>
    <path id="Path_3128" data-name="Path 3128" d="M1110.121,941.208a5.474,5.474,0,0,0-1.371-.81,6.278,6.278,0,0,0-2.429-.409c-1.74.018-2.612.6-2.862.241-.215-.306.382-.8.449-1.871a3.327,3.327,0,0,0-.223-1.39,1.815,1.815,0,0,0,.229.049h.008c.578.087,1.249-.059,2.063-.013a4.984,4.984,0,0,1,3.343,1.419,3.564,3.564,0,0,1,.783,1.577c.017.07.032.138.047.2.01.046.02.091.029.134C1110.283,940.8,1110.251,941.044,1110.121,941.208Z" transform="translate(-324.321 -123.803)" fill="url(#linear-gradient-9)" style="mix-blend-mode: screen;isolation: isolate"/>
    <path id="Path_3129" data-name="Path 3129" d="M1019.671,850.214a9.413,9.413,0,0,1,1.283.16c1.116.336,1.62,1.181,1.732,1.09s-.215-1.089-1.058-1.475A1.942,1.942,0,0,0,1019.671,850.214Z" transform="translate(-244.551 -40.795)" fill="#fff" opacity="0.6" style="mix-blend-mode: screen;isolation: isolate"/>
    <path id="Path_3130" data-name="Path 3130" d="M922.449,814.333c.438-.278,1.1,0,1.1.126,0,.074-.22.066-.757.279-.471.186-.624.319-.687.259C922.019,814.913,922.158,814.518,922.449,814.333Z" transform="translate(-151.587 -6.868)" fill="#fff" opacity="0.6" style="mix-blend-mode: screen;isolation: isolate"/>
    <path id="Path_3131" data-name="Path 3131" d="M1183.395,959.835a2.018,2.018,0,0,1,1.578.547c.538.449.822,1.1.742,1.162-.057.046-.28-.212-.841-.656C1183.914,960.129,1183.356,959.926,1183.395,959.835Z" transform="translate(-400.509 -145.548)" fill="#fff" opacity="0.6" style="mix-blend-mode: screen;isolation: isolate"/>
  </g>
</svg>
