<svg xmlns="http://www.w3.org/2000/svg" width="64" height="14.729" viewBox="0 0 64 14.729">
  <g id="Group_5969" data-name="Group 5969" transform="translate(-174.447 -754.188)">
    <g id="Group_5966" data-name="Group 5966" transform="translate(-353.217 243.055)">
      <g id="Group_5965" data-name="Group 5965" transform="translate(527.664 511.133)">
        <g id="Group_5964" data-name="Group 5964" transform="translate(0 0)">
          <g id="Group_5963" data-name="Group 5963">
            <rect id="Rectangle_38366" data-name="Rectangle 38366" width="1.618" height="1.619" transform="translate(16.382 4.911)" fill="#fff"/>
            <rect id="Rectangle_38367" data-name="Rectangle 38367" width="1.618" height="1.608" transform="translate(16.382 3.278)" fill="#fff"/>
            <rect id="Rectangle_38368" data-name="Rectangle 38368" width="1.618" height="1.619" transform="translate(16.382 1.61)" fill="#fff"/>
            <rect id="Rectangle_38369" data-name="Rectangle 38369" width="1.61" height="1.608" transform="translate(14.772 6.555)" fill="#fff"/>
            <rect id="Rectangle_38370" data-name="Rectangle 38370" width="1.61" height="1.619" transform="translate(14.772 4.911)" fill="#fff"/>
            <rect id="Rectangle_38371" data-name="Rectangle 38371" width="1.61" height="1.608" transform="translate(14.772 3.278)" fill="#fff"/>
            <rect id="Rectangle_38372" data-name="Rectangle 38372" width="1.61" height="1.619" transform="translate(14.772 1.61)" fill="#fff"/>
            <rect id="Rectangle_38373" data-name="Rectangle 38373" width="1.61" height="1.61" transform="translate(14.772)" fill="#fff"/>
            <rect id="Rectangle_38374" data-name="Rectangle 38374" width="1.619" height="1.619" transform="translate(13.105 8.188)" fill="#fff"/>
            <rect id="Rectangle_38375" data-name="Rectangle 38375" width="1.619" height="1.608" transform="translate(13.105 6.555)" fill="#fff"/>
            <rect id="Rectangle_38376" data-name="Rectangle 38376" width="1.619" height="1.619" transform="translate(13.105 4.911)" fill="#fff"/>
            <rect id="Rectangle_38377" data-name="Rectangle 38377" width="1.619" height="1.608" transform="translate(13.105 3.278)" fill="#fff"/>
            <rect id="Rectangle_38378" data-name="Rectangle 38378" width="1.619" height="1.619" transform="translate(13.105 1.61)" fill="#fff"/>
            <rect id="Rectangle_38379" data-name="Rectangle 38379" width="1.619" height="1.61" transform="translate(13.105)" fill="#fff"/>
            <rect id="Rectangle_38380" data-name="Rectangle 38380" width="1.608" height="1.619" transform="translate(11.472 9.832)" fill="#fff"/>
            <rect id="Rectangle_38381" data-name="Rectangle 38381" width="1.608" height="1.619" transform="translate(11.472 8.188)" fill="#fff"/>
            <rect id="Rectangle_38382" data-name="Rectangle 38382" width="1.608" height="1.608" transform="translate(11.472 6.555)" fill="#fff"/>
            <rect id="Rectangle_38383" data-name="Rectangle 38383" width="1.608" height="1.619" transform="translate(11.472 4.911)" fill="#fff"/>
            <rect id="Rectangle_38384" data-name="Rectangle 38384" width="1.608" height="1.608" transform="translate(11.472 3.278)" fill="#fff"/>
            <rect id="Rectangle_38385" data-name="Rectangle 38385" width="1.608" height="1.619" transform="translate(11.472 1.61)" fill="#fff"/>
            <rect id="Rectangle_38386" data-name="Rectangle 38386" width="1.608" height="1.61" transform="translate(11.472)" fill="#fff"/>
            <rect id="Rectangle_38387" data-name="Rectangle 38387" width="1.619" height="1.61" transform="translate(9.829 11.501)" fill="#fff"/>
            <rect id="Rectangle_38388" data-name="Rectangle 38388" width="1.619" height="1.619" transform="translate(9.829 9.832)" fill="#fff"/>
            <rect id="Rectangle_38389" data-name="Rectangle 38389" width="1.619" height="1.619" transform="translate(9.829 8.188)" fill="#fff"/>
            <rect id="Rectangle_38390" data-name="Rectangle 38390" width="1.619" height="1.608" transform="translate(9.829 6.555)" fill="#fff"/>
            <rect id="Rectangle_38391" data-name="Rectangle 38391" width="1.619" height="1.619" transform="translate(9.829 4.911)" fill="#fff"/>
            <rect id="Rectangle_38392" data-name="Rectangle 38392" width="1.619" height="1.608" transform="translate(9.829 3.278)" fill="#fff"/>
            <rect id="Rectangle_38393" data-name="Rectangle 38393" width="1.619" height="1.619" transform="translate(9.829 1.61)" fill="#fff"/>
            <rect id="Rectangle_38394" data-name="Rectangle 38394" width="1.619" height="1.618" transform="translate(8.186 13.111)" fill="#fff"/>
            <rect id="Rectangle_38395" data-name="Rectangle 38395" width="1.619" height="1.61" transform="translate(8.186 11.501)" fill="#fff"/>
            <rect id="Rectangle_38396" data-name="Rectangle 38396" width="1.619" height="1.619" transform="translate(8.186 9.832)" fill="#fff"/>
            <rect id="Rectangle_38397" data-name="Rectangle 38397" width="1.619" height="1.619" transform="translate(8.186 8.188)" fill="#fff"/>
            <rect id="Rectangle_38398" data-name="Rectangle 38398" width="1.619" height="1.608" transform="translate(8.186 6.555)" fill="#fff"/>
            <rect id="Rectangle_38399" data-name="Rectangle 38399" width="1.619" height="1.619" transform="translate(8.186 4.911)" fill="#fff"/>
            <rect id="Rectangle_38400" data-name="Rectangle 38400" width="1.619" height="1.608" transform="translate(8.186 3.278)" fill="#fff"/>
            <rect id="Rectangle_38401" data-name="Rectangle 38401" width="1.608" height="1.61" transform="translate(6.553 11.501)" fill="#fff"/>
            <rect id="Rectangle_38402" data-name="Rectangle 38402" width="1.608" height="1.619" transform="translate(6.553 9.832)" fill="#fff"/>
            <rect id="Rectangle_38403" data-name="Rectangle 38403" width="1.608" height="1.619" transform="translate(6.553 8.188)" fill="#fff"/>
            <rect id="Rectangle_38404" data-name="Rectangle 38404" width="1.608" height="1.608" transform="translate(6.553 6.555)" fill="#fff"/>
            <rect id="Rectangle_38405" data-name="Rectangle 38405" width="1.608" height="1.619" transform="translate(6.553 4.911)" fill="#fff"/>
            <rect id="Rectangle_38406" data-name="Rectangle 38406" width="1.608" height="1.608" transform="translate(6.553 3.278)" fill="#fff"/>
            <rect id="Rectangle_38407" data-name="Rectangle 38407" width="1.608" height="1.619" transform="translate(6.553 1.61)" fill="#fff"/>
            <rect id="Rectangle_38408" data-name="Rectangle 38408" width="1.619" height="1.619" transform="translate(4.91 9.832)" fill="#fff"/>
            <rect id="Rectangle_38409" data-name="Rectangle 38409" width="1.619" height="1.619" transform="translate(4.91 8.188)" fill="#fff"/>
            <rect id="Rectangle_38410" data-name="Rectangle 38410" width="1.619" height="1.608" transform="translate(4.91 6.555)" fill="#fff"/>
            <rect id="Rectangle_38411" data-name="Rectangle 38411" width="1.619" height="1.619" transform="translate(4.91 4.911)" fill="#fff"/>
            <rect id="Rectangle_38412" data-name="Rectangle 38412" width="1.619" height="1.608" transform="translate(4.91 3.278)" fill="#fff"/>
            <rect id="Rectangle_38413" data-name="Rectangle 38413" width="1.619" height="1.619" transform="translate(4.91 1.61)" fill="#fff"/>
            <rect id="Rectangle_38414" data-name="Rectangle 38414" width="1.619" height="1.61" transform="translate(4.91)" fill="#fff"/>
            <rect id="Rectangle_38415" data-name="Rectangle 38415" width="1.61" height="1.619" transform="translate(3.276 8.188)" fill="#fff"/>
            <rect id="Rectangle_38416" data-name="Rectangle 38416" width="1.61" height="1.608" transform="translate(3.276 6.555)" fill="#fff"/>
            <rect id="Rectangle_38417" data-name="Rectangle 38417" width="1.61" height="1.619" transform="translate(3.276 4.911)" fill="#fff"/>
            <rect id="Rectangle_38418" data-name="Rectangle 38418" width="1.61" height="1.608" transform="translate(3.276 3.278)" fill="#fff"/>
            <rect id="Rectangle_38419" data-name="Rectangle 38419" width="1.61" height="1.619" transform="translate(3.276 1.61)" fill="#fff"/>
            <rect id="Rectangle_38420" data-name="Rectangle 38420" width="1.61" height="1.61" transform="translate(3.276)" fill="#fff"/>
            <rect id="Rectangle_38421" data-name="Rectangle 38421" width="1.618" height="1.608" transform="translate(1.61 6.555)" fill="#fff"/>
            <rect id="Rectangle_38422" data-name="Rectangle 38422" width="1.618" height="1.619" transform="translate(1.61 4.911)" fill="#fff"/>
            <rect id="Rectangle_38423" data-name="Rectangle 38423" width="1.618" height="1.608" transform="translate(1.61 3.278)" fill="#fff"/>
            <rect id="Rectangle_38424" data-name="Rectangle 38424" width="1.618" height="1.619" transform="translate(1.61 1.61)" fill="#fff"/>
            <rect id="Rectangle_38425" data-name="Rectangle 38425" width="1.618" height="1.61" transform="translate(1.61)" fill="#fff"/>
            <rect id="Rectangle_38426" data-name="Rectangle 38426" width="1.61" height="1.619" transform="translate(0 4.911)" fill="#fff"/>
            <rect id="Rectangle_38427" data-name="Rectangle 38427" width="1.61" height="1.608" transform="translate(0 3.278)" fill="#fff"/>
            <rect id="Rectangle_38428" data-name="Rectangle 38428" width="1.61" height="1.619" transform="translate(0 1.61)" fill="#fff"/>
          </g>
        </g>
      </g>
    </g>
    <g id="Group_5967" data-name="Group 5967" transform="translate(-330.217 243.055)">
      <g id="Group_5965-2" data-name="Group 5965" transform="translate(527.664 511.133)">
        <g id="Group_5964-2" data-name="Group 5964" transform="translate(0 0)">
          <g id="Group_5963-2" data-name="Group 5963">
            <rect id="Rectangle_38366-2" data-name="Rectangle 38366" width="1.618" height="1.619" transform="translate(16.382 4.911)" fill="#fff"/>
            <rect id="Rectangle_38367-2" data-name="Rectangle 38367" width="1.618" height="1.608" transform="translate(16.382 3.278)" fill="#fff"/>
            <rect id="Rectangle_38368-2" data-name="Rectangle 38368" width="1.618" height="1.619" transform="translate(16.382 1.61)" fill="#fff"/>
            <rect id="Rectangle_38369-2" data-name="Rectangle 38369" width="1.61" height="1.608" transform="translate(14.772 6.555)" fill="#fff"/>
            <rect id="Rectangle_38370-2" data-name="Rectangle 38370" width="1.61" height="1.619" transform="translate(14.772 4.911)" fill="#fff"/>
            <rect id="Rectangle_38371-2" data-name="Rectangle 38371" width="1.61" height="1.608" transform="translate(14.772 3.278)" fill="#fff"/>
            <rect id="Rectangle_38372-2" data-name="Rectangle 38372" width="1.61" height="1.619" transform="translate(14.772 1.61)" fill="#fff"/>
            <rect id="Rectangle_38373-2" data-name="Rectangle 38373" width="1.61" height="1.61" transform="translate(14.772)" fill="#fff"/>
            <rect id="Rectangle_38374-2" data-name="Rectangle 38374" width="1.619" height="1.619" transform="translate(13.105 8.188)" fill="#fff"/>
            <rect id="Rectangle_38375-2" data-name="Rectangle 38375" width="1.619" height="1.608" transform="translate(13.105 6.555)" fill="#fff"/>
            <rect id="Rectangle_38376-2" data-name="Rectangle 38376" width="1.619" height="1.619" transform="translate(13.105 4.911)" fill="#fff"/>
            <rect id="Rectangle_38377-2" data-name="Rectangle 38377" width="1.619" height="1.608" transform="translate(13.105 3.278)" fill="#fff"/>
            <rect id="Rectangle_38378-2" data-name="Rectangle 38378" width="1.619" height="1.619" transform="translate(13.105 1.61)" fill="#fff"/>
            <rect id="Rectangle_38379-2" data-name="Rectangle 38379" width="1.619" height="1.61" transform="translate(13.105)" fill="#fff"/>
            <rect id="Rectangle_38380-2" data-name="Rectangle 38380" width="1.608" height="1.619" transform="translate(11.472 9.832)" fill="#fff"/>
            <rect id="Rectangle_38381-2" data-name="Rectangle 38381" width="1.608" height="1.619" transform="translate(11.472 8.188)" fill="#fff"/>
            <rect id="Rectangle_38382-2" data-name="Rectangle 38382" width="1.608" height="1.608" transform="translate(11.472 6.555)" fill="#fff"/>
            <rect id="Rectangle_38383-2" data-name="Rectangle 38383" width="1.608" height="1.619" transform="translate(11.472 4.911)" fill="#fff"/>
            <rect id="Rectangle_38384-2" data-name="Rectangle 38384" width="1.608" height="1.608" transform="translate(11.472 3.278)" fill="#fff"/>
            <rect id="Rectangle_38385-2" data-name="Rectangle 38385" width="1.608" height="1.619" transform="translate(11.472 1.61)" fill="#fff"/>
            <rect id="Rectangle_38386-2" data-name="Rectangle 38386" width="1.608" height="1.61" transform="translate(11.472)" fill="#fff"/>
            <rect id="Rectangle_38387-2" data-name="Rectangle 38387" width="1.619" height="1.61" transform="translate(9.829 11.501)" fill="#fff"/>
            <rect id="Rectangle_38388-2" data-name="Rectangle 38388" width="1.619" height="1.619" transform="translate(9.829 9.832)" fill="#fff"/>
            <rect id="Rectangle_38389-2" data-name="Rectangle 38389" width="1.619" height="1.619" transform="translate(9.829 8.188)" fill="#fff"/>
            <rect id="Rectangle_38390-2" data-name="Rectangle 38390" width="1.619" height="1.608" transform="translate(9.829 6.555)" fill="#fff"/>
            <rect id="Rectangle_38391-2" data-name="Rectangle 38391" width="1.619" height="1.619" transform="translate(9.829 4.911)" fill="#fff"/>
            <rect id="Rectangle_38392-2" data-name="Rectangle 38392" width="1.619" height="1.608" transform="translate(9.829 3.278)" fill="#fff"/>
            <rect id="Rectangle_38393-2" data-name="Rectangle 38393" width="1.619" height="1.619" transform="translate(9.829 1.61)" fill="#fff"/>
            <rect id="Rectangle_38394-2" data-name="Rectangle 38394" width="1.619" height="1.618" transform="translate(8.186 13.111)" fill="#fff"/>
            <rect id="Rectangle_38395-2" data-name="Rectangle 38395" width="1.619" height="1.61" transform="translate(8.186 11.501)" fill="#fff"/>
            <rect id="Rectangle_38396-2" data-name="Rectangle 38396" width="1.619" height="1.619" transform="translate(8.186 9.832)" fill="#fff"/>
            <rect id="Rectangle_38397-2" data-name="Rectangle 38397" width="1.619" height="1.619" transform="translate(8.186 8.188)" fill="#fff"/>
            <rect id="Rectangle_38398-2" data-name="Rectangle 38398" width="1.619" height="1.608" transform="translate(8.186 6.555)" fill="#fff"/>
            <rect id="Rectangle_38399-2" data-name="Rectangle 38399" width="1.619" height="1.619" transform="translate(8.186 4.911)" fill="#fff"/>
            <rect id="Rectangle_38400-2" data-name="Rectangle 38400" width="1.619" height="1.608" transform="translate(8.186 3.278)" fill="#fff"/>
            <rect id="Rectangle_38401-2" data-name="Rectangle 38401" width="1.608" height="1.61" transform="translate(6.553 11.501)" fill="#fff"/>
            <rect id="Rectangle_38402-2" data-name="Rectangle 38402" width="1.608" height="1.619" transform="translate(6.553 9.832)" fill="#fff"/>
            <rect id="Rectangle_38403-2" data-name="Rectangle 38403" width="1.608" height="1.619" transform="translate(6.553 8.188)" fill="#fff"/>
            <rect id="Rectangle_38404-2" data-name="Rectangle 38404" width="1.608" height="1.608" transform="translate(6.553 6.555)" fill="#fff"/>
            <rect id="Rectangle_38405-2" data-name="Rectangle 38405" width="1.608" height="1.619" transform="translate(6.553 4.911)" fill="#fff"/>
            <rect id="Rectangle_38406-2" data-name="Rectangle 38406" width="1.608" height="1.608" transform="translate(6.553 3.278)" fill="#fff"/>
            <rect id="Rectangle_38407-2" data-name="Rectangle 38407" width="1.608" height="1.619" transform="translate(6.553 1.61)" fill="#fff"/>
            <rect id="Rectangle_38408-2" data-name="Rectangle 38408" width="1.619" height="1.619" transform="translate(4.91 9.832)" fill="#fff"/>
            <rect id="Rectangle_38409-2" data-name="Rectangle 38409" width="1.619" height="1.619" transform="translate(4.91 8.188)" fill="#fff"/>
            <rect id="Rectangle_38410-2" data-name="Rectangle 38410" width="1.619" height="1.608" transform="translate(4.91 6.555)" fill="#fff"/>
            <rect id="Rectangle_38411-2" data-name="Rectangle 38411" width="1.619" height="1.619" transform="translate(4.91 4.911)" fill="#fff"/>
            <rect id="Rectangle_38412-2" data-name="Rectangle 38412" width="1.619" height="1.608" transform="translate(4.91 3.278)" fill="#fff"/>
            <rect id="Rectangle_38413-2" data-name="Rectangle 38413" width="1.619" height="1.619" transform="translate(4.91 1.61)" fill="#fff"/>
            <rect id="Rectangle_38414-2" data-name="Rectangle 38414" width="1.619" height="1.61" transform="translate(4.91)" fill="#fff"/>
            <rect id="Rectangle_38415-2" data-name="Rectangle 38415" width="1.61" height="1.619" transform="translate(3.276 8.188)" fill="#fff"/>
            <rect id="Rectangle_38416-2" data-name="Rectangle 38416" width="1.61" height="1.608" transform="translate(3.276 6.555)" fill="#fff"/>
            <rect id="Rectangle_38417-2" data-name="Rectangle 38417" width="1.61" height="1.619" transform="translate(3.276 4.911)" fill="#fff"/>
            <rect id="Rectangle_38418-2" data-name="Rectangle 38418" width="1.61" height="1.608" transform="translate(3.276 3.278)" fill="#fff"/>
            <rect id="Rectangle_38419-2" data-name="Rectangle 38419" width="1.61" height="1.619" transform="translate(3.276 1.61)" fill="#fff"/>
            <rect id="Rectangle_38420-2" data-name="Rectangle 38420" width="1.61" height="1.61" transform="translate(3.276)" fill="#fff"/>
            <rect id="Rectangle_38421-2" data-name="Rectangle 38421" width="1.618" height="1.608" transform="translate(1.61 6.555)" fill="#fff"/>
            <rect id="Rectangle_38422-2" data-name="Rectangle 38422" width="1.618" height="1.619" transform="translate(1.61 4.911)" fill="#fff"/>
            <rect id="Rectangle_38423-2" data-name="Rectangle 38423" width="1.618" height="1.608" transform="translate(1.61 3.278)" fill="#fff"/>
            <rect id="Rectangle_38424-2" data-name="Rectangle 38424" width="1.618" height="1.619" transform="translate(1.61 1.61)" fill="#fff"/>
            <rect id="Rectangle_38425-2" data-name="Rectangle 38425" width="1.618" height="1.61" transform="translate(1.61)" fill="#fff"/>
            <rect id="Rectangle_38426-2" data-name="Rectangle 38426" width="1.61" height="1.619" transform="translate(0 4.911)" fill="#fff"/>
            <rect id="Rectangle_38427-2" data-name="Rectangle 38427" width="1.61" height="1.608" transform="translate(0 3.278)" fill="#fff"/>
            <rect id="Rectangle_38428-2" data-name="Rectangle 38428" width="1.61" height="1.619" transform="translate(0 1.61)" fill="#fff"/>
          </g>
        </g>
      </g>
    </g>
    <g id="Group_5968" data-name="Group 5968" transform="translate(-307.217 243.055)">
      <g id="Group_5965-3" data-name="Group 5965" transform="translate(527.664 511.133)">
        <g id="Group_5964-3" data-name="Group 5964" transform="translate(0 0)">
          <g id="Group_5963-3" data-name="Group 5963">
            <rect id="Rectangle_38366-3" data-name="Rectangle 38366" width="1.618" height="1.619" transform="translate(16.382 4.911)" fill="#fff"/>
            <rect id="Rectangle_38367-3" data-name="Rectangle 38367" width="1.618" height="1.608" transform="translate(16.382 3.278)" fill="#fff"/>
            <rect id="Rectangle_38368-3" data-name="Rectangle 38368" width="1.618" height="1.619" transform="translate(16.382 1.61)" fill="#fff"/>
            <rect id="Rectangle_38369-3" data-name="Rectangle 38369" width="1.61" height="1.608" transform="translate(14.772 6.555)" fill="#fff"/>
            <rect id="Rectangle_38370-3" data-name="Rectangle 38370" width="1.61" height="1.619" transform="translate(14.772 4.911)" fill="#fff"/>
            <rect id="Rectangle_38371-3" data-name="Rectangle 38371" width="1.61" height="1.608" transform="translate(14.772 3.278)" fill="#fff"/>
            <rect id="Rectangle_38372-3" data-name="Rectangle 38372" width="1.61" height="1.619" transform="translate(14.772 1.61)" fill="#fff"/>
            <rect id="Rectangle_38373-3" data-name="Rectangle 38373" width="1.61" height="1.61" transform="translate(14.772)" fill="#fff"/>
            <rect id="Rectangle_38374-3" data-name="Rectangle 38374" width="1.619" height="1.619" transform="translate(13.105 8.188)" fill="#fff"/>
            <rect id="Rectangle_38375-3" data-name="Rectangle 38375" width="1.619" height="1.608" transform="translate(13.105 6.555)" fill="#fff"/>
            <rect id="Rectangle_38376-3" data-name="Rectangle 38376" width="1.619" height="1.619" transform="translate(13.105 4.911)" fill="#fff"/>
            <rect id="Rectangle_38377-3" data-name="Rectangle 38377" width="1.619" height="1.608" transform="translate(13.105 3.278)" fill="#fff"/>
            <rect id="Rectangle_38378-3" data-name="Rectangle 38378" width="1.619" height="1.619" transform="translate(13.105 1.61)" fill="#fff"/>
            <rect id="Rectangle_38379-3" data-name="Rectangle 38379" width="1.619" height="1.61" transform="translate(13.105)" fill="#fff"/>
            <rect id="Rectangle_38380-3" data-name="Rectangle 38380" width="1.608" height="1.619" transform="translate(11.472 9.832)" fill="#fff"/>
            <rect id="Rectangle_38381-3" data-name="Rectangle 38381" width="1.608" height="1.619" transform="translate(11.472 8.188)" fill="#fff"/>
            <rect id="Rectangle_38382-3" data-name="Rectangle 38382" width="1.608" height="1.608" transform="translate(11.472 6.555)" fill="#fff"/>
            <rect id="Rectangle_38383-3" data-name="Rectangle 38383" width="1.608" height="1.619" transform="translate(11.472 4.911)" fill="#fff"/>
            <rect id="Rectangle_38384-3" data-name="Rectangle 38384" width="1.608" height="1.608" transform="translate(11.472 3.278)" fill="#fff"/>
            <rect id="Rectangle_38385-3" data-name="Rectangle 38385" width="1.608" height="1.619" transform="translate(11.472 1.61)" fill="#fff"/>
            <rect id="Rectangle_38386-3" data-name="Rectangle 38386" width="1.608" height="1.61" transform="translate(11.472)" fill="#fff"/>
            <rect id="Rectangle_38387-3" data-name="Rectangle 38387" width="1.619" height="1.61" transform="translate(9.829 11.501)" fill="#fff"/>
            <rect id="Rectangle_38388-3" data-name="Rectangle 38388" width="1.619" height="1.619" transform="translate(9.829 9.832)" fill="#fff"/>
            <rect id="Rectangle_38389-3" data-name="Rectangle 38389" width="1.619" height="1.619" transform="translate(9.829 8.188)" fill="#fff"/>
            <rect id="Rectangle_38390-3" data-name="Rectangle 38390" width="1.619" height="1.608" transform="translate(9.829 6.555)" fill="#fff"/>
            <rect id="Rectangle_38391-3" data-name="Rectangle 38391" width="1.619" height="1.619" transform="translate(9.829 4.911)" fill="#fff"/>
            <rect id="Rectangle_38392-3" data-name="Rectangle 38392" width="1.619" height="1.608" transform="translate(9.829 3.278)" fill="#fff"/>
            <rect id="Rectangle_38393-3" data-name="Rectangle 38393" width="1.619" height="1.619" transform="translate(9.829 1.61)" fill="#fff"/>
            <rect id="Rectangle_38394-3" data-name="Rectangle 38394" width="1.619" height="1.618" transform="translate(8.186 13.111)" fill="#fff"/>
            <rect id="Rectangle_38395-3" data-name="Rectangle 38395" width="1.619" height="1.61" transform="translate(8.186 11.501)" fill="#fff"/>
            <rect id="Rectangle_38396-3" data-name="Rectangle 38396" width="1.619" height="1.619" transform="translate(8.186 9.832)" fill="#fff"/>
            <rect id="Rectangle_38397-3" data-name="Rectangle 38397" width="1.619" height="1.619" transform="translate(8.186 8.188)" fill="#fff"/>
            <rect id="Rectangle_38398-3" data-name="Rectangle 38398" width="1.619" height="1.608" transform="translate(8.186 6.555)" fill="#fff"/>
            <rect id="Rectangle_38399-3" data-name="Rectangle 38399" width="1.619" height="1.619" transform="translate(8.186 4.911)" fill="#fff"/>
            <rect id="Rectangle_38400-3" data-name="Rectangle 38400" width="1.619" height="1.608" transform="translate(8.186 3.278)" fill="#fff"/>
            <rect id="Rectangle_38401-3" data-name="Rectangle 38401" width="1.608" height="1.61" transform="translate(6.553 11.501)" fill="#fff"/>
            <rect id="Rectangle_38402-3" data-name="Rectangle 38402" width="1.608" height="1.619" transform="translate(6.553 9.832)" fill="#fff"/>
            <rect id="Rectangle_38403-3" data-name="Rectangle 38403" width="1.608" height="1.619" transform="translate(6.553 8.188)" fill="#fff"/>
            <rect id="Rectangle_38404-3" data-name="Rectangle 38404" width="1.608" height="1.608" transform="translate(6.553 6.555)" fill="#fff"/>
            <rect id="Rectangle_38405-3" data-name="Rectangle 38405" width="1.608" height="1.619" transform="translate(6.553 4.911)" fill="#fff"/>
            <rect id="Rectangle_38406-3" data-name="Rectangle 38406" width="1.608" height="1.608" transform="translate(6.553 3.278)" fill="#fff"/>
            <rect id="Rectangle_38407-3" data-name="Rectangle 38407" width="1.608" height="1.619" transform="translate(6.553 1.61)" fill="#fff"/>
            <rect id="Rectangle_38408-3" data-name="Rectangle 38408" width="1.619" height="1.619" transform="translate(4.91 9.832)" fill="#fff"/>
            <rect id="Rectangle_38409-3" data-name="Rectangle 38409" width="1.619" height="1.619" transform="translate(4.91 8.188)" fill="#fff"/>
            <rect id="Rectangle_38410-3" data-name="Rectangle 38410" width="1.619" height="1.608" transform="translate(4.91 6.555)" fill="#fff"/>
            <rect id="Rectangle_38411-3" data-name="Rectangle 38411" width="1.619" height="1.619" transform="translate(4.91 4.911)" fill="#fff"/>
            <rect id="Rectangle_38412-3" data-name="Rectangle 38412" width="1.619" height="1.608" transform="translate(4.91 3.278)" fill="#fff"/>
            <rect id="Rectangle_38413-3" data-name="Rectangle 38413" width="1.619" height="1.619" transform="translate(4.91 1.61)" fill="#fff"/>
            <rect id="Rectangle_38414-3" data-name="Rectangle 38414" width="1.619" height="1.61" transform="translate(4.91)" fill="#fff"/>
            <rect id="Rectangle_38415-3" data-name="Rectangle 38415" width="1.61" height="1.619" transform="translate(3.276 8.188)" fill="#fff"/>
            <rect id="Rectangle_38416-3" data-name="Rectangle 38416" width="1.61" height="1.608" transform="translate(3.276 6.555)" fill="#fff"/>
            <rect id="Rectangle_38417-3" data-name="Rectangle 38417" width="1.61" height="1.619" transform="translate(3.276 4.911)" fill="#fff"/>
            <rect id="Rectangle_38418-3" data-name="Rectangle 38418" width="1.61" height="1.608" transform="translate(3.276 3.278)" fill="#fff"/>
            <rect id="Rectangle_38419-3" data-name="Rectangle 38419" width="1.61" height="1.619" transform="translate(3.276 1.61)" fill="#fff"/>
            <rect id="Rectangle_38420-3" data-name="Rectangle 38420" width="1.61" height="1.61" transform="translate(3.276)" fill="#fff"/>
            <rect id="Rectangle_38421-3" data-name="Rectangle 38421" width="1.618" height="1.608" transform="translate(1.61 6.555)" fill="#fff"/>
            <rect id="Rectangle_38422-3" data-name="Rectangle 38422" width="1.618" height="1.619" transform="translate(1.61 4.911)" fill="#fff"/>
            <rect id="Rectangle_38423-3" data-name="Rectangle 38423" width="1.618" height="1.608" transform="translate(1.61 3.278)" fill="#fff"/>
            <rect id="Rectangle_38424-3" data-name="Rectangle 38424" width="1.618" height="1.619" transform="translate(1.61 1.61)" fill="#fff"/>
            <rect id="Rectangle_38425-3" data-name="Rectangle 38425" width="1.618" height="1.61" transform="translate(1.61)" fill="#fff"/>
            <rect id="Rectangle_38426-3" data-name="Rectangle 38426" width="1.61" height="1.619" transform="translate(0 4.911)" fill="#fff"/>
            <rect id="Rectangle_38427-3" data-name="Rectangle 38427" width="1.61" height="1.608" transform="translate(0 3.278)" fill="#fff"/>
            <rect id="Rectangle_38428-3" data-name="Rectangle 38428" width="1.61" height="1.619" transform="translate(0 1.61)" fill="#fff"/>
          </g>
        </g>
      </g>
    </g>
  </g>
</svg>
