<svg xmlns="http://www.w3.org/2000/svg" width="28.655" height="28.621" viewBox="0 0 28.655 28.621">
  <g id="lottery" transform="translate(-10.737 -10.426)">
    <g id="Group_7609" data-name="Group 7609" transform="translate(10.737 10.652)">
      <g id="Group_7608" data-name="Group 7608" transform="translate(0 0)">
        <g id="Group_7607" data-name="Group 7607" transform="translate(0)">
          <g id="Group_7606" data-name="Group 7606">
            <g id="Group_7605" data-name="Group 7605">
              <g id="Group_7604" data-name="Group 7604">
                <g id="Group_7603" data-name="Group 7603">
                  <circle id="Ellipse_728" data-name="Ellipse 728" cx="14.197" cy="14.197" r="14.197" fill="#0968ff"/>
                </g>
              </g>
            </g>
          </g>
        </g>
      </g>
    </g>
    <g id="Group_7616" data-name="Group 7616" transform="translate(24.968 10.652)">
      <g id="Group_7615" data-name="Group 7615">
        <g id="Group_7614" data-name="Group 7614">
          <g id="Group_7613" data-name="Group 7613">
            <g id="Group_7612" data-name="Group 7612">
              <g id="Group_7611" data-name="Group 7611">
                <g id="Group_7610" data-name="Group 7610">
                  <path id="Path_36209" data-name="Path 36209" d="M256,60h0V88.395A14.2,14.2,0,1,0,256,60Z" transform="translate(-255.999 -60)" fill="#0053d8"/>
                </g>
              </g>
            </g>
          </g>
        </g>
      </g>
    </g>
    <g id="Group_7633" data-name="Group 7633" transform="translate(14.071 13.953)">
      <g id="Group_7632" data-name="Group 7632">
        <g id="Group_7631" data-name="Group 7631">
          <g id="Group_7630" data-name="Group 7630">
            <g id="Group_7629" data-name="Group 7629">
              <g id="Group_7628" data-name="Group 7628">
                <g id="Group_7617" data-name="Group 7617" transform="translate(3.364 0)">
                  <path id="Path_36210" data-name="Path 36210" d="M160.524,106.99a10.915,10.915,0,0,0-7.533,3.024l7.533,7.737Z" transform="translate(-152.991 -106.99)" fill="#ffce00"/>
                </g>
                <g id="Group_7618" data-name="Group 7618" transform="translate(0.001 3.024)">
                  <path id="Path_36211" data-name="Path 36211" d="M110.365,148.341A10.865,10.865,0,0,0,107,156.124h10.9v-.046Z" transform="translate(-107.002 -148.341)" fill="#fa0"/>
                </g>
                <g id="Group_7619" data-name="Group 7619" transform="translate(0 10.807)">
                  <path id="Path_36212" data-name="Path 36212" d="M106.986,254.866a10.86,10.86,0,0,0,3.109,7.62l7.788-7.65v-.06h-10.9C106.987,254.806,106.986,254.836,106.986,254.866Z" transform="translate(-106.986 -254.776)" fill="#ff6c52"/>
                </g>
                <g id="Group_7620" data-name="Group 7620" transform="translate(3.109 10.868)">
                  <path id="Path_36213" data-name="Path 36213" d="M157.288,266.528V255.6l-7.788,7.649A10.917,10.917,0,0,0,157.288,266.528Z" transform="translate(-149.5 -255.602)" fill="#ff432e"/>
                </g>
                <g id="Group_7621" data-name="Group 7621" transform="translate(10.897 10.761)">
                  <path id="Path_36214" data-name="Path 36214" d="M256,254.191v0Z" transform="translate(-256 -254.145)" fill="#1dd882"/>
                </g>
                <g id="Group_7622" data-name="Group 7622" transform="translate(10.895)">
                  <path id="Path_36215" data-name="Path 36215" d="M255.972,117.793l7.736-7.583a10.861,10.861,0,0,0-7.736-3.224c-.008,0,.008,0,0,0v10.807Z" transform="translate(-255.969 -106.986)" fill="#1dd882"/>
                </g>
                <g id="Group_7623" data-name="Group 7623" transform="translate(10.897 3.224)">
                  <path id="Path_36216" data-name="Path 36216" d="M263.736,151.073,256,158.656h10.9A10.861,10.861,0,0,0,263.736,151.073Z" transform="translate(-256 -151.073)" fill="#4253ce"/>
                </g>
                <g id="Group_7624" data-name="Group 7624" transform="translate(10.897 10.807)">
                  <path id="Path_36217" data-name="Path 36217" d="M256,254.776v0Z" transform="translate(-256 -254.776)" fill="#1dd882"/>
                </g>
                <g id="Group_7625" data-name="Group 7625" transform="translate(10.897 10.807)">
                  <path id="Path_36218" data-name="Path 36218" d="M256,254.836v0Z" transform="translate(-256 -254.776)" fill="#1dd882"/>
                </g>
                <g id="Group_7626" data-name="Group 7626" transform="translate(10.897 10.807)">
                  <path id="Path_36219" data-name="Path 36219" d="M266.9,254.866c0-.03,0-.06,0-.09H256v.008l7.645,7.846A10.863,10.863,0,0,0,266.9,254.866Z" transform="translate(-256 -254.776)" fill="#7584f2"/>
                </g>
                <g id="Group_7627" data-name="Group 7627" transform="translate(10.895 10.816)">
                  <path id="Path_36220" data-name="Path 36220" d="M255.972,254.89v10.978c.008,0-.008,0,0,0a10.861,10.861,0,0,0,7.645-3.132Z" transform="translate(-255.969 -254.89)" fill="#a3d4ff"/>
                </g>
              </g>
            </g>
          </g>
        </g>
      </g>
    </g>
    <g id="Group_7634" data-name="Group 7634" transform="translate(21.489 10.426)">
      <path id="Path_36221" data-name="Path 36221" d="M210.881,55.275l-3.435,5.408-3.478-5.408Z" transform="translate(-203.968 -55.275)" fill="#555a66"/>
    </g>
    <g id="Group_7635" data-name="Group 7635" transform="translate(24.966 10.426)">
      <path id="Path_36222" data-name="Path 36222" d="M259.435,55.275H256v5.406h0Z" transform="translate(-256 -55.275)" fill="#333940"/>
    </g>
    <g id="Group_7642" data-name="Group 7642" transform="translate(20.403 20.289)">
      <g id="Group_7641" data-name="Group 7641" transform="translate(0 0)">
        <g id="Group_7640" data-name="Group 7640">
          <g id="Group_7639" data-name="Group 7639">
            <g id="Group_7638" data-name="Group 7638">
              <g id="Group_7637" data-name="Group 7637">
                <g id="Group_7636" data-name="Group 7636">
                  <circle id="Ellipse_729" data-name="Ellipse 729" cx="3.226" cy="3.226" r="3.226" transform="translate(0 4.561) rotate(-45)" fill="#fff"/>
                </g>
              </g>
            </g>
          </g>
        </g>
      </g>
    </g>
    <g id="Group_7649" data-name="Group 7649" transform="translate(24.968 21.624)">
      <g id="Group_7648" data-name="Group 7648">
        <g id="Group_7647" data-name="Group 7647">
          <g id="Group_7646" data-name="Group 7646">
            <g id="Group_7645" data-name="Group 7645">
              <g id="Group_7644" data-name="Group 7644">
                <g id="Group_7643" data-name="Group 7643">
                  <path id="Path_36223" data-name="Path 36223" d="M256,211.891h0v6.451a3.226,3.226,0,0,0,0-6.451Z" transform="translate(-255.999 -211.891)" fill="#e9edf5"/>
                </g>
              </g>
            </g>
          </g>
        </g>
      </g>
    </g>
  </g>
</svg>
