<svg xmlns="http://www.w3.org/2000/svg" width="71.924" height="71.884" viewBox="0 0 71.924 71.884">
  <g id="Group_558" data-name="Group 558" transform="translate(0)">
    <path id="Path_2352" data-name="Path 2352" d="M689.246,649.918a30.058,30.058,0,1,1,0-42.5A29.963,29.963,0,0,1,689.246,649.918Z" transform="translate(-637.891 -586.843)" fill="#4c4e6c"/>
    <path id="Path_2353" data-name="Path 2353" d="M671.143,660.018a30.541,30.541,0,0,1-24.41-8.636,28.465,28.465,0,0,1-8.636-24.41,30.054,30.054,0,0,1,33.045,33.045Z" transform="translate(-637.888 -588.302)" fill="#4c4e6c"/>
    <path id="Path_2354" data-name="Path 2354" d="M686.032,646.706a25.134,25.134,0,1,1,0-35.54A25.052,25.052,0,0,1,686.032,646.706Z" transform="translate(-638.159 -587.112)" fill="#3f2f3d"/>
    <path id="Path_2355" data-name="Path 2355" d="M693.392,630.307H643.13a25.131,25.131,0,0,0,50.262.079Z" transform="translate(-638.16 -588.483)" fill="#f48400"/>
    <path id="Path_2356" data-name="Path 2356" d="M693.391,629.1c0,2.254-2.1,4.326-5.592,5.95-4.607,2.142-11.643,3.51-19.538,3.51s-14.932-1.368-19.539-3.51c-3.5-1.624-5.6-3.7-5.6-5.95,0-5.221,11.255-9.457,25.138-9.457S693.391,623.88,693.391,629.1Z" transform="translate(-638.159 -587.931)" fill="#f4ff00"/>
    <path id="Path_2357" data-name="Path 2357" d="M668.8,622.034c-8.442,0-15.286,2.575-15.286,5.751,0,1.37,1.275,2.63,3.4,3.618a34.134,34.134,0,0,0,23.763,0c2.125-.988,3.4-2.248,3.4-3.618C684.079,624.609,677.24,622.034,668.8,622.034Zm5.095,7.3a14.644,14.644,0,0,1-10.191,0c-.913-.424-1.46-.964-1.46-1.552,0-1.362,2.935-2.465,6.555-2.465s6.554,1.1,6.554,2.465C675.35,628.373,674.8,628.913,673.892,629.337Z" transform="translate(-638.697 -588.055)" fill="#ffa100"/>
    <path id="Path_2358" data-name="Path 2358" d="M665.094,615.487a3.828,3.828,0,1,1,0-5.414A3.827,3.827,0,0,1,665.094,615.487Z" transform="translate(-638.958 -587.378)" fill="#646694"/>
    <path id="Path_2359" data-name="Path 2359" d="M686.253,645.819l-9.559-1.808-14.171-8.761-10.945-15.957-1.238-12.384,1.615-5.937-.932-.932-7.539,7.539h0c-7,7-2.556,22.81,9.936,35.3s28.3,16.94,35.3,9.936h0l7.539-7.539-.85-.85Z" transform="translate(-638.006 -586.917)" fill="#b02929"/>
    <path id="Path_2360" data-name="Path 2360" d="M698.5,628.383a20.818,20.818,0,0,1-4.236,12.725l0,0a8.366,8.366,0,0,1-.627.711c-5.886,5.886-19.369,1.945-30.115-8.8s-14.688-24.229-8.8-30.114a8.476,8.476,0,0,1,1.592-1.24v0l.014-.007a9.631,9.631,0,0,1,2.47-1.054,29.065,29.065,0,0,1,10.594-2.134C662,595.738,655.25,596.044,651.3,600c-7,7-2.556,22.81,9.936,35.3s28.3,16.94,35.3,9.936C700.267,641.5,700.748,635.276,698.5,628.383Z" transform="translate(-638.411 -586.743)" fill="#ff4848"/>
    <path id="Path_2361" data-name="Path 2361" d="M662.05,643.252a2.543,2.543,0,1,1-2.543-2.542A2.543,2.543,0,0,1,662.05,643.252Z" transform="translate(-638.876 -589.022)" fill="#ff4848"/>
    <path id="Path_2362" data-name="Path 2362" d="M673.129,649.547a2.414,2.414,0,1,1-3.079,0A2.2,2.2,0,0,1,673.129,649.547Z" transform="translate(-639.503 -589.447)" fill="#ff4848"/>
    <path id="Path_2363" data-name="Path 2363" d="M651.217,628.858a2.414,2.414,0,1,1-2.673,1.529A2.2,2.2,0,0,1,651.217,628.858Z" transform="translate(-638.43 -588.403)" fill="#ff4848"/>
    <path id="Path_2364" data-name="Path 2364" d="M685.268,653.572c.549.719.152,1.946-.888,2.741s-2.329.859-2.878.141-.152-1.945.888-2.741S684.719,652.854,685.268,653.572Z" transform="translate(-640.133 -589.662)" fill="#ff4848"/>
    <ellipse id="Ellipse_563" data-name="Ellipse 563" cx="2.371" cy="1.637" rx="2.371" ry="1.637" transform="translate(4.312 31.637) rotate(-67.607)" fill="#ff4848"/>
    <g id="Group_557" data-name="Group 557" transform="translate(35.365)">
      <path id="Path_2365" data-name="Path 2365" d="M682.892,600.377l-6.268,6.267.008.008a3.632,3.632,0,0,0-.316.264c-2.391,2.391-.872,7.788,3.393,12.053s9.661,5.784,12.052,3.393l5.2-5.58Z" transform="translate(-675.184 -586.934)" fill="#4c4e6c"/>
      <path id="Path_2366" data-name="Path 2366" d="M682.587,600.7l-5.963,5.962.008.008a3.632,3.632,0,0,0-.316.264c-1.6,1.6-1.441,4.552.114,7.606l6.834-6.834Z" transform="translate(-675.184 -586.951)" fill="#fff"/>
      <path id="Path_2367" data-name="Path 2367" d="M704.342,595.625c.93.929,1.242,2.125.7,2.669s-1.74.232-2.669-.7-1.243-2.125-.7-2.669S703.411,594.7,704.342,595.625Z" transform="translate(-676.541 -586.638)" fill="#7ba847"/>
      <g id="Group_553" data-name="Group 553" transform="translate(2.728 13.101)">
        <path id="Path_2368" data-name="Path 2368" d="M678.061,600.017h0Z" transform="translate(-678.061 -600.017)" fill="#bac6cc"/>
        <path id="Path_2369" data-name="Path 2369" d="M699.922,621.878h0Z" transform="translate(-679.192 -601.148)" fill="#bac6cc"/>
      </g>
      <g id="Group_554" data-name="Group 554" transform="translate(4.127 8.662)">
        <path id="Path_2370" data-name="Path 2370" d="M701.786,617.585c-3.21,3.21-10.452,1.172-16.177-4.552s-7.762-12.967-4.552-16.177,10.452-1.172,16.177,4.552S705,614.376,701.786,617.585Z" transform="translate(-679.536 -595.335)" fill="#bac6cc"/>
      </g>
      <g id="Group_555" data-name="Group 555" transform="translate(4.205)">
        <ellipse id="Ellipse_564" data-name="Ellipse 564" cx="8.22" cy="14.658" rx="8.22" ry="14.658" transform="matrix(0.707, -0.707, 0.707, 0.707, 0, 11.624)" fill="#fff"/>
      </g>
      <g id="Group_556" data-name="Group 556" transform="translate(13.346 3.898)">
        <path id="Path_2371" data-name="Path 2371" d="M707.68,604.866l-4.094,4.1-.016-.016a2.086,2.086,0,0,1-1.167.447l-4.954.283a2.074,2.074,0,0,1-1.595-.608l-5.984-5.983a2.06,2.06,0,0,1-.607-1.595l.278-4.957a2.094,2.094,0,0,1,.45-1.164l-.015-.015,4.095-4.1,3.123,3.123a2.069,2.069,0,0,1,.87.509l5.983,5.984a2.013,2.013,0,0,1,.505.866Z" transform="translate(-689.258 -590.36)" fill="#b1b2c9"/>
        <path id="Path_2372" data-name="Path 2372" d="M707.877,605.228l-4.094,4.1-.016-.016a2.086,2.086,0,0,1-1.167.447l-4.954.283a2.074,2.074,0,0,1-1.595-.608l-2.995-2.994,8.195-8.194,2.994,2.994a2.013,2.013,0,0,1,.505.866Z" transform="translate(-689.455 -590.722)" fill="#4c4e6c"/>
        <rect id="Rectangle_9519" data-name="Rectangle 9519" width="8.463" height="5.542" transform="translate(4.528 8.805) rotate(45)" fill="#646694"/>
        <path id="Path_2373" data-name="Path 2373" d="M693.392,597.521l.284-4.959a2.086,2.086,0,0,1,1.964-1.964l4.959-.284a2.083,2.083,0,0,1,1.594.608l5.985,5.984a2.088,2.088,0,0,1,.608,1.595l-.284,4.959a2.086,2.086,0,0,1-1.964,1.964l-4.959.284a2.083,2.083,0,0,1-1.594-.608L694,599.116A2.093,2.093,0,0,1,693.392,597.521Z" transform="translate(-689.472 -590.311)" fill="#9597b6"/>
        <path id="Path_2374" data-name="Path 2374" d="M696.276,597.845l.183-3.2a1.345,1.345,0,0,1,1.266-1.267l3.2-.183a1.347,1.347,0,0,1,1.029.392l3.858,3.859a1.345,1.345,0,0,1,.392,1.028l-.183,3.2a1.345,1.345,0,0,1-1.266,1.267l-3.2.183a1.348,1.348,0,0,1-1.029-.393l-3.858-3.858A1.346,1.346,0,0,1,696.276,597.845Z" transform="translate(-689.621 -590.461)" fill="#646694"/>
      </g>
    </g>
  </g>
</svg>
