<svg xmlns="http://www.w3.org/2000/svg" width="73.23" height="73.234" viewBox="0 0 73.23 73.234">
  <g id="Group_560" data-name="Group 560" transform="translate(0)">
    <path id="Path_2375" data-name="Path 2375" d="M816.823,649.879a30.157,30.157,0,1,1,0-42.642A30.061,30.061,0,0,1,816.823,649.879Z" transform="translate(-765.341 -585.482)" fill="#00c5ff"/>
    <path id="Path_2376" data-name="Path 2376" d="M798.662,660.012a30.154,30.154,0,0,1-33.154-33.154,30.152,30.152,0,0,1,33.154,33.154Z" transform="translate(-765.341 -586.947)" fill="#d2ffff"/>
    <path id="Path_2377" data-name="Path 2377" d="M812.128,645.27a22.96,22.96,0,0,1-32.47-32.47,22.443,22.443,0,0,1,5.051-3.812c.4-.234.812-.45,1.233-.643,5.531-2.249,14.671,1.094,22.108,8.532s10.781,16.577,8.532,22.108c-.193.421-.409.83-.643,1.233A22.443,22.443,0,0,1,812.128,645.27Z" transform="translate(-765.734 -585.961)" fill="#02a128"/>
    <path id="Path_2378" data-name="Path 2378" d="M786.649,608.26A22.958,22.958,0,0,1,817.289,638.9c2.249-5.531-1.094-14.671-8.531-22.109S792.18,606.011,786.649,608.26Z" transform="translate(-766.444 -585.875)" fill="#009dd8"/>
    <path id="Path_2379" data-name="Path 2379" d="M815.412,641.458c-4.877,4.877-15.88,1.774-24.575-6.92s-11.8-19.7-6.92-24.575a6.425,6.425,0,0,1,1.238-.974c.4-.234.812-.45,1.233-.643,5.531-2.249,14.671,1.094,22.109,8.531s10.781,16.578,8.531,22.109c-.192.421-.409.83-.643,1.233A6.426,6.426,0,0,1,815.412,641.458Z" transform="translate(-766.183 -585.961)" fill="#02df28"/>
    <ellipse id="Ellipse_565" data-name="Ellipse 565" cx="8.741" cy="8.741" rx="8.741" ry="8.741" transform="translate(13.989 31.368)" fill="#02b728"/>
    <path id="Path_2380" data-name="Path 2380" d="M809.141,646.107a4.46,4.46,0,1,1,0-6.307A4.46,4.46,0,0,1,809.141,646.107Z" transform="translate(-767.214 -587.557)" fill="#fff"/>
    <g id="Group_559" data-name="Group 559" transform="translate(30.574)">
      <path id="Path_2381" data-name="Path 2381" d="M833.308,617.158l-25.071-25.071-8.815,8.815h0c-3.882,3.881-1.417,12.641,5.505,19.564s15.683,9.388,19.564,5.505h0Z" transform="translate(-797.584 -585.155)" fill="#27d3fc"/>
      <path id="Path_2382" data-name="Path 2382" d="M827.853,611.926l-14.641,14.642a29.755,29.755,0,0,1-14-14l14.641-14.641Z" transform="translate(-797.668 -585.458)" fill="#3ddff9"/>
      <path id="Path_2383" data-name="Path 2383" d="M819.628,603.624l-15.81,15.81a25.125,25.125,0,0,1-5.6-9.649c-.1-.336-.174-.665-.239-.995l13.406-13.406Z" transform="translate(-797.604 -585.326)" fill="#fff"/>
      <path id="Path_2384" data-name="Path 2384" d="M833.789,617.057c-3.882,3.882-12.641,1.417-19.564-5.506s-9.388-15.682-5.506-19.564,12.642-1.417,19.564,5.506S837.671,613.175,833.789,617.057Z" transform="translate(-798.065 -585.055)" fill="#d2ffff"/>
      <path id="Path_2385" data-name="Path 2385" d="M836.224,606.882l-5.532,5.531a5.04,5.04,0,0,1-4.267,1.2,15.988,15.988,0,0,1-8.78-4.692c-.089-.079-.179-.168-.264-.252-4.717-4.717-6.388-10.679-3.751-13.316l5.531-5.532Z" transform="translate(-798.35 -585.038)" fill="#f5aa4a"/>
      <path id="Path_2386" data-name="Path 2386" d="M837.086,603.6l-10.375,10.374a15.988,15.988,0,0,1-8.78-4.692l12.418-12.418Z" transform="translate(-798.637 -585.403)" fill="#e5953e"/>
      <ellipse id="Ellipse_566" data-name="Ellipse 566" cx="6.764" cy="12.063" rx="6.764" ry="12.063" transform="translate(16.03 9.566) rotate(-45)" fill="#ffd28a"/>
      <ellipse id="Ellipse_567" data-name="Ellipse 567" cx="1.238" cy="2.207" rx="1.238" ry="2.207" transform="translate(22.977 13.056) rotate(-45)" fill="#f5aa4a"/>
      <path id="Path_2387" data-name="Path 2387" d="M828.924,594.763c-.483.484-1.573.176-2.435-.686s-1.169-1.952-.686-2.436,1.573-.176,2.436.686S829.408,594.279,828.924,594.763Z" transform="translate(-799.033 -585.121)" fill="#fff"/>
      <path id="Path_2388" data-name="Path 2388" d="M834.741,603.183c-.484.484-1.574.176-2.436-.686s-1.169-1.952-.686-2.436,1.574-.176,2.436.686S835.224,602.7,834.741,603.183Z" transform="translate(-799.334 -585.556)" fill="#c47826"/>
    </g>
  </g>
</svg>
