<svg xmlns="http://www.w3.org/2000/svg" width="62.54" height="62.537" viewBox="0 0 62.54 62.537">
  <g id="Group_571" data-name="Group 571" transform="translate(-766.341 -712.231)">
    <path id="Path_2456" data-name="Path 2456" d="M812.46,751.567l-18.455,18.455A16.2,16.2,0,0,1,771.089,747.1l18.454-18.455Z" fill="#00a2db"/>
    <path id="Path_2457" data-name="Path 2457" d="M812.461,751.568c-3.548,3.549-11.555,1.295-17.884-5.033s-8.582-14.335-5.033-17.884,11.556-1.295,17.884,5.033S816.01,748.019,812.461,751.568Z" fill="#00c5ff"/>
    <path id="Path_2458" data-name="Path 2458" d="M823.564,739.471l-7.926,7.926a6.857,6.857,0,0,1-9.7-9.7l7.927-7.927Z" fill="#00c5ff"/>
    <path id="Path_2459" data-name="Path 2459" d="M819.778,736.093l-29.319,29.319a10.386,10.386,0,0,1-2.117,1.637,3.624,3.624,0,1,0-5.973,1.321.537.537,0,0,0,.095.082,10.44,10.44,0,0,1-6.769-17.8l29.319-29.319Z" fill="#02df28"/>
    <path id="Path_2460" data-name="Path 2460" d="M792.772,737.187,780,749.96a5.275,5.275,0,0,0,7.46,7.46l12.772-12.773Z" fill="#bdf4bd"/>
    <path id="Path_2461" data-name="Path 2461" d="M825.3,742.255l-26.439-26.438-9.3,9.3h0c-4.094,4.094-1.495,13.331,5.806,20.632s16.539,9.9,20.632,5.807h0Z" fill="#27d3fc"/>
    <path id="Path_2462" data-name="Path 2462" d="M819.454,736.42l-15.44,15.44A31.378,31.378,0,0,1,789.25,737.1l15.44-15.44Z" fill="#3ddff9"/>
    <path id="Path_2463" data-name="Path 2463" d="M788.342,767.049a10.4,10.4,0,0,1-5.878,1.4.537.537,0,0,1-.095-.082,3.624,3.624,0,1,1,5.973-1.321Z" fill="#fff"/>
    <path id="Path_2464" data-name="Path 2464" d="M787.5,768.37a3.622,3.622,0,0,1-5.037.082,10.4,10.4,0,0,0,5.878-1.4A3.629,3.629,0,0,1,787.5,768.37Z" fill="#fff"/>
    <path id="Path_2465" data-name="Path 2465" d="M810.847,727.8l-16.673,16.673a26.482,26.482,0,0,1-5.9-10.176c-.1-.353-.183-.7-.253-1.049l14.138-14.138Z" fill="#fff"/>
    <path id="Path_2466" data-name="Path 2466" d="M825.3,742.255c-4.094,4.094-13.331,1.494-20.632-5.806s-9.9-16.539-5.807-20.632,13.331-1.495,20.632,5.806S829.39,738.161,825.3,742.255Z" fill="#d2ffff"/>
    <path id="Path_2467" data-name="Path 2467" d="M827.563,731.542l-5.834,5.834a5.318,5.318,0,0,1-4.5,1.264c-2.837-.31-6.269-2.048-9.259-4.949-.094-.082-.189-.177-.278-.265-4.974-4.974-6.737-11.263-3.956-14.044l5.833-5.833Z" fill="#f5aa4a"/>
    <path id="Path_2468" data-name="Path 2468" d="M828.169,727.7l-10.94,10.941c-2.837-.31-6.269-2.048-9.259-4.949l13.1-13.095Z" fill="#e5953e"/>
    <path id="Path_2469" data-name="Path 2469" d="M827.562,731.541c-2.786,2.786-9.072,1.017-14.04-3.951s-6.737-11.254-3.951-14.039,9.071-1.017,14.04,3.951S830.347,728.756,827.562,731.541Z" fill="#ffd28a"/>
    <path id="Path_2470" data-name="Path 2470" d="M816.067,724.644c-.509.51-1.659.186-2.568-.723s-1.233-2.059-.723-2.569,1.66-.186,2.568.723S816.577,724.134,816.067,724.644Z" fill="#f5aa4a"/>
    <ellipse id="Ellipse_571" data-name="Ellipse 571" cx="1.305" cy="2.327" rx="1.305" ry="2.327" transform="translate(814.931 716.307) rotate(-45)" fill="#fff"/>
    <path id="Path_2471" data-name="Path 2471" d="M824.962,727.095c-.51.51-1.66.186-2.569-.722s-1.233-2.06-.723-2.569,1.66-.186,2.568.723S825.471,726.586,824.962,727.095Z" fill="#c47826"/>
  </g>
</svg>
