<svg xmlns="http://www.w3.org/2000/svg" xmlns:xlink="http://www.w3.org/1999/xlink" width="141" height="141" viewBox="0 0 141 141">
  <defs>
    <filter id="Rectangle_9525" x="0" y="0" width="141" height="141" filterUnits="userSpaceOnUse">
      <feOffset input="SourceAlpha"/>
      <feGaussianBlur stdDeviation="10" result="blur"/>
      <feFlood flood-color="#f51000" flood-opacity="0.6"/>
      <feComposite operator="in" in2="blur"/>
      <feComposite in="SourceGraphic"/>
    </filter>
  </defs>
  <g id="Group_550" data-name="Group 550" transform="translate(37 35)">
    <g transform="matrix(1, 0, 0, 1, -37, -35)" filter="url(#Rectangle_9525)">
      <rect id="Rectangle_9525-2" data-name="Rectangle 9525" width="81" height="81" rx="10" transform="translate(30 30)" fill="#fff"/>
    </g>
    <path id="Path_2325" data-name="Path 2325" d="M434.463,649.879a30.157,30.157,0,1,1,0-42.642A30.059,30.059,0,0,1,434.463,649.879Z" transform="translate(-382.982 -588.784)" fill="#00c5ff"/>
    <path id="Path_2326" data-name="Path 2326" d="M416.3,660.012a30.153,30.153,0,0,1-33.154-33.154A30.153,30.153,0,0,1,416.3,660.012Z" transform="translate(-382.982 -590.248)" fill="#d2ffff"/>
    <path id="Path_2327" data-name="Path 2327" d="M429.768,645.27A22.959,22.959,0,0,1,397.3,612.8a22.419,22.419,0,0,1,5.05-3.812c.4-.234.812-.45,1.233-.643,5.532-2.249,14.671,1.094,22.109,8.532s10.781,16.577,8.532,22.108c-.192.421-.41.83-.644,1.233A22.444,22.444,0,0,1,429.768,645.27Z" transform="translate(-383.375 -589.263)" fill="#ff7100"/>
    <path id="Path_2328" data-name="Path 2328" d="M404.289,608.26A22.958,22.958,0,0,1,434.93,638.9c2.248-5.531-1.094-14.671-8.532-22.109S409.821,606.011,404.289,608.26Z" transform="translate(-384.085 -589.177)" fill="#009dd8"/>
    <path id="Path_2329" data-name="Path 2329" d="M433.052,641.458c-4.877,4.877-15.88,1.774-24.575-6.92s-11.8-19.7-6.92-24.575a6.456,6.456,0,0,1,1.238-.974c.4-.234.812-.45,1.233-.643,5.532-2.249,14.671,1.094,22.109,8.531s10.781,16.578,8.532,22.109c-.193.421-.41.83-.644,1.233A6.427,6.427,0,0,1,433.052,641.458Z" transform="translate(-383.824 -589.263)" fill="#ff9d00"/>
    <ellipse id="Ellipse_559" data-name="Ellipse 559" cx="8.741" cy="8.741" rx="8.741" ry="8.741" transform="translate(13.989 28.067)" fill="#ffce00"/>
    <path id="Path_2330" data-name="Path 2330" d="M426.78,646.107a4.46,4.46,0,1,1,0-6.307A4.459,4.459,0,0,1,426.78,646.107Z" transform="translate(-384.855 -590.859)" fill="#fff"/>
    <g id="Group_549" data-name="Group 549" transform="translate(30.674 0)">
      <path id="Path_2331" data-name="Path 2331" d="M451.173,617.009,426.02,591.856l-8.844,8.844h0c-3.894,3.894-1.421,12.683,5.524,19.629s15.733,9.419,19.629,5.523h0Z" transform="translate(-415.331 -588.445)" fill="#27d3fc"/>
      <path id="Path_2332" data-name="Path 2332" d="M445.7,611.761,431.01,626.45A29.847,29.847,0,0,1,416.964,612.4l14.689-14.689Z" transform="translate(-415.415 -588.748)" fill="#3ddff9"/>
      <path id="Path_2333" data-name="Path 2333" d="M437.447,603.432l-15.861,15.861a25.2,25.2,0,0,1-5.616-9.681c-.1-.337-.174-.668-.241-1l13.451-13.451Z" transform="translate(-415.351 -588.616)" fill="#fff"/>
      <path id="Path_2334" data-name="Path 2334" d="M451.655,616.908c-3.9,3.9-12.684,1.422-19.629-5.524s-9.42-15.734-5.524-19.63,12.683-1.421,19.629,5.524S455.55,613.014,451.655,616.908Z" transform="translate(-415.813 -588.345)" fill="#d2ffff"/>
      <path id="Path_2335" data-name="Path 2335" d="M454.1,606.7l-5.549,5.55a5.062,5.062,0,0,1-4.281,1.2,16.048,16.048,0,0,1-8.809-4.708c-.09-.079-.18-.169-.265-.252-4.732-4.733-6.409-10.715-3.764-13.361l5.549-5.55Z" transform="translate(-416.099 -588.328)" fill="#ff7100"/>
      <path id="Path_2336" data-name="Path 2336" d="M454.963,603.41l-10.408,10.408a16.048,16.048,0,0,1-8.809-4.708L448.2,596.651Z" transform="translate(-416.387 -588.693)" fill="#ff5000"/>
      <path id="Path_2337" data-name="Path 2337" d="M454.4,606.63c-2.65,2.65-8.63.967-13.357-3.759s-6.409-10.707-3.759-13.357,8.631-.967,13.357,3.759S457.05,603.98,454.4,606.63Z" transform="translate(-416.402 -588.259)" fill="#ff9d00"/>
    </g>
  </g>
</svg>
