<svg xmlns="http://www.w3.org/2000/svg" xmlns:xlink="http://www.w3.org/1999/xlink" width="141" height="141" viewBox="0 0 141 141">
  <defs>
    <filter id="Path_36525" x="0" y="0" width="141" height="141" filterUnits="userSpaceOnUse">
      <feOffset input="SourceAlpha"/>
      <feGaussianBlur stdDeviation="10" result="blur"/>
      <feFlood flood-color="#f51000" flood-opacity="0.6"/>
      <feComposite operator="in" in2="blur"/>
      <feComposite in="SourceGraphic"/>
    </filter>
  </defs>
  <g id="Group_565" data-name="Group 565" transform="translate(37 37)">
    <g transform="matrix(1, 0, 0, 1, -37, -37)" filter="url(#Path_36525)">
      <path id="Path_36525-2" data-name="Path 36525" d="M10,0H71A10,10,0,0,1,81,10V71A10,10,0,0,1,71,81H10A10,10,0,0,1,0,71V10A10,10,0,0,1,10,0Z" transform="translate(30 30)" fill="#fff"/>
    </g>
    <path id="Path_2389" data-name="Path 2389" d="M944.152,649.918a30.058,30.058,0,1,1,0-42.5A29.963,29.963,0,0,1,944.152,649.918Z" transform="translate(-892.797 -591.135)" fill="#bac6cc"/>
    <path id="Path_2390" data-name="Path 2390" d="M926.05,660.018a30.539,30.539,0,0,1-24.41-8.636A28.464,28.464,0,0,1,893,626.973a30.054,30.054,0,0,1,33.045,33.045Z" transform="translate(-892.795 -592.594)" fill="#bac6cc"/>
    <path id="Path_2391" data-name="Path 2391" d="M940.939,646.706a25.134,25.134,0,1,1,0-35.54A25.061,25.061,0,0,1,940.939,646.706Z" transform="translate(-893.066 -591.403)" fill="#929c9e"/>
    <path id="Path_2392" data-name="Path 2392" d="M948.3,630.307H898.036a25.131,25.131,0,0,0,50.262.079Z" transform="translate(-893.066 -592.775)" fill="#3c3759"/>
    <path id="Path_2393" data-name="Path 2393" d="M948.3,629.791c0,2.253-2.1,4.326-5.592,5.949-4.607,2.142-11.643,3.51-19.539,3.51s-14.932-1.368-19.538-3.51c-3.5-1.623-5.6-3.7-5.6-5.949,0-5.222,11.254-9.458,25.137-9.458S948.3,624.569,948.3,629.791Z" transform="translate(-893.066 -592.259)" fill="#795db6"/>
    <path id="Path_2394" data-name="Path 2394" d="M948.3,627.582c0,2.254-2.1,4.326-5.592,5.95-4.607,2.142-11.643,3.51-19.539,3.51s-14.932-1.368-19.538-3.51c-3.5-1.624-5.6-3.7-5.6-5.95,0-5.222,11.254-9.457,25.137-9.457S948.3,622.36,948.3,627.582Z" transform="translate(-893.066 -592.145)" fill="#584594"/>
    <path id="Path_2395" data-name="Path 2395" d="M935.274,634.28c-3.187,0-3.826-1.437-3.826-1.437a3.826,3.826,0,1,1,7.651,0S938.348,634.28,935.274,634.28Z" transform="translate(-894.796 -592.708)" fill="#3c3759"/>
    <path id="Path_2396" data-name="Path 2396" d="M917.36,628.821c-2.176,0-2.612-.981-2.612-.981a2.612,2.612,0,0,1,5.225,0S919.46,628.821,917.36,628.821Z" transform="translate(-893.931 -592.512)" fill="#3c3759"/>
    <path id="Path_2397" data-name="Path 2397" d="M928.826,623.925c-1.867,0-2.242-.842-2.242-.842a2.242,2.242,0,0,1,4.484,0S930.628,623.925,928.826,623.925Z" transform="translate(-894.544 -592.285)" fill="#3c3759"/>
    <path id="Path_2398" data-name="Path 2398" d="M920,615.487a3.828,3.828,0,1,1,0-5.414A3.828,3.828,0,0,1,920,615.487Z" transform="translate(-893.865 -591.67)" fill="#fff"/>
    <path id="Path_2399" data-name="Path 2399" d="M941.16,645.819l-9.559-1.808L917.43,635.25l-10.946-15.957-1.238-12.384,1.615-5.937-.931-.932-7.539,7.539h0c-7,7-2.556,22.81,9.936,35.3s28.3,16.94,35.3,9.936h0l7.539-7.539-.85-.85Z" transform="translate(-892.913 -591.209)" fill="#31735d"/>
    <path id="Path_2400" data-name="Path 2400" d="M953.4,628.383a20.817,20.817,0,0,1-4.236,12.725l0,0a8.377,8.377,0,0,1-.627.711c-5.886,5.886-19.369,1.944-30.115-8.8s-14.687-24.229-8.8-30.115a8.487,8.487,0,0,1,1.593-1.239l0,0,.014-.007a9.645,9.645,0,0,1,2.47-1.054,29.069,29.069,0,0,1,10.594-2.134c-7.379-2.726-14.133-2.421-18.084,1.531-7.006,7.006-2.557,22.811,9.935,35.3s28.3,16.94,35.3,9.936C955.173,641.5,955.655,635.276,953.4,628.383Z" transform="translate(-893.317 -591.034)" fill="#90e96d"/>
    <ellipse id="Ellipse_568" data-name="Ellipse 568" cx="2.543" cy="2.543" rx="2.543" ry="2.543" transform="translate(18.089 47.396)" fill="#4b9771"/>
    <path id="Path_2401" data-name="Path 2401" d="M928.036,649.547a2.413,2.413,0,1,1-3.08,0A2.2,2.2,0,0,1,928.036,649.547Z" transform="translate(-894.41 -593.738)" fill="#4b9771"/>
    <path id="Path_2402" data-name="Path 2402" d="M906.124,628.858a2.414,2.414,0,1,1-2.673,1.529A2.2,2.2,0,0,1,906.124,628.858Z" transform="translate(-893.337 -592.695)" fill="#4b9771"/>
    <path id="Path_2403" data-name="Path 2403" d="M940.174,653.572c.55.718.152,1.945-.888,2.741s-2.329.859-2.878.141-.152-1.946.888-2.741S939.625,652.854,940.174,653.572Z" transform="translate(-895.039 -593.953)" fill="#4b9771"/>
    <path id="Path_2404" data-name="Path 2404" d="M900.7,615.592c.835.344,1.109,1.605.61,2.816s-1.581,1.914-2.416,1.569-1.109-1.605-.611-2.816S899.862,615.248,900.7,615.592Z" transform="translate(-893.066 -592.009)" fill="#4b9771"/>
    <g id="Group_564" data-name="Group 564" transform="translate(35.365)">
      <path id="Path_2405" data-name="Path 2405" d="M937.8,600.376l-6.268,6.268.008.008a3.492,3.492,0,0,0-.316.264c-2.391,2.391-.873,7.788,3.392,12.053s9.662,5.784,12.053,3.392l5.2-5.579Z" transform="translate(-930.09 -591.226)" fill="#6f8497"/>
      <path id="Path_2406" data-name="Path 2406" d="M937.493,600.7l-5.962,5.962.008.008a3.491,3.491,0,0,0-.316.264c-1.6,1.6-1.442,4.552.114,7.6l6.833-6.833Z" transform="translate(-930.091 -591.243)" fill="#fff"/>
      <g id="Group_561" data-name="Group 561" transform="translate(2.728 1.521)">
        <path id="Path_2407" data-name="Path 2407" d="M932.967,600.017Z" transform="translate(-932.967 -592.728)" fill="#bac6cc"/>
        <path id="Path_2408" data-name="Path 2408" d="M940.3,592.33l-3.447,3.447a3.324,3.324,0,0,0-.991,2.252,12.833,12.833,0,0,1-1.39,5.58c-.582,1.257-.934,2.016-.395,3.338.419,1.026,1.137,1.194,2.593,1.449a8.927,8.927,0,0,1,5.422,2.58A6.368,6.368,0,0,1,943.956,616c.018,1.438.03,2.388,1.718,3.282,1.279.68,2.93.229,4.676-.25a14.169,14.169,0,0,1,3.872-.681,3.506,3.506,0,0,0,2.532-1.016l4.276-4.276Z" transform="translate(-933.011 -592.33)" fill="#bac6cc"/>
        <path id="Path_2409" data-name="Path 2409" d="M954.828,621.878h0Z" transform="translate(-934.099 -593.859)" fill="#bac6cc"/>
      </g>
      <g id="Group_562" data-name="Group 562" transform="translate(8.497)">
        <path id="Path_2410" data-name="Path 2410" d="M961.3,612.977c-3.21,3.21-10.452,1.172-16.176-4.552s-7.763-12.967-4.553-16.177,10.452-1.172,16.177,4.552S964.511,609.767,961.3,612.977Z" transform="translate(-939.051 -590.727)" fill="#fff"/>
      </g>
      <g id="Group_563" data-name="Group 563" transform="translate(13.407 4.91)">
        <path id="Path_2411" data-name="Path 2411" d="M957.286,608.962c-1.883,1.883-6.134.688-9.493-2.672s-4.555-7.61-2.672-9.493,6.134-.687,9.494,2.672S959.171,607.078,957.286,608.962Z" transform="translate(-944.229 -595.905)" fill="#6f8497"/>
      </g>
      <path id="Path_2412" data-name="Path 2412" d="M947.8,606.505a11.564,11.564,0,0,0,6.448,3.526,13.067,13.067,0,0,0-9.974-9.974A11.57,11.57,0,0,0,947.8,606.505Z" transform="translate(-930.824 -591.209)" fill="#bac6cc"/>
    </g>
  </g>
</svg>
