<svg xmlns="http://www.w3.org/2000/svg" xmlns:xlink="http://www.w3.org/1999/xlink" width="141" height="141" viewBox="0 0 141 141">
  <defs>
    <filter id="Rectangle_9532" x="0" y="0" width="141" height="141" filterUnits="userSpaceOnUse">
      <feOffset input="SourceAlpha"/>
      <feGaussianBlur stdDeviation="10" result="blur"/>
      <feFlood flood-color="#0acd7a" flood-opacity="0.6"/>
      <feComposite operator="in" in2="blur"/>
      <feComposite in="SourceGraphic"/>
    </filter>
  </defs>
  <g id="Group_575" data-name="Group 575" transform="translate(-854.795 -672.48)">
    <g transform="matrix(1, 0, 0, 1, 854.79, 672.48)" filter="url(#Rectangle_9532)">
      <rect id="Rectangle_9532-2" data-name="Rectangle 9532" width="81" height="81" rx="10" transform="translate(30 30)" fill="#fff"/>
    </g>
    <rect id="Rectangle_9523" data-name="Rectangle 9523" width="50.276" height="3.266" transform="translate(909.897 720.654) rotate(45)" fill="#445063"/>
    <g id="Group_574" data-name="Group 574">
      <g id="Group_572" data-name="Group 572">
        <path id="Path_2472" data-name="Path 2472" d="M939.909,751.566,921.46,770.023a16.2,16.2,0,0,1-22.916,0,.238.238,0,0,1-.045-.054,13.917,13.917,0,0,1-1.439-1.654,16.2,16.2,0,0,1,1.484-21.209l18.447-18.457,11.414,11.413,4.881,4.881Z" fill="#baccd6"/>
        <path id="Path_2473" data-name="Path 2473" d="M939.909,751.566,921.46,770.023a16.2,16.2,0,0,1-22.916,0,.238.238,0,0,1-.045-.054l29.906-29.907,4.881,4.881Z" fill="#97b1ba"/>
        <path id="Path_2474" data-name="Path 2474" d="M946.236,745.239l-22.917-22.917-8.058,8.058h0c-3.548,3.549-1.295,11.555,5.033,17.884s14.335,8.581,17.884,5.033h0Z" fill="#566783"/>
        <path id="Path_2475" data-name="Path 2475" d="M951.021,739.465l-7.927,7.926a6.857,6.857,0,0,1-9.7-9.7l7.926-7.927Z" fill="#00c5ff"/>
        <path id="Path_2476" data-name="Path 2476" d="M952.752,742.249l-26.439-26.438-6.714,6.713h0c-4.093,4.094-1.494,13.332,5.807,20.632s16.538,9.9,20.632,5.807h0Z" fill="#bac6cc"/>
        <path id="Path_2477" data-name="Path 2477" d="M938.041,728.06l-13.909,13.909a26.476,26.476,0,0,1-5.9-10.176c-.1-.354-.184-.7-.253-1.049L929.35,719.37Z" fill="#e2f1f7"/>
        <path id="Path_2478" data-name="Path 2478" d="M952.752,742.249c-4.094,4.094-13.331,1.495-20.632-5.806s-9.9-16.539-5.807-20.632,13.332-1.495,20.632,5.806S956.846,738.155,952.752,742.249Z" fill="#fff"/>
      </g>
      <path id="Path_2479" data-name="Path 2479" d="M958.639,731.875l-6.6,6.6-.026-.026a3.376,3.376,0,0,1-1.883.721l-7.989.455a3.35,3.35,0,0,1-2.572-.98L929.914,729a3.319,3.319,0,0,1-.979-2.572l.448-7.995a3.373,3.373,0,0,1,.727-1.877l-.025-.025,6.6-6.605,5.037,5.037a3.33,3.33,0,0,1,1.4.822l9.65,9.651a3.27,3.27,0,0,1,.816,1.4Z" fill="#7491c5"/>
      <path id="Path_2480" data-name="Path 2480" d="M958.639,731.875l-6.6,6.6-.026-.026a3.376,3.376,0,0,1-1.883.721l-7.989.455a3.35,3.35,0,0,1-2.572-.98l-4.829-4.828,13.216-13.216,4.828,4.829a3.27,3.27,0,0,1,.816,1.4Z" fill="#566783"/>
      <rect id="Rectangle_9524" data-name="Rectangle 9524" width="13.65" height="8.938" transform="translate(936.23 722.68) rotate(45)" fill="#5672a2"/>
      <path id="Path_2481" data-name="Path 2481" d="M935.25,720.109l.458-8a3.365,3.365,0,0,1,3.167-3.168l8-.458a3.366,3.366,0,0,1,2.572.981l9.652,9.651a3.367,3.367,0,0,1,.98,2.572l-.458,8a3.365,3.365,0,0,1-3.167,3.168l-8,.457a3.365,3.365,0,0,1-2.572-.98l-9.652-9.652A3.365,3.365,0,0,1,935.25,720.109Z" fill="#add1ff"/>
      <path id="Path_2482" data-name="Path 2482" d="M953.936,727.171c-1.943,1.942-6.325.709-9.789-2.755s-4.7-7.847-2.755-9.789,6.325-.709,9.789,2.755S955.878,725.229,953.936,727.171Z" fill="#8aaed4"/>
      <g id="Group_573" data-name="Group 573">
        <path id="Path_2483" data-name="Path 2483" d="M914.977,769.49a3.342,3.342,0,1,1,0-4.727A3.343,3.343,0,0,1,914.977,769.49Z" fill="#e2f1f7"/>
      </g>
    </g>
    <circle id="Ellipse_572" data-name="Ellipse 572" cx="4.697" cy="4.697" r="4.697" transform="translate(906.561 719.255)" fill="#5672a2"/>
    <circle id="Ellipse_573" data-name="Ellipse 573" cx="4.697" cy="4.697" r="4.697" transform="translate(939.324 752.719)" fill="#5672a2"/>
    <circle id="Ellipse_574" data-name="Ellipse 574" cx="4.697" cy="4.697" r="4.697" transform="translate(913.836 745.584)" fill="#7491c5"/>
  </g>
</svg>
