<svg xmlns="http://www.w3.org/2000/svg" width="18.209" height="22.252" viewBox="0 0 18.209 22.252">
  <g id="Group_704" data-name="Group 704" transform="translate(-43.782 -189.307)">
    <path id="Path_3025" data-name="Path 3025" d="M53.741,190.442c-2.3-1.328-4.385-1.451-5.889-.577l-1.656.963.015-.008c-1.494.86-2.421,2.7-2.429,5.317-.015,5.252,3.679,11.65,8.25,14.289,2.366,1.366,4.5,1.455,6.015.5-.042.027-.083.056-.126.081l1.656-.963c1.486-.864,2.407-2.7,2.414-5.309C62.006,199.477,58.313,193.082,53.741,190.442Z" fill="#7f4924"/>
    <g id="Group_697" data-name="Group 697" transform="translate(52.085 190.442)">
      <path id="Path_3026" data-name="Path 3026" d="M67.068,211.064l-1.656.962c1.486-.863,2.407-2.7,2.414-5.309.015-5.254-3.678-11.649-8.25-14.289l1.656-.963c4.572,2.64,8.264,9.036,8.25,14.289C69.474,208.364,68.553,210.2,67.068,211.064Z" transform="translate(-59.576 -191.466)" fill="#792e13"/>
    </g>
    <g id="Group_698" data-name="Group 698" transform="translate(46.196 189.307)">
      <path id="Path_3027" data-name="Path 3027" d="M48.374,190.828l1.656-.963c1.5-.874,3.589-.751,5.889.577l-1.656.963C51.963,190.077,49.879,189.953,48.374,190.828Z" transform="translate(-48.374 -189.307)" fill="#663a1c"/>
    </g>
    <g id="Group_699" data-name="Group 699" transform="translate(44.964 196.819)">
      <path id="Path_3028" data-name="Path 3028" d="M50.612,206.241a5.521,5.521,0,0,0,2.5,4.338l-.015,5.264A15.584,15.584,0,0,1,46.031,203.6Z" transform="translate(-46.031 -203.596)" fill="#efefef"/>
    </g>
    <g id="Group_700" data-name="Group 700" transform="translate(52.035 202.366)">
      <path id="Path_3029" data-name="Path 3029" d="M62.017,214.147l4.583,2.645c-.013,4.5-3.2,6.318-7.118,4.055l.015-5.264C60.885,216.385,62.012,215.741,62.017,214.147Z" transform="translate(-59.481 -214.147)" fill="#900000"/>
    </g>
    <g id="Group_701" data-name="Group 701" transform="translate(44.964 191.79)">
      <path id="Path_3030" data-name="Path 3030" d="M53.133,200.268c-1.387-.8-2.516-.158-2.521,1.437l-4.581-2.645c.013-4.5,3.2-6.318,7.117-4.055Z" transform="translate(-46.031 -194.03)" fill="#b00"/>
    </g>
    <g id="Group_702" data-name="Group 702" transform="translate(52.066 192.764)">
      <path id="Path_3031" data-name="Path 3031" d="M59.555,195.882a15.583,15.583,0,0,1,7.072,12.248l-4.583-2.645a5.517,5.517,0,0,0-2.5-4.338Z" transform="translate(-59.54 -195.882)" fill="#efefef"/>
    </g>
    <path id="Path_3032" data-name="Path 3032" d="M59.818,209.636a6.593,6.593,0,0,0-2.993-5.184c-1.658-.957-3.007-.188-3.012,1.716h0a6.6,6.6,0,0,0,2.993,5.184c1.66.958,3.007.188,3.012-1.716h0Z" transform="translate(-4.758 -6.988)" fill="#a8a8a8"/>
    <path id="Path_3033" data-name="Path 3033" d="M59.585,223.913a1.347,1.347,0,0,0-.611-1.059c-.339-.2-.615-.038-.616.351h0a1.347,1.347,0,0,0,.611,1.059c.339.2.615.039.616-.351Z" transform="translate(-6.913 -15.871)" fill="#848080"/>
    <path id="Path_3034" data-name="Path 3034" d="M59.585,198.244a1.349,1.349,0,0,0-.611-1.059c-.339-.2-.615-.038-.616.351h0a1.348,1.348,0,0,0,.611,1.059c.339.2.615.038.616-.351Z" transform="translate(-6.913 -3.697)" fill="#a8a8a8"/>
    <path id="Path_3035" data-name="Path 3035" d="M70.845,217.411a1.347,1.347,0,0,0-.612-1.059c-.339-.2-.615-.038-.616.351h0a1.347,1.347,0,0,0,.612,1.059c.339.2.615.039.616-.351Z" transform="translate(-12.253 -12.787)" fill="#a8a8a8"/>
    <path id="Path_3036" data-name="Path 3036" d="M48.434,204.74a1.348,1.348,0,0,0-.612-1.06c-.339-.2-.615-.038-.616.351h0a1.348,1.348,0,0,0,.612,1.059c.339.2.615.038.616-.351h0Z" transform="translate(-1.624 -6.777)" fill="#a8a8a8"/>
    <path id="Path_3037" data-name="Path 3037" d="M56.42,206.413a1.547,1.547,0,0,0-1.56-.153l-.844.489,0,0a1.531,1.531,0,0,0-.643,1.408,4.815,4.815,0,0,0,2.185,3.785,1.522,1.522,0,0,0,1.593.131l-.034.022.844-.489a1.536,1.536,0,0,0,.639-1.406A4.815,4.815,0,0,0,56.42,206.413Z" transform="translate(-4.551 -7.97)" fill="#b7b7b7"/>
    <path id="Path_3038" data-name="Path 3038" d="M56.916,206.413a1.547,1.547,0,0,0-1.56-.153l-.933.533a1.547,1.547,0,0,1,1.56.153,4.815,4.815,0,0,1,2.185,3.785,1.534,1.534,0,0,1-.639,1.406l.933-.533a1.535,1.535,0,0,0,.64-1.406A4.815,4.815,0,0,0,56.916,206.413Z" transform="translate(-5.047 -7.97)" fill="#848080"/>
    <g id="Group_703" data-name="Group 703" transform="translate(49.778 200.04)">
      <path id="Path_3039" data-name="Path 3039" d="M56.345,209.881c-.637-.367-1.156-.073-1.158.66a2.534,2.534,0,0,0,1.15,1.991c.638.368,1.156.073,1.158-.659A2.534,2.534,0,0,0,56.345,209.881Z" transform="translate(-55.187 -209.723)" fill="#666161"/>
    </g>
  </g>
</svg>
