<svg id="Group_544" data-name="Group 544" xmlns="http://www.w3.org/2000/svg" xmlns:xlink="http://www.w3.org/1999/xlink" width="75.433" height="77.912" viewBox="0 0 75.433 77.912">
  <defs>
    <linearGradient id="linear-gradient" x1="0.5" x2="0.5" y2="1" gradientUnits="objectBoundingBox">
      <stop offset="0" stop-color="#581809"/>
      <stop offset="1" stop-color="#54240f"/>
    </linearGradient>
    <radialGradient id="radial-gradient" cx="0.049" cy="0.83" r="1.231" gradientTransform="translate(0.115) scale(0.77 1)" gradientUnits="objectBoundingBox">
      <stop offset="0" stop-color="#1cbeca"/>
      <stop offset="1" stop-color="#54240f"/>
    </radialGradient>
    <radialGradient id="radial-gradient-2" cx="0.222" cy="-0.266" r="1.303" gradientTransform="translate(0.024) scale(0.952 1)" gradientUnits="objectBoundingBox">
      <stop offset="0.097" stop-color="#c35f14"/>
      <stop offset="1"/>
    </radialGradient>
    <radialGradient id="radial-gradient-3" cx="0.585" cy="-2.435" r="3.526" gradientTransform="translate(0.149) scale(0.702 1)" xlink:href="#radial-gradient-2"/>
  </defs>
  <path id="Path_796" data-name="Path 796" d="M702.281,665.126a12.53,12.53,0,0,1-12.533,12.532h-50.13a12.536,12.536,0,0,1-12.533-12.532V614.994a12.532,12.532,0,0,1,12.533-12.533h50.13a12.527,12.527,0,0,1,12.533,12.533Z" transform="translate(-626.883 -599.747)" fill="#3f1b0b"/>
  <path id="Path_797" data-name="Path 797" d="M702.285,662.674a12.53,12.53,0,0,1-12.533,12.533h-50.13a12.536,12.536,0,0,1-12.533-12.533c0-1.478-.369-3.389-.108-4.779.236-1.248,2.112-2.71,3.629-2.034a20.459,20.459,0,0,0-3.4-1.351c.2-3.8-.11-7.752-.125-11.567-.034-10.134,0-20.267,0-30.4a12.534,12.534,0,0,1,12.533-12.534h50.13a12.528,12.528,0,0,1,12.533,12.534c0,2.419.5,7.884-2.242,9.373.961.22,1.993,2.644,2.036,3.368.1,1.674.146,3.632.136,5.31-.015,3.586.026,7.183.037,10.77.015,5.948-.018,11.9.02,17.846Q702.284,660.941,702.285,662.674Z" transform="translate(-626.888 -599.801)" fill="url(#linear-gradient)"/>
  <path id="Path_798" data-name="Path 798" d="M677.21,661.851c2.869-.395,15.64-.961,16.9,1.189-1.292,1.484-3.272,1.879-5.088,2.508-4.938,1.715-10.2,2.436-15.361,3.193-5.559.811-15.988-1.728-20.614,1.581,4.326.541,9.059,0,13.46.172,4.889.191,9.77.541,14.668.6,5.4.06,12.409,1.786,15.693-3.284,2.829-4.37,2.464-12.134,2.558-17.122.112-6.017.227-12.037.609-18.044.335-5.242-.279-10.528-.687-15.755-.156-1.969.017-3.871-.584-5.782-.284,2.727-.289,5.5-.329,8.237-.96.215-1.537.79-2.638.9a45.171,45.171,0,0,1-5.916.258,9.208,9.208,0,0,0,2.347.351c2.7.156,7.16,1.709,5.141,5.306-1.4,2.5-5.118,3.31-7.7,3.694-1.591.236-3.2.324-4.8.449a12.657,12.657,0,0,0-3.95.7c1.916.594,4.214-.1,6.166-.2,1.05-.053,11.02-.462,10.93.147-1.327,8.926-.368,13.833-1.221,19.834-.277,1.959-1.067,7.773-2.591,9.1-1.435,1.244-5.667.776-7.4.926C683.592,661.073,680.4,661.411,677.21,661.851Z" transform="translate(-626.301 -599.553)" fill="#4a1a0a"/>
  <path id="Path_799" data-name="Path 799" d="M699.379,633.838c.395-4.225.666-11.208-4.555-12.628,1.126-.566,3.532.307,4.354-.558,1.292-1.361.337-9.328.021-11.242-.473-2.853-2.548-5.149-4.6-7.1-1.046-.835-3.029-2.3-4.912-2.3h-50.13c-3.085,0-7.871,3.487-8.522,6.549a64.392,64.392,0,0,0-.93,10.737c-.4,9.45-.023,18.156-.331,27.6a32.273,32.273,0,0,0-.091,6.085c.406,2.464,1.156,2.424,3.568,3.586-2.871-1.382-1.447,7.626-.965,8.614a12,12,0,0,0,6.458,5.717c6.394,2.711,15.388.449,22.225.876,8.86.553,17.851.517,26.759.592,11.128.092,9.955-6.6,10.444-15.706C698.55,647.675,698.729,640.779,699.379,633.838Z" transform="translate(-626.828 -599.801)" fill="#95401a"/>
  <g id="Group_242" data-name="Group 242" transform="translate(2.737 2.306)" opacity="0.85">
    <g id="Group_240" data-name="Group 240">
      <path id="Path_800" data-name="Path 800" d="M697.405,658.152c-1.553.111-3.106.245-4.658.373-7.853.639-15.735,1.286-23.593,1.689-4.431.225-9.246.732-13.636-.07,5.212,3.218,12.128,2.911,18.009,2.683,7.871-.3,15.6-.455,23.48-.466A31.966,31.966,0,0,0,697.405,658.152Z" transform="translate(-628.983 -600.803)" fill="#54240f" opacity="0.51"/>
      <path id="Path_801" data-name="Path 801" d="M658.776,646.562a277.346,277.346,0,0,0-29.2.93,12.851,12.851,0,0,0,.111,2.448c.021.126.046.216.069.327,14.6-1.832,29.319-3.354,44.1-3.22C668.791,646.978,663.821,646.7,658.776,646.562Z" transform="translate(-629.565 -601.065)" fill="#54240f" opacity="0.51"/>
      <path id="Path_802" data-name="Path 802" d="M683.092,663.725c-1.165.073-2.32.135-3.473.2-6.777.348-13.856.986-20.634.5-6.569-.465-12.812-1.366-19.422-.116,3.046.121,5.9.987,9.086.882,5.6-.185,10.748,1.209,16.351,1.246a96.952,96.952,0,0,0,18.527-2.081c3.68-.692,7.182-.108,10.895-.419A52.6,52.6,0,0,0,683.092,663.725Z" transform="translate(-629.341 -600.683)" fill="#54240f" opacity="0.51"/>
      <path id="Path_803" data-name="Path 803" d="M674.79,632.316c8.271.081,16.445.081,24.664-.08a30.437,30.437,0,0,0,.082-3.666q-6.917-.169-13.847-.223c-17.855-.169-35.437,1.567-53.178,2.548-.869.05-1.74.09-2.607.138v1.386C644.824,633.069,659.946,632.172,674.79,632.316Z" transform="translate(-629.557 -601.472)" fill="#54240f" opacity="0.51"/>
      <path id="Path_804" data-name="Path 804" d="M698.191,652.44c-1.323-.027-2.783-.276-3.888-.323q-3.172-.141-6.333-.33c-14.866-.874-29.847-2.395-44.713-.751q-5.963.661-11.929,1.509c.485.258,1.088.509,1.888.895-1.136-.548-1.591.539-1.707,2.1.84-.142,1.679-.286,2.522-.411,9.586-1.433,18.42-1.134,27.973-1.5,6.441-.241,12.883-.51,19.329-.6,3.218-.041,6.433-.037,9.654.032.426.01,4.845.22,7.15.466h0C698.156,653.168,698.171,652.8,698.191,652.44Z" transform="translate(-629.525 -600.979)" fill="#54240f" opacity="0.51"/>
      <path id="Path_805" data-name="Path 805" d="M661.884,657.669c-4.634.221-9.333-.279-13.978-.222-5.442.057-10.9.915-16.344.7a16.759,16.759,0,0,0,.683,3.748c.014.03.034.055.049.084,5.27-1.483,20.971-3.682,22.738-3.832C657.268,657.959,659.577,657.774,661.884,657.669Z" transform="translate(-629.52 -600.819)" fill="#54240f" opacity="0.51"/>
      <path id="Path_806" data-name="Path 806" d="M644.84,621.045c17.358,1.021,34.755.509,52.138.932a5.507,5.507,0,0,0-2.164-1.142,7.312,7.312,0,0,1,2.826-.152c-.175-.355-.327-.706-.514-1.065a.554.554,0,0,1-.061-.122c-13.227-1.175-26.44-2.431-39.738-2.7q-7.492-.149-14.988-.07c-4.048.046-8.233.289-12.244.416-.058,1.39-.1,2.759-.126,4.12C633.763,620.653,643.382,620.96,644.84,621.045Z" transform="translate(-629.556 -601.733)" fill="#54240f" opacity="0.51"/>
      <path id="Path_807" data-name="Path 807" d="M648.4,641.005a149.554,149.554,0,0,1-18.54-.622c-.016,1.159-.047,2.33-.085,3.511,12.993-.262,26.006-.711,39.016.234,9.891.718,19.878.376,29.824.344q.1-2.058.223-4.112C682.022,639.417,665.343,640.337,648.4,641.005Z" transform="translate(-629.56 -601.211)" fill="#54240f" opacity="0.51"/>
      <path id="Path_808" data-name="Path 808" d="M630.292,612.424a30.913,30.913,0,0,1,3.33-.946,99.935,99.935,0,0,1,22.409-1.153c7.459.521,14.853,2.306,22.307,3.242,5.793.726,11.959,1.056,17.592,2.534,1.293.339,2.595.585,3.889.816.009-1.363-.089-2.894-.217-4.263-.941-.306-1.828-.728-2.778-1.066-1.167-.418-2.321-.89-3.526-1.211a64.64,64.64,0,0,0-8.96-1.278c-11.293-1.31-22.739-1.877-34.038-.288-6.4.9-13.382,2.326-19.926,2.371C630.345,611.6,630.315,612.009,630.292,612.424Z" transform="translate(-629.549 -601.932)" fill="#54240f" opacity="0.51"/>
      <path id="Path_809" data-name="Path 809" d="M694.886,605.625l-.006,0,.006.009C694.943,605.685,694.943,605.683,694.886,605.625Z" transform="translate(-628.1 -601.982)" fill="#54240f" opacity="0.51"/>
      <path id="Path_810" data-name="Path 810" d="M681.355,602.128c-4.023-.244-8.051.281-12.089.148a49.481,49.481,0,0,0-8.006.157c-2.539.329-5.65,2.02-8.083,2.035,8.417-.051,16.962-.212,25.331-.757,1.666-.107,3.571-.216,5.531-.2,4.29.048,8.824.719,11.62,3.36a11.157,11.157,0,0,0-3.275-3.431C689.021,601.524,685,602.351,681.355,602.128Z" transform="translate(-629.035 -602.062)" fill="#54240f" opacity="0.51"/>
    </g>
    <g id="Group_241" data-name="Group 241" transform="translate(0.182 1.304)">
      <path id="Path_811" data-name="Path 811" d="M654.942,611.036a89.475,89.475,0,0,0-18.226.188c6.882-.7,12.549-1.719,19.517-1.41,7.619.338,15.148,1.81,22.619,3.258,2.935.571,5.88.741,8.874,1.27C676.568,614.217,665.656,612.144,654.942,611.036Z" transform="translate(-629.587 -603.193)" fill="#a44d18"/>
      <path id="Path_812" data-name="Path 812" d="M670.6,605.153a69.027,69.027,0,0,1,6.96.141c6,.455,13.2-.677,18.681,2.271-2.113-1.136-3.278-2.8-5.8-3.412-6.33-1.528-13.208-.468-19.623-.321-3.636.082-7.227-.034-10.869.268-3.708.308-7.4.782-11.1,1.2-3.146.354-7.384,1.468-10.514.88,5.272.99,11.844.38,17.179.01C660.537,605.839,665.569,605.289,670.6,605.153Z" transform="translate(-629.55 -603.337)" fill="#a44d18"/>
      <path id="Path_813" data-name="Path 813" d="M632.823,621.229c8.221-1.416,18.245-.568,26.557.015,8.173.566,16.218-.3,24.391-.472a39.79,39.79,0,0,1,12.7,1.306c-8.343-.052-16.955.04-25.273.48a187.713,187.713,0,0,1-24.262-.713c-4.664-.342-10.251-.985-14.832-.149Z" transform="translate(-629.69 -602.953)" fill="#a44d18"/>
      <path id="Path_814" data-name="Path 814" d="M649.742,633.105c-3.483.076-6.968.339-10.431.362-3.029.02-6.546-.567-9.335.967a6.839,6.839,0,0,1-.164-1.674c4.388-.181,8.758-.788,13.15-.927,6.127-.193,12.255.533,18.382.209,8-.425,16.208-.314,24.164-.5,4.562-.1,9.246-.569,13.682-.348-8,.962-16.118,1.995-24.46,1.917C666.333,633.031,658.032,632.926,649.742,633.105Z" transform="translate(-629.742 -602.714)" fill="#a44d18"/>
      <path id="Path_815" data-name="Path 815" d="M697.795,644.714c-2.1-.623-5.848.194-8.1.273-3.444.118-6.889.137-10.336.111-6.941-.056-13.882-.322-20.823-.444-3.467-.061-6.991-1.033-10.537-.827,8.967-1.727,17.184.918,26.111.73,5.561-.12,11.1-.13,16.712-.075C693.085,644.5,695.591,644.062,697.795,644.714Z" transform="translate(-629.334 -602.442)" fill="#a44d18"/>
      <path id="Path_816" data-name="Path 816" d="M670.62,648.485c-6.986.37-14.081-.054-21.043.554-6.57.576-13.162,1.591-19.834,1.155,8.9-.8,17.785-1.318,26.681-2.07,8.5-.72,17.144-.558,25.814-.48,4.923.047,9.65.848,14.259,1.094C687.926,649.069,679.376,648.027,670.62,648.485Z" transform="translate(-629.743 -602.345)" fill="#a44d18"/>
      <path id="Path_817" data-name="Path 817" d="M674.581,654.632c-11.538,1.469-24.682.857-36.281-.11,8.953-1.275,17.856-.821,26.84-.46,6.857.277,13.451-.846,20.108-1.234a63.559,63.559,0,0,1,10.669.337C688.974,654.4,681.558,653.739,674.581,654.632Z" transform="translate(-629.551 -602.229)" fill="#a44d18"/>
      <path id="Path_818" data-name="Path 818" d="M686.788,662.015c-8.062,1.426-23.246,5.242-30.267-.97C665.425,664.538,677.686,663.622,686.788,662.015Z" transform="translate(-629.142 -602.043)" fill="#a44d18"/>
      <path id="Path_819" data-name="Path 819" d="M689.929,621.518c-14.435-.145-29.045,2.784-43.508,1.407-5.123-.487-9.905-.632-15.277-.626,4.073-.015,7.978-1.1,12.128-.944,4.524.168,9.025.845,13.562.674,8.522-.321,17.048-.67,25.58-.582Q686.173,621.481,689.929,621.518Z" transform="translate(-629.711 -602.933)" fill="#c35f14"/>
      <path id="Path_820" data-name="Path 820" d="M663.967,612.324c-2.946-.854-5.959-1.327-8.9-2.065,9.5.525,19.057,2.462,28.493,3.737,2.779.377,5.439.875,8.18,1.395,3.051.578,5,.944,7.492,1.361-5.822.008-11.608-.847-17.406-1.409A98.078,98.078,0,0,1,663.967,612.324Z" transform="translate(-629.175 -603.182)" fill="#c35f14"/>
      <path id="Path_821" data-name="Path 821" d="M657.453,633.3a130.287,130.287,0,0,0-14.7-.078c-2.473.081-12.405-1.89-12.941,1.583,1.711-.565,3.751,0,5.549.073a67.982,67.982,0,0,0,8.955.007c4.732-.435,9.459-1.221,14.22-1.174q4.322.044,8.65.085C663.943,633.768,660.7,633.566,657.453,633.3Z" transform="translate(-629.741 -602.678)" fill="#c35f14"/>
      <path id="Path_822" data-name="Path 822" d="M683.459,652.95c2.555-.024,5.14-.277,7.69-.142,1.9.1,3.641,1.029,5.5,1.059-2.463.275-5.3-.151-7.8-.139-3.66.015-7.322.056-10.966.428-8.262.843-16.32-.076-24.6-.149C663.345,654.1,673.4,653.034,683.459,652.95Z" transform="translate(-629.215 -602.228)" fill="#c35f14"/>
      <path id="Path_823" data-name="Path 823" d="M689.005,662.213c-1.344-.22-4.256.26-5.734.361-1.662.115-3.356.587-5.033.754a44.711,44.711,0,0,1-11.779-.207c-1.484-.255-2.967-.615-4.445-.759,4.31.042,8.678.292,12.979.083C679.692,662.223,684.3,661.438,689.005,662.213Z" transform="translate(-629.019 -602.024)" fill="#c35f14"/>
    </g>
  </g>
  <g id="Group_243" data-name="Group 243" transform="translate(3.095 20.543)">
    <path id="Path_824" data-name="Path 824" d="M630.987,662.08c-.625.241-1.049.484-1.051.7a35.49,35.49,0,0,1,.106-4.593c2.705.041,5.345.559,8.088.349,2.23-.17,6.386.072,9.506-.208-5.471,1.375-7.633,1.768-11.5,2.413A38.5,38.5,0,0,0,630.987,662.08Z" transform="translate(-629.915 -619.04)" fill="#54240f"/>
    <path id="Path_825" data-name="Path 825" d="M637.237,654.992c-2.383.374-4.785.366-7.113.887a4.021,4.021,0,0,0-.139-3.233c1.724.339,3.843-.353,5.586-.449,2.258-.125,4.472-.335,6.741-.3,4.626.072,9.239.577,13.869.58q3.342,0,6.686,0c-3.592,1.317-8.761,1.035-12.865.9C645.666,653.233,641.487,654.323,637.237,654.992Z" transform="translate(-629.914 -619.181)" fill="#54240f"/>
    <path id="Path_826" data-name="Path 826" d="M634.033,665.8c2.91-.624,6.024-.045,8.882.22,2.759.255,6.1-.221,8.8.414-5.073,1.428-10.178,1.339-15.233,3.257-.449-1.43-.956-2.9-2.237-3.681Z" transform="translate(-629.823 -618.875)" fill="#54240f"/>
    <path id="Path_827" data-name="Path 827" d="M693.5,661.5c-5.739-.355-11.491.008-17.175-.934a22.939,22.939,0,0,1,3.188-.279c5.51-.349,11.228-.449,16.64-1.639.667-.147,1.331-.309,1.991-.5a21.065,21.065,0,0,0-.535,4.347C696.83,661.651,694.605,661.569,693.5,661.5Z" transform="translate(-628.874 -619.041)" fill="#4a1a0a"/>
    <path id="Path_828" data-name="Path 828" d="M698.867,628.79a7.133,7.133,0,0,1,.109,2.216c-3.241-.257-10.919-.649-16.179-1.354C683.764,629.573,698.867,628.79,698.867,628.79Z" transform="translate(-628.729 -619.699)" fill="#4a1a0a"/>
    <path id="Path_829" data-name="Path 829" d="M696.237,620.042c-.056,0-.109,0-.165,0-1.8.015-3.607-.016-5.411-.015-2.005,0-4.392-.352-6.337.122a43.671,43.671,0,0,1,11.66,1.635,22.194,22.194,0,0,1,2.434.79,1.358,1.358,0,0,1,.455-1.663A3.927,3.927,0,0,0,696.237,620.042Z" transform="translate(-628.694 -619.899)" fill="#4a1a0a"/>
  </g>
  <path id="Path_830" data-name="Path 830" d="M699.182,609.41c-.473-2.853-2.548-5.149-4.6-7.1-1.046-.835-3.029-2.3-4.912-2.3h-50.13c-3.085,0-7.871,3.487-8.522,6.549a37.757,37.757,0,0,0-.672,5.086c.863-2.18,1.076-7.116,7.42-7.978,14.465-1.965,50.914-2.507,56.321.642,5.6,3.266-8.877,4.36-11.66,4.475,1.6-.067,17.339,3.792,17.169,4.047h0C699.46,611.336,699.285,610.04,699.182,609.41Z" transform="translate(-626.81 -599.801)" fill="#c35f14"/>
  <path id="Path_831" data-name="Path 831" d="M671.5,612.425c-.709-.088-1.419-.177-2.128-.268,5.6,1.865,11.234,2.515,17.345,3.769,1.557.319,12,.814,11.558,4.495.166-1.395.868-2.512.639-4-2.953-.495-6.446-1-9.063-1.435C683.577,613.944,677.849,613.215,671.5,612.425Z" transform="translate(-625.935 -599.529)" fill="#de8d30"/>
  <path id="Path_832" data-name="Path 832" d="M631.025,606.558a45.122,45.122,0,0,0-.8,7.474c1.854,1.161,4.472,1.78,8,1.509,7.145-.563,18.243-4.729,19.753-12.64a7.868,7.868,0,0,0,.036-2.891H639.548C636.463,600.009,631.677,603.5,631.025,606.558Z" transform="translate(-626.813 -599.801)" fill="#fff280" opacity="0.39"/>
  <path id="Path_833" data-name="Path 833" d="M640.544,618.464c1.095.941.379,3.552-1.592,5.822s-4.445,3.356-5.538,2.41-.372-3.549,1.595-5.818S639.455,617.521,640.544,618.464Z" transform="translate(-626.753 -599.395)" fill="#fff280" opacity="0.27"/>
  <path id="Path_834" data-name="Path 834" d="M685.733,666.834c-5.616,0-11.655.089-17.413.319-2.527.1-21.037,1.841-14.629-4.509-4.379,1.227-17.738,5.733-19.335-1.3-1.1-4.836,11.591-9.3,14.863-7.453-3.6-2.023-8.421-1.462-12.458-2.693-7.734-2.366-5.406-11.826-4.648-17.8-1.757,16.015,16.242,19.258,27.928,19.647-7.388-.246-5.37,7.785-.859,10.066C666.605,666.865,677.651,666.227,685.733,666.834Z" transform="translate(-626.791 -599.052)" fill="#2e1e36" opacity="0.49"/>
  <g id="Group_244" data-name="Group 244" transform="translate(4.192)">
    <path id="Path_835" data-name="Path 835" d="M631.011,606.562c-.106-.027.106-1.123,1.345-2.6a11.564,11.564,0,0,1,7.013-3.866,1.194,1.194,0,0,1,.226-.018l.155,0,.315-.008.638-.015,1.319-.03,2.8-.054,6.17-.087c4.343-.047,9.115-.073,14.116-.073s9.773.027,14.117.073l6.169.087,2.8.054,1.319.03a5.9,5.9,0,0,1,1.413.247,11.8,11.8,0,0,1,4.068,2.26,13.757,13.757,0,0,1,2.375,2.509c1.125,1.549,1.289,2.656,1.173,2.678-.133.049-.512-.9-1.74-2.216a15.667,15.667,0,0,0-2.447-2.137,11.376,11.376,0,0,0-3.767-1.809,4.81,4.81,0,0,0-1.076-.141l-1.319.03-2.8.054-6.169.087c-4.343.047-9.114.074-14.117.074s-9.773-.027-14.116-.074l-6.17-.087-5.305-.108a10.635,10.635,0,0,0-3.993,1.2,12.156,12.156,0,0,0-2.636,1.849C631.577,605.685,631.144,606.627,631.011,606.562Z" transform="translate(-630.987 -599.806)" fill="#fff280"/>
  </g>
  <g id="Group_245" data-name="Group 245" transform="translate(3.857 22.362)">
    <path id="Path_836" data-name="Path 836" d="M689.919,621.681l-.64,0c-6.911-.006-13.943,1.043-20.721,1.007,3.984.02,8.154.59,12.077.711,3.528.107,7.04-.914,10.615-.327,2.953.484,6.238,2.067,7.065,5.127C698.641,622.27,694.644,621.72,689.919,621.681Z" transform="translate(-629.81 -621.677)" fill="#de8d30"/>
    <path id="Path_837" data-name="Path 837" d="M698.046,639.3q.1-3.578.14-7.162c-.984,2.307-.741,5.337-1.1,7.786-.62,4.188-.844,4.413-4.949,4.422-4.668.017-9.327.473-13.993.474-3.122,0-6.906-.2-10.023.706,3.9-.127,8.019.067,11.807-.053,5.41-.175,10.969.063,16.375.241-.536,4.521.627,9,.627,13.337C696.925,652.492,697.856,645.881,698.046,639.3Z" transform="translate(-629.82 -621.442)" fill="#de8d30"/>
    <path id="Path_838" data-name="Path 838" d="M682.345,662.059a20.381,20.381,0,0,1,2.247-.156,33.481,33.481,0,0,1,4.022.062c.518.047,7.654.228,7.683.087-.739,3.645-2.632,5.929-5.567,6.438,2.728-1.3,3.213-2.9,3.878-5.716C690.1,662.749,686.422,662.435,682.345,662.059Z" transform="translate(-629.501 -620.775)" fill="#de8d30"/>
    <path id="Path_839" data-name="Path 839" d="M648.93,633.154a36.1,36.1,0,0,1,6.041.635c-1.127-.1-2.235.229-3.388.23-4.492.005-8.833.2-13.353-.078-1.684-.1-3.381-.025-5.047-.079-.839-.024-1.687-.005-2.522,0a53.692,53.692,0,0,1,8.419-.559C642.284,633.254,645.633,633.056,648.93,633.154Z" transform="translate(-630.66 -621.42)" fill="#de8d30"/>
  </g>
  <path id="Path_840" data-name="Path 840" d="M691.1,674.56c-8.361-1.01-16.8-1.2-25.211-1.408-6.1-.148-12.223.275-18.313-.27-4.711-.422-11.975-.689-15.587-4.072,5.546-.332,11.184-.645,16.778-1.325-4.666-.352-9.378-.047-14.054-.156-1.739-.041-3.551.1-5.23-.106-.372-2.742-.3-5.645-.4-8.426-.184-5.255,9.594-4,13.012-5.411-3.517-.365-13.382,1.063-13.127-.47,0,0-1.7-24.855-1.88-27.571.062,3.392.3,25.245.12,28.6a20.384,20.384,0,0,1,3.4,1.351c-3.069-1.37-3.49,4.359-3.513,6.07a12.7,12.7,0,0,0,3.667,9.6,12.487,12.487,0,0,0,8.861,3.672h50.13A12.4,12.4,0,0,0,691.1,674.56Z" transform="translate(-626.883 -599.233)" fill="url(#radial-gradient)"/>
  <path id="Path_841" data-name="Path 841" d="M699.156,620.652c1.292-1.361.337-9.328.021-11.242-.473-2.853-2.548-5.149-4.6-7.1-1.046-.835-3.029-2.3-4.912-2.3,0,0-50.063,0-50.13,0-12.114.523-8.666,16.816-8.042,26.842,1.149,18.365,6.3,27.285,22.207,36.542,8.814,5.13,29.349,2.549,38.059-8.239,2.87-3.556,5.389-5.633,6.88-10.742.174-3.526.382-7.045.713-10.574.395-4.225.666-11.208-4.555-12.628C695.927,620.644,698.334,621.517,699.156,620.652Z" transform="translate(-626.805 -599.802)" fill="url(#radial-gradient-2)" style="mix-blend-mode: screen;isolation: isolate"/>
  <path id="Path_842" data-name="Path 842" d="M640.338,666.721a5.445,5.445,0,0,1-3.847-1.574,5.322,5.322,0,0,1-1.591-3.8v-1.987c0-4.294.006-13.906,0-16.857q-.031-9.6-.006-19.2l.009-9.79a5.332,5.332,0,0,1,1.589-3.807,5.463,5.463,0,0,1,3.849-1.575h48.341a5.463,5.463,0,0,1,3.849,1.575,5.335,5.335,0,0,1,1.588,3.807l-.01,7.069c-.014,7.411-.03,18.131-.021,20.449q.006,3.422,0,6.85c0,3.4-.007,6.8.015,10.2.009,1.083.013,2.174.013,3.26a5.323,5.323,0,0,1-1.591,3.8,5.442,5.442,0,0,1-3.846,1.574Z" transform="translate(-626.708 -599.619)" fill="#de8d30"/>
  <path id="Path_843" data-name="Path 843" d="M640.338,665.5a5.436,5.436,0,0,1-3.847-1.583,5.368,5.368,0,0,1-1.591-3.827v-2c0-4.318.006-13.981,0-16.949q-.031-9.648-.006-19.3l.009-9.841a5.371,5.371,0,0,1,1.589-3.826,5.442,5.442,0,0,1,3.849-1.584h48.341a5.442,5.442,0,0,1,3.849,1.584,5.373,5.373,0,0,1,1.588,3.826l-.01,7.1c-.014,7.451-.03,18.23-.021,20.56q.006,3.44,0,6.887c0,3.417-.007,6.838.015,10.255.009,1.089.013,2.187.013,3.278a5.37,5.37,0,0,1-1.591,3.827,5.432,5.432,0,0,1-3.846,1.583Z" transform="translate(-626.708 -599.654)" fill="url(#linear-gradient)"/>
  <path id="Path_844" data-name="Path 844" d="M634.9,615.788a5.376,5.376,0,0,1,1.589-3.827,5.449,5.449,0,0,1,3.849-1.583h48.341a5.45,5.45,0,0,1,3.85,1.583,5.359,5.359,0,0,1,1.581,3.768l.007-3.721a5.373,5.373,0,0,0-1.588-3.826,5.442,5.442,0,0,0-3.85-1.584H640.337a5.441,5.441,0,0,0-3.849,1.584,5.371,5.371,0,0,0-1.589,3.826l-.009,9.841q0,1.317,0,2.632Z" transform="translate(-626.708 -599.654)" fill="#2a1208"/>
  <g id="Group_246" data-name="Group 246" transform="translate(8.182 11.176)">
    <path id="Path_845" data-name="Path 845" d="M668.695,626.9a.273.273,0,0,1,.014.03C668.695,626.679,668.591,626.693,668.695,626.9Z" transform="translate(-634.133 -610.378)" fill="#95401a" opacity="0.25"/>
    <path id="Path_846" data-name="Path 846" d="M669.2,626.946A328.6,328.6,0,0,0,646.955,664.3c2.832.818,5.745.349,8.669.232,1.588-.066,9.155-19.366,10.933-21.876,3.884,3.827,12.3,22.188,12.3,22.188s2.7,0,5.448-.009c-.895-.824-9.484-26.81-15.111-37.912C669.2,626.934,669.2,626.935,669.2,626.946Z" transform="translate(-634.619 -610.374)" fill="#95401a" opacity="0.25"/>
    <path id="Path_847" data-name="Path 847" d="M666.794,647.056c-.679,1.979-3.967,11.025-6.379,17.539h4.807c.687-2.711,1.364-5.458,2.041-8.289.666,1.053,2.115,4.776,3.588,8.289h4.1C672.295,658.761,668.152,650.292,666.794,647.056Z" transform="translate(-634.317 -609.922)" fill="#95401a" opacity="0.25"/>
    <path id="Path_848" data-name="Path 848" d="M678.218,611.964c3.11,7.762,9.225,20.906,14.9,32.8q0-2.607,0-5.214c-.007-1.46,0-6.24.006-11.438C687.8,621.529,682.215,615.365,678.218,611.964Z" transform="translate(-633.918 -610.709)" fill="#95401a" opacity="0.25"/>
    <path id="Path_849" data-name="Path 849" d="M639.4,619.043a5.767,5.767,0,0,1-4.506-1.877l0,4.59c0,1.549,0,3.1,0,4.643,9.879-6.92,19.731-13.74,22.051-15.662C655.171,612.207,641.668,618.993,639.4,619.043Z" transform="translate(-634.89 -610.737)" fill="#95401a" opacity="0.25"/>
    <path id="Path_850" data-name="Path 850" d="M663.835,610.737c-5,3.307-21.062,15.425-28.941,21.282,0,3.012-.009,6.024,0,9.036.007,1.547.007,4.906.007,8.383C644.279,634.268,659.974,614.416,663.835,610.737Z" transform="translate(-634.89 -610.737)" fill="#95401a" opacity="0.25"/>
    <path id="Path_851" data-name="Path 851" d="M692.524,663.81a5.34,5.34,0,0,0,1.562-3.538c-5.08-10.772-15.673-37.659-20.965-48.776-10.017,5.342-29.365,32.221-38.223,45.244v3.243a5.412,5.412,0,0,0,4.361,5.3c11.942-19.383,26.454-40.353,32.471-46.646,1.414,3.445,18.528,41.482,19.406,46.14A5.448,5.448,0,0,0,692.524,663.81Z" transform="translate(-634.89 -610.72)" fill="#95401a" opacity="0.25"/>
  </g>
  <path id="Path_852" data-name="Path 852" d="M665.091,623.609c-10.713-.427-18.592,1.986-30.2,6.164,0,4.5-.01,6.493,0,10.994.009,2.968.007,12.631,0,16.949v2a5.368,5.368,0,0,0,1.591,3.827,5.436,5.436,0,0,0,3.847,1.583h48.341a5.432,5.432,0,0,0,3.846-1.583,5.37,5.37,0,0,0,1.591-3.827c0-1.091,0-2.189-.013-3.278-.022-3.417-.017-6.838-.015-10.255q0-3.445,0-6.887c-.007-1.533,0-4.21.006-9.7C685.248,626.847,678.145,624.133,665.091,623.609Z" transform="translate(-626.708 -599.273)" fill="url(#radial-gradient-3)" style="mix-blend-mode: screen;isolation: isolate"/>
</svg>
