<svg xmlns="http://www.w3.org/2000/svg" width="291.491" height="134.943" viewBox="0 0 291.491 134.943">
  <g id="Group_7437" data-name="Group 7437" transform="translate(-49.017 -787.709)">
    <g id="Group_7431" data-name="Group 7431" transform="translate(49.017 787.709)">
      <g id="Group_7426" data-name="Group 7426" transform="translate(176.386)">
        <path id="Path_35684" data-name="Path 35684" d="M224.427,843.565H207.1V791.591h17.324v12.993h4.331v-4.33h4.331v-4.331h4.331v-4.331h21.656v8.663h-4.331v4.33h-4.331v4.331h-4.331v4.331l-3.807.04v4.331l3.807-.04v4.331h4.331v4.33h4.331v4.331h4.331v12.994H241.854V839.3l-4.434-.07V834.9H233.09v-4.331h-4.331V826.24h-4.331Z" transform="translate(-207.103 -787.26)" fill="#e28413"/>
        <path id="Path_35685" data-name="Path 35685" d="M224.427,839.683H207.1V787.709h17.324V800.7h4.331v-4.331h4.331V792.04h4.331v-4.331h21.656v8.663h-4.331V800.7h-4.331v4.33h-4.331v4.331l-3.807.04v4.331l3.807-.04v4.331h4.331v4.331h4.331v4.33h4.331v12.994H241.854v-4.261l-4.434-.07V831.02H233.09v-4.331h-4.331v-4.33h-4.331Z" transform="translate(-207.103 -787.709)" fill="#ffe000"/>
        <rect id="Rectangle_53430" data-name="Rectangle 53430" width="4.331" height="4.331" transform="translate(0 0)" fill="#fff"/>
      </g>
      <g id="Group_7427" data-name="Group 7427" transform="translate(58.8)">
        <path id="Path_35686" data-name="Path 35686" d="M145.027,843.565h-38.98v-4.331h-4.33V791.591h17.324v38.98h12.993v-38.98h17.324v47.643h-4.331Z" transform="translate(-101.717 -787.26)" fill="#e28413"/>
        <path id="Path_35687" data-name="Path 35687" d="M145.027,839.683h-38.98v-4.331h-4.33V787.709h17.324v38.98h12.993v-38.98h17.324v47.643h-4.331Z" transform="translate(-101.717 -787.709)" fill="#ffe000"/>
        <rect id="Rectangle_53431" data-name="Rectangle 53431" width="4.331" height="4.331" transform="translate(0 0)" fill="#fff"/>
        <rect id="Rectangle_53432" data-name="Rectangle 53432" width="4.331" height="4.331" transform="translate(30.301 0)" fill="#fff"/>
      </g>
      <g id="Group_7428" data-name="Group 7428" transform="translate(239.517)">
        <path id="Path_35688" data-name="Path 35688" d="M263.685,791.591h17.324v12.993h4.331v4.331H294v-4.331h4.331V791.591h17.324v17.324h-4.331v8.663H307v4.331h-8.663v21.656H281.009V821.909h-8.663v-4.331h-4.331v-8.663h-4.33Z" transform="translate(-263.685 -787.26)" fill="#e28413"/>
        <path id="Path_35689" data-name="Path 35689" d="M263.685,787.709h17.324V800.7h4.331v4.33H294V800.7h4.331V787.709h17.324v17.324h-4.331V813.7H307v4.331h-8.663v21.656H281.009V818.027h-8.663V813.7h-4.331v-8.663h-4.33Z" transform="translate(-263.685 -787.709)" fill="#ffe000"/>
        <rect id="Rectangle_53433" data-name="Rectangle 53433" width="4.331" height="4.331" transform="translate(0 0)" fill="#fff"/>
        <rect id="Rectangle_53434" data-name="Rectangle 53434" width="4.331" height="4.331" transform="translate(34.649 0)" fill="#fff"/>
      </g>
      <g id="Group_7429" data-name="Group 7429">
        <path id="Path_35690" data-name="Path 35690" d="M49.017,791.591H66.341v38.98H96.66v12.994H49.017Z" transform="translate(-49.017 -787.26)" fill="#e28413"/>
        <path id="Path_35691" data-name="Path 35691" d="M49.017,787.709H66.341v38.98H96.66v12.994H49.017Z" transform="translate(-49.017 -787.709)" fill="#ffe000"/>
        <rect id="Rectangle_53435" data-name="Rectangle 53435" width="4.331" height="4.331" transform="translate(0 0)" fill="#fff"/>
      </g>
      <g id="Group_7430" data-name="Group 7430" transform="translate(117.6)">
        <path id="Path_35692" data-name="Path 35692" d="M197.727,843.565h-38.98v-4.331h-4.331V795.922h4.331v-4.331h38.98v4.331h4.331v17.324H184.734v-8.663H171.74v25.987h12.994v-8.662h17.324v17.324h-4.331Z" transform="translate(-154.416 -787.26)" fill="#e28413"/>
        <path id="Path_35693" data-name="Path 35693" d="M197.727,839.683h-38.98v-4.331h-4.331V792.04h4.331v-4.331h38.98v4.331h4.331v17.324H184.734V800.7H171.74v25.986h12.994v-8.662h17.324v17.324h-4.331Z" transform="translate(-154.416 -787.709)" fill="#ffe000"/>
        <rect id="Rectangle_53436" data-name="Rectangle 53436" width="4.331" height="4.331" transform="translate(4.329 0)" fill="#fff"/>
      </g>
    </g>
    <g id="Group_7436" data-name="Group 7436" transform="translate(78.409 866.346)">
      <g id="Group_7432" data-name="Group 7432" transform="translate(117.601)">
        <path id="Path_35694" data-name="Path 35694" d="M198.084,914.044H180.76V866.4h4.331V862.07h38.98V866.4h4.33v47.643H211.077V892.388H198.084Zm0-30.318h12.993v-8.662H198.084Z" transform="translate(-180.76 -857.739)" fill="#e28413"/>
        <path id="Path_35695" data-name="Path 35695" d="M198.084,910.162H180.76V862.519h4.331v-4.331h38.98v4.331h4.33v47.643H211.077V888.506H198.084Zm0-30.318h12.993v-8.662H198.084Z" transform="translate(-180.76 -858.188)" fill="#ffe000"/>
        <rect id="Rectangle_53437" data-name="Rectangle 53437" width="4.331" height="4.331" transform="translate(4.331 0)" fill="#fff"/>
      </g>
      <g id="Group_7433" data-name="Group 7433" transform="translate(176.4 0.001)">
        <path id="Path_35696" data-name="Path 35696" d="M250.784,914.044H233.459V862.07h17.325v30.318h4.33v-4.331h4.331v-4.331h4.331v4.331h4.331v4.331h4.331V862.07h17.324v51.974H272.44v-4.331h-4.331v-4.331h-4.331V901.05h-4.331v4.331h-4.331v4.331h-4.33Z" transform="translate(-233.459 -857.739)" fill="#e28413"/>
        <path id="Path_35697" data-name="Path 35697" d="M250.784,910.162H233.459V858.189h17.325v30.317h4.33v-4.331h4.331v-4.331h4.331v4.331h4.331v4.331h4.331V858.189h17.324v51.973H272.44v-4.331h-4.331V901.5h-4.331v-4.33h-4.331v4.33h-4.331v4.331h-4.33Z" transform="translate(-233.459 -858.188)" fill="#ffe000"/>
        <rect id="Rectangle_53438" data-name="Rectangle 53438" width="4.331" height="4.331" transform="translate(0.001)" fill="#fff"/>
        <rect id="Rectangle_53439" data-name="Rectangle 53439" width="4.331" height="4.331" transform="translate(38.965)" fill="#fff"/>
      </g>
      <g id="Group_7434" data-name="Group 7434" transform="translate(58.8)">
        <path id="Path_35698" data-name="Path 35698" d="M145.384,914.044H128.06V862.07h43.311V866.4H175.7v17.324h-4.331v8.663H175.7v21.656H158.378V892.388H145.384Zm0-30.318h12.994v-8.662H145.384Z" transform="translate(-128.06 -857.739)" fill="#e28413"/>
        <path id="Path_35699" data-name="Path 35699" d="M145.384,910.162H128.06V858.188h43.311v4.331H175.7v17.324h-4.331v8.663H175.7v21.656H158.378V888.506H145.384Zm0-30.318h12.994v-8.662H145.384Z" transform="translate(-128.06 -858.188)" fill="#ffe000"/>
        <rect id="Rectangle_53440" data-name="Rectangle 53440" width="4.331" height="4.331" transform="translate(0.001 0)" fill="#fff"/>
      </g>
      <g id="Group_7435" data-name="Group 7435">
        <path id="Path_35700" data-name="Path 35700" d="M114.34,914.044H75.36V862.07h38.98V866.4h4.331v8.663H123V901.05h-4.331v8.663H114.34Zm-12.993-38.98H92.685V901.05h8.662v-4.33h4.331V879.394h-4.331Z" transform="translate(-75.36 -857.739)" fill="#e28413"/>
        <path id="Path_35701" data-name="Path 35701" d="M114.34,910.162H75.36V858.188h38.98v4.331h4.331v8.663H123v25.987h-4.331v8.662H114.34Zm-12.993-38.98H92.685v25.987h8.662v-4.331h4.331V875.513h-4.331Z" transform="translate(-75.36 -858.188)" fill="#ffe000"/>
        <rect id="Rectangle_53441" data-name="Rectangle 53441" width="4.331" height="4.331" transform="translate(0 0)" fill="#fff"/>
      </g>
    </g>
  </g>
</svg>
