<svg xmlns="http://www.w3.org/2000/svg" width="174" height="135.257" viewBox="0 0 174 135.257">
  <g id="Group_5951" data-name="Group 5951" transform="translate(-632.689 -681.623)">
    <g id="Group_5945" data-name="Group 5945" transform="translate(632.689 759.14)">
      <path id="Path_34419" data-name="Path 34419" d="M650.455,806.551H632.689v-53.3h17.766v31.09H654.9V779.9h4.442V775.46h4.442V779.9h4.442v4.442h4.441v-31.09h17.766v53.3H672.663v-4.442h-4.441v-4.442H663.78v-4.441h-4.442v4.441H654.9v4.442h-4.442Z" transform="translate(-632.689 -748.811)" fill="#e28413"/>
      <path id="Path_34420" data-name="Path 34420" d="M650.455,802.669H632.689v-53.3h17.766v31.09H654.9V776.02h4.442v-4.441h4.442v4.441h4.442v4.442h4.441v-31.09h17.766v53.3H672.663v-4.442h-4.441v-4.441H663.78v-4.442h-4.442v4.442H654.9v4.441h-4.442Z" transform="translate(-632.689 -749.371)" fill="#ffe000"/>
      <rect id="Rectangle_38346" data-name="Rectangle 38346" width="4.441" height="4.442" transform="translate(0)" fill="#fff"/>
      <rect id="Rectangle_38347" data-name="Rectangle 38347" width="4.442" height="4.442" transform="translate(39.958)" fill="#fff"/>
    </g>
    <g id="Group_5946" data-name="Group 5946" transform="translate(757.831 759.14)">
      <path id="Path_34421" data-name="Path 34421" d="M759.826,806.551H742.06v-53.3h17.766v8.883h4.442v4.442h4.442v4.442h4.442V753.252h17.766v53.3H773.151V788.785H768.71v-4.442h-4.442V779.9h-4.442Z" transform="translate(-742.06 -748.811)" fill="#e28413"/>
      <path id="Path_34422" data-name="Path 34422" d="M759.826,802.669H742.06v-53.3h17.766v8.882h4.442V762.7h4.442v4.442h4.442V749.371h17.766v53.3H773.151V784.9H768.71v-4.442h-4.442V776.02h-4.442Z" transform="translate(-742.06 -749.371)" fill="#ffe000"/>
      <rect id="Rectangle_38348" data-name="Rectangle 38348" width="4.442" height="4.442" transform="translate(0.008)" fill="#fff"/>
      <rect id="Rectangle_38349" data-name="Rectangle 38349" width="4.442" height="4.442" transform="translate(31.102)" fill="#fff"/>
    </g>
    <g id="Group_5947" data-name="Group 5947" transform="translate(757.728 681.623)">
      <path id="Path_34423" data-name="Path 34423" d="M786.386,738.8H746.412v-4.442H741.97V685.505h17.767v39.974h13.324V685.505h17.766v48.856h-4.442Z" transform="translate(-741.97 -681.063)" fill="#e28413"/>
      <path id="Path_34424" data-name="Path 34424" d="M786.386,734.921H746.412V730.48H741.97V681.623h17.767V721.6h13.324V681.623h17.766V730.48h-4.442Z" transform="translate(-741.97 -681.623)" fill="#ffe000"/>
      <rect id="Rectangle_38350" data-name="Rectangle 38350" width="4.442" height="4.442" transform="translate(0.001)" fill="#fff"/>
      <rect id="Rectangle_38351" data-name="Rectangle 38351" width="4.442" height="4.442" transform="translate(31.074)" fill="#fff"/>
    </g>
    <g id="Group_5948" data-name="Group 5948" transform="translate(632.689 681.623)">
      <path id="Path_34425" data-name="Path 34425" d="M632.689,685.505h17.766v13.324H654.9v4.442h8.884v-4.442h4.442V685.505h17.766v17.766h-4.442v8.884H677.1V716.6h-8.882V738.8H650.455V716.6h-8.883v-4.441h-4.442v-8.884h-4.442Z" transform="translate(-632.689 -681.063)" fill="#e28413"/>
      <path id="Path_34426" data-name="Path 34426" d="M632.689,681.623h17.766v13.324H654.9v4.442h8.884v-4.442h4.442V681.623h17.766v17.766h-4.442v8.884H677.1v4.442h-8.882v22.207H650.455V712.714h-8.883v-4.442h-4.442v-8.884h-4.442Z" transform="translate(-632.689 -681.623)" fill="#ffe000"/>
      <rect id="Rectangle_38352" data-name="Rectangle 38352" width="4.442" height="4.442" transform="translate(0)" fill="#fff"/>
      <rect id="Rectangle_38353" data-name="Rectangle 38353" width="4.442" height="4.442" transform="translate(35.533)" fill="#fff"/>
    </g>
    <g id="Group_5949" data-name="Group 5949" transform="translate(697.43 681.623)">
      <path id="Path_34427" data-name="Path 34427" d="M733.687,738.8H693.713v-4.442h-4.442V689.947h4.442v-4.442h39.974v4.442h4.441v44.414h-4.441Zm-13.325-31.09v-8.884H707.037v26.65h13.324V707.713Z" transform="translate(-689.271 -681.063)" fill="#e28413"/>
      <path id="Path_34428" data-name="Path 34428" d="M733.687,734.921H693.713V730.48h-4.442V686.065h4.442v-4.442h39.974v4.442h4.441V730.48h-4.441Zm-13.325-31.09v-8.884H707.037V721.6h13.324V703.831Z" transform="translate(-689.271 -681.623)" fill="#ffe000"/>
      <rect id="Rectangle_38354" data-name="Rectangle 38354" width="4.442" height="4.442" transform="translate(4.477)" fill="#fff"/>
    </g>
    <g id="Group_5950" data-name="Group 5950" transform="translate(701.872 759.14)">
      <path id="Path_34429" data-name="Path 34429" d="M693.153,753.252h44.414v13.325H724.243v26.65h13.324v13.324H693.153V793.227h13.324v-26.65H693.153Z" transform="translate(-693.153 -748.811)" fill="#e28413"/>
      <path id="Path_34430" data-name="Path 34430" d="M693.153,749.371h44.414V762.7H724.243v26.65h13.324v13.324H693.153V789.345h13.324V762.7H693.153Z" transform="translate(-693.153 -749.371)" fill="#ffe000"/>
      <rect id="Rectangle_38355" data-name="Rectangle 38355" width="4.442" height="4.442" transform="translate(0.143)" fill="#fff"/>
    </g>
  </g>
</svg>
