<svg id="Group_1262" data-name="Group 1262" xmlns="http://www.w3.org/2000/svg" width="39.979" height="62.989" viewBox="0 0 39.979 62.989">
  <path id="Path_499" data-name="Path 499" d="M190.674,225H166l7.027,22.41h17.647Z" transform="translate(-153.038 -207.431)" fill="#defbff"/>
  <path id="Path_500" data-name="Path 500" d="M30,225H47.647v22.41H30Z" transform="translate(-27.658 -207.431)" fill="#c2eeff"/>
  <path id="Path_501" data-name="Path 501" d="M200.685,105,196,112.027l4.685,4.685h19.989v-9.37H208.884Z" transform="translate(-180.696 -96.801)" fill="#c2e7ff"/>
  <path id="Path_502" data-name="Path 502" d="M19.989,105,15.3,107.342H0v9.37H19.989Z" transform="translate(0 -96.801)" fill="#defbff"/>
  <path id="Path_503" data-name="Path 503" d="M91,113.2v18.9h1.171a5.857,5.857,0,0,0,3.514-1.173,5.857,5.857,0,0,0,3.514,1.173h1.171V110.856a3.518,3.518,0,0,1,3.514-3.514L100.37,105l-3.514,2.342A5.863,5.863,0,0,0,91,113.2Z" transform="translate(-83.894 -96.801)" fill="#0968ff"/>
  <path id="Path_504" data-name="Path 504" d="M263.027,107.342,259.514,105,256,107.342a3.518,3.518,0,0,1,3.514,3.514v21.239h1.171a5.857,5.857,0,0,0,3.514-1.173,5.857,5.857,0,0,0,3.514,1.173h1.171V113.2A5.863,5.863,0,0,0,263.027,107.342Z" transform="translate(-236.011 -96.801)" fill="#0968ff"/>
  <path id="Path_505" data-name="Path 505" d="M111.856,0a3.514,3.514,0,0,0-3.514,3.514c0,.067,0,.133.006.2a3.514,3.514,0,0,0,1.165,6.829h3.514l4.685-4.685A5.856,5.856,0,0,0,111.856,0Z" transform="translate(-97.723)" fill="#0968ff"/>
  <path id="Path_506" data-name="Path 506" d="M265.364,3.712c0-.066.006-.132.006-.2A3.514,3.514,0,0,0,261.856,0,5.856,5.856,0,0,0,256,5.856l4.685,4.685H264.2a3.514,3.514,0,0,0,1.165-6.829Z" transform="translate(-236.011)" fill="#0942dc"/>
  <path id="Path_507" data-name="Path 507" d="M219.394,75l-3.1,2.342,3.1,2.342h4.685A4.685,4.685,0,0,0,219.394,75Z" transform="translate(-199.405 -69.144)" fill="#0942b2"/>
  <path id="Path_508" data-name="Path 508" d="M196,79.685h4.685V75A4.685,4.685,0,0,0,196,79.685Z" transform="translate(-180.696 -69.144)" fill="#0942dc"/>
  <text id="Redeem" transform="translate(19.989 59.989)" fill="#0968ff" font-size="10" font-family="SegoeUI, Segoe UI"><tspan x="-17.939" y="0">Redeem</tspan></text>
</svg>
  