<svg xmlns="http://www.w3.org/2000/svg" width="39.978" height="62.989" viewBox="0 0 39.978 62.989">
  <g id="Group_201" data-name="Group 201" transform="translate(-624.051 -955.058)">
    <path id="Path_544" data-name="Path 544" d="M814.725,1180.058H790.051l7.027,22.41h17.647Z" transform="translate(-153.038 -207.431)" fill="#f0f0f0"/>
    <path id="Path_545" data-name="Path 545" d="M654.051,1180.058H671.7v22.41H654.051Z" transform="translate(-27.657 -207.431)" fill="#dcdcdc"/>
    <path id="Path_546" data-name="Path 546" d="M824.736,1060.058l-4.685,7.027,4.685,4.685h19.989v-9.37h-11.79Z" transform="translate(-180.696 -96.801)" fill="#dcdcdc"/>
    <path id="Path_547" data-name="Path 547" d="M644.04,1060.058l-4.685,2.343h-15.3v9.37H644.04Z" transform="translate(0 -96.801)" fill="#f0f0f0"/>
    <path id="Path_548" data-name="Path 548" d="M715.051,1068.257v18.9h1.171a5.85,5.85,0,0,1,7.027,0h1.171v-21.239a3.518,3.518,0,0,1,3.514-3.514l-3.514-2.343-3.514,2.343A5.863,5.863,0,0,0,715.051,1068.257Z" transform="translate(-83.894 -96.801)" fill="#c8c8c8"/>
    <path id="Path_549" data-name="Path 549" d="M887.078,1062.4l-3.514-2.343-3.514,2.343a3.518,3.518,0,0,1,3.514,3.514v21.239h1.171a5.85,5.85,0,0,1,7.027,0h1.171v-18.9A5.863,5.863,0,0,0,887.078,1062.4Z" transform="translate(-236.011 -96.801)" fill="#c8c8c8"/>
    <path id="Path_550" data-name="Path 550" d="M735.907,955.058a3.514,3.514,0,0,0-3.514,3.514c0,.067,0,.133.006.2a3.514,3.514,0,0,0,1.165,6.829h3.514l4.685-4.685A5.856,5.856,0,0,0,735.907,955.058Z" transform="translate(-97.723)" fill="#c8c8c8"/>
    <path id="Path_551" data-name="Path 551" d="M889.415,958.77c0-.066.006-.132.006-.2a3.514,3.514,0,0,0-3.514-3.514,5.856,5.856,0,0,0-5.856,5.856l4.685,4.685h3.514a3.514,3.514,0,0,0,1.165-6.829Z" transform="translate(-236.011)" fill="#969696"/>
    <path id="Path_552" data-name="Path 552" d="M843.445,1030.058l-3.1,2.343,3.1,2.342h4.685A4.685,4.685,0,0,0,843.445,1030.058Z" transform="translate(-199.405 -69.144)" fill="#b4b4b4"/>
    <path id="Path_553" data-name="Path 553" d="M820.051,1034.743h4.685v-4.685A4.685,4.685,0,0,0,820.051,1034.743Z" transform="translate(-180.696 -69.144)" fill="#969696"/>
    <text id="Redeem" transform="translate(644.051 1015.047)" fill="#8b8b8b" font-size="9" font-family="SegoeUI, Segoe UI"><tspan x="-17.939" y="0">Redeem</tspan></text>
  </g>
</svg>
