<svg xmlns="http://www.w3.org/2000/svg" width="39.978" height="62.989" viewBox="0 0 39.978 62.989">
  <g id="Group_1263" data-name="Group 1263" transform="translate(226.898 -955.058)">
    <path id="Path_540" data-name="Path 540" d="M-189.25,977.586l2.33-.365v-4.346l-2.33-.365a2.357,2.357,0,0,1-1.092-4.1l1.758-1.448-2.164-3.746-2.152.806a2.343,2.343,0,0,1-2.987-2.987l.806-2.152-3.746-2.164-1.448,1.758a2.357,2.357,0,0,1-4.1-1.092l-.365-2.33h-4.346l-.365,2.33a2.357,2.357,0,0,1-4.1,1.092l-1.448-1.758-3.746,2.164.806,2.152a2.343,2.343,0,0,1-2.987,2.987l-2.152-.806-2.164,3.746,1.758,1.448a2.357,2.357,0,0,1-1.092,4.1l-2.33.365v4.346l2.33.365a2.357,2.357,0,0,1,1.092,4.1l-1.758,1.448,2.164,3.746,2.152-.806a2.343,2.343,0,0,1,2.987,2.987l-.806,2.152,3.746,2.164,1.448-1.758a2.357,2.357,0,0,1,4.1,1.092l.365,2.33h4.346l.365-2.33a2.357,2.357,0,0,1,4.1-1.092l1.448,1.758,3.746-2.164-.806-2.152a2.343,2.343,0,0,1,2.987-2.987l2.152.806,2.164-3.746-1.758-1.448A2.357,2.357,0,0,1-189.25,977.586Zm-17.659,7.222a9.771,9.771,0,0,1-9.76-9.76,9.771,9.771,0,0,1,9.76-9.76,9.771,9.771,0,0,1,9.76,9.76A9.771,9.771,0,0,1-206.909,984.808Z" fill="#f0f0f0"/>
    <path id="Path_541" data-name="Path 541" d="M45.669,981.681l1.758,1.448-2.164,3.746-2.152-.806a2.343,2.343,0,0,0-2.987,2.987l.806,2.152-3.746,2.164-1.448-1.758a2.357,2.357,0,0,0-4.1,1.092l-.365,2.33H29.1V984.808a9.76,9.76,0,1,0,0-19.521V955.058h2.173l.365,2.33a2.357,2.357,0,0,0,4.1,1.092l1.448-1.758,3.746,2.164-.806,2.152a2.343,2.343,0,0,0,2.987,2.987l2.152-.806,2.164,3.746-1.758,1.448a2.357,2.357,0,0,0,1.092,4.1l2.33.365v4.346l-2.33.365a2.357,2.357,0,0,0-1.092,4.1Z" transform="translate(-236.011)" fill="#dcdcdc"/>
    <path id="Path_542" data-name="Path 542" d="M-95.357,1076.058A10.553,10.553,0,0,0-105.9,1086.6a10.553,10.553,0,0,0,10.541,10.541A10.553,10.553,0,0,0-84.816,1086.6,10.553,10.553,0,0,0-95.357,1076.058Zm0,16.4a5.863,5.863,0,0,1-5.856-5.856,5.863,5.863,0,0,1,5.856-5.856A5.863,5.863,0,0,1-89.5,1086.6,5.863,5.863,0,0,1-95.357,1092.455Z" transform="translate(-111.552 -111.552)" fill="#c8c8c8"/>
    <path id="Path_543" data-name="Path 543" d="M39.643,1086.6A10.553,10.553,0,0,1,29.1,1097.14v-4.685a5.856,5.856,0,1,0,0-11.712v-4.685A10.553,10.553,0,0,1,39.643,1086.6Z" transform="translate(-236.011 -111.552)" fill="#b4b4b4"/>
    <text id="Setting" transform="translate(-206.898 1015.047)" fill="#8b8b8b" font-size="10" font-family="SegoeUI, Segoe UI"><tspan x="-15.645" y="0">Setting</tspan></text>
  </g>
</svg>
