<svg id="Group_1214" data-name="Group 1214" xmlns="http://www.w3.org/2000/svg" width="60" height="62.989" viewBox="0 0 39.979 62.989">
  <path id="Path_513" data-name="Path 513" d="M37.649,22.528l2.33-.365V17.816l-2.33-.365a2.357,2.357,0,0,1-1.092-4.1l1.758-1.448L36.151,8.16,34,8.966A2.343,2.343,0,0,1,31.012,5.98l.806-2.152L28.072,1.664,26.623,3.422a2.357,2.357,0,0,1-4.1-1.092L22.162,0H17.816l-.365,2.33a2.357,2.357,0,0,1-4.1,1.092L11.907,1.664,8.16,3.828,8.966,5.98A2.343,2.343,0,0,1,5.98,8.966L3.828,8.16,1.664,11.907l1.758,1.448a2.357,2.357,0,0,1-1.092,4.1L0,17.816v4.346l2.33.365a2.357,2.357,0,0,1,1.092,4.1L1.664,28.072l2.164,3.746,2.152-.806A2.343,2.343,0,0,1,8.966,34L8.16,36.151l3.746,2.164,1.448-1.758a2.357,2.357,0,0,1,4.1,1.092l.365,2.33h4.346l.365-2.33a2.357,2.357,0,0,1,4.1-1.092l1.448,1.758,3.746-2.164L31.012,34A2.343,2.343,0,0,1,34,31.012l2.152.806,2.164-3.746-1.758-1.448A2.357,2.357,0,0,1,37.649,22.528ZM19.989,29.75a9.76,9.76,0,1,1,9.76-9.76A9.771,9.771,0,0,1,19.989,29.75Z" fill="#defbff"/>
  <path id="Path_514" data-name="Path 514" d="M272.567,26.623l1.758,1.448-2.164,3.746-2.152-.806A2.343,2.343,0,0,0,267.023,34l.806,2.152-3.746,2.164-1.448-1.758a2.357,2.357,0,0,0-4.1,1.092l-.365,2.33H256V29.75a9.76,9.76,0,0,0,0-19.521V0h2.173l.365,2.33a2.357,2.357,0,0,0,4.1,1.092l1.448-1.758,3.746,2.164-.806,2.152a2.343,2.343,0,0,0,2.987,2.987l2.152-.806,2.164,3.746-1.758,1.448a2.357,2.357,0,0,0,1.092,4.1l2.33.365v4.346l-2.33.365a2.357,2.357,0,0,0-1.092,4.1Z" transform="translate(-236.011)" fill="#c2eeff"/>
  <path id="Path_515" data-name="Path 515" d="M131.541,121a10.541,10.541,0,1,0,10.541,10.541A10.553,10.553,0,0,0,131.541,121Zm0,16.4a5.856,5.856,0,1,1,5.856-5.856A5.863,5.863,0,0,1,131.541,137.4Z" transform="translate(-111.552 -111.552)" fill="#0968ff"/>
  <path id="Path_516" data-name="Path 516" d="M266.541,131.541A10.553,10.553,0,0,1,256,142.082V137.4a5.856,5.856,0,1,0,0-11.712V121A10.553,10.553,0,0,1,266.541,131.541Z" transform="translate(-236.011 -111.552)" fill="#0942b2"/>
  <text id="Setting" transform="translate(19.989 59.989)" fill="#0968ff" font-size="10" font-family="SegoeUI, Segoe UI"><tspan x="-21" y="0">Setting</tspan></text>
</svg>
