<svg xmlns="http://www.w3.org/2000/svg" xmlns:xlink="http://www.w3.org/1999/xlink" width="150" height="31.942" viewBox="0 0 150 31.942">
  <defs>
    <radialGradient id="radial-gradient" cx="0.388" cy="0.543" r="5.071" gradientTransform="translate(0.447) scale(0.105 1)" gradientUnits="objectBoundingBox">
      <stop offset="0" stop-color="#1cbeca"/>
      <stop offset="1" stop-color="#54240f"/>
    </radialGradient>
    <radialGradient id="radial-gradient-2" cx="0.49" cy="-4.583" r="7.246" gradientTransform="translate(0.453) scale(0.094 1)" gradientUnits="objectBoundingBox">
      <stop offset="0.097" stop-color="#c35f14"/>
      <stop offset="1"/>
    </radialGradient>
    <linearGradient id="linear-gradient" x1="0.002" y1="0.5" x2="1.004" y2="0.5" gradientUnits="objectBoundingBox">
      <stop offset="0" stop-color="#31c7be"/>
      <stop offset="0.764" stop-color="#25958f"/>
      <stop offset="1" stop-color="#1a4e52"/>
    </linearGradient>
    <linearGradient id="linear-gradient-2" x1="0.5" y1="0.994" x2="0.5" y2="0.046" gradientUnits="objectBoundingBox">
      <stop offset="0" stop-color="#1a4e52"/>
      <stop offset="0.061" stop-color="#416c6f"/>
      <stop offset="0.141" stop-color="#6d8e91"/>
      <stop offset="0.226" stop-color="#94acae"/>
      <stop offset="0.316" stop-color="#b5c6c7"/>
      <stop offset="0.412" stop-color="#d0dbdb"/>
      <stop offset="0.517" stop-color="#e5ebeb"/>
      <stop offset="0.634" stop-color="#f3f6f6"/>
      <stop offset="0.775" stop-color="#fcfcfd"/>
      <stop offset="1" stop-color="#fff"/>
    </linearGradient>
    <linearGradient id="linear-gradient-3" x1="0.5" y1="-0.274" x2="0.5" y2="0.872" gradientUnits="objectBoundingBox">
      <stop offset="0" stop-color="#fff"/>
      <stop offset="1"/>
    </linearGradient>
    <radialGradient id="radial-gradient-3" cx="0.5" cy="0.5" r="8.623" gradientTransform="translate(0.46 -0.014) scale(0.079 1.051)" gradientUnits="objectBoundingBox">
      <stop offset="0" stop-color="#81ffff"/>
      <stop offset="1"/>
    </radialGradient>
    <linearGradient id="linear-gradient-4" x1="0.5" y1="0.085" x2="0.5" y2="1.057" gradientUnits="objectBoundingBox">
      <stop offset="0" stop-color="#a2f2a4"/>
      <stop offset="1" stop-color="#44bfaa"/>
    </linearGradient>
    <radialGradient id="radial-gradient-4" cx="0.531" cy="0.416" r="4.688" gradientTransform="matrix(0.127, 0.009, 0, 0.16, -1.284, 1.549)" gradientUnits="objectBoundingBox">
      <stop offset="0.097" stop-color="#8cd901"/>
      <stop offset="1"/>
    </radialGradient>
    <radialGradient id="radial-gradient-5" cx="0.5" cy="0.5" r="8.445" gradientTransform="translate(0.47 -86.456) scale(0.059 0.059)" gradientUnits="objectBoundingBox">
      <stop offset="0" stop-color="#bbfdff"/>
      <stop offset="1"/>
    </radialGradient>
  </defs>
  <g id="Group_613" data-name="Group 613" transform="translate(-805.028 -290.747)">
    <g id="Group_588" data-name="Group 588" transform="translate(805.028 290.747)">
      <path id="Path_2630" data-name="Path 2630" d="M820.3,322.968A15.266,15.266,0,0,1,805.028,307.7v-.106a15.218,15.218,0,0,1,15.22-15.22h119.7a15.078,15.078,0,0,1,15.076,15.075v.079a15.442,15.442,0,0,1-15.442,15.44Z" transform="translate(-805.028 -291.027)" fill="#54240f"/>
      <path id="Path_2631" data-name="Path 2631" d="M950.505,320.838a15.343,15.343,0,0,1-10.919,4.522H820.3a15.248,15.248,0,0,1-15.254-14.984c0,.1-.014.187-.014.284v.106A15.266,15.266,0,0,0,820.3,326.034h119.29a15.442,15.442,0,0,0,15.442-15.44v-.079c0-.1-.013-.2-.016-.3A15.339,15.339,0,0,1,950.505,320.838Z" transform="translate(-805.028 -294.092)" fill="url(#radial-gradient)"/>
      <path id="Path_2632" data-name="Path 2632" d="M820.3,321.34a15.266,15.266,0,0,1-15.268-15.267v-.107a15.22,15.22,0,0,1,15.22-15.22h119.7a15.08,15.08,0,0,1,15.076,15.076v.078a15.442,15.442,0,0,1-15.442,15.44Z" transform="translate(-805.028 -290.747)" fill="#95401a"/>
      <path id="Path_2633" data-name="Path 2633" d="M950.611,295.164a14.968,14.968,0,0,0-10.66-4.417h-119.7a15.22,15.22,0,0,0-15.22,15.22v.107c0,.321.028.639.047.957a15.189,15.189,0,0,1,15.172-14.262h119.7a15.045,15.045,0,0,1,15.027,14.1c.02-.323.049-.645.049-.972v-.078A14.971,14.971,0,0,0,950.611,295.164Z" transform="translate(-805.028 -290.747)" fill="#de8d30"/>
      <path id="Path_2634" data-name="Path 2634" d="M950.611,295.164a14.968,14.968,0,0,0-10.66-4.417h-119.7a15.22,15.22,0,0,0-15.22,15.22v.107c0,.113.007.225.012.338a15.2,15.2,0,0,1,15.208-14.99h119.7a15.059,15.059,0,0,1,15.063,14.832c0-.116.013-.234.013-.353v-.078A14.971,14.971,0,0,0,950.611,295.164Z" transform="translate(-805.028 -290.747)" fill="#fff280"/>
      <path id="Path_2635" data-name="Path 2635" d="M950.505,318.466a15.34,15.34,0,0,1-10.919,4.523H820.3a15.233,15.233,0,0,1-15.238-14.646c-.007.207-.031.412-.031.62v.107A15.266,15.266,0,0,0,820.3,324.336h119.29a15.442,15.442,0,0,0,15.442-15.44v-.078c0-.214-.024-.423-.033-.635A15.316,15.316,0,0,1,950.505,318.466Z" transform="translate(-805.028 -293.743)" fill="#632712"/>
      <path id="Path_2636" data-name="Path 2636" d="M951.823,308.367a11.4,11.4,0,0,1-11.4,11.4H821.135a11.223,11.223,0,0,1-11.224-11.224v-.106a11.175,11.175,0,0,1,11.176-11.176h119.7a11.035,11.035,0,0,1,11.032,11.031Z" transform="translate(-805.867 -291.866)" fill="#b75520"/>
      <path id="Path_2637" data-name="Path 2637" d="M951.823,307.554a11.4,11.4,0,0,1-11.4,11.4H821.135a11.221,11.221,0,0,1-11.224-11.224v-.107a11.176,11.176,0,0,1,11.176-11.176h119.7a11.035,11.035,0,0,1,11.032,11.031Z" transform="translate(-805.867 -291.726)" fill="#de8d30"/>
      <path id="Path_2638" data-name="Path 2638" d="M951.823,306.739a11.4,11.4,0,0,1-11.4,11.4H821.135a11.223,11.223,0,0,1-11.224-11.224v-.107a11.176,11.176,0,0,1,11.176-11.176h119.7a11.035,11.035,0,0,1,11.032,11.032Z" transform="translate(-805.867 -291.586)" fill="#54240f"/>
      <path id="Path_2639" data-name="Path 2639" d="M948.59,298.861a10.991,10.991,0,0,0-7.8-3.232h-119.7a11.176,11.176,0,0,0-11.176,11.176v.107c0,.339.018.675.049,1.013a11.17,11.17,0,0,1,11.127-10.164h119.7a11.03,11.03,0,0,1,10.982,10.005c.032-.34.051-.685.051-1.028v-.078A10.993,10.993,0,0,0,948.59,298.861Z" transform="translate(-805.867 -291.586)" fill="#2a1208"/>
    </g>
    <g id="Group_590" data-name="Group 590" transform="translate(809.739 294.79)">
      <g id="Group_589" data-name="Group 589">
        <path id="Path_2640" data-name="Path 2640" d="M888.992,307.327c-2.426,4.841-4.786,8.636-7.137,12.819h2.959c.412-.822,3.144-6.25,4.14-7.97,1.317,2.247,3.452,6.921,3.927,7.97h2.26C893.205,315.973,891.214,311.79,888.992,307.327Z" transform="translate(-822.938 -297.639)" fill="#95401a" opacity="0.25"/>
        <path id="Path_2641" data-name="Path 2641" d="M890.464,307.291l.007.014.007-.014C890.478,307.166,890.473,307.166,890.464,307.291Z" transform="translate(-824.418 -297.617)" fill="#95401a" opacity="0.25"/>
        <path id="Path_2642" data-name="Path 2642" d="M938.683,296c-1.4,1.51-12.1,15-17.981,22.2h5.819c3.14-5.259,8.892-14.46,10.52-16.786,2.815,5.439,6.31,9.9,10,16.786h5.151C949.969,314.277,940.395,298.631,938.683,296Z" transform="translate(-829.613 -295.693)" fill="#95401a" opacity="0.25"/>
        <path id="Path_2643" data-name="Path 2643" d="M902.3,318.114c-1.935-3.466-11.609-19.449-13.565-22.485h-.213c-1.836,2.075-12.548,15.582-18.208,22.489l.068.018h5.255c.23-.066.464-.137.711-.222,3.206-5.192,9.019-14.373,10.656-17.013,2.8,5.414,5.865,10.384,9.522,17.235h5.738A.207.207,0,0,0,902.3,318.114Z" transform="translate(-820.957 -295.629)" fill="#95401a" opacity="0.25"/>
        <path id="Path_2644" data-name="Path 2644" d="M840.935,303.059l.007.012C840.935,302.963,840.879,302.968,840.935,303.059Z" transform="translate(-815.904 -296.894)" fill="#95401a" opacity="0.25"/>
        <path id="Path_2645" data-name="Path 2645" d="M938.806,307.866c-3.412,5.625-5.261,8.649-7.838,12.372h4.582c.639-1.656,2.35-6.023,3.218-7.521,1.178,2.007,3.005,5.951,3.724,7.521h4.144C944.039,315.89,941.44,311.983,938.806,307.866Z" transform="translate(-831.377 -297.731)" fill="#95401a" opacity="0.25"/>
        <path id="Path_2646" data-name="Path 2646" d="M971.331,315.228c-.945,1.041-2.151,2.041-3.044,3.193-.456.588-.908,1.217-1.424,1.771h.528a11.372,11.372,0,0,0,5.765-1.579c1.852-3.473,3.353-7.134,5.181-10.6v-.33c0-.03,0-.06,0-.089C976.071,310.221,973.672,312.65,971.331,315.228Z" transform="translate(-837.544 -297.684)" fill="#95401a" opacity="0.25"/>
        <path id="Path_2647" data-name="Path 2647" d="M961.568,310.983c-3.606-3.912-9.688-10.025-14.017-14.691,2.713,5.459,9.108,16.5,12.395,21.958h.4c4.533-4.967,7.751-9.071,11.543-13.258a34.7,34.7,0,0,1,2.563-2.645c-.105-.307-.229-.606-.361-.9a10.974,10.974,0,0,0-1.2-1.754C969.385,303.687,965.24,307.21,961.568,310.983Z" transform="translate(-834.226 -295.743)" fill="#95401a" opacity="0.25"/>
        <path id="Path_2648" data-name="Path 2648" d="M940.423,307.832a.034.034,0,0,1,.007.012l.007-.012Q940.437,307.647,940.423,307.832Z" transform="translate(-833.001 -297.71)" fill="#95401a" opacity="0.25"/>
        <path id="Path_2649" data-name="Path 2649" d="M851.438,318.109c-.936-.038-8.569-15.91-12.326-22.48h-1.643c-6.443,3.82-17.669,16.918-20.892,20.884a10.257,10.257,0,0,0,1.848.929c.138.051.276.1.417.146s.254.082.383.12a10.92,10.92,0,0,0,1.506.307c6.38-8.327,14.049-17.252,17.248-19.953.772,1.514,10.2,18.424,10.443,20.073h2.695C851.224,318.126,851.334,318.123,851.438,318.109Z" transform="translate(-811.723 -295.629)" fill="#95401a" opacity="0.25"/>
        <path id="Path_2650" data-name="Path 2650" d="M847.954,295.729c2.756,5.545,9.317,16.864,12.555,22.224,5.348-4.98,17.938-19.579,21.284-22.324h-.023c-7.657,5.518-13.18,8.711-19.362,13.724A139.765,139.765,0,0,1,847.954,295.729Z" transform="translate(-817.114 -295.629)" fill="#95401a" opacity="0.25"/>
        <path id="Path_2651" data-name="Path 2651" d="M957.338,297.491c2.289,4.07,3.468,6.008,6.057,10.021,3.127-4,5.009-5.771,8.143-10.154l-.02-.013c-3.726,2.368-4.578,2.962-7.454,5.058A81.177,81.177,0,0,0,957.338,297.491Z" transform="translate(-835.906 -295.924)" fill="#95401a" opacity="0.25"/>
        <path id="Path_2652" data-name="Path 2652" d="M908.922,296.263c1.321,3.231,3.795,6.759,6.057,10.021,3.128-3.008,5.021-5.783,8.177-10.2-3.383.794-4.6,4.1-7.509,5.093C915.357,300.825,908.764,295.876,908.922,296.263Z" transform="translate(-827.589 -295.707)" fill="#95401a" opacity="0.25"/>
        <path id="Path_2653" data-name="Path 2653" d="M838.481,303.088l0,.009c-2.382,2.843-5.735,8.174-11.9,16.32h4.579a.078.078,0,0,0,.022-.018,71.275,71.275,0,0,0,6.322-8.765c1.446,3.182,3.507,7.6,4.065,8.783h4.948C845.73,318.214,841.377,307.7,838.481,303.088Z" transform="translate(-813.442 -296.911)" fill="#95401a" opacity="0.25"/>
        <path id="Path_2654" data-name="Path 2654" d="M931.916,296.009c-7.18,5.491-13.246,9.7-19.985,14.251-4.28-4.079-8.929-8.761-14.018-14.017,2.714,5.459,9.108,16.5,12.4,21.958h.469C915.424,314.172,928.9,298.346,931.916,296.009Z" transform="translate(-825.698 -295.694)" fill="#95401a" opacity="0.25"/>
        <path id="Path_2655" data-name="Path 2655" d="M831.9,295.629h-.19c-3.632,2.084-13.967,9.516-16.435,10.944a50.337,50.337,0,0,1-2.856-6.335q-.262.436-.481.9a134.439,134.439,0,0,0,2.769,14.121C819.866,309.171,829.044,298.688,831.9,295.629Z" transform="translate(-810.927 -295.629)" fill="#95401a" opacity="0.25"/>
        <path id="Path_2656" data-name="Path 2656" d="M810.716,307.51v2.061h0a10.43,10.43,0,0,0,1.254,4.96c0-2.378.012-5.565-1.21-7.935C810.733,306.9,810.716,307.2,810.716,307.51Z" transform="translate(-810.716 -297.513)" fill="#95401a" opacity="0.25"/>
        <path id="Path_2657" data-name="Path 2657" d="M865.688,300.648c-.291-.35-6.883-5.3-6.725-4.912,1.321,3.231,3.795,6.759,6.056,10.021,3.111-2.991,5-5.752,8.125-10.128h-.2C869.756,296.528,868.521,299.682,865.688,300.648Z" transform="translate(-819.005 -295.629)" fill="#95401a" opacity="0.25"/>
        <path id="Path_2658" data-name="Path 2658" d="M815.748,304.155c2.779-2.443,5.391-4.548,7.958-6.421a15.186,15.186,0,0,1-5.293,1.4,3.72,3.72,0,0,1-2.842-1.169,11.373,11.373,0,0,0-.9.7C815.151,300.784,815.933,304.015,815.748,304.155Z" transform="translate(-811.395 -295.991)" fill="#95401a" opacity="0.25"/>
      </g>
      <path id="Path_2659" data-name="Path 2659" d="M880.823,306.99c-21.212-.049-57.773,1.895-69.594,5.573a10.513,10.513,0,0,0,6,6.729,11.241,11.241,0,0,0,4.131.789h119.29a11.268,11.268,0,0,0,9.308-4.84,10.356,10.356,0,0,0,1.389-3.382C940.058,308.1,902.332,306.7,880.823,306.99Z" transform="translate(-810.804 -297.575)" fill="url(#radial-gradient-2)" style="mix-blend-mode: screen;isolation: isolate"/>
    </g>
    <g id="Group_598" data-name="Group 598" transform="translate(809.072 295.691)">
      <path id="Path_2660" data-name="Path 2660" d="M821.135,318.02c-2.619,0-6.5-1.072-8.353-3.017a10.514,10.514,0,0,1-2.871-7.289V307.6a10.461,10.461,0,0,1,2.856-7.253c1.843-1.936,5.714-3,8.319-3h121.32a9.322,9.322,0,0,1,6.8,2.958,10.3,10.3,0,0,1,2.815,7.145v.084a10.7,10.7,0,0,1-2.922,7.416,9.674,9.674,0,0,1-7.054,3.072Z" transform="translate(-809.911 -296.825)" fill="url(#linear-gradient)"/>
      <path id="Path_2661" data-name="Path 2661" d="M821.135,318.02c-2.619,0-6.5-1.072-8.353-3.017a10.514,10.514,0,0,1-2.871-7.289V307.6a10.461,10.461,0,0,1,2.856-7.253c1.843-1.936,5.714-3,8.319-3h121.32a9.322,9.322,0,0,1,6.8,2.958,10.3,10.3,0,0,1,2.815,7.145v.084a10.7,10.7,0,0,1-2.922,7.416,9.674,9.674,0,0,1-7.054,3.072Z" transform="translate(-809.911 -296.825)" opacity="0.85" fill="url(#linear-gradient-2)" style="mix-blend-mode: multiply;isolation: isolate"/>
      <path id="Path_2662" data-name="Path 2662" d="M949.2,302.016a9.316,9.316,0,0,0-6.8-2.959H821.087c-2.606,0-6.476,1.067-8.319,3a10.461,10.461,0,0,0-2.856,7.252v.113a10.859,10.859,0,0,0,.283,2.425,10.33,10.33,0,0,1,2.573-4.83c1.843-1.937,5.714-3,8.319-3h121.32a9.32,9.32,0,0,1,6.8,2.959,10.172,10.172,0,0,1,2.528,4.73,11.034,11.034,0,0,0,.286-2.462v-.083A10.3,10.3,0,0,0,949.2,302.016Z" transform="translate(-809.911 -297.119)" fill="url(#linear-gradient-3)" style="mix-blend-mode: screen;isolation: isolate"/>
      <path id="Path_2663" data-name="Path 2663" d="M949.1,315.4a9.674,9.674,0,0,1-7.054,3.072H821.135c-2.619,0-6.5-1.072-8.353-3.019a10.467,10.467,0,0,1-2.84-6.6c-.013.229-.031.458-.031.692v.112a10.514,10.514,0,0,0,2.871,7.289c1.851,1.945,5.734,3.017,8.353,3.017H942.042A9.674,9.674,0,0,0,949.1,316.9a10.7,10.7,0,0,0,2.922-7.416V309.4c0-.237-.018-.47-.033-.7A10.654,10.654,0,0,1,949.1,315.4Z" transform="translate(-809.911 -298.775)" opacity="0.54" fill="url(#radial-gradient-3)" style="mix-blend-mode: screen;isolation: isolate"/>
      <path id="Path_2664" data-name="Path 2664" d="M812.792,302.232a10.377,10.377,0,0,0-2.736,5.714H951.941a10.209,10.209,0,0,0-2.714-5.758,8.976,8.976,0,0,0-6.8-2.586H821.112C818.506,299.6,814.635,300.3,812.792,302.232Z" transform="translate(-809.936 -297.213)" opacity="0.54" fill="url(#linear-gradient-4)"/>
      <g id="Group_597" data-name="Group 597" transform="translate(2.215)">
        <path id="Path_2665" data-name="Path 2665" d="M812.586,316.579c2.461,2.484,5.067,4.529,8.361,4.488l8.607.062C821.746,320.989,816.22,319.416,812.586,316.579Z" transform="translate(-812.586 -300.13)" fill="#1dd9ce"/>
        <g id="Group_591" data-name="Group 591" transform="translate(2.793 15.802)" opacity="0.49">
          <path id="Path_2666" data-name="Path 2666" d="M819.551,317.346c-.219-1.084-2.949-2.3-3.547-.959C815.455,317.616,820.029,319.71,819.551,317.346Z" transform="translate(-815.958 -315.797)" fill="#1dd9ce"/>
        </g>
        <g id="Group_592" data-name="Group 592" transform="translate(7.029 17.655)" opacity="0.49">
          <path id="Path_2667" data-name="Path 2667" d="M822.479,319.395c1.417-.634-.688-1.844-1.251-1.155C820.646,318.952,821.855,319.674,822.479,319.395Z" transform="translate(-821.073 -318.034)" fill="#1dd9ce"/>
        </g>
        <g id="Group_594" data-name="Group 594" transform="translate(21.171)" style="mix-blend-mode: screen;isolation: isolate">
          <g id="Group_593" data-name="Group 593" opacity="0.7">
            <path id="Path_2668" data-name="Path 2668" d="M871.993,324.921l-.1-.027.074.01Z" transform="translate(-843.947 -301.558)" fill="#fff"/>
            <path id="Path_2669" data-name="Path 2669" d="M872.2,324.952l-.09.013.007-.077Z" transform="translate(-843.984 -301.557)" fill="#fff"/>
            <path id="Path_2670" data-name="Path 2670" d="M872.89,300.342c.06-.052.126-.014.2-.065a.188.188,0,0,1,.08.266.282.282,0,0,1-.3.032A.181.181,0,0,1,872.89,300.342Z" transform="translate(-844.108 -297.329)" fill="#aef4b0"/>
            <path id="Path_2671" data-name="Path 2671" d="M873.17,299.523c.088.016.052.09.068.142a.225.225,0,0,1-.19.081A.127.127,0,0,1,873.17,299.523Z" transform="translate(-844.134 -297.197)" fill="#aef4b0"/>
            <path id="Path_2672" data-name="Path 2672" d="M841.3,305.66a.088.088,0,0,1-.152.055l-.031-.064C841.154,305.588,841.275,305.58,841.3,305.66Z" transform="translate(-838.659 -298.244)" fill="#aef4b0"/>
            <path id="Path_2673" data-name="Path 2673" d="M862.909,310.288l0-.024.071.006,0,.024Z" transform="translate(-842.403 -299.045)" fill="#aef4b0"/>
            <path id="Path_2674" data-name="Path 2674" d="M841.883,305.443c.026.017.009.036,0,.058-.035.012-.121,0-.105-.049C841.813,305.438,841.842,305.415,841.883,305.443Z" transform="translate(-838.773 -298.214)" fill="#aef4b0"/>
            <path id="Path_2675" data-name="Path 2675" d="M864.031,310.613l0,.082a.306.306,0,0,1-.358-.156C863.764,310.559,863.948,310.507,864.031,310.613Z" transform="translate(-842.534 -299.092)" fill="#aef4b0"/>
            <path id="Path_2676" data-name="Path 2676" d="M842.84,306.733c0,.1-.042.2-.18.14a.2.2,0,0,1-.076-.186C842.647,306.629,842.776,306.664,842.84,306.733Z" transform="translate(-838.911 -298.425)" fill="#aef4b0"/>
            <path id="Path_2677" data-name="Path 2677" d="M838.254,297.768l-.051.012a1.112,1.112,0,0,1,.987-.03c-.028.092-.214.075-.355.085a2.8,2.8,0,0,0-.686,0C838.151,297.8,838.261,297.808,838.254,297.768Z" transform="translate(-838.149 -296.877)" fill="#aef4b0"/>
            <path id="Path_2678" data-name="Path 2678" d="M884.3,306.055c-.02-.007-.042-.04-.07-.029l.106-.1c-.111-.156.172-.123.162-.228a.574.574,0,0,1,.493.1c.075.161.018.166.083.325-.142.035.044.323-.224.28-.1.117-.215-.022-.345.053.086-.027-.056-.082-.108-.113l-.089-.008c.079-.087-.015-.149-.1-.2C884.28,306.153,884.272,306.084,884.3,306.055Z" transform="translate(-846.063 -298.257)" fill="#aef4b0"/>
            <path id="Path_2679" data-name="Path 2679" d="M840.892,298.315c.076.035.2.062.227.118-.085.075-.329.007-.47-.015l-.2-.11A1.236,1.236,0,0,1,840.892,298.315Z" transform="translate(-838.545 -296.988)" fill="#aef4b0"/>
            <path id="Path_2680" data-name="Path 2680" d="M842.226,298.022c.038.02.051.05.094.06l-.008.037a2.18,2.18,0,0,1-.652-.194A1.344,1.344,0,0,1,842.226,298.022Z" transform="translate(-838.752 -296.925)" fill="#aef4b0"/>
            <path id="Path_2681" data-name="Path 2681" d="M842.154,298.06c.014-.02-.132.019-.141-.038Z" transform="translate(-838.813 -296.941)" fill="#fff"/>
            <path id="Path_2682" data-name="Path 2682" d="M842.615,297.733l-.025.007.025-.007-.1-.039C842.556,297.708,842.6,297.7,842.615,297.733Z" transform="translate(-838.899 -296.885)" fill="#aef4b0"/>
            <path id="Path_2683" data-name="Path 2683" d="M849.361,299.463c.013.014.005.031,0,.046l-.03-.046C849.342,299.476,849.353,299.467,849.361,299.463Z" transform="translate(-840.07 -297.189)" fill="#aef4b0"/>
            <path id="Path_2684" data-name="Path 2684" d="M852,305.356a.086.086,0,0,1,.014.115.106.106,0,0,1-.133-.045C851.92,305.395,851.908,305.307,852,305.356Z" transform="translate(-840.508 -298.199)" fill="#aef4b0"/>
            <path id="Path_2685" data-name="Path 2685" d="M854.688,303.044a.117.117,0,0,1,.1.069c-.047.022-.06.091-.123.07C854.571,303.152,854.631,303.061,854.688,303.044Z" transform="translate(-840.978 -297.804)" fill="#aef4b0"/>
            <path id="Path_2686" data-name="Path 2686" d="M855.434,301.474c.061.057.175.134.115.224a.154.154,0,0,1-.224.1c-.125.013-.08-.12-.137-.158C855.218,301.523,855.33,301.515,855.434,301.474Z" transform="translate(-841.077 -297.534)" fill="#aef4b0"/>
            <path id="Path_2687" data-name="Path 2687" d="M854.987,302.742c.027.008.058.01.067.041a.114.114,0,0,1-.079.083C854.912,302.845,854.909,302.734,854.987,302.742Z" transform="translate(-841.032 -297.752)" fill="#aef4b0"/>
            <path id="Path_2688" data-name="Path 2688" d="M854.538,306.1c.031.028.076.044.09.094-.055.039-.026.112-.121.118C854.358,306.272,854.4,306.1,854.538,306.1Z" transform="translate(-840.943 -298.329)" fill="#aef4b0"/>
            <path id="Path_2689" data-name="Path 2689" d="M846.162,303.1l-.148-.027.061-.031Z" transform="translate(-839.5 -297.803)" fill="#aef4b0"/>
            <path id="Path_2690" data-name="Path 2690" d="M846.782,303.707c.062.071.166.144.08.215-.185.11-.38-.117-.509-.194l-.036-.017c.045,0,.008-.064.056-.076-.18-.041,0-.153-.172-.2A1.138,1.138,0,0,1,846.782,303.707Z" transform="translate(-839.532 -297.872)" fill="#aef4b0"/>
            <path id="Path_2691" data-name="Path 2691" d="M855.91,303.549c.079,0,.034.076.051.11a.074.074,0,0,1-.124-.041C855.842,303.575,855.875,303.568,855.91,303.549Z" transform="translate(-841.188 -297.891)" fill="#aef4b0"/>
            <path id="Path_2692" data-name="Path 2692" d="M855.711,306.136c.039.031,0,.072-.014.105-.028.027-.075-.014-.115-.016A.081.081,0,0,1,855.711,306.136Z" transform="translate(-841.143 -298.332)" fill="#aef4b0"/>
            <path id="Path_2693" data-name="Path 2693" d="M856.226,305.069a.083.083,0,0,1-.013.135c-.043-.023-.1-.016-.094-.077C856.114,305.051,856.188,305.094,856.226,305.069Z" transform="translate(-841.236 -298.152)" fill="#aef4b0"/>
            <path id="Path_2694" data-name="Path 2694" d="M855.974,306.055c.045.078.269.049.157.188-.07-.059-.212.015-.253-.108C855.9,306.115,855.92,306.065,855.974,306.055Z" transform="translate(-841.195 -298.321)" fill="#aef4b0"/>
            <path id="Path_2695" data-name="Path 2695" d="M848.61,304.182c.059.024.111.044.167-.01,0-.037-.055-.076-.014-.118.219.162.513.2.546.508a.2.2,0,0,1-.114.138.255.255,0,0,0-.183,0c-.046-.134-.27-.038-.341-.188.018.017.038-.014.066-.022a1.3,1.3,0,0,1-.192-.3Z" transform="translate(-839.935 -297.978)" fill="#aef4b0"/>
            <path id="Path_2696" data-name="Path 2696" d="M848.592,305.944c-.041.228-.268.017-.365-.021l-.136-.184A.5.5,0,0,1,848.592,305.944Z" transform="translate(-839.857 -298.267)" fill="#aef4b0"/>
            <path id="Path_2697" data-name="Path 2697" d="M848.51,305.918l-.086.061-.031-.123.036.108Z" transform="translate(-839.909 -298.287)" fill="#fff"/>
            <path id="Path_2698" data-name="Path 2698" d="M871.087,311.433l.06.08c-.237.243-.691.159-.99.093l-.2-.077A1.432,1.432,0,0,1,871.087,311.433Z" transform="translate(-843.614 -299.233)" fill="#aef4b0"/>
            <path id="Path_2699" data-name="Path 2699" d="M849.125,306.486l-.044-.057.06,0Z" transform="translate(-840.027 -298.385)" fill="#aef4b0"/>
            <path id="Path_2700" data-name="Path 2700" d="M849.986,306.934a.525.525,0,0,1,.085.12c-.009.062-.1.08-.151.08a.658.658,0,0,1-.4-.242l-.025.017a.31.31,0,0,0,.078-.019c.029-.055-.063-.058-.1-.079A.638.638,0,0,1,849.986,306.934Z" transform="translate(-840.095 -298.45)" fill="#aef4b0"/>
            <path id="Path_2701" data-name="Path 2701" d="M849.836,307l-.035-.05c-.07.051,0-.007-.066-.022C849.813,307.012,849.782,306.884,849.836,307Z" transform="translate(-840.14 -298.472)" fill="#fff"/>
            <path id="Path_2702" data-name="Path 2702" d="M850.388,307.526a.617.617,0,0,1,.494.147c.041.06.1.154-.007.173a.76.76,0,0,1-.436-.1c0-.105-.144-.124-.219-.185C850.254,307.518,850.427,307.659,850.388,307.526Z" transform="translate(-840.223 -298.572)" fill="#aef4b0"/>
            <path id="Path_2703" data-name="Path 2703" d="M850.636,307.6l.01.032-.019-.006Z" transform="translate(-840.293 -298.587)" fill="#fff"/>
            <path id="Path_2704" data-name="Path 2704" d="M850.549,313.2c.041.032,0,.056,0,.085-.122.079-.292-.032-.4-.089-.009-.094-.13-.015-.164-.1C850.172,313.115,850.377,313.055,850.549,313.2Z" transform="translate(-840.184 -299.53)" fill="#aef4b0"/>
            <path id="Path_2705" data-name="Path 2705" d="M858.979,297.19c-.011.2-.191.1-.3.107-.266-.057-.315-.359-.529-.466l-.091-.113C858.328,296.909,858.869,296.763,858.979,297.19Z" transform="translate(-841.569 -296.717)" fill="#aef4b0"/>
            <path id="Path_2706" data-name="Path 2706" d="M856.738,311.766c.014.031.062.045.071.083,0,.055-.014.133-.132.137l-.282-.078c0-.021.018-.023.03-.037l-.1-.094C856.42,311.641,856.6,311.728,856.738,311.766Z" transform="translate(-841.273 -299.292)" fill="#aef4b0"/>
            <path id="Path_2707" data-name="Path 2707" d="M854.242,311l-.1-.014.035-.007Z" transform="translate(-840.897 -299.168)" fill="#fff"/>
            <path id="Path_2708" data-name="Path 2708" d="M859.536,312.63l.047-.032c-.017-.038-.06-.022-.091-.035.118-.1.258-.06.424-.084.084.067.207.113.209.238.006.109-.118.1-.185.152-.119.026-.205-.133-.337-.084l.022-.02-.178-.179C859.475,312.6,859.528,312.587,859.536,312.63Z" transform="translate(-841.808 -299.425)" fill="#aef4b0"/>
            <path id="Path_2709" data-name="Path 2709" d="M859.685,300.378l-.066-.056.076.022Z" transform="translate(-841.838 -297.336)" fill="#aef4b0"/>
            <path id="Path_2710" data-name="Path 2710" d="M859.565,301.019c.051-.013-.068.06-.082.023l.094.134-.139-.123Z" transform="translate(-841.807 -297.456)" fill="#aef4b0"/>
            <path id="Path_2711" data-name="Path 2711" d="M859.636,301.062c.019-.039.072,0,.1,0,.017.051.056.086.026.142-.025.03-.056-.006-.083,0,.031-.019.062-.011.094-.037a.127.127,0,0,0-.113-.1c-.013.017,0,.029,0,.046h-.075l.065-.027Z" transform="translate(-841.833 -297.461)" fill="#aef4b0"/>
            <path id="Path_2712" data-name="Path 2712" d="M860.256,300.412l-.01-.021.01.021-.084.023C860.2,300.461,860.227,300.431,860.256,300.412Z" transform="translate(-841.933 -297.348)" fill="#aef4b0"/>
            <path id="Path_2713" data-name="Path 2713" d="M859.776,308.458c.207.085.51-.056.678.166.034.122-.1.2-.193.18-.215-.018-.319-.22-.494-.307Z" transform="translate(-841.863 -298.734)" fill="#aef4b0"/>
            <path id="Path_2714" data-name="Path 2714" d="M861.583,313.868c.117.022.268.017.306.135s-.1.1-.161.139c-.1.011-.18-.049-.271-.069.012-.031.034-.061-.016-.068C861.509,313.923,861.46,313.917,861.583,313.868Z" transform="translate(-842.151 -299.664)" fill="#aef4b0"/>
            <path id="Path_2715" data-name="Path 2715" d="M861.4,305.09c.071.024.153.07.165.147a.118.118,0,0,1-.128.119c-.09-.017-.2-.031-.234-.121C861.208,305.1,861.32,305.133,861.4,305.09Z" transform="translate(-842.109 -298.156)" fill="#aef4b0"/>
            <path id="Path_2716" data-name="Path 2716" d="M862.014,314.565c.084-.04-.043-.089-.006-.1s.063.04.072.049l.022.028a.181.181,0,0,1-.229-.025C861.914,314.523,861.943,314.582,862.014,314.565Z" transform="translate(-842.225 -299.766)" fill="#aef4b0"/>
            <path id="Path_2717" data-name="Path 2717" d="M862.64,299.467c.066-.014.1.051.136.123-.011.09-.04.21-.1.181S862.529,299.546,862.64,299.467Z" transform="translate(-842.348 -297.189)" fill="#aef4b0"/>
            <path id="Path_2718" data-name="Path 2718" d="M862.424,302.043c.012-.031-.008-.044-.016-.061.041-.085.073.006.084.031.16-.01.35-.077.451.149a.24.24,0,0,1-.105.217l-.262-.055.017-.013a.934.934,0,0,1-.258-.269C862.366,302.041,862.4,302.071,862.424,302.043Z" transform="translate(-842.304 -297.615)" fill="#aef4b0"/>
            <path id="Path_2719" data-name="Path 2719" d="M862.014,306.719c-.019.038.008.068.017.1l0-.025.032,0,0,.026c-.019-.011-.026,0-.034.011.029.063.084.089.119.019-.147-.047.017-.163-.057-.225.1-.007.306-.033.326.161a.25.25,0,0,1-.126.141.728.728,0,0,0-.246.007c.013,0,.031.012.046-.009l0-.025-.118-.034c.023-.022-.007-.075.041-.094l-.081-.053C861.963,306.719,862,306.749,862.014,306.719Z" transform="translate(-842.236 -298.42)" fill="#aef4b0"/>
            <path id="Path_2720" data-name="Path 2720" d="M863.456,318.039c.114.065-.015.138-.077.161-.19.071-.357-.111-.519-.03A.927.927,0,0,1,863.456,318.039Z" transform="translate(-842.395 -300.378)" fill="#aef4b0"/>
            <path id="Path_2721" data-name="Path 2721" d="M862.16,306.8c.032,0-.037.036-.036.02l0-.025Z" transform="translate(-842.268 -298.448)" fill="#fff"/>
            <path id="Path_2722" data-name="Path 2722" d="M862.247,306.723a.326.326,0,0,0,.044.1l-.032.038c.017.011.008.034,0,.059l-.05-.09c.026-.046.07-.049.034-.11l-.039.052C862.206,306.743,862.232,306.739,862.247,306.723Z" transform="translate(-842.283 -298.436)" fill="#fff"/>
            <path id="Path_2723" data-name="Path 2723" d="M879.971,314.047l-.1-.078c0-.045.4.1.275-.131.275.082.653-.013.822.227.031-.012.081.01.1-.026l-.1-.063c.185-.041.389-.176.587-.088.033.032.088.089.042.137-.251.314-.745-.127-.9.362a.948.948,0,0,1-.658.076l-.208.081c.162-.041.017-.152.049-.217l-.136.012.09-.088-.155-.09C879.745,314.157,879.912,314.149,879.971,314.047Z" transform="translate(-845.284 -299.659)" fill="#aef4b0"/>
            <path id="Path_2724" data-name="Path 2724" d="M864.01,314.83c.112.044.288-.007.329.149.016.156-.169.078-.251.148-.081.014-.1-.076-.192-.046l.017-.016C863.906,315.015,863.836,314.808,864.01,314.83Z" transform="translate(-842.572 -299.829)" fill="#aef4b0"/>
            <path id="Path_2725" data-name="Path 2725" d="M863.4,303.217a.179.179,0,0,1,.229.022c0,.041.038.086,0,.114-.074.119-.176.02-.25-.023C863.428,303.318,863.384,303.247,863.4,303.217Z" transform="translate(-842.484 -297.828)" fill="#aef4b0"/>
            <path id="Path_2726" data-name="Path 2726" d="M863.506,303.3l-.074-.008,0-.016Z" transform="translate(-842.493 -297.844)" fill="#fff"/>
            <path id="Path_2727" data-name="Path 2727" d="M865.791,316.088c-.112,0,.026-.075-.022-.1.092-.02.253-.076.332.017.025.122-.089.087-.15.148l-.2-.034Z" transform="translate(-842.891 -300.023)" fill="#aef4b0"/>
            <path id="Path_2728" data-name="Path 2728" d="M865.844,316.076l.112,0-.062.06.017-.018-.112-.037.044-.043Z" transform="translate(-842.9 -300.036)" fill="#fff"/>
            <path id="Path_2729" data-name="Path 2729" d="M868.6,315.45c.065-.072.232-.186.351-.143a.353.353,0,0,1,.229.116c-.012.207-.225.179-.4.275l.02-.021c-.036-.084-.162-.046-.237-.07A.175.175,0,0,0,868.6,315.45Z" transform="translate(-843.375 -299.909)" fill="#aef4b0"/>
            <path id="Path_2730" data-name="Path 2730" d="M869.546,319.226c.008-.03-.06-.036-.078-.051l-.065.01a1.086,1.086,0,0,0,.309-.116.314.314,0,0,1,.269-.018c.057.07-.039.21-.135.234a1.3,1.3,0,0,1-.452.009Z" transform="translate(-843.517 -300.55)" fill="#aef4b0"/>
            <path id="Path_2731" data-name="Path 2731" d="M864.987,302.707a.175.175,0,0,1,.23-.08.22.22,0,0,1,.112.195.232.232,0,0,1-.09.215c-.058.026-.1-.037-.149.03.046-.19-.15-.047-.079-.2l-.045-.041C865,302.823,865.009,302.749,864.987,302.707Z" transform="translate(-842.756 -297.73)" fill="#aef4b0"/>
            <path id="Path_2732" data-name="Path 2732" d="M865.193,306.266l.017-.016v.015l.04,0-.009.041-.07-.054C865.176,306.258,865.183,306.275,865.193,306.266Z" transform="translate(-842.792 -298.355)" fill="#aef4b0"/>
            <path id="Path_2733" data-name="Path 2733" d="M869.523,316.546l-.013-.079c.13.052.4-.142.507.064.071.157-.108.212-.207.29-.066-.06-.11.017-.172.027-.012-.014,0-.027.01-.046-.119.01-.046-.063-.162-.08l.016-.02-.1-.03C869.53,316.643,869.382,316.541,869.523,316.546Z" transform="translate(-843.519 -300.105)" fill="#aef4b0"/>
            <path id="Path_2734" data-name="Path 2734" d="M865.536,306.216c.009.074-.07.084-.086.1l-.156-.021.039-.059c-.025.108.071.071.089.08,0-.034.037-.058.025-.1-.05-.115-.126-.022-.165-.021l.01-.017-.1-.022C865.31,306.122,865.456,306.047,865.536,306.216Z" transform="translate(-842.796 -298.331)" fill="#aef4b0"/>
            <path id="Path_2735" data-name="Path 2735" d="M868.932,308a.054.054,0,0,1,.053.009l.009.061-.077-.022C868.925,308.03,868.944,308.019,868.932,308Z" transform="translate(-843.435 -298.655)" fill="#aef4b0"/>
            <path id="Path_2736" data-name="Path 2736" d="M871.753,313.911c-.007.017.013.024.026.04l-.06.053c.03.014.007-.08-.063-.1C871.68,313.938,871.723,313.906,871.753,313.911Z" transform="translate(-843.906 -299.67)" fill="#aef4b0"/>
            <path id="Path_2737" data-name="Path 2737" d="M872.039,307.068l.021,0,.007.06C872.026,307.139,871.988,307.091,872.039,307.068Z" transform="translate(-843.968 -298.495)" fill="#aef4b0"/>
            <path id="Path_2738" data-name="Path 2738" d="M872.206,307.077c.054-.06,0,0-.02.019l.046.04.094-.073-.023-.024.023.024c.038-.023,0-.063.01-.089-.065-.028-.129.031-.185.084l-.022-.015c.093-.083.217-.07.36-.069a.12.12,0,0,1,.063.1.412.412,0,0,1-.414.048Z" transform="translate(-843.987 -298.478)" fill="#aef4b0"/>
            <path id="Path_2739" data-name="Path 2739" d="M872.4,307.161l-.023-.015.045-.05Z" transform="translate(-844.03 -298.5)" fill="#fff"/>
            <path id="Path_2740" data-name="Path 2740" d="M877.211,313.577c.129.022.131.138.089.222-.077.015-.118.089-.2.105,0-.017-.005-.149-.105-.1.089.035-.041.1-.107.117l.063-.05c-.053-.057-.118-.008-.189-.045l.063-.049-.094-.053A.981.981,0,0,1,877.211,313.577Z" transform="translate(-844.779 -299.613)" fill="#aef4b0"/>
            <path id="Path_2741" data-name="Path 2741" d="M874.583,308.942c.176-.036.316-.138.452.013.029.1-.094.17-.171.2l-.237.026.017-.02-.1-.078.018-.019-.075-.036C874.561,309.023,874.635,308.963,874.583,308.942Z" transform="translate(-844.393 -298.806)" fill="#aef4b0"/>
            <path id="Path_2742" data-name="Path 2742" d="M874.851,308.955c-.033-.031-.092,0-.121-.005a.178.178,0,0,1,.084-.053c.082.027.033.121.046.163-.055.059-.178.011-.214.05C874.791,309.059,874.662,308.967,874.851,308.955Z" transform="translate(-844.42 -298.81)" fill="#fff"/>
            <path id="Path_2743" data-name="Path 2743" d="M874.88,309.047c-.019.013-.037.024-.026.04l0,.026-.051.006,0-.026.03,0-.055-.055Z" transform="translate(-844.443 -298.833)" fill="#aef4b0"/>
            <path id="Path_2744" data-name="Path 2744" d="M876.094,314.36c.041.014.017.07.031.1-.06.084-.168.077-.273.088.054-.041.1,0,.138-.075l-.056-.083c-.026.037-.081.07-.113.037A.286.286,0,0,1,876.094,314.36Z" transform="translate(-844.621 -299.746)" fill="#aef4b0"/>
            <path id="Path_2745" data-name="Path 2745" d="M875.594,308.025l.046.057-.113.072c.019-.01.038-.021.027-.037l-.033-.023-.081.1c-.025-.042-.07-.012-.1-.017l.068-.007,0-.034.032.014.039-.091-.237.023C875.357,308.057,875.469,307.984,875.594,308.025Z" transform="translate(-844.521 -298.658)" fill="#aef4b0"/>
            <path id="Path_2746" data-name="Path 2746" d="M891.062,315.018c.031-.147-.153-.028-.213-.075.045-.049.163.03.191-.073a.214.214,0,0,0-.234-.009l-.023,0c.1-.091.386-.048.422-.231-.052.008-.114-.053-.066-.1.175-.036.217-.176.378-.226l-.079-.034a2.8,2.8,0,0,1,.461-.088c-.138-.129.257-.057.2-.182.094.083.219.115.268.045.181.059.422.181.452.37.086.094-.009.127-.007.261l-.033-.023c0,.046-.066.1,0,.134a.244.244,0,0,0-.166.152c.014.087-.06.188-.144.175-.026.022-.012.046-.009.062a.148.148,0,0,0-.111.063,1.907,1.907,0,0,0-.619.327l.068-.046-.052-.063-.156.174c.008-.08.135-.171.061-.239-.083-.041-.147.031-.219.052l.066-.055c-.082-.058-.19.083-.306.029.108-.139-.007-.194-.132-.236l-.249.036C890.928,315.209,891.055,315.126,891.062,315.018Z" transform="translate(-847.192 -299.688)" fill="#aef4b0"/>
            <path id="Path_2747" data-name="Path 2747" d="M877.1,308.7c-.029.011-.027.036-.024.063.046.058.113.032.172.046l.024-.065c-.055-.055-.085.045-.122-.032.041-.1.168-.015.256-.023.07.117-.1.142-.176.14-.1.045-.162-.038-.244-.058C877,308.761,877.035,308.678,877.1,308.7Z" transform="translate(-844.821 -298.77)" fill="#aef4b0"/>
            <path id="Path_2748" data-name="Path 2748" d="M878.945,308.934c.122.033.24.146.205.211.026.051-.031.081-.039.11.12.006.265.089.188.22a1.02,1.02,0,0,1-.909-.113l.063-.067-.1-.034A.728.728,0,0,1,878.945,308.934Z" transform="translate(-845.056 -298.816)" fill="#aef4b0"/>
            <path id="Path_2749" data-name="Path 2749" d="M899.625,307.269l-.048.007c.065-.027.1-.094.147-.147-.033-.022-.056-.044-.1-.029l-.018.021c.015-.037.167-.025.1-.122l-.031-.013c.219,0,.232-.184.433-.186.133-.188.355-.026.492-.053,0,.07.092.086.137.133l.05.354c-.073.046-.1.122-.16.209a.548.548,0,0,1,.318.214c.115.189-.125.238-.164.383a.346.346,0,0,0-.295.085l-.044.044c.066-.169-.209-.076-.32-.1l-.067.01c.033-.04.113-.043.1-.1l-.165.023a.151.151,0,0,0,.09-.058l-.056-.054c.04,0,.044-.033.061-.053s-.036-.038-.057-.054l.072-.054c-.066-.044-.136-.043-.118-.133h-.239l.061-.055a.117.117,0,0,0-.123-.025l-.018.019.041-.067-.168.007C899.545,307.4,899.766,307.345,899.625,307.269Z" transform="translate(-848.696 -298.434)" fill="#aef4b0"/>
            <path id="Path_2750" data-name="Path 2750" d="M884.595,314.3l-.055-.04c.133-.081.23-.311.5-.322a.913.913,0,0,1,.421.08c.1.209,0,.334-.141.5-.124-.03-.333.115-.474.112l-.031.03.066-.069-.34-.055C884.591,314.472,884.561,314.378,884.595,314.3Z" transform="translate(-846.12 -299.676)" fill="#aef4b0"/>
            <path id="Path_2751" data-name="Path 2751" d="M879.637,311.174l0-.018.07-.006,0,.018Z" transform="translate(-845.277 -299.197)" fill="#fff"/>
            <path id="Path_2752" data-name="Path 2752" d="M881.175,310.341c0,.018-.016.036-.026.046.026-.037-.051-.109-.094-.054C881.082,310.306,881.169,310.28,881.175,310.341Z" transform="translate(-845.521 -299.051)" fill="#aef4b0"/>
            <path id="Path_2753" data-name="Path 2753" d="M882.208,310.325l-.022-.023c-.029,0,.114-.054.06-.111.243-.165.37.257.594-.011.147.11.358.027.424.215.024.148-.124.243-.258.3l-.212.064c.006-.036-.044-.049-.073-.037l-.1.009c.056-.128-.142-.03-.2-.106l.03,0c-.033-.13-.181-.044-.251-.145l-.081-.018C882.106,310.4,882.183,310.372,882.208,310.325Z" transform="translate(-845.704 -299.025)" fill="#aef4b0"/>
            <path id="Path_2754" data-name="Path 2754" d="M889.771,309.9c-.07-.017.115-.042.008-.091.107-.014.075-.115.149-.143l-.022-.014c.175.038.1-.234.379-.145.1-.138.219.073.32.014a.323.323,0,0,1,.153.4c-.078.155-.063.054-.178.223l-.07.073c-.07-.132-.106.167-.208.031-.077.021-.118.082-.209.075a.065.065,0,0,0,.02-.065c-.056-.037-.122,0-.172,0l.012-.065-.124-.026c.027-.012.023-.039.019-.065l-.079-.007C889.7,310,889.923,309.975,889.771,309.9Z" transform="translate(-847.015 -298.906)" fill="#aef4b0"/>
            <path id="Path_2755" data-name="Path 2755" d="M890.171,311.119l-.167.04.1-.03Z" transform="translate(-847.058 -299.191)" fill="#fff"/>
            <path id="Path_2756" data-name="Path 2756" d="M895.411,313.941l-.01-.061c.081.014.049-.069.083-.1.137-.014.325-.071.385.044l-.018.2c-.073-.022-.126.075-.19.111,0-.07-.13,0-.122-.015l.017-.028a.373.373,0,0,1-.2-.075C895.406,314.022,895.438,313.981,895.411,313.941Z" transform="translate(-847.978 -299.644)" fill="#aef4b0"/>
            <path id="Path_2757" data-name="Path 2757" d="M895.5,314.089l0-.017.1-.016,0,.018Z" transform="translate(-848.003 -299.696)" fill="#fff"/>
            <path id="Path_2758" data-name="Path 2758" d="M897.075,319.521c.125-.021.268.071.2.206a.262.262,0,0,1-.253.086C896.9,319.78,896.867,319.518,897.075,319.521Z" transform="translate(-848.247 -300.635)" fill="#aef4b0"/>
            <path id="Path_2759" data-name="Path 2759" d="M898.678,310.846c-.019-.06,0-.045,0-.124.071-.037.2-.084.279-.025a.17.17,0,0,1,.032.208c-.077.074-.063.036-.155.085-.075-.042-.183-.043-.188-.14Z" transform="translate(-848.543 -299.114)" fill="#aef4b0"/>
            <path id="Path_2760" data-name="Path 2760" d="M899.3,310.42c.017.042-.009.065-.034.1-.04,0-.1-.021-.079-.077Z" transform="translate(-848.635 -299.071)" fill="#aef4b0"/>
            <path id="Path_2761" data-name="Path 2761" d="M897.167,314.993a.243.243,0,0,1,.2-.094c.018.041.1.063.041.118a.327.327,0,0,1-.192.093c-.025-.031-.088-.057-.017-.1Z" transform="translate(-848.289 -299.841)" fill="#aef4b0"/>
            <path id="Path_2762" data-name="Path 2762" d="M897.3,315.036l.031.012c.042-.041-.083.1-.1,0C897.241,314.976,897.279,315.023,897.3,315.036Z" transform="translate(-848.3 -299.86)" fill="#fff"/>
            <path id="Path_2763" data-name="Path 2763" d="M900.416,316.14l-.118-.027c.085,0,.124-.055.173-.116a.063.063,0,0,0-.037-.055c.069.007.1-.042.153-.067l-.059-.073c.239,0,.606-.2.811.1v.336l-.022-.014c-.042.166-.179.195-.244.327l.007.045-.123-.063c-.046.069-.032-.03-.1-.012l-.164.112c-.013-.032.021-.047.037-.067-.049-.072-.1,0-.139.021.027-.074-.076-.13-.188-.228-.014.029-.042.023-.07.028.045-.007.058-.052.084-.074l0-.017-.163,0C900.273,316.214,900.452,316.258,900.416,316.14Z" transform="translate(-848.82 -299.985)" fill="#aef4b0"/>
            <path id="Path_2764" data-name="Path 2764" d="M900.461,312.284c.06-.053.056-.079.011-.126l-.032-.022c-.037.014.073-.028.1.012.051-.042,0-.142.118-.123.067-.071-.052-.089-.07-.14.113-.024.119.088.237.028.083-.224.311.007.412-.105.018,0,.131-.026.141.052.041,0,.044-.041.062-.052.118.027.174.215.258.195.07.026.068.089.13.114a.092.092,0,0,0,.061.1c-.139.1.178.109.007.186-.021.065.078.079.1.093-.045.015-.108-.03-.159.022.2.115-.113.158-.023.321-.044-.039-.1.015-.106.059l.006.042c-.115-.071-.158.1-.233.113-.051.042-.246-.117-.334.075-.079.056-.137-.22-.27-.069l-.056.073c-.068-.071.109-.113,0-.17-.1-.022-.066.071-.129.1.006-.028.152-.218-.052-.223l-.153.066c.019-.055.07-.116.07-.178-.054-.106-.156.058-.147-.023.044-.033.117-.053.079-.118l-.174-.063C900.444,312.491,900.352,312.326,900.461,312.284Z" transform="translate(-848.829 -299.309)" fill="#aef4b0"/>
            <path id="Path_2765" data-name="Path 2765" d="M905.874,314.6c-.011-.01-.02-.026-.037-.016,0-.087.126-.18.079-.289.154-.016.093-.257.262-.212.07-.025.013-.142.122-.075a.071.071,0,0,0,.02-.072c.187.041.359-.07.522.041.1,0,.1.149.209.105l-.04.046c.043.094.218.123.13.263l.054.1a.442.442,0,0,0-.11.29c-.049.049-.192.045-.156.155-.128-.042-.1.115-.156.164l-.046-.041-.056.074c-.012-.032.012-.07-.026-.084-.1.008-.146.076-.2.144,0-.018-.014-.044.012-.063-.06-.066-.084.052-.15.039l0-.043-.08.008.015-.026c-.061-.083-.135.014-.2.019.006-.036.073-.086.014-.123l-.1-.08c-.007.027-.031.029-.058.032l.048-.137c-.08-.063-.118.091-.186.046C905.922,314.806,905.774,314.7,905.874,314.6Z" transform="translate(-849.765 -299.674)" fill="#aef4b0"/>
            <path id="Path_2766" data-name="Path 2766" d="M903.388,308.067c.015.041.076.06.064.114-.039.094-.161.049-.2.008C903.336,308.117,903.252,308.075,903.388,308.067Z" transform="translate(-849.335 -298.667)" fill="#aef4b0"/>
            <path id="Path_2767" data-name="Path 2767" d="M904.3,303.59c.049-.022.073.011.107.034.047.065-.06.12-.107.152-.113,0,0-.036-.109-.067A.141.141,0,0,1,904.3,303.59Z" transform="translate(-849.495 -297.897)" fill="#aef4b0"/>
            <path id="Path_2768" data-name="Path 2768" d="M906.836,312.707c.057.021.118-.011.161.056-.024.036-.017.116-.081.13l-.063.006c-.05-.041.122-.08-.011-.123l-.04.065C906.806,312.788,906.784,312.738,906.836,312.707Z" transform="translate(-849.944 -299.464)" fill="#aef4b0"/>
            <path id="Path_2769" data-name="Path 2769" d="M906.883,308.869a.459.459,0,0,1,.034-.171.571.571,0,0,1,.377-.12c.165.11.271.13.255.3.089.046-.1.113.039.147-.055.031-.2.049-.1.14.015-.064-.144-.008-.181.013l0,.035c-.029,0-.051-.057-.1-.026-.039.108-.109-.036-.181.016.027-.021.016-.046.014-.071-.022-.034-.078,0-.117-.008l-.017.019.044-.039-.1-.1.043-.047-.07-.021Z" transform="translate(-849.948 -298.755)" fill="#aef4b0"/>
            <path id="Path_2770" data-name="Path 2770" d="M907.5,309.509c.026-.039.181-.013.154-.117.04.015.065-.022.082-.05l0-.044c.022.042.067.013.1.019.038-.019.007-.054.014-.089.031.032.068.022.1.054l.084-.04c0,.026.041.031.052.057.137-.089.2.083.3.1s.013.193.175.2c-.161.169.093.267-.084.473-.02,0-.046.011-.066-.013-.065.022-.041.108-.01.142-.047,0-.069-.031-.1-.056-.044.17-.24.061-.311.128,0-.08-.1,0-.136-.053l-.044.046.021-.089c-.045.022-.1-.028-.136.054-.053-.093,0-.238-.148-.2.055-.03.031-.081.038-.128C907.346,309.829,907.646,309.62,907.5,309.509Z" transform="translate(-850.062 -298.867)" fill="#aef4b0"/>
            <path id="Path_2771" data-name="Path 2771" d="M910.244,310.6c.043-.073-.06-.113-.088-.12a.117.117,0,0,0,.041-.109c-.022-.043-.066-.015-.094-.021.034-.056.186.027.154-.085l-.049-.041.11-.046-.069-.079c.057.017.2-.032.172-.137l-.05-.1c.017-.01.037.007.046.024.1-.021-.036-.183.109-.136-.044-.129.056-.256.035-.333.077.022.055-.065.082-.092.037,0,.058.034.1.023,0-.114.076.033.111-.047.076.023.147.127.229.054-.082.117.088.145.1.224.149-.02-.023-.157.079-.212.068.1-.042.238.147.253l.065-.063c.037.036.049.166.131.086l.069.123.075-.021c.009.028-.02.064.019.081s.046-.027.064-.046a.183.183,0,0,0,.068.175l.075-.028,0,.167c.14-.02-.017.132.132.147-.129.089.047.166.094.192-.036.018-.093.01-.092.062-.046.114.093.061.13.1l-.13.018a.234.234,0,0,0,.021.176h.028c0,.053-.175.124-.046.185-.019-.008-.029.008-.046.026-.036.071.066.088.066.14-.028.017-.166-.172-.193,0l.022.192-.084-.146c-.244.073-.05.4-.32.425.007-.1-.1-.113-.156-.1-.126,0-.078.176-.214.152.023-.167-.205-.2-.285-.139-.073.039-.041.133-.1.152-.021-.06.1-.178-.007-.253l-.109.065c.036-.045.006-.124-.031-.166l-.082.046c.007-.042.08-.1,0-.122l-.108.04c-.011-.044.071-.056.032-.108-.027-.025-.085-.094-.129-.031-.046.019.07-.1-.051-.129l-.081,0c.034-.045.117-.074.075-.169l-.156.006c.026-.036.089-.055.069-.109l-.14-.036C910.136,310.684,910.239,310.69,910.244,310.6Z" transform="translate(-850.506 -298.879)" fill="#aef4b0"/>
            <path id="Path_2772" data-name="Path 2772" d="M894.219,307.448c.11,0,.237-.085.319.053.009.115.007.346-.192.288l-.041.053-.153-.082c.065-.09-.118-.113-.034-.208C894.165,307.535,894.25,307.513,894.219,307.448Z" transform="translate(-847.761 -298.556)" fill="#aef4b0"/>
            <path id="Path_2773" data-name="Path 2773" d="M895,307.626l.129-.065Z" transform="translate(-847.917 -298.58)" fill="#aef4b0"/>
            <path id="Path_2774" data-name="Path 2774" d="M895.432,307.41l-.174.091,0-.025-.045.033-.007-.043Z" transform="translate(-847.951 -298.554)" fill="#aef4b0"/>
            <path id="Path_2775" data-name="Path 2775" d="M895.718,307.035c-.017.012-.03,0-.051-.008.036-.025.066-.03.09-.06l-.123-.024c.094-.032.123-.1.161-.177l-.022-.014a.7.7,0,0,1,.541-.176c.129.051.268.169.426.1.06.062-.1.07,0,.108s.138.181.211.268c-.133.1-.081.172-.1.292-.033.05-.16.061-.1.147l-.08-.057c-.079.057-.007.135-.019.2l-.129-.068c-.044.1-.232.108-.3.156-.127-.1-.248.075-.314.157-.062-.071.121-.233-.031-.316-.017.021-.022.055-.062.055-.131-.077.122-.179-.036-.225l-.207.2C895.674,307.38,895.854,307.253,895.718,307.035Z" transform="translate(-848.015 -298.411)" fill="#aef4b0"/>
            <path id="Path_2776" data-name="Path 2776" d="M895.581,307.35l.09-.058Z" transform="translate(-848.016 -298.534)" fill="#aef4b0"/>
            <path id="Path_2777" data-name="Path 2777" d="M896.928,308.193l-.019,0-.011-.07Z" transform="translate(-848.243 -298.677)" fill="#aef4b0"/>
          </g>
        </g>
        <path id="Path_2778" data-name="Path 2778" d="M951.97,307.793c-.048,4.839-52.587,8.525-82.918,8.232s-54.879-4.45-54.834-9.288,24.672-8.523,55-8.233S952.016,302.955,951.97,307.793Z" transform="translate(-812.867 -297.021)" opacity="0.38" fill="url(#radial-gradient-4)" style="mix-blend-mode: screen;isolation: isolate"/>
        <g id="Group_595" data-name="Group 595" transform="translate(130.681 2.164)" opacity="0.82">
          <path id="Path_2779" data-name="Path 2779" d="M975.024,302.272c-.471-1.134-2.83-3.96-4.366-2.561-1.024.933,1.02,3.339,1.873,4.026C974.045,304.957,975.932,304.462,975.024,302.272Z" transform="translate(-970.377 -299.33)" fill="#bcfec0"/>
        </g>
        <g id="Group_596" data-name="Group 596" transform="translate(135.18 7.683)" opacity="0.82">
          <path id="Path_2780" data-name="Path 2780" d="M976.942,308.468c1.728-.12,1.319-3.3-.427-2.268C975.484,306.808,975.546,308.561,976.942,308.468Z" transform="translate(-975.809 -305.993)" fill="#bcfec0"/>
        </g>
        <path id="Path_2781" data-name="Path 2781" d="M975.383,316.409c-2.461,2.484-5.068,4.529-8.361,4.49l-8.608.061C966.224,320.821,971.749,319.247,975.383,316.409Z" transform="translate(-837.641 -300.1)" fill="#1dd9ce"/>
      </g>
    </g>
    <g id="Group_600" data-name="Group 600" transform="translate(873.045 317.21)">
      <path id="Path_2782" data-name="Path 2782" d="M887.155,326.377l2.1-3.678,2.132,3.678Z" transform="translate(-887.155 -322.7)" fill="#5f150c"/>
      <path id="Path_2783" data-name="Path 2783" d="M890.747,326.1l-1.32-2.277-1.3,2.277Z" transform="translate(-887.322 -322.894)" fill="#e2000f"/>
      <path id="Path_2784" data-name="Path 2784" d="M900.124,326.377l2.1-3.678,2.137,3.678Z" transform="translate(-889.383 -322.7)" fill="#5f150c"/>
      <path id="Path_2785" data-name="Path 2785" d="M903.716,326.1l-1.322-2.277-1.3,2.277Z" transform="translate(-889.55 -322.894)" fill="#e2000f"/>
      <path id="Path_2786" data-name="Path 2786" d="M893.64,326.377l2.1-3.678,2.134,3.678Z" transform="translate(-888.269 -322.7)" fill="#5f150c"/>
      <path id="Path_2787" data-name="Path 2787" d="M897.231,326.1l-1.32-2.277-1.3,2.277Z" transform="translate(-888.436 -322.894)" fill="#1cbeca"/>
      <g id="Group_599" data-name="Group 599" transform="translate(0 1.839)">
        <path id="Path_2788" data-name="Path 2788" d="M894.547,325.925l-.318-.029-.589,1.03h4.234l-.523-.9A25.346,25.346,0,0,1,894.547,325.925Z" transform="translate(-888.269 -325.088)" fill="#5f150c" opacity="0.39"/>
        <path id="Path_2789" data-name="Path 2789" d="M903.338,325.018a12.831,12.831,0,0,1-2.591.663l-.624,1.095h4.236Z" transform="translate(-889.383 -324.937)" fill="#5f150c" opacity="0.39"/>
        <path id="Path_2790" data-name="Path 2790" d="M887.155,326.759h4.235l-.754-1.3a14.991,14.991,0,0,1-2.431-.539Z" transform="translate(-887.155 -324.92)" fill="#5f150c" opacity="0.39"/>
      </g>
    </g>
    <path id="Path_2791" data-name="Path 2791" d="M917.462,322.547c0,.918-12.553,1.661-28.037,1.661s-28.035-.743-28.035-1.661,12.552-1.66,28.035-1.66S917.462,321.63,917.462,322.547Z" transform="translate(-9.684 -5.178)" fill-rule="evenodd" fill="url(#radial-gradient-5)" style="mix-blend-mode: screen;isolation: isolate"/>
  </g>
</svg>
