<svg xmlns="http://www.w3.org/2000/svg" width="29.623" height="27.685" viewBox="0 0 29.623 27.685">
  <g id="Group_42" data-name="Group 42" transform="translate(-241.49 -121.316)">
    <g id="Group_41" data-name="Group 41" transform="translate(241.49 121.316)">
      <circle id="Ellipse_486" data-name="Ellipse 486" cx="11.539" cy="11.539" r="11.539" transform="translate(3.19 23.414) rotate(-80.913)" fill="#a66300"/>
      <path id="Path_25" data-name="Path 25" d="M338.734,157.57l-3.346-.294.412,3.708,3.8.19A11.472,11.472,0,0,0,338.734,157.57Z" transform="translate(-311.688 -148.2)" fill="#804e04"/>
      <path id="Path_26" data-name="Path 26" d="M325.4,196.455l-.618,1.854,3.531,1.2a11.593,11.593,0,0,0,1.935-2.557Z" transform="translate(-303.755 -177.49)" fill="#804e04"/>
      <circle id="Ellipse_487" data-name="Ellipse 487" cx="11.539" cy="11.539" r="11.539" transform="matrix(0.225, -0.974, 0.974, 0.225, 0, 22.485)" fill="#ffbc26"/>
      <path id="Path_27" data-name="Path 27" d="M261.5,154.859a11.587,11.587,0,0,0,3.133,2.586l15.289-16.411a11.6,11.6,0,0,0-3.4-3.356Z" transform="translate(-256.446 -133.548)" fill="#ffc673"/>
      <path id="Path_28" data-name="Path 28" d="M252.191,141.582l5.033,1.02,3.09-4.017-1.4-4.657A11.564,11.564,0,0,0,252.191,141.582Z" transform="translate(-249.49 -130.744)" fill="#fafff3"/>
      <path id="Path_29" data-name="Path 29" d="M282.141,147.708l-16.869,15.645a11.536,11.536,0,0,0,16.869-15.645Z" transform="translate(-259.269 -141.047)" fill="#f90"/>
      <circle id="Ellipse_488" data-name="Ellipse 488" cx="8.334" cy="8.334" r="8.334" transform="translate(3.837 20.072) rotate(-76.906)" fill="#bd7100"/>
      <path id="Path_30" data-name="Path 30" d="M279.033,150.34a8.388,8.388,0,0,0-8.52,8.52,8.293,8.293,0,0,0,1.582,4.7.212.212,0,0,0,.046.046,8.292,8.292,0,0,0,4.7,1.582,8.388,8.388,0,0,0,8.52-8.52,8.291,8.291,0,0,0-1.582-4.7.209.209,0,0,0-.046-.046A8.291,8.291,0,0,0,279.033,150.34Z" transform="translate(-263.186 -143.013)" fill="#ff9a14"/>
      <path id="Path_31" data-name="Path 31" d="M288.906,161.373c0-.045-.006-.089-.008-.134,0-.068-.007-.136-.012-.2s-.011-.111-.017-.167-.01-.111-.017-.166-.018-.13-.028-.195c-.007-.045-.012-.09-.019-.135-.011-.068-.024-.135-.037-.2-.008-.041-.014-.082-.023-.123-.014-.071-.031-.141-.047-.211-.008-.036-.016-.073-.025-.11-.018-.075-.039-.149-.059-.223-.008-.031-.016-.061-.024-.092-.022-.079-.047-.156-.072-.233-.008-.025-.015-.051-.024-.077-.027-.08-.055-.158-.083-.237l-.024-.068c-.03-.08-.062-.159-.094-.238-.008-.02-.016-.041-.024-.061-.034-.081-.07-.161-.106-.24l-.024-.053c-.037-.08-.076-.159-.116-.238l-.025-.05c-.041-.079-.083-.158-.126-.236l-.025-.046c-.044-.077-.089-.154-.135-.23l-.027-.045c-.046-.076-.095-.15-.144-.225l-.028-.043c-.048-.072-.1-.144-.149-.215l-.029-.041c-2.864,2.531-8.9,8.073-12.074,11,.126.209.26.412.4.609.1.07.194.139.293.2l.044.028c.082.054.164.107.248.158l.086.051c.071.042.142.084.215.123l.1.056q.1.055.207.107l.11.055c.07.034.14.066.211.1l.11.049c.077.033.155.065.233.1l.092.037q.329.126.671.223l.106.029c.078.021.157.042.237.061l.132.03c.072.016.144.032.217.046l.142.026c.072.013.144.024.216.035l.144.02c.074.01.148.018.223.026l.14.014c.082.007.164.012.246.017l.119.007q.184.008.369.009a8.334,8.334,0,0,0,8.334-8.334Q288.913,161.542,288.906,161.373Z" transform="translate(-266.737 -147.871)" fill="#d48014"/>
      <path id="Path_32" data-name="Path 32" d="M287.809,149.522l-6.593,5.047,2.189,3.507-2.7,4.631,7.211-4.223-2.163-4.532Z" transform="translate(-270.804 -142.403)" fill="#ffbc26"/>
      <path id="Path_33" data-name="Path 33" d="M288.427,150.449l-.618-.927-2.06,4.429,2.163,4.532-7.211,4.223,1.262.31,6.978-4.121-1.957-5.15Z" transform="translate(-270.804 -142.403)" fill="#a66300"/>
      <path id="Path_34" data-name="Path 34" d="M287.809,149.522l-5.613,5.331,2.115,3.122-3.61,4.732,2.7-4.631-2.189-3.507Z" transform="translate(-270.804 -142.403)" fill="#fafff3"/>
      <path id="Path_35" data-name="Path 35" d="M294.067,169.618l-2.649,6.529,4.506-2.639Z" transform="translate(-278.816 -157.426)" fill="#ffc673"/>
    </g>
  </g>
</svg>
