<svg xmlns="http://www.w3.org/2000/svg" xmlns:xlink="http://www.w3.org/1999/xlink" width="31.611" height="33" viewBox="0 0 31.611 33">
  <defs>
    <radialGradient id="radial-gradient" cx="0.5" cy="0.5" r="0.5" gradientUnits="objectBoundingBox">
      <stop offset="0.579" stop-color="#002842"/>
      <stop offset="1" stop-color="#003f66"/>
    </radialGradient>
    <radialGradient id="radial-gradient-2" cx="0.5" cy="0.5" r="0.505" gradientTransform="translate(0.01) scale(0.981 1)" xlink:href="#radial-gradient"/>
  </defs>
  <g id="Group_118" data-name="Group 118" transform="translate(-948.678 -293.44)">
    <path id="Path_344" data-name="Path 344" d="M965.272,319.549l-5.449,3.025a6.044,6.044,0,0,1-3.184,1.053,5.541,5.541,0,0,1-2.27-.822,3.383,3.383,0,0,1-1.856-1.893c-.475-1.817,1.764-3.485,1.347-5.318-.32-1.406-1.918-1.874-3.05-2.671a5.253,5.253,0,0,1,0-8.45c1.058-.745,2.38-1.027,3.348-1.9,1.1-.993,1.547-2.556,2.166-3.945s1.672-2.8,3.112-2.86c1.558-.062,2.753,1.5,3.31,3.056a4.437,4.437,0,0,0,1.03,1.988c.967.82,2.373.286,3.514-.22a8.444,8.444,0,0,1,4.459-.976,3.663,3.663,0,0,1,3.21,3.009c.224,2.055-1.619,4.224-.638,6.008a3.372,3.372,0,0,0,1.155,1.129c1.669,1.1,3.779,1.884,4.534,3.819a5.032,5.032,0,0,1,.212,2.531,7.114,7.114,0,0,1-5.861,6.007c-1.181.143-2.381-.051-3.561.1a3.364,3.364,0,0,0-2.857,1.949,13.4,13.4,0,0,1-.453,1.594,3.289,3.289,0,0,1-1.44,1.24,6.074,6.074,0,0,1-2.038.838,2.065,2.065,0,0,1-1.984-.723,3.622,3.622,0,0,1-.261-2.691l.62-3.805.067-.892Z" transform="translate(0 -1.428)" fill="#458a08"/>
    <path id="Path_345" data-name="Path 345" d="M965.272,318.6l-5.449,3.025a6.048,6.048,0,0,1-3.184,1.054,5.547,5.547,0,0,1-2.27-.822,3.384,3.384,0,0,1-1.856-1.892c-.475-1.817,1.764-3.485,1.347-5.318-.32-1.406-1.918-1.874-3.05-2.67a5.253,5.253,0,0,1,0-8.451c1.058-.744,2.38-1.026,3.348-1.9,1.1-.993,1.547-2.556,2.166-3.944s1.672-2.8,3.112-2.86c1.558-.062,2.753,1.5,3.31,3.056a4.435,4.435,0,0,0,1.03,1.988c.967.82,2.373.287,3.514-.22a8.44,8.44,0,0,1,4.459-.975,3.663,3.663,0,0,1,3.21,3.009c.224,2.055-1.619,4.224-.638,6.008a3.371,3.371,0,0,0,1.155,1.128c1.669,1.105,3.779,1.884,4.534,3.819a5.032,5.032,0,0,1,.212,2.531,7.115,7.115,0,0,1-5.861,6.008c-1.181.143-2.381-.051-3.561.1a3.363,3.363,0,0,0-2.857,1.949,13.406,13.406,0,0,1-.453,1.595,3.291,3.291,0,0,1-1.44,1.239,6.082,6.082,0,0,1-2.038.838,2.066,2.066,0,0,1-1.984-.723,3.623,3.623,0,0,1-.261-2.692l.62-3.805.067-.892Z" transform="translate(0 -0.846)" fill="#9eff4a"/>
    <path id="Path_346" data-name="Path 346" d="M965.272,318.006l-5.449,3.025a6.044,6.044,0,0,1-3.184,1.053,5.541,5.541,0,0,1-2.27-.822,3.383,3.383,0,0,1-1.856-1.893c-.475-1.817,1.764-3.485,1.347-5.318-.32-1.406-1.918-1.874-3.05-2.67a5.253,5.253,0,0,1,0-8.45c1.058-.745,2.38-1.027,3.348-1.9,1.1-.993,1.547-2.556,2.166-3.945s1.672-2.8,3.112-2.86c1.558-.063,2.753,1.5,3.31,3.056a4.437,4.437,0,0,0,1.03,1.988c.967.82,2.373.286,3.514-.22a8.441,8.441,0,0,1,4.459-.976,3.663,3.663,0,0,1,3.21,3.009c.224,2.055-1.619,4.224-.638,6.008a3.372,3.372,0,0,0,1.155,1.129c1.669,1.1,3.779,1.884,4.534,3.819a5.032,5.032,0,0,1,.212,2.531,7.114,7.114,0,0,1-5.861,6.007c-1.181.143-2.381-.051-3.561.1a3.364,3.364,0,0,0-2.857,1.949,13.4,13.4,0,0,1-.453,1.594,3.289,3.289,0,0,1-1.44,1.24,6.074,6.074,0,0,1-2.038.838,2.065,2.065,0,0,1-1.984-.723,3.622,3.622,0,0,1-.261-2.691l.62-3.805.067-.892Z" transform="translate(0 -0.482)" fill="#5dba0b"/>
    <path id="Path_347" data-name="Path 347" d="M985.217,309.851a1.453,1.453,0,1,1-1.453-1.478A1.465,1.465,0,0,1,985.217,309.851Z" transform="translate(-20.624 -9.157)" fill="#418207"/>
    <path id="Path_348" data-name="Path 348" d="M1006.752,308.826a2.179,2.179,0,1,1-2.179-2.123A2.152,2.152,0,0,1,1006.752,308.826Z" transform="translate(-32.94 -8.133)" fill="#418207"/>
    <path id="Path_349" data-name="Path 349" d="M959.232,318.666a1.2,1.2,0,1,1-1.2-1.17A1.185,1.185,0,0,1,959.232,318.666Z" transform="translate(-5 -14.751)" fill="#418207"/>
    <path id="Path_350" data-name="Path 350" d="M965.2,351.341a1.2,1.2,0,1,1-1.2-1.17A1.185,1.185,0,0,1,965.2,351.341Z" transform="translate(-8.662 -34.788)" fill="#418207"/>
    <path id="Path_351" data-name="Path 351" d="M961.762,331.464a1.2,1.2,0,1,1-1.2-1.17A1.185,1.185,0,0,1,961.762,331.464Z" transform="translate(-6.551 -22.599)" fill="#418207"/>
    <path id="Path_352" data-name="Path 352" d="M1020.9,342.243a1.727,1.727,0,1,1-1.672-1.3A1.521,1.521,0,0,1,1020.9,342.243Z" transform="translate(-42.239 -29.131)" fill="#418207"/>
    <ellipse id="Ellipse_521" data-name="Ellipse 521" cx="1.672" cy="1.297" rx="1.672" ry="1.297" transform="translate(972.599 316.758)" fill="#418207"/>
    <path id="Path_353" data-name="Path 353" d="M990.078,368.235c0,.513-.651.929-1.453.929s-1.453-.416-1.453-.929.651-.929,1.453-.929S990.078,367.722,990.078,368.235Z" transform="translate(-23.605 -45.295)" fill="#418207"/>
    <path id="Path_354" data-name="Path 354" d="M978.869,301.932a1.453,1.453,0,1,1-1.453-1.478A1.466,1.466,0,0,1,978.869,301.932Z" transform="translate(-16.731 -4.301)" fill="#418207"/>
    <path id="Path_355" data-name="Path 355" d="M984.265,309.851a1.406,1.406,0,1,1-1.4-1.478A1.442,1.442,0,0,1,984.265,309.851Z" transform="translate(-20.1 -9.157)" fill="#71e30d"/>
    <g id="Group_117" data-name="Group 117" transform="translate(954.919 298.57)">
      <circle id="Ellipse_522" data-name="Ellipse 522" cx="8.941" cy="8.941" r="8.941" transform="translate(0.718 3.166)" fill="url(#radial-gradient)"/>
      <path id="Path_356" data-name="Path 356" d="M1003.007,328.811a.838.838,0,1,1-.832-.936A.888.888,0,0,1,1003.007,328.811Z" transform="translate(-987.214 -319.686)" fill="#fff"/>
      <path id="Path_357" data-name="Path 357" d="M975.611,344.517a8.944,8.944,0,0,0,8.752-7.106,11.566,11.566,0,0,1-13.322,1.464,9.312,9.312,0,0,1-3.756-3.684,7.228,7.228,0,0,1-.485-1.145,9.034,9.034,0,0,0-.131,1.531A8.941,8.941,0,0,0,975.611,344.517Z" transform="translate(-965.952 -323.47)" fill="#001929"/>
      <rect id="Rectangle_7585" data-name="Rectangle 7585" width="6.257" height="2.675" rx="1.337" transform="translate(0 6.581) rotate(-44.466)" fill="#001929"/>
      <path id="Path_358" data-name="Path 358" d="M969.7,312.978c.267.273-.5,1.452-1.7,2.634s-2.4,1.919-2.67,1.646.5-1.452,1.7-2.634S969.433,312.705,969.7,312.978Z" transform="translate(-965.096 -310.516)" fill="url(#radial-gradient-2)"/>
      <path id="Path_359" data-name="Path 359" d="M970.423,316.176c.2.2-.052.765-.556,1.259s-1.074.731-1.271.53.052-.765.557-1.259S970.226,315.975,970.423,316.176Z" transform="translate(-967.091 -312.468)" fill="#001929"/>
      <path id="Path_360" data-name="Path 360" d="M967.783,312a2,2,0,0,1-.906-.733,3.66,3.66,0,0,1-.424-3.528,1.735,1.735,0,0,1,.3-.5,2.346,2.346,0,0,1,1.722-.532,2.2,2.2,0,0,0-.415,1.615,4.332,4.332,0,0,0,.566,1.6,1.425,1.425,0,0,1,.27.84,1.032,1.032,0,0,1-.185.429,2.446,2.446,0,0,1-.833.767Z" transform="translate(-965.652 -306.703)" fill="#c9b17b"/>
      <path id="Path_361" data-name="Path 361" d="M967.428,307.041a1.429,1.429,0,0,0-.676.4,1.742,1.742,0,0,0-.3.5,3.66,3.66,0,0,0,.424,3.528,2,2,0,0,0,.906.733l.092-.04a2.45,2.45,0,0,0,.405-.285A6.225,6.225,0,0,1,967.428,307.041Z" transform="translate(-965.652 -306.91)" fill="#b09964"/>
    </g>
    <path id="Path_362" data-name="Path 362" d="M987.276,331.392a4.288,4.288,0,0,0-8.572,0,4.117,4.117,0,0,0,1.386,3.075,1.731,1.731,0,0,0,.429,1.316,1.233,1.233,0,0,0,1.458.26.92.92,0,0,0,1.607-.031,1.391,1.391,0,0,0,1.665-.236,2.211,2.211,0,0,0,.611-1.283A4.118,4.118,0,0,0,987.276,331.392Zm-3.74-.288a1.636,1.636,0,0,1,1.82-1.495,1.044,1.044,0,0,1,.517.189,1.115,1.115,0,0,1,.251,1.25,1.784,1.784,0,0,1-1.885,1.164.91.91,0,0,1-.314-.1.866.866,0,0,1-.372-.565c-.007-.074-.015-.148-.02-.222S983.535,331.176,983.536,331.1Zm-3.39-1.306a1.046,1.046,0,0,1,.517-.189,1.637,1.637,0,0,1,1.826,1.64v-.006c-.013.1-.018.2-.022.3a.87.87,0,0,1-.374.569.9.9,0,0,1-.314.1,1.784,1.784,0,0,1-1.885-1.164A1.116,1.116,0,0,1,980.146,329.8Z" transform="translate(-18.412 -20.712)" fill="#b3cf86"/>
    <path id="Path_363" data-name="Path 363" d="M990.594,320.269a2.564,2.564,0,1,1-2.554-2.339A2.454,2.454,0,0,1,990.594,320.269Z" transform="translate(-22.57 -15.018)" fill="#fff"/>
    <path id="Path_364" data-name="Path 364" d="M1005.078,308.826a2.106,2.106,0,1,1-2.105-2.123A2.115,2.115,0,0,1,1005.078,308.826Z" transform="translate(-32.003 -8.133)" fill="#71e30d"/>
    <path id="Path_365" data-name="Path 365" d="M959.152,318.666a1.16,1.16,0,1,1-1.16-1.17A1.165,1.165,0,0,1,959.152,318.666Z" transform="translate(-5 -14.751)" fill="#71e30d"/>
    <path id="Path_366" data-name="Path 366" d="M964.923,351.341a1.16,1.16,0,1,1-1.16-1.17A1.165,1.165,0,0,1,964.923,351.341Z" transform="translate(-8.539 -34.788)" fill="#71e30d"/>
    <path id="Path_367" data-name="Path 367" d="M961.6,331.464a1.16,1.16,0,1,1-1.16-1.17A1.165,1.165,0,0,1,961.6,331.464Z" transform="translate(-6.499 -22.599)" fill="#71e30d"/>
    <path id="Path_368" data-name="Path 368" d="M1018.755,342.243a1.655,1.655,0,1,1-1.616-1.3A1.483,1.483,0,0,1,1018.755,342.243Z" transform="translate(-40.99 -29.131)" fill="#71e30d"/>
    <ellipse id="Ellipse_523" data-name="Ellipse 523" cx="1.616" cy="1.297" rx="1.616" ry="1.297" transform="translate(971.903 316.758)" fill="#71e30d"/>
    <path id="Path_369" data-name="Path 369" d="M988.964,368.235c0,.513-.629.929-1.4.929s-1.4-.416-1.4-.929.629-.929,1.4-.929S988.964,367.722,988.964,368.235Z" transform="translate(-22.981 -45.295)" fill="#71e30d"/>
    <path id="Path_370" data-name="Path 370" d="M978.129,301.932a1.406,1.406,0,1,1-1.4-1.478A1.442,1.442,0,0,1,978.129,301.932Z" transform="translate(-16.338 -4.301)" fill="#71e30d"/>
    <path id="Path_371" data-name="Path 371" d="M1004.918,308.731a.717.717,0,1,1-.712-.635A.677.677,0,0,1,1004.918,308.731Z" transform="translate(-33.613 -8.987)" fill="#fff"/>
    <path id="Path_372" data-name="Path 372" d="M1002.806,311.677c0,.165-.1.3-.217.3s-.217-.134-.217-.3.1-.3.217-.3S1002.806,311.512,1002.806,311.677Z" transform="translate(-32.926 -11)" fill="#fff"/>
    <ellipse id="Ellipse_524" data-name="Ellipse 524" cx="0.333" cy="0.317" rx="0.333" ry="0.317" transform="translate(962.095 299.744)" fill="#fff"/>
    <path id="Path_373" data-name="Path 373" d="M982.885,311.677c0,.165-.068.3-.152.3s-.152-.134-.152-.3.068-.3.152-.3S982.885,311.512,982.885,311.677Z" transform="translate(-20.79 -11)" fill="#fff"/>
    <path id="Path_374" data-name="Path 374" d="M978.5,301.377a.612.612,0,1,1-.6-.5A.56.56,0,0,1,978.5,301.377Z" transform="translate(-17.551 -4.558)" fill="#fff"/>
    <path id="Path_375" data-name="Path 375" d="M976.5,303.8a.259.259,0,1,1-.251-.321A.292.292,0,0,1,976.5,303.8Z" transform="translate(-16.754 -6.156)" fill="#fff"/>
    <path id="Path_376" data-name="Path 376" d="M961.231,331.438a.433.433,0,1,1-.432-.451A.442.442,0,0,1,961.231,331.438Z" transform="translate(-7.167 -23.024)" fill="#fff"/>
    <ellipse id="Ellipse_525" data-name="Ellipse 525" cx="0.216" cy="0.221" rx="0.216" ry="0.221" transform="translate(953.199 309.146)" fill="#fff"/>
    <path id="Path_377" data-name="Path 377" d="M959.3,318.406a.512.512,0,1,1-.511-.476A.495.495,0,0,1,959.3,318.406Z" transform="translate(-5.889 -15.018)" fill="#fff"/>
    <path id="Path_378" data-name="Path 378" d="M964.935,351.6a.393.393,0,1,1-.393-.382A.388.388,0,0,1,964.935,351.6Z" transform="translate(-9.487 -35.431)" fill="#fff"/>
    <path id="Path_379" data-name="Path 379" d="M964.214,354.043a.3.3,0,1,1-.3-.318A.309.309,0,0,1,964.214,354.043Z" transform="translate(-9.16 -36.967)" fill="#fff"/>
    <ellipse id="Ellipse_526" data-name="Ellipse 526" cx="0.572" cy="0.407" rx="0.572" ry="0.407" transform="translate(964.325 322.125)" fill="#fff"/>
    <ellipse id="Ellipse_527" data-name="Ellipse 527" cx="0.227" cy="0.203" rx="0.227" ry="0.203" transform="translate(963.5 322.532)" fill="#fff"/>
    <path id="Path_380" data-name="Path 380" d="M1012.874,355.036a.565.565,0,1,1-.56-.49A.528.528,0,0,1,1012.874,355.036Z" transform="translate(-38.679 -37.471)" fill="#fff"/>
    <path id="Path_381" data-name="Path 381" d="M1009.506,356.43a.311.311,0,1,1-.309-.283A.3.3,0,0,1,1009.506,356.43Z" transform="translate(-36.921 -38.453)" fill="#fff"/>
    <path id="Path_382" data-name="Path 382" d="M1020.192,341.7a.475.475,0,1,1-.475-.486A.481.481,0,0,1,1020.192,341.7Z" transform="translate(-43.271 -29.297)" fill="#fff"/>
    <path id="Path_383" data-name="Path 383" d="M1016.879,342.827a.341.341,0,1,1-.341-.354A.347.347,0,0,1,1016.879,342.827Z" transform="translate(-41.403 -30.068)" fill="#fff"/>
    <path id="Path_384" data-name="Path 384" d="M968.117,299.072a1.906,1.906,0,0,1-1.063.192,1.18,1.18,0,0,1-.881-.58,1.477,1.477,0,0,1-.139-.713c.017-1.229.776-2.4.61-3.614q.345.9.715,1.8a2.2,2.2,0,0,1,.718-1.452,6.031,6.031,0,0,0,1.069-1.263,3.836,3.836,0,0,0-.488,1.576,9.779,9.779,0,0,0,.263,1.952,2.4,2.4,0,0,1-.347,1.885Z" transform="translate(-10.642)" fill="#71e30d"/>
    <path id="Path_385" data-name="Path 385" d="M967.8,302.539a.986.986,0,0,1-.393-.761,2.915,2.915,0,0,1,.117-.876l.247-1.036.518,1.42a1.941,1.941,0,0,1,.287-1.278,4.056,4.056,0,0,0,.523-1.224,7.114,7.114,0,0,0-.1,2.245,2.669,2.669,0,0,1,0,1.085.736.736,0,0,1-.816.555Z" transform="translate(-11.479 -3.276)" fill="#a2ff4f"/>
    <path id="Path_386" data-name="Path 386" d="M971.585,298.767c0,.224-.116.4-.26.4s-.26-.181-.26-.4.116-.4.26-.4S971.585,298.543,971.585,298.767Z" transform="translate(-13.728 -3.018)" fill="#fff"/>
    <path id="Path_387" data-name="Path 387" d="M971.791,303.042c0,.164-.087.3-.195.3s-.195-.132-.195-.3.087-.3.195-.3S971.791,302.878,971.791,303.042Z" transform="translate(-13.934 -5.707)" fill="#fff"/>
  </g>
</svg>
