<svg xmlns="http://www.w3.org/2000/svg" width="43.157" height="21.708" viewBox="0 0 43.157 21.708">
  <g id="Group_139" data-name="Group 139" transform="translate(-641.453 -103.808)">
    <path id="Path_475" data-name="Path 475" d="M709.8,110.664c3.447-4.595,9.3-7.691,14.947-6.656-.254,2.237-2.478,3.633-4.463,4.7a7.337,7.337,0,0,1,3.05.276c.788.245,1.668.882,1.479,1.685a1.659,1.659,0,0,1-.93.969,6.681,6.681,0,0,1-4.189.687,5.249,5.249,0,0,1,1.548,1.086A1.585,1.585,0,0,1,720,116.158a5.246,5.246,0,0,1-1.978-.5c1,.627.762,2.307-.2,2.992a4.077,4.077,0,0,1-3.414.294,6.035,6.035,0,0,1-3.212-1.919,3.339,3.339,0,0,1-.469-3.561l-1.072-3.851C709.652,109.566,709.8,110.714,709.8,110.664Z" transform="translate(-40.229)" fill="#009de0"/>
    <path id="Path_476" data-name="Path 476" d="M656.492,110.664c-3.447-4.595-9.3-7.691-14.947-6.656.254,2.237,2.477,3.633,4.462,4.7a7.335,7.335,0,0,0-3.049.276c-.788.245-1.668.882-1.478,1.685a1.657,1.657,0,0,0,.93.969,6.681,6.681,0,0,0,4.189.687,5.252,5.252,0,0,0-1.547,1.086,1.584,1.584,0,0,0,1.246,2.753,5.248,5.248,0,0,0,1.978-.5c-1,.627-.762,2.307.2,2.992a4.076,4.076,0,0,0,3.413.294,6.035,6.035,0,0,0,3.212-1.919,3.338,3.338,0,0,0,.468-3.561l1.073-3.851C656.64,109.566,656.492,110.714,656.492,110.664Z" fill="#009de0"/>
    <g id="Group_137" data-name="Group 137" transform="translate(650.96 105.371)">
      <path id="Path_477" data-name="Path 477" d="M675.808,127.528l-8.184-7.9c-.1-.092-2.99-2.728-2.99-5.875,0-3.843,2.348-6.138,6.269-6.138,2.3,0,4.446,1.81,5.482,2.833,1.036-1.023,3.187-2.833,5.482-2.833,3.922,0,6.269,2.3,6.269,6.138,0,3.147-2.885,5.783-3,5.9l-8.17,7.869a.823.823,0,0,1-1.154,0Z" transform="translate(-664.634 -107.619)" fill="#d91e1e"/>
    </g>
    <path id="Path_478" data-name="Path 478" d="M684.452,121.394a20.513,20.513,0,0,1-6.474,4.328,9.3,9.3,0,0,1-4.036,1,7.3,7.3,0,0,1-4.053-1.587,20.44,20.44,0,0,1-3.118-3.123,12.315,12.315,0,0,1-2.129-3.111c.111,3.064,2.884,5.6,2.986,5.688l8.184,7.9a.823.823,0,0,0,1.154,0l8.17-7.869c.118-.118,3-2.754,3-5.9a7.291,7.291,0,0,0-.47-2.69A13.177,13.177,0,0,1,684.452,121.394Z" transform="translate(-13.679 -7.208)" fill="#c91414"/>
    <path id="Path_479" data-name="Path 479" d="M641.545,104.008c.254,2.237,2.477,3.633,4.462,4.7a7.334,7.334,0,0,0-3.049.276c-.788.245-1.668.882-1.478,1.685a1.657,1.657,0,0,0,.93.969,6.681,6.681,0,0,0,4.189.687,5.252,5.252,0,0,0-1.547,1.086,1.584,1.584,0,0,0,1.246,2.753,5.248,5.248,0,0,0,1.978-.5c-1,.627-.762,2.307.2,2.992a4.076,4.076,0,0,0,3.413.294q.108-.03.216-.062a4.527,4.527,0,0,1-1.564-.054,2.206,2.206,0,0,1-1.775-1.788,2.791,2.791,0,0,1,.949-2.026,3.811,3.811,0,0,1-1.558.5,1.3,1.3,0,0,1-1.3-.81c-.3-1.018,1.074-1.713,1.439-2.71a3.56,3.56,0,0,1-3.443-1.284,4.583,4.583,0,0,1,2.421-.68,6.048,6.048,0,0,1-2.039-4.257,1.736,1.736,0,0,1,.126-.84c.431-.876,1.718-.687,2.64-.363l-.02-.088A13.2,13.2,0,0,0,641.545,104.008Z" transform="translate(0 0)" fill="#57c9fa"/>
    <path id="Path_480" data-name="Path 480" d="M733.353,108.98a7.337,7.337,0,0,0-3.05-.276c1.985-1.062,4.209-2.458,4.463-4.7a12.347,12.347,0,0,0-2.535-.2,7.911,7.911,0,0,1-3.023,5.1,1.43,1.43,0,1,1-.224,2.772,3.643,3.643,0,0,1,.826,2.611c-.2.917-1.514,1.54-2.1.809a4.566,4.566,0,0,1-1.072,4.026,2.82,2.82,0,0,0,1.2-.475c.962-.685,1.2-2.366.2-2.992a5.247,5.247,0,0,0,1.978.5,1.585,1.585,0,0,0,1.245-2.753,5.248,5.248,0,0,0-1.548-1.086,6.681,6.681,0,0,0,4.189-.687,1.658,1.658,0,0,0,.93-.969C735.021,109.862,734.141,109.225,733.353,108.98Z" transform="translate(-50.248 -0.001)" fill="#57c9fa"/>
    <ellipse id="Ellipse_542" data-name="Ellipse 542" cx="1.493" cy="1.195" rx="1.493" ry="1.195" transform="translate(654.527 106.595)" fill="#fff"/>
    <path id="Path_481" data-name="Path 481" d="M670.251,117.989a.564.564,0,1,1-.563-.575A.569.569,0,0,1,670.251,117.989Z" transform="translate(-16.322 -8.026)" fill="#fff"/>
    <path id="Path_482" data-name="Path 482" d="M660.737,136.949l-3.492,1.73,2.546,1.349-1.076,2.387L663,140.782l-1.051-3.833Z" transform="translate(-9.315 -19.549)" fill="#f29b0f"/>
    <path id="Path_483" data-name="Path 483" d="M717.135,136.949l3.492,1.73-2.546,1.349,1.076,2.387-4.286-1.633,1.051-3.833Z" transform="translate(-43.308 -19.549)" fill="#f29b0f"/>
    <g id="Group_138" data-name="Group 138" transform="translate(650.858 113.944)">
      <path id="Path_484" data-name="Path 484" d="M686.65,135.434a27.5,27.5,0,0,0-20.591,0l-1.675-4.58a31.9,31.9,0,0,1,23.94,0Z" transform="translate(-664.384 -128.523)" fill="#f2c50f"/>
    </g>
  </g>
</svg>
