<svg xmlns="http://www.w3.org/2000/svg" width="30.289" height="30.207" viewBox="0 0 30.289 30.207">
  <g id="Group_98" data-name="Group 98" transform="translate(-693.058 -59.473)">
    <g id="Group_58" data-name="Group 58" transform="translate(707.371 83.591)">
      <path id="Path_104" data-name="Path 104" d="M794.245,202.7c-.092.1.973,2.967.913,3.652s1.021.269,1.021.269.359-3.665-.06-4.229S795.142,201.7,794.245,202.7Z" transform="translate(-791.427 -201.958)" fill="#094ee6"/>
      <path id="Path_105" data-name="Path 105" d="M777.654,226.9c.2-.641.685-.423.685-.423s.314-.138.666-.267h-.02c-.084-.006-.131-.124-.046-.169a1.208,1.208,0,0,1,.857-.048c.164-.02.371-.036.6-.049a1.854,1.854,0,0,0-.226-.04.1.1,0,0,1,0-.2,1.477,1.477,0,0,1,.711.09,2.254,2.254,0,0,1,.258.124c.63-.018,1.2-.018,1.2-.018a1.238,1.238,0,0,1-.13,1.548,22.139,22.139,0,0,1-4,.32S777.458,227.542,777.654,226.9Z" transform="translate(-777.621 -221.675)" fill="#094ee6"/>
      <path id="Path_106" data-name="Path 106" d="M778.761,231.572a.974.974,0,0,1,.231.029,1.022,1.022,0,0,1,.1.035c.045.018.057.041.09.072a.107.107,0,0,1-.047.177l-.011,0a.407.407,0,0,1-.164.027c-.067,0-.135.007-.2.015a.179.179,0,0,1,0-.358Z" transform="translate(-778.419 -226.559)" fill="#fff"/>
      <path id="Path_107" data-name="Path 107" d="M797.222,211.357a.093.093,0,0,0-.169.071c.154.59.391,1.156.534,1.749a.059.059,0,0,0,.115-.016A3.743,3.743,0,0,0,797.222,211.357Z" transform="translate(-793.761 -209.73)" fill="#099aff"/>
      <path id="Path_108" data-name="Path 108" d="M784.812,228.745a1.774,1.774,0,0,0-1.243.366.052.052,0,0,0,.037.088,4.375,4.375,0,0,0,.571-.1,3.477,3.477,0,0,0,.635-.127C784.907,228.936,784.943,228.767,784.812,228.745Z" transform="translate(-782.55 -224.199)" fill="#099aff"/>
      <path id="Path_109" data-name="Path 109" d="M793.512,227.486a.553.553,0,0,0-.49.165.085.085,0,0,0,.06.144.8.8,0,0,0,.248-.046.589.589,0,0,0,.224-.108A.093.093,0,0,0,793.512,227.486Z" transform="translate(-790.396 -223.156)" fill="#099aff"/>
    </g>
    <g id="Group_59" data-name="Group 59" transform="translate(701.36 83.591)">
      <path id="Path_110" data-name="Path 110" d="M758.731,202.7c-.092.1.973,2.967.913,3.652s1.021.269,1.021.269.359-3.665-.06-4.229S759.628,201.7,758.731,202.7Z" transform="translate(-755.912 -201.958)" fill="#094ee6"/>
      <path id="Path_111" data-name="Path 111" d="M742.139,226.9c.2-.641.685-.423.685-.423s.314-.138.666-.267h-.02c-.084-.006-.13-.124-.046-.169a1.207,1.207,0,0,1,.857-.048c.164-.02.371-.036.6-.049a1.855,1.855,0,0,0-.226-.04.1.1,0,0,1,0-.2,1.477,1.477,0,0,1,.71.09,2.241,2.241,0,0,1,.258.124c.631-.018,1.2-.018,1.2-.018a1.238,1.238,0,0,1-.13,1.548,22.14,22.14,0,0,1-4,.32S741.944,227.542,742.139,226.9Z" transform="translate(-742.106 -221.675)" fill="#094ee6"/>
      <path id="Path_112" data-name="Path 112" d="M743.247,231.572a.974.974,0,0,1,.231.029,1.026,1.026,0,0,1,.1.035c.045.018.057.041.09.072a.107.107,0,0,1-.047.177l-.011,0a.405.405,0,0,1-.163.027c-.068,0-.135.007-.2.015a.179.179,0,0,1,0-.358Z" transform="translate(-742.905 -226.559)" fill="#fff"/>
      <path id="Path_113" data-name="Path 113" d="M761.708,211.357a.093.093,0,0,0-.169.071c.154.59.391,1.156.534,1.749a.059.059,0,0,0,.115-.016A3.741,3.741,0,0,0,761.708,211.357Z" transform="translate(-758.247 -209.73)" fill="#099aff"/>
      <path id="Path_114" data-name="Path 114" d="M749.3,228.745a1.774,1.774,0,0,0-1.243.366.052.052,0,0,0,.036.088,4.377,4.377,0,0,0,.571-.1,3.477,3.477,0,0,0,.635-.127C749.393,228.936,749.429,228.767,749.3,228.745Z" transform="translate(-747.035 -224.199)" fill="#099aff"/>
      <path id="Path_115" data-name="Path 115" d="M758,227.486a.553.553,0,0,0-.49.165.085.085,0,0,0,.06.144.794.794,0,0,0,.247-.046.588.588,0,0,0,.224-.108A.093.093,0,0,0,758,227.486Z" transform="translate(-754.882 -223.156)" fill="#099aff"/>
    </g>
    <g id="Group_61" data-name="Group 61" transform="translate(714.352 70.163)">
      <path id="Path_116" data-name="Path 116" d="M824.94,130.573a.691.691,0,0,1-.649-.453,11.844,11.844,0,0,0-5.055-6.187.691.691,0,1,1,.627-1.231,13.1,13.1,0,0,1,5.724,6.941.692.692,0,0,1-.648.93Z" transform="translate(-818.86 -122.627)" fill="#0968ff"/>
      <g id="Group_60" data-name="Group 60" transform="translate(3.537 6.872)">
        <path id="Path_117" data-name="Path 117" d="M842.3,163.235c-.544.076-.53.344-.842.526-.784.457-1.93,1-1.659,1.626.492,1.127,1.887-.447,1.887-.447s-.454,2.793.312,2.761.58-2.749.58-2.749.912,2.747,1.562,2.513c1.051-.378-.733-2.872-.733-2.872s1.686.52,1.8.075c.189-.751-1.8-.869-1.8-.869S842.841,163.159,842.3,163.235Z" transform="translate(-839.755 -163.229)" fill="#0968ff"/>
        <path id="Path_118" data-name="Path 118" d="M841.692,171.251a.625.625,0,0,0-.592.632.056.056,0,0,0,.11.015.946.946,0,0,1,.5-.575A.039.039,0,0,0,841.692,171.251Z" transform="translate(-840.873 -169.893)" fill="#099aff"/>
        <path id="Path_119" data-name="Path 119" d="M851.4,183.159c0-.118.005-.235-.01-.352a.045.045,0,0,0-.082-.022.785.785,0,0,0-.014.709c.024.04.1.039.109-.014A1.741,1.741,0,0,0,851.4,183.159Z" transform="translate(-849.277 -179.457)" fill="#099aff"/>
        <path id="Path_120" data-name="Path 120" d="M862.221,183.3a1.178,1.178,0,0,0-.137-.253,1.511,1.511,0,0,0-.131-.251c-.033-.043-.1,0-.1.041a.612.612,0,0,0,.091.291.565.565,0,0,0,.18.246A.067.067,0,0,0,862.221,183.3Z" transform="translate(-858.113 -179.469)" fill="#099aff"/>
        <path id="Path_121" data-name="Path 121" d="M868.36,168.579a.081.081,0,0,0-.043.157.479.479,0,0,1,.164.109.426.426,0,0,0,.157.12.058.058,0,0,0,.072-.041C868.741,168.739,868.509,168.618,868.36,168.579Z" transform="translate(-863.435 -167.671)" fill="#099aff"/>
      </g>
    </g>
    <g id="Group_63" data-name="Group 63" transform="translate(693.058 63.837)">
      <path id="Path_122" data-name="Path 122" d="M710.372,111.1a4.321,4.321,0,0,1-2.72-.956,5.855,5.855,0,0,1-1.864-4.329.691.691,0,0,1,1.379-.093,4.563,4.563,0,0,0,1.363,3.355,2.935,2.935,0,0,0,2.006.635.691.691,0,0,1,.174,1.371A2.9,2.9,0,0,1,710.372,111.1Z" transform="translate(-703.632 -101.72)" fill="#0968ff"/>
      <g id="Group_62" data-name="Group 62" transform="translate(0 0)">
        <path id="Path_123" data-name="Path 123" d="M695.821,89.665c.549-.018.564-.287.893-.435.828-.372,2.024-.8,1.82-1.443-.371-1.172-1.923.247-1.923.247s.744-2.73-.021-2.779-.864,2.674-.864,2.674-.62-2.828-1.29-2.663c-1.085.266.429,2.933.429,2.933s-1.622-.693-1.78-.262c-.267.727,1.7,1.052,1.7,1.052S695.272,89.684,695.821,89.665Z" transform="translate(-693.058 -85.255)" fill="#0968ff"/>
        <path id="Path_124" data-name="Path 124" d="M716.612,98.173c-.45-.074-1.277.221-1.4.717a.056.056,0,0,0,.093.054,2.316,2.316,0,0,1,.645-.422c.221-.093.455-.141.675-.238A.061.061,0,0,0,716.612,98.173Z" transform="translate(-711.462 -95.977)" fill="#099aff"/>
        <path id="Path_125" data-name="Path 125" d="M711,87.1a1.564,1.564,0,0,0-.383.874c-.017.107.142.156.166.046a6.273,6.273,0,0,1,.319-.86C711.122,87.1,711.039,87.064,711,87.1Z" transform="translate(-707.643 -86.778)" fill="#099aff"/>
        <path id="Path_126" data-name="Path 126" d="M699.953,86.278a.058.058,0,0,0-.056-.1.5.5,0,0,0-.338.4c-.027.132.03.3.185.27.039-.006.034-.064,0-.074-.089-.026,0-.231.021-.272A1.39,1.39,0,0,1,699.953,86.278Z" transform="translate(-698.453 -86.024)" fill="#099aff"/>
        <path id="Path_127" data-name="Path 127" d="M694.255,101.547c-.1-.021-.269-.035-.313.085a.161.161,0,0,0,0,.08.189.189,0,0,0,.018.07.115.115,0,0,0,.105.069.047.047,0,0,0,.033-.079c-.013-.012-.01-.021-.013-.031a.162.162,0,0,0,.034-.043c.027-.04.091-.049.14-.06A.048.048,0,0,0,694.255,101.547Z" transform="translate(-693.786 -98.778)" fill="#099aff"/>
      </g>
    </g>
    <g id="Group_66" data-name="Group 66" transform="translate(703.068 59.473)">
      <g id="Group_64" data-name="Group 64" transform="translate(7.132)">
        <path id="Path_128" data-name="Path 128" d="M794.679,67.1a.346.346,0,0,1-.258-.575,10.539,10.539,0,0,0,1.33-2.6.345.345,0,1,1,.651.231,10.986,10.986,0,0,1-1.464,2.832A.345.345,0,0,1,794.679,67.1Z" transform="translate(-794.333 -62.977)" fill="#0968ff"/>
        <circle id="Ellipse_498" data-name="Ellipse 498" cx="0.875" cy="0.875" r="0.875" transform="translate(0.914)" fill="#fd7066"/>
      </g>
      <g id="Group_65" data-name="Group 65" transform="translate(0 0)">
        <path id="Path_129" data-name="Path 129" d="M757.339,67.1a.345.345,0,0,1-.339-.28,5.964,5.964,0,0,0-1.312-2.549.346.346,0,0,1,.508-.469,6.609,6.609,0,0,1,1.483,2.887.346.346,0,0,1-.34.411Z" transform="translate(-755.021 -62.978)" fill="#0968ff"/>
        <circle id="Ellipse_499" data-name="Ellipse 499" cx="0.875" cy="0.875" r="0.875" fill="#fd7066"/>
      </g>
    </g>
    <path id="Path_130" data-name="Path 130" d="M745.2,91.774a4.4,4.4,0,0,0-.137-.708,6.05,6.05,0,0,0-.2-.609c-.012-.607-.042-1.242-.093-1.892l.011.02a.164.164,0,0,0,.295-.038,2.019,2.019,0,0,0-.185-1.227,3.879,3.879,0,0,0-.336-.723,27.655,27.655,0,0,0-.583-2.99.176.176,0,0,0,.126-.031c.214-.145-.06-.408-.156-.527-.073-.09-.137-.191-.2-.29-.141-.473-.3-.937-.467-1.387a.238.238,0,0,0,.2-.28,2.076,2.076,0,0,0-.538-.775c-.072-.085-.148-.166-.224-.246q-.128-.263-.265-.516-.185-.342-.383-.655c.1.08.2.157.3.227.133.09.276-.082.208-.208a2.828,2.828,0,0,0-.85-.9,4.017,4.017,0,0,0-.659-.434,5.705,5.705,0,0,0-4.354-1.9,6.669,6.669,0,0,0-2.582.654,6.458,6.458,0,0,0-.853.226,2.214,2.214,0,0,0-.848.393.185.185,0,0,0,.113.312q-.144.107-.284.221a6.681,6.681,0,0,0-.7.4,1.848,1.848,0,0,0-.728.562.17.17,0,0,0,.145.253.687.687,0,0,0,.1-.007,6.224,6.224,0,0,0-.477.723c-.07.071-.138.14-.206.2-.122.105-.247.208-.374.308a1.108,1.108,0,0,0-.352.334c-.057.114.009.291.16.278a.716.716,0,0,0,.272-.088q-.14.32-.271.652c-.133.134-.267.266-.4.4s-.286.272-.433.4a.975.975,0,0,0-.351.423.169.169,0,0,0,.162.213.876.876,0,0,0,.489-.275q.088-.076.174-.154c-.14.424-.27.858-.387,1.3a1.627,1.627,0,0,0-.458.636.2.2,0,0,0,.24.239h0a29.98,29.98,0,0,0-.655,4.265,2.163,2.163,0,0,0-.29.546c-.085.222-.141.454-.206.683a2.318,2.318,0,0,0-.168.762.13.13,0,0,0,.194.111.931.931,0,0,0,.386-.557c-.012.451-.014.891,0,1.316-.107.3-.217.608-.33.91-.095.253.2.4.393.312.037.459.09.892.157,1.292a2.552,2.552,0,0,0,.29,2.2.121.121,0,0,0,.22-.093c-.045-.212-.093-.424-.131-.638a4.331,4.331,0,0,0,1.071,1.484,2.391,2.391,0,0,0,.1.289c.131.311.4.84.774.9.112.017.234-.068.195-.195a1.012,1.012,0,0,0-.24-.353c3.2,2.058,9.07,2.073,12.08.019a3.253,3.253,0,0,0-.162.359c-.055.148.141.22.239.139a2.977,2.977,0,0,0,.866-1.319,3.827,3.827,0,0,0,.646-1,1.017,1.017,0,0,0,.035.312.169.169,0,0,0,.3.04,1.866,1.866,0,0,0,.134-.8,8.116,8.116,0,0,0,0-.854q-.013-.279-.046-.555c.061-.491.105-1.044.13-1.646a.668.668,0,0,0,.089.2.126.126,0,0,0,.215,0A1.172,1.172,0,0,0,745.2,91.774Z" transform="translate(-28.649 -13.467)" fill="#0968ff"/>
    <g id="Group_67" data-name="Group 67" transform="translate(700.761 62.462)">
      <path id="Path_131" data-name="Path 131" d="M740.987,166.166c-.121-.062-.27.049-.373.113a1.49,1.49,0,0,0-.359.3c-.058.07.019.2.107.138.12-.087.233-.178.36-.254.1-.06.261-.1.3-.216A.073.073,0,0,0,740.987,166.166Z" transform="translate(-739.953 -151.08)" fill="#099aff" style="mix-blend-mode: screen;isolation: isolate"/>
      <path id="Path_132" data-name="Path 132" d="M739.2,154a1.818,1.818,0,0,0-.623.726c-.032.075.078.123.129.075.107-.1.194-.226.295-.335s.2-.221.3-.333C739.359,154.069,739.279,153.944,739.2,154Z" transform="translate(-738.568 -140.978)" fill="#099aff" style="mix-blend-mode: screen;isolation: isolate"/>
      <path id="Path_133" data-name="Path 133" d="M748.39,182.468c-.055-.132-.21-.063-.3-.024-.139.059-.276.124-.413.186s-.038.3.1.243.269-.107.4-.163C748.275,182.67,748.448,182.607,748.39,182.468Z" transform="translate(-746.079 -164.574)" fill="#099aff" style="mix-blend-mode: screen;isolation: isolate"/>
      <path id="Path_134" data-name="Path 134" d="M815.258,166.663c-.035-.178-.214-.332-.327-.469-.134-.164-.267-.327-.407-.485-.107-.122-.326.042-.228.176.119.164.243.323.368.482.112.144.232.369.4.444A.133.133,0,0,0,815.258,166.663Z" transform="translate(-801.458 -150.679)" fill="#099aff" style="mix-blend-mode: screen;isolation: isolate"/>
      <path id="Path_135" data-name="Path 135" d="M815.808,151.9c-.075-.147-.272-.241-.393-.349-.138-.122-.251-.266-.385-.392a.113.113,0,0,0-.176.136,1.805,1.805,0,0,0,.377.477.882.882,0,0,0,.474.308A.121.121,0,0,0,815.808,151.9Z" transform="translate(-801.931 -138.602)" fill="#099aff" style="mix-blend-mode: screen;isolation: isolate"/>
      <path id="Path_136" data-name="Path 136" d="M807.974,180.358a1.044,1.044,0,0,0-.255-.388c-.1-.133-.212-.261-.325-.387s-.3.036-.216.167.191.277.294.41c.09.117.177.28.313.343A.13.13,0,0,0,807.974,180.358Z" transform="translate(-795.548 -162.207)" fill="#099aff" style="mix-blend-mode: screen;isolation: isolate"/>
      <path id="Path_137" data-name="Path 137" d="M803.053,192.427a.991.991,0,0,0-.258-.451l-.373-.471c-.094-.118-.3.04-.211.162l.36.481a.993.993,0,0,0,.37.364A.077.077,0,0,0,803.053,192.427Z" transform="translate(-791.42 -172.11)" fill="#099aff" style="mix-blend-mode: screen;isolation: isolate"/>
      <path id="Path_138" data-name="Path 138" d="M821.333,183.5a2.06,2.06,0,0,0-.122-.238l-.177-.248c-.1-.133-.318-.006-.222.13l.186.263a2.081,2.081,0,0,0,.192.2C821.262,183.687,821.381,183.587,821.333,183.5Z" transform="translate(-806.871 -165.043)" fill="#099aff" style="mix-blend-mode: screen;isolation: isolate"/>
      <path id="Path_139" data-name="Path 139" d="M786.955,196.656a1.744,1.744,0,0,0-.089-.234,2.584,2.584,0,0,0-.227-.422.135.135,0,0,0-.234.136c.069.131.132.265.191.4.028.065.049.132.076.2s.071.115.1.179a.1.1,0,0,0,.193-.052A1.259,1.259,0,0,0,786.955,196.656Z" transform="translate(-778.293 -175.826)" fill="#099aff" style="mix-blend-mode: screen;isolation: isolate"/>
      <path id="Path_140" data-name="Path 140" d="M772.82,198.217a.086.086,0,0,0-.129-.074.738.738,0,0,0-.244.685.15.15,0,1,0,.3-.04.978.978,0,0,1,.012-.3C772.77,198.4,772.812,198.309,772.82,198.217Z" transform="translate(-766.708 -177.65)" fill="#099aff" style="mix-blend-mode: screen;isolation: isolate"/>
      <path id="Path_141" data-name="Path 141" d="M757.707,192.446c-.216.2-.4.447-.6.661-.118.122.068.308.187.187a2.112,2.112,0,0,0,.531-.783C757.841,192.445,757.754,192.4,757.707,192.446Z" transform="translate(-753.934 -172.912)" fill="#099aff" style="mix-blend-mode: screen;isolation: isolate"/>
      <path id="Path_142" data-name="Path 142" d="M755.581,170.062a4.932,4.932,0,0,0-.591.28.123.123,0,0,0,.124.213,5.051,5.051,0,0,0,.542-.4C755.715,170.111,755.638,170.037,755.581,170.062Z" transform="translate(-752.161 -154.327)" fill="#099aff" style="mix-blend-mode: screen;isolation: isolate"/>
      <path id="Path_143" data-name="Path 143" d="M765.274,181.357l-.031-.013a.131.131,0,0,0-.148.06.663.663,0,0,1-.229.257c-.149.1-.008.336.139.237a.878.878,0,0,0,.316-.362A.133.133,0,0,0,765.274,181.357Z" transform="translate(-760.362 -163.698)" fill="#099aff" style="mix-blend-mode: screen;isolation: isolate"/>
      <path id="Path_144" data-name="Path 144" d="M741.041,142.213a2.014,2.014,0,0,0-.282.217,1.619,1.619,0,0,1-.311.2c-.158.077-.02.31.138.235.23-.109.515-.3.563-.57A.075.075,0,0,0,741.041,142.213Z" transform="translate(-740.072 -131.188)" fill="#099aff" style="mix-blend-mode: screen;isolation: isolate"/>
      <path id="Path_145" data-name="Path 145" d="M741.4,133.338a1.156,1.156,0,0,1-.519.186c-.159.009-.161.256,0,.248a.7.7,0,0,0,.606-.347A.064.064,0,0,0,741.4,133.338Z" transform="translate(-740.391 -123.816)" fill="#099aff" style="mix-blend-mode: screen;isolation: isolate"/>
      <path id="Path_146" data-name="Path 146" d="M796.207,166a1.448,1.448,0,0,0-.109-.207c-.044-.064-.091-.127-.137-.19a.11.11,0,1,0-.173.133c.048.061.095.124.144.184a1.446,1.446,0,0,0,.167.161A.069.069,0,0,0,796.207,166Z" transform="translate(-786.079 -150.583)" fill="#099aff" style="mix-blend-mode: screen;isolation: isolate"/>
      <path id="Path_147" data-name="Path 147" d="M785.18,180.23a8.17,8.17,0,0,0-.342-.79c-.065-.131-.26-.016-.2.114a7.957,7.957,0,0,0,.413.729C785.095,180.345,785.208,180.306,785.18,180.23Z" transform="translate(-776.833 -162.074)" fill="#099aff" style="mix-blend-mode: screen;isolation: isolate"/>
      <path id="Path_148" data-name="Path 148" d="M797.157,147.055c-.017-.063-.081-.1-.126-.138a.681.681,0,0,1-.18-.272c-.06-.176-.34-.1-.28.077a.912.912,0,0,0,.379.492.141.141,0,0,0,.207-.159Z" transform="translate(-786.746 -134.795)" fill="#099aff" style="mix-blend-mode: screen;isolation: isolate"/>
      <path id="Path_149" data-name="Path 149" d="M774.691,151.612a.094.094,0,0,0-.184-.025,1.347,1.347,0,0,1-.331.578c-.135.128.068.33.2.2A.871.871,0,0,0,774.691,151.612Z" transform="translate(-768.112 -138.928)" fill="#099aff" style="mix-blend-mode: screen;isolation: isolate"/>
      <path id="Path_150" data-name="Path 150" d="M759.118,149.439a3.506,3.506,0,0,0-.259.258l-.236.281c-.092.11.066.27.159.159l.248-.3a3.588,3.588,0,0,0,.21-.3C759.291,149.458,759.18,149.378,759.118,149.439Z" transform="translate(-755.206 -137.181)" fill="#099aff" style="mix-blend-mode: screen;isolation: isolate"/>
      <path id="Path_151" data-name="Path 151" d="M815.1,113.112a.233.233,0,0,1-.074-.05.491.491,0,0,0-.1-.055.336.336,0,0,1-.126-.141c-.069-.135-.271-.016-.2.119a.567.567,0,0,0,.2.221.306.306,0,0,0,.144.059c.006,0,.065-.012.06-.011a.738.738,0,0,0,.081-.013A.071.071,0,0,0,815.1,113.112Z" transform="translate(-801.714 -106.767)" fill="#099aff" style="mix-blend-mode: screen;isolation: isolate"/>
      <path id="Path_152" data-name="Path 152" d="M812.051,103.262a1.3,1.3,0,0,1-.168-.094.486.486,0,0,1-.14-.122c-.076-.1-.246-.005-.171.1a.747.747,0,0,0,.2.193.441.441,0,0,0,.262.067C812.12,103.408,812.124,103.291,812.051,103.262Z" transform="translate(-799.2 -98.625)" fill="#099aff" style="mix-blend-mode: screen;isolation: isolate"/>
      <path id="Path_153" data-name="Path 153" d="M746.418,112.127a.06.06,0,0,0-.087-.035c-.057.025-.111.068-.167.1a.335.335,0,0,1-.178.036c-.124-.008-.126.161-.027.2a.376.376,0,0,0,.326-.03A.264.264,0,0,0,746.418,112.127Z" transform="translate(-744.648 -106.168)" fill="#099aff" style="mix-blend-mode: screen;isolation: isolate"/>
      <path id="Path_154" data-name="Path 154" d="M768.424,82c-.074.016-.142.047-.216.065a1.8,1.8,0,0,1-.231.031.08.08,0,0,0-.021.156.606.606,0,0,0,.549-.111A.084.084,0,0,0,768.424,82Z" transform="translate(-762.935 -81.171)" fill="#099aff" style="mix-blend-mode: screen;isolation: isolate"/>
      <path id="Path_155" data-name="Path 155" d="M790.324,79.386a.53.53,0,0,0-.223-.123,1.019,1.019,0,0,1-.221-.147c-.083-.068-.226.019-.159.123.1.158.386.4.586.28A.086.086,0,0,0,790.324,79.386Z" transform="translate(-781.048 -78.76)" fill="#099aff" style="mix-blend-mode: screen;isolation: isolate"/>
      <path id="Path_156" data-name="Path 156" d="M758.142,110.638a.223.223,0,0,0-.092.021.3.3,0,0,0-.062.057l-.082.083a.134.134,0,0,0,.19.19l.083-.082a.5.5,0,0,0,.046-.049.18.18,0,0,0,.032-.105A.115.115,0,0,0,758.142,110.638Z" transform="translate(-754.601 -104.966)" fill="#099aff" style="mix-blend-mode: screen;isolation: isolate"/>
      <path id="Path_157" data-name="Path 157" d="M821.063,132.651l-.084-.109c-.032-.042-.048-.09-.081-.132a1.5,1.5,0,0,1-.153-.235c-.085-.161-.326-.019-.243.142a1.411,1.411,0,0,0,.185.283.974.974,0,0,0,.269.19A.089.089,0,0,0,821.063,132.651Z" transform="translate(-806.619 -122.799)" fill="#099aff" style="mix-blend-mode: screen;isolation: isolate"/>
      <path id="Path_158" data-name="Path 158" d="M753.611,205.739a.528.528,0,0,0-.27-.129c-.1-.031-.207-.052-.31-.078a.121.121,0,0,0-.064.233c.1.039.2.082.3.116a.5.5,0,0,0,.3.045A.114.114,0,0,0,753.611,205.739Z" transform="translate(-750.461 -183.795)" fill="#099aff" style="mix-blend-mode: screen;isolation: isolate"/>
      <path id="Path_159" data-name="Path 159" d="M774.6,77.2l-.017-.022a.115.115,0,0,0-.049-.031.292.292,0,0,0-.114-.015.83.83,0,0,0-.242.042.442.442,0,0,0-.191.1c-.037.04-.063.129-.012.17.094.078.21.033.321.018.055-.007.111-.012.166-.02a.246.246,0,0,0,.091-.024c.009-.005.078-.065.047-.046A.1.1,0,0,0,774.6,77.2Z" transform="translate(-767.957 -77.128)" fill="#099aff" style="mix-blend-mode: screen;isolation: isolate"/>
    </g>
    <g id="Group_68" data-name="Group 68" transform="translate(701.707 69.907)">
      <path id="Path_160" data-name="Path 160" d="M751.333,127.512a9.853,9.853,0,0,0,.491,2.7c.307.268,1.214-2.284,1.214-2.284a5.793,5.793,0,0,1-.829-.161A5.838,5.838,0,0,0,751.333,127.512Z" transform="translate(-750.119 -126.429)" fill="#fff"/>
      <path id="Path_161" data-name="Path 161" d="M802.025,126.015a9.853,9.853,0,0,1-.491,2.7c-.307.268-1.214-2.284-1.214-2.284a5.8,5.8,0,0,0,.829-.161A5.842,5.842,0,0,1,802.025,126.015Z" transform="translate(-790.815 -125.186)" fill="#fff"/>
      <path id="Path_162" data-name="Path 162" d="M750.031,123.03c-4.821,0-5.8-1.346-5.837-1.4a.207.207,0,0,1,.34-.237c.018.024.975,1.225,5.5,1.225,4.617,0,5.834-1.41,5.846-1.424a.207.207,0,0,1,.32.264C756.143,121.52,754.841,123.03,750.031,123.03Z" transform="translate(-744.158 -121.116)" fill="#0c1b24"/>
    </g>
    <g id="Group_69" data-name="Group 69" transform="translate(706.062 63.627)">
      <circle id="Ellipse_500" data-name="Ellipse 500" cx="1.619" cy="1.619" r="1.619" transform="translate(0 3.195) rotate(-80.755)" fill="#fff"/>
      <path id="Path_163" data-name="Path 163" d="M777.184,90.37a.941.941,0,1,1-.941-.941A.941.941,0,0,1,777.184,90.37Z" transform="translate(-774.385 -88.513)" fill="#2b6080"/>
      <path id="Path_164" data-name="Path 164" d="M778.589,92.134a.582.582,0,1,1-.582-.582A.582.582,0,0,1,778.589,92.134Z" transform="translate(-776.149 -90.276)" fill="#0c1b24"/>
      <circle id="Ellipse_501" data-name="Ellipse 501" cx="0.489" cy="0.489" r="0.489" transform="translate(2.083 0.841)" fill="#fff"/>
    </g>
    <g id="Group_70" data-name="Group 70" transform="translate(709.225 63.537)">
      <circle id="Ellipse_502" data-name="Ellipse 502" cx="1.619" cy="1.619" r="1.619" transform="translate(0 3.15) rotate(-76.662)" fill="#fff"/>
      <path id="Path_165" data-name="Path 165" d="M796.406,90.37a.941.941,0,1,1-.941-.941A.941.941,0,0,1,796.406,90.37Z" transform="translate(-793.517 -88.422)" fill="#2b6080"/>
      <path id="Path_166" data-name="Path 166" d="M797.81,92.134a.582.582,0,1,1-.582-.582A.582.582,0,0,1,797.81,92.134Z" transform="translate(-795.28 -90.185)" fill="#0c1b24"/>
      <circle id="Ellipse_503" data-name="Ellipse 503" cx="0.489" cy="0.489" r="0.489" transform="translate(2.174 0.932)" fill="#fff"/>
    </g>
    <path id="Path_167" data-name="Path 167" d="M731.551,100.52c-.12-.024-.187-.176-.255-.357l-.01-.028c-.092-.24-.18-.476-.251-.72l0-.017-.011-.014c-.077-.093-.149-.187-.215-.278a5.88,5.88,0,0,1-.929-2.294l-.165,0c-.015.06-.031.12-.047.18a3.749,3.749,0,0,0-.09.385,2.571,2.571,0,0,0,.01.778,2.041,2.041,0,0,1,.22-1.61l.018-.028-.006-.033a14.425,14.425,0,0,1-.182-1.911l-.163-.028-.051.132a3.019,3.019,0,0,1-.226.5,3.291,3.291,0,0,1,.183-.544c.024-.06.048-.121.071-.18s.035-.094.052-.144c.035-.1.072-.2.116-.3l.008-.017v-.019c0-.637.025-1.335.083-2.135l-.158-.047c-.04.072-.079.143-.113.213-.056.114-.108.232-.16.35a4.985,4.985,0,0,1-.318.637,4.035,4.035,0,0,1,.342-.913l.043-.094.069-.152a3.549,3.549,0,0,1,.334-.63l.014-.019,0-.023a31.388,31.388,0,0,1,.777-4.652l-.146-.075-.1.114c-.017.02-.035.044-.055.07a1.428,1.428,0,0,1-.124.147.841.841,0,0,1,.049-.082c.04-.057.083-.113.127-.168l.078-.1a1.767,1.767,0,0,1,.249-.282l.02-.017.007-.026c.164-.632.32-1.149.49-1.628l.088-.249L731,84.36c-.031.022-.061.043-.09.066-.153.118-.3.244-.444.366l-.074.065a1.17,1.17,0,0,1-.2.157,1.836,1.836,0,0,1,.479-.48c.044-.035.087-.068.125-.1.084-.069.17-.135.257-.2.07-.054.14-.107.209-.162l.017-.014.008-.021a10.018,10.018,0,0,1,.691-1.433l-.131-.1-.022.02c-.152.145-.309.294-.471.429a.409.409,0,0,1-.191.1,1.119,1.119,0,0,1,.205-.211c.037-.032.073-.063.106-.1.1-.1.2-.192.3-.288l.151-.144c.078-.074.157-.158.238-.244a3.484,3.484,0,0,1,.494-.461l.01-.007.007-.009a6.92,6.92,0,0,1,.543-.6l-.1-.134c-.115.064-.231.128-.347.19l-.1.057a1.666,1.666,0,0,1-.307.147,1.766,1.766,0,0,1,.312-.2l.112-.062c.121-.07.244-.138.366-.207l.265-.149c.168-.1.337-.19.506-.283l.008,0,.023-.02c.177-.153.357-.3.536-.423l-.076-.149c-.108.036-.223.072-.339.1a3.287,3.287,0,0,1,.692-.3c.183-.063.356-.114.527-.157l.035-.009c.034-.009.066-.017.1-.023l.01,0,.009,0a4.016,4.016,0,0,1,.6-.2.131.131,0,0,1,.03,0c.021,0,.046.008.05.029s-.024.092-.137.145a6.614,6.614,0,0,0-1.173.682l-.073.056a7.324,7.324,0,0,0-.717.6,10.219,10.219,0,0,0-1.6,1.9,8.181,8.181,0,0,0-.5.9l-.069.149A18.06,18.06,0,0,0,730.8,87.1a30.607,30.607,0,0,0-.711,5.017,17.071,17.071,0,0,0,.2,4.933,5.159,5.159,0,0,0,2.34,3.327.043.043,0,0,1,.02.051.037.037,0,0,1-.037.027,2.6,2.6,0,0,1-1.243-.7l-.137.092.047.12a2.93,2.93,0,0,0,.166.372c.017.03.035.058.053.085S731.535,100.489,731.551,100.52Zm.4-17.043.12.083a.18.18,0,0,1,.03-.026h0a.28.28,0,0,1-.051.053l-.032.028Z" transform="translate(-29.82 -16.35)" fill="#099aff"/>
    <g id="Group_71" data-name="Group 71" transform="translate(702.641 63.46)">
      <circle id="Ellipse_504" data-name="Ellipse 504" cx="1.619" cy="1.619" r="1.619" transform="matrix(0.296, -0.955, 0.955, 0.296, 0, 3.092)" fill="#fff"/>
      <path id="Path_168" data-name="Path 168" d="M757.963,90.37a.941.941,0,1,1-.941-.941A.941.941,0,0,1,757.963,90.37Z" transform="translate(-754.997 -88.345)" fill="#2b6080"/>
      <path id="Path_169" data-name="Path 169" d="M759.367,92.134a.582.582,0,1,1-.582-.582A.582.582,0,0,1,759.367,92.134Z" transform="translate(-756.76 -90.109)" fill="#0c1b24"/>
      <circle id="Ellipse_505" data-name="Ellipse 505" cx="0.489" cy="0.489" r="0.489" transform="translate(2.251 1.009)" fill="#fff"/>
    </g>
  </g>
</svg>
