<svg xmlns="http://www.w3.org/2000/svg" width="33.076" height="25.736" viewBox="0 0 33.076 25.736">
  <g id="Group_100" data-name="Group 100" transform="translate(-257.374 -87.954)">
    <g id="Group_100-2" data-name="Group 100" transform="translate(274.917 106.961)">
      <path id="Path_272" data-name="Path 272" d="M358.993,198.742c-.061.1.3,3.034.256,3.7s1.024.158,1.024.158.913-3.546.637-4.1A1.1,1.1,0,0,0,358.993,198.742Z" transform="translate(-358.986 -198.047)" fill="#ffb443"/>
      <path id="Path_273" data-name="Path 273" d="M363.4,222.324a.574.574,0,0,0-.738-.491.348.348,0,0,0-.2-.19,1.38,1.38,0,0,0-.73.045l-1.389-.706s-.013-.719-.243-.72a2.372,2.372,0,0,0-.6.13s-.669,1.473-.468,1.836,2.866.679,2.866.679a2.256,2.256,0,0,0,.762.248A.665.665,0,0,0,363.4,222.324Z" transform="translate(-358.992 -216.427)" fill="#ffb443"/>
      <path id="Path_274" data-name="Path 274" d="M375.183,230.246a.787.787,0,0,0-.689-.28,2.011,2.011,0,0,0-.869.218c-.043.021-.017.079.022.083a4.728,4.728,0,0,0,.728-.08,1,1,0,0,1,.751.133C375.17,230.354,375.219,230.284,375.183,230.246Z" transform="translate(-371.078 -224.455)" fill="#fa6550" style="mix-blend-mode: screen;isolation: isolate"/>
      <path id="Path_275" data-name="Path 275" d="M370.869,228.155c-.22-.091-.45-.173-.676-.247a.07.07,0,0,0-.068.117.981.981,0,0,0,.722.289A.081.081,0,0,0,370.869,228.155Z" transform="translate(-368.187 -222.75)" fill="#fa6550" style="mix-blend-mode: screen;isolation: isolate"/>
    </g>
    <g id="Group_101" data-name="Group 101" transform="translate(267.199 107.238)">
      <path id="Path_276" data-name="Path 276" d="M327.57,200.369c-.089.1.933,2.845.875,3.5s.979.257.979.257.344-3.514-.057-4.055S328.43,199.4,327.57,200.369Z" transform="translate(-325.271 -199.654)" fill="#ffb443"/>
      <path id="Path_277" data-name="Path 277" d="M318.129,220.645a2.324,2.324,0,0,0-.59-.127c-.225,0,.111.548.111.548l-1.7.851a1.364,1.364,0,0,0-.723-.046.341.341,0,0,0-.191.187.563.563,0,0,0-.724.482.651.651,0,0,0,.723.814,2.209,2.209,0,0,0,.747-.243s2.611-.309,2.809-.665S318.129,220.645,318.129,220.645Z" transform="translate(-314.282 -216.916)" fill="#ffb443"/>
      <path id="Path_278" data-name="Path 278" d="M330.534,209.824c-.022-.254-.008-.507-.044-.76a2.466,2.466,0,0,0-.528-1.383.067.067,0,0,0-.112.065,4.895,4.895,0,0,0,.216.683c.071.231.121.468.172.7a7.135,7.135,0,0,1,.155.729,2.866,2.866,0,0,0,.08.7c.016.041.081.05.093,0A2.5,2.5,0,0,0,330.534,209.824Z" transform="translate(-327.162 -206.279)" fill="#fa6550" style="mix-blend-mode: screen;isolation: isolate"/>
      <path id="Path_279" data-name="Path 279" d="M327.106,224.984a1.786,1.786,0,0,0-.735.283c-.219.109-.558.231-.683.452a.019.019,0,0,0,.011.027,1.356,1.356,0,0,0,.683-.207c.26-.117.524-.234.775-.37A.1.1,0,0,0,327.106,224.984Z" transform="translate(-323.716 -220.611)" fill="#fa6550" style="mix-blend-mode: screen;isolation: isolate"/>
      <path id="Path_280" data-name="Path 280" d="M316.655,229.665c-.38-.259-1.379-.345-1.422.313a.072.072,0,0,0,.122.051c.074-.07.115-.163.2-.226a.535.535,0,0,1,.424-.067,1.717,1.717,0,0,0,.666.041A.061.061,0,0,0,316.655,229.665Z" transform="translate(-315.068 -224.324)" fill="#fa6550" style="mix-blend-mode: screen;isolation: isolate"/>
    </g>
    <g id="Group_103" data-name="Group 103" transform="translate(280.295 97.503)">
      <path id="Path_281" data-name="Path 281" d="M397.7,146.624a.663.663,0,0,1-.459-.184,7.607,7.607,0,0,0-1.85-1.2,6.281,6.281,0,0,0-4.414-.431.666.666,0,0,1-.355-1.283,7.686,7.686,0,0,1,5.375.527,8.783,8.783,0,0,1,2.164,1.419.666.666,0,0,1-.46,1.147Z" transform="translate(-390.138 -143.266)" fill="#ffc05f"/>
      <g id="Group_102" data-name="Group 102" transform="translate(5.546 1.231)">
        <path id="Path_282" data-name="Path 282" d="M423.375,150.9c-.385.313-.249.514-.405.8-.392.719-1.021,1.677-.522,2.03.906.641,1.249-1.226,1.249-1.226s.954,2.369,1.53,1.987-.837-2.394-.837-2.394,1.987,1.7,2.38,1.212c.635-.783-1.908-1.876-1.908-1.876s1.545-.386,1.424-.782c-.2-.668-1.794.168-1.794.168S423.76,150.592,423.375,150.9Z" transform="translate(-422.263 -150.396)" fill="#ffc05f"/>
        <path id="Path_283" data-name="Path 283" d="M441.425,151.211a.668.668,0,0,0-.334-.051.429.429,0,0,0-.29.079.033.033,0,0,0,.014.054.88.88,0,0,0,.276-.015c.1,0,.207.022.311.018A.046.046,0,0,0,441.425,151.211Z" transform="translate(-437.592 -151.027)" fill="#fa6550" style="mix-blend-mode: screen;isolation: isolate"/>
        <path id="Path_284" data-name="Path 284" d="M446.006,163.078a.683.683,0,0,0-.334-.312.029.029,0,0,0-.039.039c.056.1.144.169.206.263a.451.451,0,0,1,.048.324c0,.051.062.069.094.039A.3.3,0,0,0,446.006,163.078Z" transform="translate(-441.596 -160.628)" fill="#fa6550" style="mix-blend-mode: screen;isolation: isolate"/>
        <path id="Path_285" data-name="Path 285" d="M438.566,169.8a1,1,0,0,0-.164-.4.026.026,0,0,0-.043.011c-.035.217.161.437.1.654-.008.031.035.062.058.034A.31.31,0,0,0,438.566,169.8Z" transform="translate(-435.576 -166.114)" fill="#fa6550" style="mix-blend-mode: screen;isolation: isolate"/>
        <path id="Path_286" data-name="Path 286" d="M423.077,166.36c-.035-.084-.114-.13-.141-.223a1.811,1.811,0,0,1-.012-.339.048.048,0,0,0-.094-.013.634.634,0,0,0,0,.449c.037.09.114.2.225.174A.033.033,0,0,0,423.077,166.36Z" transform="translate(-422.699 -163.1)" fill="#fa6550" style="mix-blend-mode: screen;isolation: isolate"/>
        <path id="Path_287" data-name="Path 287" d="M425.1,169.383a.662.662,0,0,0-.069.006.056.056,0,0,0,0,.113.662.662,0,0,0,.069.006A.062.062,0,0,0,425.1,169.383Z" transform="translate(-424.507 -166.105)" fill="#fa6550" style="mix-blend-mode: screen;isolation: isolate"/>
      </g>
    </g>
    <g id="Group_105" data-name="Group 105" transform="translate(257.374 90.294)">
      <path id="Path_288" data-name="Path 288" d="M275.311,123.169q-.032,0-.065,0a8.779,8.779,0,0,1-2.488-.712,7.686,7.686,0,0,1-3.909-3.727.666.666,0,1,1,1.2-.569,7.062,7.062,0,0,0,5.321,3.683.666.666,0,0,1-.063,1.328Z" transform="translate(-266.816 -114.967)" fill="#ffc05f"/>
      <g id="Group_104" data-name="Group 104" transform="translate(0)">
        <path id="Path_289" data-name="Path 289" d="M260.208,105.516c.466-.169.4-.4.645-.623.606-.551,1.515-1.25,1.158-1.747-.646-.9-1.582.75-1.582.75s-.125-2.551-.8-2.379.006,2.536.006,2.536-1.322-2.253-1.852-1.925c-.857.532,1.188,2.4,1.188,2.4s-1.586-.141-1.6.273c-.026.7,1.749.429,1.749.429S259.741,105.686,260.208,105.516Z" transform="translate(-257.374 -101.509)" fill="#ffc05f"/>
        <path id="Path_290" data-name="Path 290" d="M259.5,105.689c-.106.016-.307.163-.223.288a.047.047,0,0,0,.072.009c.032-.027.034-.065.06-.1a.17.17,0,0,1,.124-.061c.107,0,.145.1.221.147a.059.059,0,0,0,.087-.05C259.851,105.766,259.634,105.668,259.5,105.689Z" transform="translate(-258.931 -104.965)" fill="#fa6550" style="mix-blend-mode: screen;isolation: isolate"/>
        <path id="Path_291" data-name="Path 291" d="M258.424,119.233a.365.365,0,0,0-.4.085.2.2,0,0,0,.032.3c.027.014.065-.016.045-.045a.152.152,0,0,1,.049-.206,1.055,1.055,0,0,1,.278-.072A.033.033,0,0,0,258.424,119.233Z" transform="translate(-257.863 -116.153)" fill="#fa6550" style="mix-blend-mode: screen;isolation: isolate"/>
        <path id="Path_292" data-name="Path 292" d="M279.456,110.227c-.167-.138-.517.022-.564.22a.039.039,0,0,0,.064.037.638.638,0,0,1,.213-.15,1.189,1.189,0,0,1,.247-.011C279.459,110.317,279.5,110.262,279.456,110.227Z" transform="translate(-275.176 -108.679)" fill="#fa6550" style="mix-blend-mode: screen;isolation: isolate"/>
        <path id="Path_293" data-name="Path 293" d="M269.408,102.411c-.1-.078-.2.072-.233.149a.411.411,0,0,0-.009.437c.013.017.043,0,.042-.017a.914.914,0,0,1,.07-.345.435.435,0,0,1,.057-.111c.024-.031.058-.05.077-.085A.023.023,0,0,0,269.408,102.411Z" transform="translate(-267.08 -102.237)" fill="#fa6550" style="mix-blend-mode: screen;isolation: isolate"/>
        <path id="Path_294" data-name="Path 294" d="M271.23,102.54a.168.168,0,0,0-.069-.052c-.041-.015-.068.028-.063.063a.18.18,0,0,0,.044.078.063.063,0,0,0,.088,0A.064.064,0,0,0,271.23,102.54Z" transform="translate(-268.728 -102.316)" fill="#fa6550" style="mix-blend-mode: screen;isolation: isolate"/>
      </g>
    </g>
    <path id="Path_295" data-name="Path 295" d="M310.17,102.82c-.1-.26-.205-.521-.313-.779-.039-.366-.094-.742-.164-1.125a.617.617,0,0,0,.3.071.285.285,0,0,0,.271-.355c-.045-.261-.264-.416-.442-.59-.139-.135-.281-.266-.417-.4a21.159,21.159,0,0,0-1.187-3.351.935.935,0,0,0,.548-.022.259.259,0,0,0,.113-.428,1.558,1.558,0,0,0-.534-.3,3.39,3.39,0,0,1-.543-.228l-.079-.044c-.226-.437-.467-.864-.721-1.278a.394.394,0,0,0,.105.016c.144,0,.282,0,.428.008.245.013.3-.315.118-.435-.108-.071-1.07-.613-1.276-.738-.085-.052-.172-.1-.259-.154q-.306-.408-.63-.786a.816.816,0,0,0,.44.109.246.246,0,0,0,.234-.308,1.357,1.357,0,0,0-.663-.628c-.283-.169-.566-.338-.857-.494a4.241,4.241,0,0,0-1.123-.505q-.318-.225-.647-.413a3,3,0,0,1,.573-.072,5.127,5.127,0,0,1,1.32.18.136.136,0,0,0,.152-.2c-.572-.889-1.9-.759-2.758-.267a5.9,5.9,0,0,0-.987-.325c.018-.012.036-.025.054-.036a4.137,4.137,0,0,1,.515-.278,1.96,1.96,0,0,0,.549-.268.258.258,0,0,0-.113-.428,1.96,1.96,0,0,0-1.279.486,4.12,4.12,0,0,0-.483.406q-.207-.017-.415-.017a5.43,5.43,0,0,0-2.082.43,3.334,3.334,0,0,0-.623.124c-.2.065-.409.127-.611.2a3.277,3.277,0,0,0-.572.277,1.743,1.743,0,0,0-.541.393.123.123,0,0,0,.054.2,1.067,1.067,0,0,0,.334.008q-.151.124-.3.254c-.062.031-.124.061-.187.089-.253.115-.505.223-.764.325-.133.052-.264.1-.4.152a2.265,2.265,0,0,0-.4.213c-.155.091-.15.391.055.42a1.474,1.474,0,0,0,.49.028l.014,0q-.239.281-.469.58a3.53,3.53,0,0,1-.4.32,7.565,7.565,0,0,1-1.15.637.242.242,0,0,0,.121.447,2.6,2.6,0,0,0,.51-.082q-.276.439-.53.9a10.318,10.318,0,0,1-1.185,1.042c-.231.182.034.465.252.434a1.962,1.962,0,0,0,.21-.042,21.282,21.282,0,0,0-1.173,3.226q-.218.423-.448.841a9.29,9.29,0,0,0-.452.859c-.068.163-.223.474-.019.6.137.085.32-.016.467-.134a12.752,12.752,0,0,0-.125,1.543c-.077.158-.148.32-.212.485a5.036,5.036,0,0,0-.285,1.074c-.039.255-.119.792.167.945s.432-.32.475-.522l.026-.128c.868,3.777,4.9,3.712,9.75,3.712,5.189,0,9.447.075,9.885-4.57a.365.365,0,0,0,.631-.252A2.977,2.977,0,0,0,310.17,102.82Z" transform="translate(-26.616)" fill="#ffc05f"/>
    <g id="Group_106" data-name="Group 106" transform="translate(264.652 90.804)">
      <path id="Path_296" data-name="Path 296" d="M389.007,147.387c-.019-.014-.041-.057-.066-.077a.71.71,0,0,0-.129-.072,1.2,1.2,0,0,1-.244-.165,3.3,3.3,0,0,1-.386-.43.125.125,0,0,0-.212.088,1.019,1.019,0,0,0,.344.632,1.55,1.55,0,0,0,.3.211.537.537,0,0,0,.187.068.68.68,0,0,0,.139-.018A.128.128,0,0,0,389.007,147.387Z" transform="translate(-372.701 -139.331)" fill="#fa6550" style="mix-blend-mode: screen;isolation: isolate"/>
      <path id="Path_297" data-name="Path 297" d="M385.824,127.436a1.537,1.537,0,0,0-.367-.481c-.112-.125-.232-.317-.418-.318a.077.077,0,0,0-.073.056c-.03.182.116.317.221.45a1.629,1.629,0,0,0,.416.463A.152.152,0,0,0,385.824,127.436Z" transform="translate(-370.213 -122.808)" fill="#fa6550" style="mix-blend-mode: screen;isolation: isolate"/>
      <path id="Path_298" data-name="Path 298" d="M386.023,162.715a3.034,3.034,0,0,0-.3-.277,1.2,1.2,0,0,1-.232-.34c-.056-.119-.249-.035-.211.089.084.27.281.657.583.731C385.972,162.943,386.1,162.817,386.023,162.715Z" transform="translate(-370.475 -152.1)" fill="#fa6550" style="mix-blend-mode: screen;isolation: isolate"/>
      <path id="Path_299" data-name="Path 299" d="M305.562,163.461a3.766,3.766,0,0,0-.4.278,2.953,2.953,0,0,1-.429.236.075.075,0,0,0,.018.136.833.833,0,0,0,.6-.105.625.625,0,0,0,.343-.472C305.7,163.466,305.612,163.435,305.562,163.461Z" transform="translate(-303.805 -153.267)" fill="#fa6550" style="mix-blend-mode: screen;isolation: isolate"/>
      <path id="Path_300" data-name="Path 300" d="M307.733,149.7c-.248.174-.474.387-.706.582-.146.122.045.369.2.264a1.477,1.477,0,0,0,.614-.76A.077.077,0,0,0,307.733,149.7Z" transform="translate(-305.69 -141.876)" fill="#fa6550" style="mix-blend-mode: screen;isolation: isolate"/>
      <path id="Path_301" data-name="Path 301" d="M398.052,190.189a1.631,1.631,0,0,0-.27-.328c-.116-.095-.235-.186-.353-.278-.145-.114-.349.072-.209.208.107.1.212.209.321.31a1.631,1.631,0,0,0,.366.232C397.994,190.378,398.118,190.28,398.052,190.189Z" transform="translate(-380.317 -174.858)" fill="#fa6550" style="mix-blend-mode: screen;isolation: isolate"/>
      <path id="Path_302" data-name="Path 302" d="M374.925,198.8a3.2,3.2,0,0,0-.365-.48c-.126-.152-.39.05-.275.212a3.2,3.2,0,0,0,.368.478,1.1,1.1,0,0,0,.409.314.047.047,0,0,0,.059-.045A1.107,1.107,0,0,0,374.925,198.8Z" transform="translate(-361.356 -182.072)" fill="#fa6550" style="mix-blend-mode: screen;isolation: isolate"/>
      <path id="Path_303" data-name="Path 303" d="M362.439,203.158c-.125-.149-.393.053-.273.211l.159.209a.357.357,0,0,0,.254.173.14.14,0,0,0,.135-.1C362.743,203.451,362.556,203.3,362.439,203.158Z" transform="translate(-351.328 -186.075)" fill="#fa6550" style="mix-blend-mode: screen;isolation: isolate"/>
      <path id="Path_304" data-name="Path 304" d="M372.04,170.732a1.1,1.1,0,0,0-.3-.368l-.379-.326c-.156-.134-.382.084-.229.229l.382.363a1.189,1.189,0,0,0,.178.16,1.4,1.4,0,0,0,.227.1C372.014,170.922,372.077,170.806,372.04,170.732Z" transform="translate(-358.731 -158.682)" fill="#fa6550" style="mix-blend-mode: screen;isolation: isolate"/>
      <path id="Path_305" data-name="Path 305" d="M327.471,171.319a1.964,1.964,0,0,0-.434.853.084.084,0,0,0,.125.072,1.975,1.975,0,0,0,.558-.779A.145.145,0,0,0,327.471,171.319Z" transform="translate(-322.288 -159.721)" fill="#fa6550" style="mix-blend-mode: screen;isolation: isolate"/>
      <path id="Path_306" data-name="Path 306" d="M367.436,105.174c-.04-.167-.25-.265-.38-.355a3.15,3.15,0,0,0-.45-.345.126.126,0,0,0-.182.14.921.921,0,0,0,.392.516c.149.117.377.273.569.17A.113.113,0,0,0,367.436,105.174Z" transform="translate(-354.873 -104.46)" fill="#fa6550" style="mix-blend-mode: screen;isolation: isolate"/>
      <path id="Path_307" data-name="Path 307" d="M315.738,126.464a3.641,3.641,0,0,0-.919.715c-.084.113.054.251.172.223a1.6,1.6,0,0,0,.877-.808C315.912,126.515,315.819,126.409,315.738,126.464Z" transform="translate(-312.158 -122.652)" fill="#fa6550" style="mix-blend-mode: screen;isolation: isolate"/>
      <path id="Path_308" data-name="Path 308" d="M400.941,167.351a.4.4,0,0,0-.107-.222c-.069-.074-.142-.145-.21-.22-.137-.15-.272-.3-.4-.456-.1-.126-.321.041-.227.175a6.037,6.037,0,0,0,.374.491q.1.115.2.226a.372.372,0,0,0,.242.13A.1.1,0,0,0,400.941,167.351Z" transform="translate(-382.633 -155.713)" fill="#fa6550" style="mix-blend-mode: screen;isolation: isolate"/>
      <path id="Path_309" data-name="Path 309" d="M300.576,177.447a1.282,1.282,0,0,0-.524.234c-.081.049-.163.1-.243.149a1.407,1.407,0,0,0-.242.216.131.131,0,0,0,.127.217,1.368,1.368,0,0,0,.273-.094c.094-.051.186-.106.278-.16a1.29,1.29,0,0,0,.455-.349A.143.143,0,0,0,300.576,177.447Z" transform="translate(-299.53 -164.846)" fill="#fa6550" style="mix-blend-mode: screen;isolation: isolate"/>
    </g>
    <g id="Group_108" data-name="Group 108" transform="translate(266.642 101.775)">
      <path id="Path_310" data-name="Path 310" d="M380.278,176.374s-.3,3.574-.677,3.9-1.308-2.663-1.308-2.663a6.116,6.116,0,0,0,1.036-.538C379.762,176.786,380.147,176.374,380.278,176.374Z" transform="translate(-366.685 -174.93)" fill="#fff"/>
      <path id="Path_311" data-name="Path 311" d="M313.073,178.539s.28,3.27.654,3.6,1.285-2.476,1.285-2.476a7.409,7.409,0,0,1-.724-.327C313.784,179.069,313.235,178.539,313.073,178.539Z" transform="translate(-312.725 -176.721)" fill="#fff"/>
      <g id="Group_107" data-name="Group 107" transform="translate(2.924 3.212)">
        <path id="Path_312" data-name="Path 312" d="M328.1,186.612s-.031.748-.093,1.433.171,1.4,1.713,1.464c1.668.067,3.644-.935,4.08-1.807s.28-.966.28-.966a25.073,25.073,0,0,1-4.111.156A18.833,18.833,0,0,0,328.1,186.612Z" transform="translate(-327.995 -186.612)" fill="#f2bfb8"/>
        <path id="Path_313" data-name="Path 313" d="M339.945,187.979a.75.75,0,0,0-.817.187,2.484,2.484,0,0,0-.642.84c-.027.067.061.12.116.089.466-.265.678-.882,1.28-.884C340,188.212,340.064,188.03,339.945,187.979Z" transform="translate(-336.67 -187.698)" fill="#d46d5f" style="mix-blend-mode: multiply;isolation: isolate"/>
      </g>
      <path id="Path_314" data-name="Path 314" d="M317.532,171.731a17.1,17.1,0,0,1-3.194-.291,4.268,4.268,0,0,1-2.947-1.6,1.909,1.909,0,0,1-.3-1.39.21.21,0,0,1,.408.1,1.471,1.471,0,0,0,.248,1.062,3.939,3.939,0,0,0,2.671,1.414,16.021,16.021,0,0,0,8.425-.617,4.3,4.3,0,0,0,2.2-2.26.21.21,0,0,1,.4.138,4.645,4.645,0,0,1-2.427,2.506A14.667,14.667,0,0,1,317.532,171.731Z" transform="translate(-311.058 -168.009)" fill="#0c1b24"/>
    </g>
    <g id="Group_109" data-name="Group 109" transform="translate(268.461 91.705)">
      <circle id="Ellipse_515" data-name="Ellipse 515" cx="4.926" cy="4.926" r="4.926" transform="translate(0 0)" fill="#fff"/>
      <circle id="Ellipse_516" data-name="Ellipse 516" cx="2.864" cy="2.864" r="2.864" transform="matrix(0.228, -0.974, 0.974, 0.228, 1.484, 7.062)" fill="#2b6080"/>
      <circle id="Ellipse_517" data-name="Ellipse 517" cx="1.771" cy="1.771" r="1.771" transform="translate(2.798 6.245) rotate(-76.777)" fill="#0c1b24"/>
      <circle id="Ellipse_518" data-name="Ellipse 518" cx="1.489" cy="1.489" r="1.489" transform="matrix(0.231, -0.973, 0.973, 0.231, 5.311, 4.428)" fill="#fff"/>
    </g>
    <path id="Path_315" data-name="Path 315" d="M293.169,113.489a.121.121,0,0,1-.088-.04,3.966,3.966,0,0,1-.912-1.893,9.073,9.073,0,0,1-.22-1.477l-.165-.029c-.054.124-.107.249-.155.376-.079.208-.139.424-.2.632-.028.1-.057.207-.089.311a4.1,4.1,0,0,1,.183-.962,4.451,4.451,0,0,1,.217-.6l.02-.045a2.04,2.04,0,0,1,.15-.291l.014-.022s0-.141,0-.174a11.905,11.905,0,0,1,.31-2.463l-.157-.066c-.024.037-.048.075-.071.113-.076.126-.148.254-.22.382s-.146.26-.224.388a4.692,4.692,0,0,1,.641-1.29,1.753,1.753,0,0,1,.191-.205l.017-.016.006-.023a20.465,20.465,0,0,1,1.684-4.037l-.132-.106-.016.013a4.784,4.784,0,0,1-.6.459,3.957,3.957,0,0,1,.533-.568c.048-.043.1-.094.149-.146a1.672,1.672,0,0,1,.425-.348l.025-.012.014-.024c.305-.536.6-1.014.914-1.459l-.109-.127c-.206.134-.4.259-.6.364l-.032.017a1.491,1.491,0,0,1-.183.087c.039-.025.08-.048.122-.073a2.567,2.567,0,0,0,.241-.154c.11-.082.211-.173.31-.262.066-.059.132-.119.2-.176l.1-.085a2.443,2.443,0,0,1,.508-.363l.018-.008.013-.016a11.808,11.808,0,0,1,.865-.969c.05-.05.1-.1.153-.149l-.091-.143c-.074.029-.149.058-.224.086-.175.065-.348.133-.521.2l-.1.041c-.034.013-.068.029-.1.045a.6.6,0,0,1-.233.073h-.01a.7.7,0,0,1,.279-.152c.044-.017.088-.033.127-.051.2-.092.407-.184.609-.28l.123-.06a2.107,2.107,0,0,1,.663-.243l.026,0,.02-.017a8.571,8.571,0,0,1,.771-.567c.067-.044.14-.086.223-.13l-.064-.159c-.249.072-.482.163-.728.26l-.118.046h-.005a.036.036,0,0,1-.034-.03c0-.009-.008-.038.015-.052a3.561,3.561,0,0,1,1.16-.395l.1-.018a3.32,3.32,0,0,1,.583-.074h.018l.017-.007a4.02,4.02,0,0,1,.559-.209.135.135,0,0,1,.035-.005.158.158,0,0,1,.141.129.108.108,0,0,1-.061.131l-.236.109a6.208,6.208,0,0,0-.734.376c-.21.132-.412.284-.609.431l-.213.159a10.2,10.2,0,0,0-1.5,1.349,15.793,15.793,0,0,0-2.2,3.224,22.51,22.51,0,0,0-1.608,3.634c-.7,2.138-1.242,5.2.193,7.623a.122.122,0,0,1,0,.129.161.161,0,0,1-.132.08Z" transform="translate(-28.104 -6.752)" fill="#fa6550" style="mix-blend-mode: screen;isolation: isolate"/>
    <path id="Path_316" data-name="Path 316" d="M346.311,95.433l-.1,0-.069,0a.109.109,0,0,1,0-.217l.069,0,.1,0a.349.349,0,0,1,.258.081.047.047,0,0,1,.012.033.046.046,0,0,1-.012.033.348.348,0,0,1-.258.081Z" transform="translate(-73.358 -5.999)" fill="#fa6550" style="mix-blend-mode: screen;isolation: isolate"/>
    <path id="Path_317" data-name="Path 317" d="M305.4,198.828a.578.578,0,0,1-.317-.116c-.091-.067-.235-.2-.179-.342a.137.137,0,0,1,.127-.1.242.242,0,0,1,.174.071h0l.07.057.042.029c.017.01.035.019.052.028l.078-.154.041.1-.084.065-.029-.005.054.024.061.03a.175.175,0,0,1-.085.32Z" transform="translate(-39.317 -91.268)" fill="#fa6550" style="mix-blend-mode: screen;isolation: isolate"/>
  </g>
</svg>
