<svg xmlns="http://www.w3.org/2000/svg" width="33.036" height="32.958" viewBox="0 0 33.036 32.958">
  <g id="Group_142" data-name="Group 142" transform="translate(21.012 32.958) rotate(-150)">
    <ellipse id="Ellipse_532" data-name="Ellipse 532" cx="12.131" cy="12.025" rx="12.131" ry="12.025" transform="translate(0 0)" fill="#8ae0fa"/>
    <path id="Path_406" data-name="Path 406" d="M7.378,17.611A12.138,12.138,0,0,1,.44,15.442,12.8,12.8,0,0,1,2.108,5.015,11.758,11.758,0,0,1,15.026.51a10.357,10.357,0,0,1,4.251,2.745,11.972,11.972,0,0,1,.232,2.333A12.078,12.078,0,0,1,7.378,17.611Z" transform="translate(4.753 6.438)" fill="#b5eeff"/>
    <path id="Path_407" data-name="Path 407" d="M9.649,6.583A29.536,29.536,0,0,1,0,5.1a12.188,12.188,0,0,1,19.721-.157A28.893,28.893,0,0,1,9.649,6.583Z" transform="translate(2.243 0.122)" fill="#1bb9fd"/>
    <path id="Path_408" data-name="Path 408" d="M.526,11.678a8.694,8.694,0,1,1,16.336,0Z" transform="translate(3.466 3.431)" fill="#dd6707"/>
    <path id="Path_409" data-name="Path 409" d="M.288,8.542A8.651,8.651,0,0,1,0,7.34a8.68,8.68,0,0,1,17.151,0,8.65,8.65,0,0,1-.288,1.2Z" transform="translate(3.584 6.183)" fill="#fee81b"/>
    <path id="Path_410" data-name="Path 410" d="M8.1,11.186A8.678,8.678,0,0,1,0,5.593a8.662,8.662,0,0,1,16.2,0A8.678,8.678,0,0,1,8.1,11.186Z" transform="translate(4.06 6.183)" fill="#fbbb14"/>
    <ellipse id="Ellipse_533" data-name="Ellipse 533" cx="8.487" cy="4.148" rx="8.487" ry="4.148" transform="translate(3.679 10.132)" fill="#fee81b"/>
    <path id="Path_411" data-name="Path 411" d="M6.6,3.264C7.155,1.33,6.156-.128,4.374.009A5.314,5.314,0,0,0,.151,3.757C-.4,5.691.6,7.148,2.382,7.013A5.315,5.315,0,0,0,6.6,3.264Z" transform="translate(15.315 9.375)" fill="#fff"/>
    <ellipse id="Ellipse_534" data-name="Ellipse 534" cx="1.866" cy="1.866" rx="1.866" ry="1.866" transform="translate(5.259 5.841)" fill="#fffa4f"/>
    <ellipse id="Ellipse_535" data-name="Ellipse 535" cx="5.773" cy="3.903" rx="5.773" ry="3.903" transform="translate(5.883 15.198)" fill="#1bb9fd"/>
    <path id="Path_412" data-name="Path 412" d="M9.14,3.09C9.14,1.383,7.094,0,4.57,0S0,1.383,0,3.09,2.046,6.179,4.57,6.179,9.14,4.8,9.14,3.09Z" transform="translate(7.086 16.662)" fill="#b5eeff"/>
    <path id="Path_413" data-name="Path 413" d="M0,5.848l1.1-3.07C1.1,1.244,2.944,0,5.214,0S9.322,1.244,9.322,2.778l.858,3.83Z" transform="translate(6.442 16.973)" fill="#f0602b"/>
    <path id="Path_414" data-name="Path 414" d="M0,0,.024,0C2.293,0,4.133,1.244,4.133,2.778l1.12,3.132L1.422,8.385Z" transform="translate(11.632 16.973)" fill="#eb4e16"/>
    <ellipse id="Ellipse_536" data-name="Ellipse 536" cx="5.298" cy="3.581" rx="5.298" ry="3.581" transform="translate(6.358 19.895)" fill="#ffac8f"/>
    <path id="Path_415" data-name="Path 415" d="M9.232,3.12C9.232,1.4,7.165,0,4.616,0S0,1.4,0,3.12,2.066,6.241,4.616,6.241,9.232,4.844,9.232,3.12Z" transform="translate(7.04 20.356)" fill="#ff8052"/>
    <path id="Path_416" data-name="Path 416" d="M4.78,1.375C4.78.616,3.71,0,2.39,0S0,.616,0,1.375,1.07,2.75,2.39,2.75,4.78,2.134,4.78,1.375Z" transform="translate(6.942 22.706)" fill="#ffac8f"/>
  </g>
</svg>
