<svg xmlns="http://www.w3.org/2000/svg" width="28.24" height="35.719" viewBox="0 0 28.24 35.719">
  <g id="Group_123" data-name="Group 123" transform="translate(-694.626 -538.488)">
    <g id="Group_136" data-name="Group 136" transform="translate(694.626 538.488)">
      <g id="Group_126" data-name="Group 126" transform="translate(7.403 20.704)">
        <g id="Group_123-2" data-name="Group 123" transform="translate(7.745)">
          <path id="Path_417" data-name="Path 417" d="M780.91,651.173l-2.674,13.472-1.131-.206,1.131-12.546Z" transform="translate(-777.098 -651.173)" fill="#113b50"/>
          <path id="Path_418" data-name="Path 418" d="M778.205,723.579c.411.1,3.5-.617,3.908.411s-2.571,1.131-2.571,1.131-1.857-.094-2.185-.541a1.958,1.958,0,0,1-.283-1.208Z" transform="translate(-777.067 -710.107)" fill="#113b50"/>
          <path id="Path_419" data-name="Path 419" d="M800.713,727.945a.568.568,0,0,0-.139-.049.487.487,0,0,0-.145,0,.086.086,0,0,0-.023.168c.027.009.061.029.1.045a.909.909,0,0,1,.117.053.21.21,0,0,0,.129.047.106.106,0,0,0,.1-.069C800.888,728.042,800.79,727.98,800.713,727.945Z" transform="translate(-796.068 -713.795)" fill="#3d7ea3" style="mix-blend-mode: multiply;isolation: isolate"/>
          <path id="Path_420" data-name="Path 420" d="M801.106,725.005a.384.384,0,0,0-.462-.078c-.083.044-.037.158.045.165a.6.6,0,0,1,.208.039c.066.031.162.069.209-.016A.109.109,0,0,0,801.106,725.005Z" transform="translate(-796.277 -711.341)" fill="#3d7ea3" style="mix-blend-mode: multiply;isolation: isolate"/>
        </g>
        <g id="Group_125" data-name="Group 125">
          <path id="Path_421" data-name="Path 421" d="M741.844,651.173l2.674,13.472,1.131-.206-1.131-12.546Z" transform="translate(-740.571 -651.173)" fill="#113b50"/>
          <path id="Path_422" data-name="Path 422" d="M738.863,723.579c-.411.1-3.5-.617-3.908.411s2.571,1.131,2.571,1.131a6.117,6.117,0,0,0,2.211-.463c.437-.386.257-1.285.257-1.285Z" transform="translate(-734.916 -710.107)" fill="#113b50"/>
          <g id="Group_124" data-name="Group 124" transform="translate(1.927 1.968)">
            <path id="Path_423" data-name="Path 423" d="M746.367,666.158q-.128-.718-.262-1.435a20.49,20.49,0,0,0-.591-2.8c-.019-.057-.116-.052-.11.015a26.042,26.042,0,0,0,.5,2.74q.13.692.254,1.385a13.894,13.894,0,0,0,.268,1.432c.024.083.161.071.156-.021A11.007,11.007,0,0,0,746.367,666.158Z" transform="translate(-745.404 -661.882)" fill="#2b5269" style="mix-blend-mode: screen;isolation: isolate"/>
            <path id="Path_424" data-name="Path 424" d="M751.875,695.164a.873.873,0,0,0-.1-.311.052.052,0,0,0-.088,0,.556.556,0,0,0-.016.343.677.677,0,0,0,.129.357c.048.057.136.007.139-.057A1.164,1.164,0,0,0,751.875,695.164Z" transform="translate(-750.506 -688.775)" fill="#2b5269" style="mix-blend-mode: screen;isolation: isolate"/>
          </g>
          <path id="Path_425" data-name="Path 425" d="M737.245,725.267a.231.231,0,0,0-.309-.131.306.306,0,0,0-.233.253c-.012.095.112.119.17.07a.258.258,0,0,1,.133-.072.576.576,0,0,1,.082,0,.185.185,0,0,0,.064-.014c-.013.005.022,0,.033,0A.087.087,0,0,0,737.245,725.267Z" transform="translate(-736.374 -711.534)" fill="#3d7ea3" style="mix-blend-mode: multiply;isolation: isolate"/>
          <path id="Path_426" data-name="Path 426" d="M738.611,728.712a.314.314,0,0,0-.271-.025.424.424,0,0,0-.273.185.12.12,0,0,0,.134.174,1.013,1.013,0,0,0,.243-.113.523.523,0,0,0,.18-.122A.064.064,0,0,0,738.611,728.712Z" transform="translate(-737.477 -714.429)" fill="#3d7ea3" style="mix-blend-mode: multiply;isolation: isolate"/>
        </g>
      </g>
      <g id="Group_128" data-name="Group 128" transform="translate(18.62 13.899)">
        <path id="Path_427" data-name="Path 427" d="M803.163,621.844a.7.7,0,0,1-.7-.63,6.471,6.471,0,0,0-2.148-4.649,5.172,5.172,0,0,0-3.557-1.009.7.7,0,0,1-.193-1.39,6.591,6.591,0,0,1,4.615,1.3,7.8,7.8,0,0,1,2.677,5.61.7.7,0,0,1-.626.769C803.212,621.843,803.187,621.844,803.163,621.844Z" transform="translate(-795.964 -614.132)" fill="#20475e"/>
        <g id="Group_127" data-name="Group 127" transform="translate(4.482 6.458)">
          <path id="Path_428" data-name="Path 428" d="M823.17,649.293c-.513-.068-.568.18-.9.266-.826.218-2,.428-1.913,1.06.164,1.146,1.825.067,1.825.067s-1.112,2.421-.409,2.584,1.215-2.35,1.215-2.35.139,2.722.788,2.672c1.049-.08.054-2.79.054-2.79s1.4.894,1.613.518c.36-.634-1.413-1.239-1.413-1.239S823.683,649.36,823.17,649.293Z" transform="translate(-820.356 -649.281)" fill="#20475e"/>
          <path id="Path_429" data-name="Path 429" d="M828.833,665.635a1.471,1.471,0,0,0,.491-.752c.033-.1-.108-.166-.147-.068a5.9,5.9,0,0,1-.429.75C828.718,665.616,828.789,665.666,828.833,665.635Z" transform="translate(-827.2 -661.922)" fill="#2b5269" style="mix-blend-mode: screen;isolation: isolate"/>
          <path id="Path_430" data-name="Path 430" d="M838.472,669.2a.055.055,0,0,0,.037.1.467.467,0,0,0,.375-.318c.046-.118.018-.279-.13-.279-.037,0-.042.055-.011.069.079.037-.035.215-.061.249A1.323,1.323,0,0,1,838.472,669.2Z" transform="translate(-835.126 -665.133)" fill="#2b5269" style="mix-blend-mode: screen;isolation: isolate"/>
          <path id="Path_431" data-name="Path 431" d="M845.777,658.438c.089.035.245.074.3-.031a.156.156,0,0,0,.016-.074.181.181,0,0,0-.006-.068.108.108,0,0,0-.087-.08.044.044,0,0,0-.043.069c.01.013.006.021.008.031a.151.151,0,0,0-.038.035c-.032.033-.092.032-.139.034A.045.045,0,0,0,845.777,658.438Z" transform="translate(-841.086 -656.549)" fill="#2b5269" style="mix-blend-mode: screen;isolation: isolate"/>
          <path id="Path_432" data-name="Path 432" d="M821.01,653.514a.571.571,0,0,1,.451-.157.029.029,0,0,1,.007.053,1.157,1.157,0,0,0-.391.231c-.1.1-.149.253-.254.35a.043.043,0,0,1-.072-.03A.657.657,0,0,1,821.01,653.514Z" transform="translate(-820.679 -652.603)" fill="#2b5269" style="mix-blend-mode: screen;isolation: isolate"/>
        </g>
      </g>
      <g id="Group_130" data-name="Group 130" transform="translate(0 13.899)">
        <path id="Path_433" data-name="Path 433" d="M704.682,621.844c-.024,0-.048,0-.073,0a.7.7,0,0,1-.626-.769,7.8,7.8,0,0,1,2.677-5.61,6.592,6.592,0,0,1,4.616-1.3.7.7,0,0,1-.19,1.39,5.242,5.242,0,0,0-3.573,1.02,6.483,6.483,0,0,0-2.134,4.638A.7.7,0,0,1,704.682,621.844Z" transform="translate(-702.26 -614.132)" fill="#20475e"/>
        <g id="Group_129" data-name="Group 129" transform="translate(0 6.458)">
          <path id="Path_434" data-name="Path 434" d="M696.95,649.293c.513-.068.568.18.9.266.826.218,2,.428,1.913,1.06-.164,1.146-1.824.067-1.824.067s1.112,2.421.409,2.584-1.215-2.35-1.215-2.35-.139,2.722-.788,2.672c-1.049-.08-.054-2.79-.054-2.79s-1.4.894-1.613.518c-.36-.634,1.413-1.239,1.413-1.239S696.437,649.36,696.95,649.293Z" transform="translate(-694.626 -649.281)" fill="#20475e"/>
          <path id="Path_435" data-name="Path 435" d="M711.5,665.635a1.473,1.473,0,0,1-.491-.752c-.033-.1.108-.166.147-.068a5.93,5.93,0,0,0,.429.75C711.619,665.616,711.548,665.666,711.5,665.635Z" transform="translate(-707.998 -661.922)" fill="#2b5269" style="mix-blend-mode: screen;isolation: isolate"/>
          <path id="Path_436" data-name="Path 436" d="M702.46,669.2a.055.055,0,0,1-.037.1.467.467,0,0,1-.375-.318c-.046-.118-.018-.279.13-.279.037,0,.042.055.012.069-.079.037.034.215.061.249A1.321,1.321,0,0,0,702.46,669.2Z" transform="translate(-700.668 -665.133)" fill="#2b5269" style="mix-blend-mode: screen;isolation: isolate"/>
          <path id="Path_437" data-name="Path 437" d="M695.633,658.438c-.089.035-.245.074-.3-.031a.152.152,0,0,1-.016-.074.177.177,0,0,1,.006-.068.108.108,0,0,1,.087-.08.044.044,0,0,1,.043.069c-.01.013-.006.021-.008.031a.153.153,0,0,1,.038.035c.032.033.092.032.139.034A.045.045,0,0,1,695.633,658.438Z" transform="translate(-695.186 -656.549)" fill="#2b5269" style="mix-blend-mode: screen;isolation: isolate"/>
          <path id="Path_438" data-name="Path 438" d="M718.69,653.514a.57.57,0,0,0-.451-.157.029.029,0,0,0-.007.053,1.158,1.158,0,0,1,.391.231c.1.1.148.253.253.35a.043.043,0,0,0,.073-.03A.658.658,0,0,0,718.69,653.514Z" transform="translate(-713.883 -652.603)" fill="#2b5269" style="mix-blend-mode: screen;isolation: isolate"/>
        </g>
      </g>
      <g id="Group_131" data-name="Group 131" transform="translate(13.499 0)">
        <path id="Path_439" data-name="Path 439" d="M768.412,547.825a.308.308,0,0,1-.306-.271,3.67,3.67,0,0,1,2.677-3.826.309.309,0,0,1,.2.585,3.041,3.041,0,0,0-2.259,3.168.309.309,0,0,1-.271.342Z" transform="translate(-768.094 -542.752)" fill="#20475e"/>
        <circle id="Ellipse_537" data-name="Ellipse 537" cx="1.131" cy="1.131" r="1.131" transform="translate(1.587)" fill="#e64c3c"/>
      </g>
      <path id="Path_440" data-name="Path 440" d="M737.023,571.179a2.989,2.989,0,0,0-.146-.592,4.266,4.266,0,0,0-.21-.509c-.013-.508-.045-1.038-.1-1.581l.012.016a.2.2,0,0,0,.315-.032c.143-.307-.062-.735-.2-1.026a2.977,2.977,0,0,0-.359-.6,18.737,18.737,0,0,0-.623-2.5.229.229,0,0,0,.134-.026c.229-.121-.064-.341-.166-.44-.077-.075-.147-.159-.218-.243-.15-.4-.316-.783-.5-1.159a.211.211,0,0,0,.216-.234c-.056-.235-.381-.469-.575-.647-.077-.071-.158-.139-.24-.206q-.137-.219-.283-.431a7.01,7.01,0,0,0-6.127-3.233c-1.733,0-5.022,1.025-6.529,3.125-.075.059-.147.117-.22.166-.131.088-.264.174-.4.257a1.114,1.114,0,0,0-.376.279.159.159,0,0,0,.17.232.919.919,0,0,0,.291-.074c-.1.178-.2.36-.289.545-.142.112-.285.222-.431.33s-.306.227-.463.338-.316.2-.375.353c-.03.082.056.186.173.178a1.024,1.024,0,0,0,.523-.23c.063-.042.125-.085.186-.129-.15.354-.288.717-.414,1.086-.189.158-.435.336-.49.531-.033.115.1.24.256.2h0a20.025,20.025,0,0,0-.7,3.564,1.715,1.715,0,0,0-.31.457,5.836,5.836,0,0,0-.221.571,1.587,1.587,0,0,0-.179.637.142.142,0,0,0,.207.093.809.809,0,0,0,.413-.466c-.013.377-.015.745,0,1.1-.115.254-.232.508-.353.76-.1.211.209.336.42.261a10.309,10.309,0,0,0,.168,1.08,1.746,1.746,0,0,0,.31,1.837c.086.088.267.04.235-.078-.048-.177-.1-.354-.14-.533a3.8,3.8,0,0,0,1.144,1.24,1.751,1.751,0,0,0,.107.241c.14.26.429.7.826.749.119.014.25-.057.208-.163a.872.872,0,0,0-.256-.295c3.416,1.72,9.689,1.733,12.906.016a2.493,2.493,0,0,0-.173.3c-.059.123.15.184.255.116a2.54,2.54,0,0,0,.926-1.1,3.241,3.241,0,0,0,.69-.835.671.671,0,0,0,.037.261.2.2,0,0,0,.326.033,1.26,1.26,0,0,0,.143-.669,5.3,5.3,0,0,0,0-.713c-.01-.155-.026-.31-.049-.464a13.47,13.47,0,0,0,.139-1.375.5.5,0,0,0,.1.171.156.156,0,0,0,.23,0A.778.778,0,0,0,737.023,571.179Z" transform="translate(-713.839 -554.199)" fill="#20475e"/>
      <g id="Group_132" data-name="Group 132" transform="translate(6.64 4.612)">
        <path id="Path_441" data-name="Path 441" d="M800.721,645.717a4.167,4.167,0,0,1-.479-.205,1.591,1.591,0,0,1-.451-.407c-.038-.05-.123-.006-.087.051a1.339,1.339,0,0,0,.987.673C800.747,645.831,800.777,645.741,800.721,645.717Z" transform="translate(-787.03 -630.109)" fill="#2b5269" style="mix-blend-mode: screen;isolation: isolate"/>
        <path id="Path_442" data-name="Path 442" d="M803.536,630.593a2.391,2.391,0,0,1-.561-.606.041.041,0,0,0-.071.041,1.526,1.526,0,0,0,.585.625C803.526,630.674,803.571,630.621,803.536,630.593Z" transform="translate(-789.644 -617.771)" fill="#2b5269" style="mix-blend-mode: screen;isolation: isolate"/>
        <path id="Path_443" data-name="Path 443" d="M809.892,624.638a1.727,1.727,0,0,0-.532-.309.052.052,0,0,0-.053.09,1.724,1.724,0,0,0,.524.324A.063.063,0,0,0,809.892,624.638Z" transform="translate(-794.856 -613.163)" fill="#2b5269" style="mix-blend-mode: screen;isolation: isolate"/>
        <path id="Path_444" data-name="Path 444" d="M737.309,640.681a3.287,3.287,0,0,1-.511.408c-.175.1-.359.189-.535.291a.063.063,0,0,0,.032.117,1.56,1.56,0,0,0,1.145-.715C737.495,640.7,737.377,640.62,737.309,640.681Z" transform="translate(-735.228 -626.499)" fill="#2b5269" style="mix-blend-mode: screen;isolation: isolate"/>
        <path id="Path_445" data-name="Path 445" d="M733.105,629.632a8.31,8.31,0,0,1-1.087.185c-.069.013-.059.112,0,.13a1.47,1.47,0,0,0,1.133-.205A.06.06,0,0,0,733.105,629.632Z" transform="translate(-731.749 -617.495)" fill="#2b5269" style="mix-blend-mode: screen;isolation: isolate"/>
        <path id="Path_446" data-name="Path 446" d="M787.246,649.057c-.142-.113-.337-.145-.488-.256a1.537,1.537,0,0,1-.413-.5.073.073,0,0,0-.134.056,1.24,1.24,0,0,0,.414.573.847.847,0,0,0,.591.241A.069.069,0,0,0,787.246,649.057Z" transform="translate(-776.02 -632.707)" fill="#2b5269" style="mix-blend-mode: screen;isolation: isolate"/>
        <path id="Path_447" data-name="Path 447" d="M806.777,611.1a.958.958,0,0,0-.349-.243c-.154-.082-.309-.161-.468-.231a.08.08,0,0,0-.08.138c.146.093.3.177.452.258a.973.973,0,0,0,.4.157A.052.052,0,0,0,806.777,611.1Z" transform="translate(-792.046 -601.974)" fill="#2b5269" style="mix-blend-mode: screen;isolation: isolate"/>
        <path id="Path_448" data-name="Path 448" d="M734.2,612.923a3.519,3.519,0,0,1-.789.629.069.069,0,0,0,.053.125,1.467,1.467,0,0,0,.872-.649A.087.087,0,0,0,734.2,612.923Z" transform="translate(-732.897 -603.837)" fill="#2b5269" style="mix-blend-mode: screen;isolation: isolate"/>
        <path id="Path_449" data-name="Path 449" d="M758.107,649.642a4.673,4.673,0,0,1-.9.561.062.062,0,0,0,.031.114,1.486,1.486,0,0,0,.978-.567A.076.076,0,0,0,758.107,649.642Z" transform="translate(-752.324 -633.813)" fill="#2b5269" style="mix-blend-mode: screen;isolation: isolate"/>
        <path id="Path_450" data-name="Path 450" d="M756.257,635.591a3.265,3.265,0,0,0-.728.288c-.065.035-.018.125.048.113a3.3,3.3,0,0,0,.751-.234C756.425,635.715,756.355,635.565,756.257,635.591Z" transform="translate(-750.953 -622.359)" fill="#2b5269" style="mix-blend-mode: screen;isolation: isolate"/>
        <path id="Path_451" data-name="Path 451" d="M806.953,590.24a.643.643,0,0,1-.684-.277c-.053-.1-.2-.013-.152.089.136.305.588.521.863.253C807,590.284,806.987,590.237,806.953,590.24Z" transform="translate(-792.265 -585.08)" fill="#2b5269" style="mix-blend-mode: screen;isolation: isolate"/>
        <path id="Path_452" data-name="Path 452" d="M783.709,563.6a1.366,1.366,0,0,1-.9-.013.046.046,0,0,0-.045.076.73.73,0,0,0,.979-.006A.035.035,0,0,0,783.709,563.6Z" transform="translate(-773.199 -563.589)" fill="#2b5269" style="mix-blend-mode: screen;isolation: isolate"/>
        <path id="Path_453" data-name="Path 453" d="M736.251,586.721a3.259,3.259,0,0,0-1.028.4c-.034.025-.027.09.024.087a3.3,3.3,0,0,0,1.063-.351C736.388,586.825,736.331,586.7,736.251,586.721Z" transform="translate(-734.386 -582.468)" fill="#2b5269" style="mix-blend-mode: screen;isolation: isolate"/>
        <path id="Path_454" data-name="Path 454" d="M731.378,603.687a2.165,2.165,0,0,0-.312.126.887.887,0,0,0-.289.162.048.048,0,0,0,.033.081.67.67,0,0,0,.317-.1,1.08,1.08,0,0,0,.3-.2A.046.046,0,0,0,731.378,603.687Z" transform="translate(-730.763 -596.318)" fill="#2b5269" style="mix-blend-mode: screen;isolation: isolate"/>
      </g>
      <g id="Group_133" data-name="Group 133" transform="translate(8.032 10.923)">
        <path id="Path_455" data-name="Path 455" d="M753.2,601.406a5.138,5.138,0,0,0-5.244-3.47,4.739,4.739,0,0,0-4.981,3.627,16.032,16.032,0,0,1,5.395-.826A18.394,18.394,0,0,1,753.2,601.406Z" transform="translate(-742.121 -597.936)" fill="#142530"/>
        <path id="Path_456" data-name="Path 456" d="M757.852,608.592c-.773.542-1.926.029-3.442-.048-1.315-.067-2.477.707-3.21.22a5.817,5.817,0,0,0,.55-.577,2.356,2.356,0,0,1,2.424-.491l.241.073c.8.244,1.278-.216,2.185-.047A3,3,0,0,1,757.852,608.592Z" transform="translate(-748.838 -605.795)" fill="#df513e"/>
        <path id="Path_457" data-name="Path 457" d="M789.335,607.317a8.18,8.18,0,0,0-.749-2.037c-.3-.261-.908,1.634-.908,1.634a5.631,5.631,0,0,1,.806.157A5.688,5.688,0,0,0,789.335,607.317Z" transform="translate(-778.613 -603.911)" fill="#fff"/>
        <path id="Path_458" data-name="Path 458" d="M742.972,609.054a6.585,6.585,0,0,1,.621-1.914c.3-.261,1.036,1.511,1.036,1.511a5.633,5.633,0,0,0-.806.157A5.684,5.684,0,0,1,742.972,609.054Z" transform="translate(-742.121 -605.427)" fill="#fff"/>
        <path id="Path_459" data-name="Path 459" d="M761.107,607.271s-.411-1.371-.788-1.2-.72,1.2-.72,1.2S760.928,607.272,761.107,607.271Z" transform="translate(-755.693 -604.564)" fill="#fff"/>
        <path id="Path_460" data-name="Path 460" d="M754.089,599.512a4.637,4.637,0,0,0-1.24.621,4.31,4.31,0,0,0,.863.772C753.933,600.984,754.064,599.758,754.089,599.512Z" transform="translate(-750.183 -599.222)" fill="#fff"/>
        <path id="Path_461" data-name="Path 461" d="M781.834,599.98a5.183,5.183,0,0,0-1.246-.563c0,.143.015,1.217.3,1.276C781.141,600.747,781.768,600.053,781.834,599.98Z" transform="translate(-772.826 -599.145)" fill="#fff"/>
        <path id="Path_462" data-name="Path 462" d="M768.857,609.66a.368.368,0,0,0-.431.11.618.618,0,0,0-.129.2.375.375,0,0,0,0,.261.085.085,0,0,0,.166-.022.519.519,0,0,1,.133-.3,1.261,1.261,0,0,1,.264-.174A.049.049,0,0,0,768.857,609.66Z" transform="translate(-762.773 -607.478)" fill="#b84333" style="mix-blend-mode: multiply;isolation: isolate"/>
        <path id="Path_463" data-name="Path 463" d="M744.381,611.935c4.687,0,5.635,1.308,5.674,1.364a.2.2,0,0,1-.331.23c-.019-.025-.951-1.191-5.343-1.191-4.487,0-5.671,1.37-5.682,1.384a.2.2,0,1,1-.311-.256C738.439,613.4,739.705,611.935,744.381,611.935Z" transform="translate(-738.342 -609.363)" fill="#142530"/>
      </g>
      <g id="Group_134" data-name="Group 134" transform="translate(13.701 4.404)">
        <circle id="Ellipse_538" data-name="Ellipse 538" cx="2.127" cy="2.127" r="2.127" transform="translate(0 3.007) rotate(-45)" fill="#fff"/>
        <circle id="Ellipse_539" data-name="Ellipse 539" cx="1.236" cy="1.236" r="1.236" transform="translate(1.771 1.771)" fill="#2b6080"/>
        <path id="Path_464" data-name="Path 464" d="M782.934,575.427a.764.764,0,1,1-.764-.764A.764.764,0,0,1,782.934,575.427Z" transform="translate(-779.162 -572.42)" fill="#0c1b24"/>
        <path id="Path_465" data-name="Path 465" d="M788.465,572.2a.643.643,0,1,1-.643-.643A.643.643,0,0,1,788.465,572.2Z" transform="translate(-783.875 -569.884)" fill="#fff"/>
      </g>
      <g id="Group_135" data-name="Group 135" transform="translate(8.698 4.851)">
        <circle id="Ellipse_540" data-name="Ellipse 540" cx="2.127" cy="2.127" r="2.127" transform="matrix(0.231, -0.973, 0.973, 0.231, 0, 4.138)" fill="#fff"/>
        <circle id="Ellipse_541" data-name="Ellipse 541" cx="1.236" cy="1.236" r="1.236" transform="translate(1.324 1.324)" fill="#2b6080"/>
        <path id="Path_466" data-name="Path 466" d="M753.27,575.427a.764.764,0,1,1-.764-.764A.764.764,0,0,1,753.27,575.427Z" transform="translate(-749.945 -572.867)" fill="#0c1b24"/>
        <path id="Path_467" data-name="Path 467" d="M758.8,572.2a.643.643,0,1,1-.643-.643A.643.643,0,0,1,758.8,572.2Z" transform="translate(-754.659 -570.331)" fill="#fff"/>
      </g>
      <path id="Path_468" data-name="Path 468" d="M779.5,557.638a2.674,2.674,0,0,1-1.678.961,2.9,2.9,0,0,1-1.936-.167.3.3,0,0,1-.017-.506c.219-.209.707.049.948.094a2.067,2.067,0,0,0,1.306-.206c.363-.192.64-.561,1.051-.659C779.522,557.072,779.706,557.353,779.5,557.638Z" transform="translate(-760.836 -553.713)" fill="#62c7cd"/>
      <path id="Path_469" data-name="Path 469" d="M723.311,579.137a1.379,1.379,0,0,1-.46-.634,1.658,1.658,0,0,1-.119-.43l0-.036-.027-.024c-.052-.047-.1-.094-.153-.142a4.749,4.749,0,0,1-1.12-1.72l-.094-.245-.085.235a2.392,2.392,0,0,0-.106.47,1.826,1.826,0,0,0,0,.4,1.426,1.426,0,0,1,.155-1.12l.024-.037-.013-.042a6.851,6.851,0,0,1-.278-1.414l-.176-.028c-.047.11-.091.162-.145.176a.576.576,0,0,1,.094-.265c.022-.042.043-.082.059-.122a1.276,1.276,0,0,1,.117-.229l.017-.025v-.031a14.134,14.134,0,0,1,.089-2.049l.027-.257-.164.162a.939.939,0,0,1,.138-.149l.028-.024,0-.037a24.233,24.233,0,0,1,.808-4L722,567.3l-.189.114a.966.966,0,0,1,.164-.11l.031-.018.011-.035c.032-.1.064-.207.1-.31.152-.47.3-.879.467-1.251l.129-.3-.286.2-.116.079.049-.042a1.638,1.638,0,0,1,.338-.239l.029-.014.014-.029a7.712,7.712,0,0,1,.55-.963l-.132-.122.042-.028a1.925,1.925,0,0,1,.313-.18l.022-.009.015-.019a5.6,5.6,0,0,1,.712-.757,8.656,8.656,0,0,1,1.7-1.212l.074-.038a8.4,8.4,0,0,1,.956-.446l.074-.026a2.643,2.643,0,0,1,.7-.2.292.292,0,0,1,.113.02c-.431.217-1.656.879-1.945,1.057a7.966,7.966,0,0,0-1.636,1.351,8.95,8.95,0,0,0-1.9,3.631,22.87,22.87,0,0,0-.913,4.418,8.961,8.961,0,0,0,.376,4.346,4.856,4.856,0,0,0,.949,1.493,6.041,6.041,0,0,0,.982.782c.116.08.232.16.347.243a1.935,1.935,0,0,1-1.118-.418l-.207-.148.064.246c.009.034.019.069.03.1a1.621,1.621,0,0,0,.24.474c.029.039.06.073.091.107S723.29,579.109,723.311,579.137Zm-.439-14.7a1.9,1.9,0,0,1,.18-.116l.023-.014-.032.022A1.947,1.947,0,0,1,722.872,564.442Z" transform="translate(-715.92 -557.148)" fill="#2b5269" style="mix-blend-mode: screen;isolation: isolate"/>
      <path id="Path_470" data-name="Path 470" d="M762.3,559.808a.351.351,0,0,1-.068-.006l-.013-.031a.629.629,0,0,1,.475-.2.39.39,0,0,1,.226.059.055.055,0,0,1,.024.044.023.023,0,0,1-.015.02.762.762,0,0,1-.28.064l-.065.007c-.036,0-.072.011-.109.017a1.053,1.053,0,0,1-.175.021Z" transform="translate(-749.798 -555.701)" fill="#2b5269" style="mix-blend-mode: screen;isolation: isolate"/>
      <path id="Path_471" data-name="Path 471" d="M742.674,657a.657.657,0,0,1-.167-.033,1.044,1.044,0,0,1-.3-.142c-.011-.007-.013-.013-.011-.023s.009-.017.016-.017a1.53,1.53,0,0,0,.322.122c.029.007.058.012.086.016a.238.238,0,0,1,.134.047.109.109,0,0,1-.08.03Z" transform="translate(-733.454 -635.049)" fill="#2b5269" style="mix-blend-mode: screen;isolation: isolate"/>
      <path id="Path_472" data-name="Path 472" d="M748.3,558.193a3.184,3.184,0,0,1-3.639-.637.3.3,0,0,1,.176-.489c.259-.1.751.421.967.528a2.419,2.419,0,0,0,1.046.24,3.619,3.619,0,0,0,.733-.073c.262-.051.54-.229.787-.052C748.595,557.871,748.514,558.06,748.3,558.193Z" transform="translate(-735.41 -553.642)" fill="#62c7cd"/>
    </g>
    <path id="Path_473" data-name="Path 473" d="M748.751,588.128c-.476-.151-1.015.065-.662.193s.867.434,1.221.255a1.785,1.785,0,0,1,.886-.206,1.034,1.034,0,0,0,.587-.178.118.118,0,0,0-.047-.2,1.058,1.058,0,0,0-.207-.025,1.872,1.872,0,0,0-.357.02A3.709,3.709,0,0,1,748.751,588.128Z" transform="translate(-43.547 -40.383)" fill="#62c7cd"/>
    <path id="Path_474" data-name="Path 474" d="M779.347,588.035a.156.156,0,0,0-.077.03c-.117.091-.014.263.1.3a2.636,2.636,0,0,0,.569.148,2.034,2.034,0,0,1,.334.031,2.1,2.1,0,0,0,.324.094,1.962,1.962,0,0,0,.888-.233c.088-.041.29-.188.122-.25-.216-.08-.425.065-.62.139a1.958,1.958,0,0,1-.9-.009,4.573,4.573,0,0,1-.546-.218A.515.515,0,0,0,779.347,588.035Z" transform="translate(-69.05 -40.441)" fill="#62c7cd"/>
  </g>
</svg>
