<svg xmlns="http://www.w3.org/2000/svg" width="23.804" height="28.773" viewBox="0 0 23.804 28.773">
  <g id="Group_141" data-name="Group 141" transform="translate(-834.742 -97.504)">
    <path id="Path_485" data-name="Path 485" d="M856.436,99.2a29.188,29.188,0,0,0-19.584,0c-6.619,9.953,3.947,26.323,9.574,27.075a7.714,7.714,0,0,0,.436,0C852.49,125.519,863.056,109.149,856.436,99.2Z" fill="#f29b0f"/>
    <path id="Path_486" data-name="Path 486" d="M857.224,103.716a24.94,24.94,0,0,0-16.736,0c-5.656,8.505,3.373,22.494,8.182,23.137a6.565,6.565,0,0,0,.372,0C853.851,126.21,862.881,112.221,857.224,103.716Z" transform="translate(-2.212 -2.674)" fill="#fff"/>
    <path id="Path_487" data-name="Path 487" d="M857.439,104.947a23.788,23.788,0,0,0-15.961,0c-5.394,8.111,3.217,21.452,7.8,22.065a7.194,7.194,0,0,0,.356,0C854.222,126.4,862.833,113.058,857.439,104.947Z" transform="translate(-2.814 -3.402)" fill="#d91e1e"/>
    <path id="Path_488" data-name="Path 488" d="M865.986,104.947a27.323,27.323,0,0,0-7.98-1.379,25.636,25.636,0,0,0-2.894.216,6.809,6.809,0,0,0,.167,3.187,11.128,11.128,0,0,0,2.948,4.605,29,29,0,0,1,2.528,2.583,8.293,8.293,0,0,1,1.559,6.6,10.962,10.962,0,0,1-2.374,4.711c-.413.507-.855.987-1.316,1.451C863.293,125.571,871.212,112.8,865.986,104.947Z" transform="translate(-11.361 -3.402)" fill="#b01010"/>
    <path id="Path_489" data-name="Path 489" d="M856.819,116.975a14.568,14.568,0,0,0-2.17,2.046,48.076,48.076,0,0,0-3.4,4.689c-.96,1.409-2.1,2.89-3.761,3.284-2.1.5-4.166-.944-5.6-2.555a34.386,34.386,0,0,1-2.423-3.168,20.28,20.28,0,0,1-3.37-6.346,16.168,16.168,0,0,1-.413-4.322,25.57,25.57,0,0,1,.919-6.7,5.292,5.292,0,0,0,.333-2.605l-.078.025c-6.619,9.953,3.947,26.323,9.574,27.075a7.733,7.733,0,0,0,.436,0C849.9,127.994,854.385,123.026,856.819,116.975Z" transform="translate(0 -2.13)" fill="#f2750f"/>
    <g id="Group_140" data-name="Group 140" transform="translate(839.484 97.504)">
      <path id="Path_490" data-name="Path 490" d="M862.5,99.2A33.519,33.519,0,0,0,852.7,97.5a32.386,32.386,0,0,0-7.16.945,20.426,20.426,0,0,1,3.905-.281,35.132,35.132,0,0,1,7.926,1.009c1.577.387,3.223.885,4.792.468a23.637,23.637,0,0,1,.8,14.978C864.966,109.529,865.494,103.7,862.5,99.2Z" transform="translate(-845.543 -97.504)" fill="#f2df0f"/>
    </g>
    <path id="Path_491" data-name="Path 491" d="M857.695,123.117a7.255,7.255,0,0,1-.372-1.372,25.665,25.665,0,0,1,2.542-16.659c.05-.094.1-.187.152-.279a23.478,23.478,0,0,0-14.868-.061,11.679,11.679,0,0,1,2.314,4.383,29.232,29.232,0,0,1,.738,15.107,7.831,7.831,0,0,0,4.1,2.776,7.194,7.194,0,0,0,.356,0C854.124,126.816,856,125.322,857.695,123.117Z" transform="translate(-5.838 -3.402)" fill="#f55151"/>
    <path id="Path_492" data-name="Path 492" d="M857.226,103.594q-.323.016-.647.039l-.063.005q-.318.024-.637.057l-.064.006q-.333.035-.666.078l-.038.005a6.812,6.812,0,0,0,.167,3.187,11.128,11.128,0,0,0,2.948,4.605,29,29,0,0,1,2.528,2.583,8.293,8.293,0,0,1,1.559,6.6,10.962,10.962,0,0,1-2.374,4.711c-.413.507-.855.987-1.315,1.45l.021-.006c.057-.017.114-.036.171-.055l.049-.017c.064-.023.129-.048.194-.076l.043-.018c.054-.023.108-.048.163-.074l.058-.028c.064-.031.128-.064.193-.1l.061-.034c.049-.027.1-.055.147-.084l.073-.043q.093-.056.187-.116l.083-.055.125-.085.092-.064q.088-.063.177-.129l.106-.081.1-.076.18-.146.1-.081.13-.111.068-.061q.219-.194.438-.406l.038-.037q.233-.227.465-.475l.011-.012c.38-.406.757-.851,1.126-1.331a7.259,7.259,0,0,1-.372-1.372,25.666,25.666,0,0,1,2.542-16.659c.05-.094.1-.187.152-.279h0c-.136-.042-.271-.082-.407-.121l-.084-.025-.367-.1-.123-.034c-.115-.031-.229-.061-.343-.09l-.146-.038-.325-.08-.164-.04-.31-.071-.177-.039-.3-.063-.188-.038-.288-.055-.2-.036-.279-.049-.209-.034-.27-.042-.218-.032-.261-.036-.228-.029-.251-.03-.24-.025-.239-.024-.253-.022-.227-.018-.273-.018-.206-.013-.314-.014-.166-.008q-.24-.009-.481-.013c-.216,0-.433.011-.65.021Z" transform="translate(-11.361 -3.402)" fill="#d91e1e"/>
    <path id="Path_493" data-name="Path 493" d="M860.14,108.622s-3.431,8.644,0,16.637C860.14,125.259,863.515,118.568,860.14,108.622Z" transform="translate(-13.392 -6.237)" fill="#f2d872"/>
    <path id="Path_494" data-name="Path 494" d="M843.113,125.624s8.644,3.431,16.637,0C859.75,125.624,853.06,122.249,843.113,125.624Z" transform="translate(-4.696 -14.933)" fill="#f2d872"/>
    <path id="Path_495" data-name="Path 495" d="M862.073,108.622l-.013,8.318,1.439-1.491S863.395,111.094,862.073,108.622Z" transform="translate(-15.325 -6.237)" fill="#f2c40f"/>
    <path id="Path_496" data-name="Path 496" d="M860.141,135.887l-.013-8.318-1.512,1.512A18.281,18.281,0,0,0,860.141,135.887Z" transform="translate(-13.393 -16.865)" fill="#f2c40f"/>
    <path id="Path_497" data-name="Path 497" d="M870.378,127.54l-8.318.013,1.513,1.512A21.565,21.565,0,0,0,870.378,127.54Z" transform="translate(-15.325 -16.849)" fill="#f2c40f"/>
    <path id="Path_498" data-name="Path 498" d="M843.113,125.624l8.318.013-1.512-1.512S845.111,124.666,843.113,125.624Z" transform="translate(-4.696 -14.933)" fill="#f2c40f"/>
  </g>
</svg>
