<svg xmlns="http://www.w3.org/2000/svg" width="34.437" height="32.184" viewBox="0 0 34.437 32.184">
  <g id="Group_42" data-name="Group 42" transform="translate(-241.49 -121.316)">
    <g id="Group_41" data-name="Group 41" transform="translate(241.49 121.316)">
      <circle id="Ellipse_486" data-name="Ellipse 486" cx="13.414" cy="13.414" r="13.414" transform="translate(3.708 27.219) rotate(-80.913)" fill="#a66300"/>
      <path id="Path_25" data-name="Path 25" d="M339.278,157.617l-3.89-.341.479,4.311,4.415.221A13.337,13.337,0,0,0,339.278,157.617Z" transform="translate(-307.836 -146.725)" fill="#804e04"/>
      <path id="Path_26" data-name="Path 26" d="M325.5,196.455l-.719,2.155,4.1,1.389a13.478,13.478,0,0,0,2.249-2.973Z" transform="translate(-300.339 -174.408)" fill="#804e04"/>
      <circle id="Ellipse_487" data-name="Ellipse 487" cx="13.414" cy="13.414" r="13.414" transform="matrix(0.225, -0.974, 0.974, 0.225, 0, 26.139)" fill="#ffbc26"/>
      <path id="Path_27" data-name="Path 27" d="M261.5,157.651a13.469,13.469,0,0,0,3.642,3.006l17.774-19.077a13.483,13.483,0,0,0-3.956-3.9Z" transform="translate(-255.626 -132.877)" fill="#ffc673"/>
      <path id="Path_28" data-name="Path 28" d="M252.191,142.826l5.851,1.186,3.592-4.67L260,133.927A13.443,13.443,0,0,0,252.191,142.826Z" transform="translate(-249.051 -130.227)" fill="#fafff3"/>
      <path id="Path_29" data-name="Path 29" d="M284.882,147.708,265.272,165.9a13.411,13.411,0,0,0,19.61-18.188Z" transform="translate(-258.294 -139.964)" fill="#f90"/>
      <circle id="Ellipse_488" data-name="Ellipse 488" cx="9.688" cy="9.688" r="9.688" transform="translate(4.461 23.333) rotate(-76.906)" fill="#bd7100"/>
      <path id="Path_30" data-name="Path 30" d="M280.418,150.34a9.751,9.751,0,0,0-9.9,9.9,9.641,9.641,0,0,0,1.839,5.462.244.244,0,0,0,.054.054,9.639,9.639,0,0,0,5.462,1.839,9.751,9.751,0,0,0,9.9-9.9,9.639,9.639,0,0,0-1.839-5.462.245.245,0,0,0-.053-.053A9.639,9.639,0,0,0,280.418,150.34Z" transform="translate(-261.995 -141.822)" fill="#ff9a14"/>
      <path id="Path_31" data-name="Path 31" d="M291.124,162.11c0-.052-.006-.1-.009-.156,0-.079-.008-.158-.014-.236s-.013-.129-.019-.194-.012-.129-.02-.193-.021-.151-.032-.226c-.008-.052-.014-.1-.022-.156-.013-.079-.028-.157-.043-.235-.009-.048-.017-.1-.026-.143-.017-.082-.036-.163-.055-.245-.01-.042-.018-.085-.029-.127-.021-.087-.045-.173-.069-.26-.01-.036-.018-.071-.028-.107-.026-.091-.055-.181-.084-.271-.009-.03-.018-.06-.027-.089-.031-.093-.064-.184-.1-.275l-.028-.08c-.035-.093-.072-.185-.11-.277-.01-.024-.019-.048-.029-.071-.039-.094-.081-.187-.123-.279l-.028-.062c-.043-.093-.089-.185-.135-.277l-.028-.058c-.047-.092-.1-.183-.147-.274l-.029-.053c-.051-.09-.1-.179-.157-.267l-.031-.052c-.054-.088-.11-.175-.167-.261l-.033-.05c-.056-.084-.114-.167-.173-.249l-.033-.047c-3.329,2.942-10.345,9.385-14.036,12.784.147.243.3.479.47.707q.167.123.341.238l.051.033c.1.063.191.124.288.183l.1.059c.082.049.166.1.249.143l.12.065q.119.064.241.125l.128.063c.081.039.163.077.245.114l.128.057c.09.039.18.075.271.111l.107.043q.383.146.78.26l.124.033c.091.025.183.049.275.071l.154.035c.084.018.168.037.253.053l.165.03c.083.015.167.028.251.041l.167.024c.086.011.173.021.259.03l.162.016c.095.008.19.014.286.02l.139.008q.213.01.429.01a9.688,9.688,0,0,0,9.688-9.688Q291.132,162.307,291.124,162.11Z" transform="translate(-265.352 -146.414)" fill="#d48014"/>
      <path id="Path_32" data-name="Path 32" d="M288.964,149.522,281.3,155.39l2.544,4.076L280.7,164.85l8.383-4.91-2.515-5.269Z" transform="translate(-269.196 -141.246)" fill="#ffbc26"/>
      <path id="Path_33" data-name="Path 33" d="M289.682,150.6l-.718-1.078-2.4,5.149,2.515,5.269-8.383,4.91,1.468.36,8.112-4.791-2.275-5.987Z" transform="translate(-269.196 -141.246)" fill="#a66300"/>
      <path id="Path_34" data-name="Path 34" d="M288.964,149.522l-6.525,6.2,2.459,3.629-4.2,5.5,3.143-5.384L281.3,155.39Z" transform="translate(-269.196 -141.246)" fill="#fafff3"/>
      <path id="Path_35" data-name="Path 35" d="M294.5,169.618l-3.08,7.59,5.238-3.068Z" transform="translate(-276.768 -155.445)" fill="#ffc673"/>
    </g>
  </g>
</svg>
