<svg xmlns="http://www.w3.org/2000/svg" xmlns:xlink="http://www.w3.org/1999/xlink" width="25.225" height="24.796" viewBox="0 0 25.225 24.796">
  <defs>
    <linearGradient id="linear-gradient" y1="0.5" x2="1" y2="0.5" gradientUnits="objectBoundingBox">
      <stop offset="0" stop-color="#d57738"/>
      <stop offset="0.229" stop-color="#c7682e"/>
      <stop offset="0.666" stop-color="#a54115"/>
      <stop offset="1" stop-color="#872000"/>
    </linearGradient>
    <linearGradient id="linear-gradient-2" y1="0.5" x2="1" y2="0.5" gradientUnits="objectBoundingBox">
      <stop offset="0" stop-color="#872000"/>
      <stop offset="0.334" stop-color="#a54115"/>
      <stop offset="0.771" stop-color="#c7682e"/>
      <stop offset="1" stop-color="#d57738"/>
    </linearGradient>
    <linearGradient id="linear-gradient-4" y1="0.5" x2="1" y2="0.5" gradientUnits="objectBoundingBox">
      <stop offset="0" stop-color="#eba950"/>
      <stop offset="0.291" stop-color="#d0843a"/>
      <stop offset="0.935" stop-color="#8e2905"/>
      <stop offset="1" stop-color="#872000"/>
    </linearGradient>
    <linearGradient id="linear-gradient-5" y1="0.5" x2="1" y2="0.5" gradientUnits="objectBoundingBox">
      <stop offset="0.003" stop-color="#ffc138"/>
      <stop offset="0.588" stop-color="#ea9f14"/>
      <stop offset="1" stop-color="#de8d00"/>
    </linearGradient>
    <linearGradient id="linear-gradient-8" y1="0.5" x2="1" y2="0.5" gradientUnits="objectBoundingBox">
      <stop offset="0" stop-color="#a33900"/>
      <stop offset="0.217" stop-color="#af4d06"/>
      <stop offset="0.66" stop-color="#cf8216"/>
      <stop offset="0.997" stop-color="#ebae24"/>
    </linearGradient>
    <linearGradient id="linear-gradient-12" y1="0.5" x2="1" y2="0.5" gradientUnits="objectBoundingBox">
      <stop offset="0" stop-color="#fdff42"/>
      <stop offset="1" stop-color="#fbc403"/>
    </linearGradient>
    <linearGradient id="linear-gradient-19" y1="0.5" x2="1" y2="0.5" gradientUnits="objectBoundingBox">
      <stop offset="0" stop-color="#7cbede"/>
      <stop offset="0.12" stop-color="#8fc5de"/>
      <stop offset="0.366" stop-color="#b0d3e0"/>
      <stop offset="0.601" stop-color="#c8dde1"/>
      <stop offset="0.818" stop-color="#d6e2e1"/>
      <stop offset="1" stop-color="#dce5e2"/>
    </linearGradient>
    <linearGradient id="linear-gradient-20" y1="0.5" x2="1" y2="0.5" gradientUnits="objectBoundingBox">
      <stop offset="0" stop-color="#cbe5e0"/>
      <stop offset="0.341" stop-color="#a9d4df"/>
      <stop offset="0.736" stop-color="#88c4de"/>
      <stop offset="0.953" stop-color="#7cbede"/>
    </linearGradient>
  </defs>
  <g id="Group_714" data-name="Group 714" transform="translate(-167.86 -160.777)">
    <g id="Group_714-2" data-name="Group 714" transform="translate(169.652 170.993)">
      <path id="Path_3060" data-name="Path 3060" d="M216.73,315.968l-3.6,9.722h0l-.018.048-.987,2.669-.155.42-.1.263-.379,1.025a.4.4,0,0,1-.471.25l-5.519-1.358-9.7-2.388h0a4.755,4.755,0,0,1-.562-.886h0a4.141,4.141,0,0,1-.167-.387.8.8,0,0,0,.544.48l.01,0,9.995,2.46.157.038,4.362,1.074.006,0,.828.2.295-.8a.028.028,0,0,0,0-.007l1.191-3.222.056-.151,3.513-9.5.328.08a.546.546,0,0,0,.135.017A.552.552,0,0,0,216.73,315.968Z" transform="translate(-195.07 -315.926)" fill="url(#linear-gradient)"/>
      <path id="Path_3061" data-name="Path 3061" d="M216.73,315.968l-3.6,9.722h0l-.018.048-.987,2.669-.155.42-.1.263-.379,1.025a.4.4,0,0,1-.471.25l-5.519-1.358-9.7-2.388h0a4.755,4.755,0,0,1-.562-.886h0a4.141,4.141,0,0,1-.167-.387.8.8,0,0,0,.544.48l.01,0,9.995,2.46.157.038,4.362,1.074.006,0,.828.2.295-.8a.028.028,0,0,0,0-.007l1.191-3.222.056-.151,3.513-9.5.328.08a.546.546,0,0,0,.135.017A.552.552,0,0,0,216.73,315.968Z" transform="translate(-195.07 -315.926)" fill="url(#linear-gradient-2)" style="mix-blend-mode: multiply;isolation: isolate"/>
    </g>
    <path id="Path_3062" data-name="Path 3062" d="M190.84,165.022l-.256.693h0l-.021.055-.275.742-.815,2.2c0,.006,0,.011-.006.016l-.13.351h0l-.414,1.116h0l-3.007,8.125-.765,2.068-.787,2.125a.4.4,0,0,1-.471.25h0l-5.233-1.287-8.71-2.143-1.545-.38-.01,0a.714.714,0,0,1-.522-.82.725.725,0,0,1,.033-.119l5.869-15.861.166-.447a1.428,1.428,0,0,1,1.68-.891l9.781,2.407h0l.356.088.011,0,4.62,1.136.171.042A.4.4,0,0,1,190.84,165.022Z" fill="url(#linear-gradient)"/>
    <path id="Path_3063" data-name="Path 3063" d="M185.266,188.84l5.285-14.352a.919.919,0,0,1,1.082-.577l9.17,2.268.341.085h0l3.085.763a.925.925,0,0,1,.643,1.219l-.021.058-.815,2.214-.1.258-.443,1.2h0l-3.91,10.619a.919.919,0,0,1-1.082.577l-12.6-3.115A.925.925,0,0,1,185.266,188.84Z" transform="translate(-16.206 -12.244)" opacity="0.7" fill="url(#linear-gradient-4)" style="mix-blend-mode: screen;isolation: isolate"/>
    <path id="Path_3064" data-name="Path 3064" d="M196.89,203.648l-1-.246a.335.335,0,0,1-.283-.421l5.278-14.261a.44.44,0,0,1,.522-.223l1,.246a.335.335,0,0,1,.283.421l-5.278,14.261A.44.44,0,0,1,196.89,203.648Z" transform="translate(-25.905 -25.881)" fill="#fff" opacity="0.75" style="mix-blend-mode: screen;isolation: isolate"/>
    <path id="Path_3065" data-name="Path 3065" d="M515.823,235.167a.727.727,0,0,1-.026.094l-.589,1.594-.864,2.333a.562.562,0,0,1-.287.312.552.552,0,0,1-.239.054.544.544,0,0,1-.135-.017l-.328-.08.056-.151.746-2.02a.4.4,0,0,0,.007-.256l-.78-2.541h0l.072-.2.021-.055.006-.018.056-.151,1.863.458a.553.553,0,0,1,.279.165c.009.009.016.018.024.028l.008.01a.578.578,0,0,1,.049.075A.564.564,0,0,1,515.823,235.167Z" transform="translate(-322.746 -68.464)" fill="url(#linear-gradient-5)"/>
    <path id="Path_3066" data-name="Path 3066" d="M360.447,460.846l-1.049,2.835-.1.264-.367.992a.563.563,0,0,1-.526.367.547.547,0,0,1-.135-.017L353.033,464a.4.4,0,0,1-.28-.528l.142-.384.157.038,5.2,1.279,1.489-4.027.056-.151.374.092a.4.4,0,0,1,.241.171h0A.4.4,0,0,1,360.447,460.846Z" transform="translate(-172.695 -279.731)" fill="url(#linear-gradient-5)"/>
    <path id="Path_3067" data-name="Path 3067" d="M278.03,249.463l-5.961,3.673a.4.4,0,0,0-.158.5l2.441,5.669a.4.4,0,0,0,.578.183l5.961-3.673a.4.4,0,0,0,.158-.5l-2.441-5.669A.4.4,0,0,0,278.03,249.463Z" transform="translate(-97.168 -82.79)" fill="url(#linear-gradient)" style="mix-blend-mode: multiply;isolation: isolate"/>
    <path id="Path_3068" data-name="Path 3068" d="M292.546,265.826l-1.83,3.214-3.22-.1Z" transform="translate(-111.758 -98.132)" fill="#ed3038"/>
    <path id="Path_3069" data-name="Path 3069" d="M340.321,270.695l-3.926-1.655,1.83-3.214Z" transform="translate(-157.437 -98.132)" fill="#ed3038"/>
    <path id="Path_3070" data-name="Path 3070" d="M324.384,316.285l-5.049,3.111,1.123-4.767Z" transform="translate(-141.5 -143.722)" fill="#ed3038"/>
    <path id="Path_3071" data-name="Path 3071" d="M290.716,313.174l-1.123,4.767-2.1-4.869Z" transform="translate(-111.758 -142.266)" fill="#ed3038"/>
    <path id="Path_3072" data-name="Path 3072" d="M515.823,235.167a.727.727,0,0,1-.026.094l-.589,1.594-.864,2.333a.562.562,0,0,1-.287.312.552.552,0,0,1-.239.054.544.544,0,0,1-.135-.017l-.328-.08.056-.151.746-2.02a.4.4,0,0,0,.007-.256l-.78-2.541h0l.072-.2.021-.055.006-.018.056-.151,1.863.458a.553.553,0,0,1,.279.165c.009.009.016.018.024.028l.008.01a.578.578,0,0,1,.049.075A.564.564,0,0,1,515.823,235.167Z" transform="translate(-322.746 -68.464)" fill="url(#linear-gradient-8)"/>
    <path id="Path_3073" data-name="Path 3073" d="M360.447,460.846l-1.049,2.835-.1.264-.367.992a.563.563,0,0,1-.526.367.547.547,0,0,1-.135-.017L353.033,464a.4.4,0,0,1-.28-.528l.142-.384.157.038,4.362,1.073a.961.961,0,0,0,1.132-.6l1.191-3.221.056-.151.374.092a.4.4,0,0,1,.241.171h0A.4.4,0,0,1,360.447,460.846Z" transform="translate(-172.695 -279.731)" fill="url(#linear-gradient-8)"/>
    <path id="Path_3074" data-name="Path 3074" d="M190.84,217.155l-.256.693h0l-.021.055-.275.742-.815,2.2c0,.006,0,.011-.006.016l-.13.351h0l-.414,1.116h0l-3.007,8.125-.765,2.068-.787,2.125a.4.4,0,0,1-.471.25h0l-5.233-1.287-8.706-2.142h0l-.587-.145-.969-.238a.714.714,0,0,1-.522-.82l1.118.275,9.766,2.4,4.764,1.172h0a.4.4,0,0,0,.471-.25l.787-2.126.569-1.538,3.2-8.655h0l.135-.365.409-1.1c0-.005,0-.011.006-.016l.815-2.2.275-.742.021-.056h0l.178-.48.171.042A.4.4,0,0,1,190.84,217.155Z" transform="translate(0 -52.133)" fill="url(#linear-gradient)" style="mix-blend-mode: multiply;isolation: isolate"/>
    <g id="Group_715" data-name="Group 715" transform="translate(178.608 177.71)">
      <path id="Path_3075" data-name="Path 3075" d="M338.39,418.549a.4.4,0,0,0-.24-.171l-.329-.081-1.4-.344a.686.686,0,0,0-.162-.019.57.57,0,0,0-.548.342l-.7,1.894a.261.261,0,0,1-.248.133.343.343,0,0,1-.086-.01l-2.366-.582a.65.65,0,0,0-.163-.02.571.571,0,0,0-.548.343l-.372,1-.123.334a.4.4,0,0,0,.28.528l4.952,1.219a.584.584,0,0,0,.135.016.563.563,0,0,0,.526-.366l1.429-3.863A.4.4,0,0,0,338.39,418.549Zm-1.9.528a.4.4,0,0,1,.473-.2.3.3,0,0,1,.256.381.4.4,0,0,1-.473.2A.3.3,0,0,1,336.493,419.077Zm-4.261,1.822a.4.4,0,0,1,.472-.2.3.3,0,0,1,.256.381.4.4,0,0,1-.472.2A.3.3,0,0,1,332.232,420.9Z" transform="translate(-331.082 -417.934)" fill="url(#linear-gradient-5)"/>
      <path id="Path_3076" data-name="Path 3076" d="M338.748,425.247a.426.426,0,0,1-.1-.012l-4.951-1.218a.236.236,0,0,1-.153-.117.239.239,0,0,1-.015-.2l.123-.334.372-1a.411.411,0,0,1,.4-.238.493.493,0,0,1,.123.015l2.368.582a.5.5,0,0,0,.124.015.417.417,0,0,0,.4-.237l.7-1.895a.41.41,0,0,1,.4-.237.524.524,0,0,1,.124.015l1.726.424a.241.241,0,0,1,.144.1.237.237,0,0,1,.023.213l-1.43,3.863A.4.4,0,0,1,338.748,425.247Zm-3.882-2.451a.531.531,0,0,0-.51.32.407.407,0,0,0,.023.337.527.527,0,0,0,.345.256.625.625,0,0,0,.15.018.531.531,0,0,0,.51-.32.407.407,0,0,0-.023-.336.527.527,0,0,0-.345-.256A.631.631,0,0,0,334.866,422.8Zm4.262-1.822a.533.533,0,0,0-.511.32.41.41,0,0,0,.024.338.528.528,0,0,0,.344.255.639.639,0,0,0,.15.018.531.531,0,0,0,.512-.321.409.409,0,0,0-.024-.337.525.525,0,0,0-.345-.254A.627.627,0,0,0,339.128,420.974Z" transform="translate(-333.356 -420.207)" opacity="0.57" fill="url(#linear-gradient-12)" style="mix-blend-mode: screen;isolation: isolate"/>
      <path id="Path_3077" data-name="Path 3077" d="M413.767,432.417a.4.4,0,0,1-.473.2.3.3,0,0,1-.256-.381.4.4,0,0,1,.473-.2A.3.3,0,0,1,413.767,432.417Z" transform="translate(-407.627 -431.096)" fill="url(#linear-gradient)" style="mix-blend-mode: multiply;isolation: isolate"/>
      <path id="Path_3078" data-name="Path 3078" d="M349.045,460.085a.4.4,0,0,1-.472.2.3.3,0,0,1-.256-.381.4.4,0,0,1,.472-.2A.3.3,0,0,1,349.045,460.085Z" transform="translate(-347.167 -456.941)" fill="url(#linear-gradient)" style="mix-blend-mode: multiply;isolation: isolate"/>
    </g>
    <path id="Path_3079" data-name="Path 3079" d="M429.41,198.237a.561.561,0,0,0-.361-.281l-1.954-.481-2.84-.7-.026,0a.577.577,0,0,0-.091-.007.556.556,0,0,0-.285.078h0a.567.567,0,0,0-.24.288l-.465,1.255a.437.437,0,0,0,.026.359.562.562,0,0,0,.369.272l2.367.582a.252.252,0,0,1,.164.113.115.115,0,0,1,.007.1l-.7,1.894a.437.437,0,0,0,.026.359.562.562,0,0,0,.369.272l1.363.336.278.068a.546.546,0,0,0,.372-.038h0a.541.541,0,0,0,.147-.1.556.556,0,0,0,.13-.186l.01-.026.925-2.5h0l.091-.246h0l.072-.2.021-.055.006-.018.056-.151.194-.525A.562.562,0,0,0,429.41,198.237Zm-4.437-.076a.4.4,0,0,1-.472.2.3.3,0,0,1-.257-.381.4.4,0,0,1,.473-.2A.3.3,0,0,1,424.973,198.161Zm1.842,3.642a.3.3,0,0,1-.256-.381.4.4,0,0,1,.473-.2.3.3,0,0,1,.256.381A.4.4,0,0,1,426.815,201.8Z" transform="translate(-238.45 -33.618)" fill="url(#linear-gradient-5)"/>
    <path id="Path_3080" data-name="Path 3080" d="M475.867,264.624a.4.4,0,0,1-.473.2.3.3,0,0,1-.256-.381.4.4,0,0,1,.473-.2A.3.3,0,0,1,475.867,264.624Z" transform="translate(-287.029 -96.64)" fill="url(#linear-gradient)" style="mix-blend-mode: multiply;isolation: isolate"/>
    <path id="Path_3081" data-name="Path 3081" d="M440.717,212.379a.4.4,0,0,1-.472.2.3.3,0,0,1-.257-.381.4.4,0,0,1,.473-.2A.3.3,0,0,1,440.717,212.379Z" transform="translate(-254.193 -47.836)" fill="url(#linear-gradient)" style="mix-blend-mode: multiply;isolation: isolate"/>
    <path id="Path_3082" data-name="Path 3082" d="M430.955,205.924a.3.3,0,0,1-.074-.009l-.28-.069-1.362-.336a.323.323,0,0,1-.214-.152.2.2,0,0,1-.012-.164l.7-1.893a.357.357,0,0,0-.02-.292.489.489,0,0,0-.32-.235l-2.366-.582a.324.324,0,0,1-.214-.152.2.2,0,0,1-.012-.163l.464-1.255a.327.327,0,0,1,.127-.158l.011-.007a.318.318,0,0,1,.162-.045.334.334,0,0,1,.053,0l.015,0,2.833.7,1.954.481a.319.319,0,0,1,.223.422l-.257.7-.02.053-.088.239-.091.246h0l-.91,2.459-.006.015a.315.315,0,0,1-.074.105.306.306,0,0,1-.081.056l-.031.014A.3.3,0,0,1,430.955,205.924Zm-.628-1.549a.613.613,0,0,0-.586.372.489.489,0,0,0,.028.4.607.607,0,0,0,.4.3.714.714,0,0,0,.17.021.611.611,0,0,0,.586-.373.488.488,0,0,0-.028-.4.607.607,0,0,0-.4-.3A.708.708,0,0,0,430.327,204.376Zm-2.315-3.44a.613.613,0,0,0-.586.372.488.488,0,0,0,.028.4.607.607,0,0,0,.4.3.708.708,0,0,0,.17.021.611.611,0,0,0,.585-.373.486.486,0,0,0-.027-.4.608.608,0,0,0-.4-.3A.71.71,0,0,0,428.013,200.936Z" transform="translate(-241.858 -37.027)" opacity="0.57" fill="url(#linear-gradient-12)" style="mix-blend-mode: screen;isolation: isolate"/>
    <g id="Group_716" data-name="Group 716" transform="translate(169.456 166.024)">
      <path id="Path_3083" data-name="Path 3083" d="M214.051,243.265l-.746,2.02-.056.151-3.513,9.5-.056.151-1.191,3.221a.961.961,0,0,1-1.132.6L203,257.837l-.157-.038-9.995-2.46a.8.8,0,0,1-.553-.482c-.016-.04-.031-.079-.043-.113a4.7,4.7,0,0,1-.143-.485.4.4,0,0,1,.487-.477l8.705,2.142a.4.4,0,0,0,.255.195l4.952,1.219a.584.584,0,0,0,.135.016.563.563,0,0,0,.526-.366l1.429-3.863a.4.4,0,0,0-.039-.356l3.007-8.125h0l.413-1.117h0a.541.541,0,0,0,.147-.1.556.556,0,0,0,.13-.186l.01-.026.925-2.5h0l.091-.246.78,2.541A.4.4,0,0,1,214.051,243.265Z" transform="translate(-192.094 -240.467)" fill="url(#linear-gradient-19)"/>
      <path id="Path_3084" data-name="Path 3084" d="M214.06,243.008l-.78-2.541-.091.246h0l-.874,2.362-.04.107-.011.03-.01.026a.556.556,0,0,1-.13.186.541.541,0,0,1-.147.1h0l-.413,1.117h0l-3.007,8.125a.4.4,0,0,1,.039.356l-1.429,3.863a.564.564,0,0,1-.439.36.625.625,0,0,1-.087.006.584.584,0,0,1-.135-.016l-4.952-1.219a.4.4,0,0,1-.255-.195l-8.706-2.142h0a.4.4,0,0,0-.483.473s0,0,0,0a4.751,4.751,0,0,0,.143.485c.009.026.019.053.03.083,0,.01.007.02.012.03a.8.8,0,0,0,.544.48l.01,0,9.995,2.46.157.038,4.362,1.074.006,0a.962.962,0,0,0,1.122-.595.028.028,0,0,0,0-.007l1.191-3.222.056-.151,3.513-9.5.056-.151.746-2.02A.4.4,0,0,0,214.06,243.008Zm-.232.172-.8,2.172-4.685,12.674a.962.962,0,0,1-1.132.6l-14.222-3.5a.728.728,0,0,1-.51-.462.416.416,0,0,1,.493-.542l8.184,2.013a.643.643,0,0,0,.344.217l4.951,1.218a.8.8,0,0,0,.192.023.749.749,0,0,0,.113-.009h0a.8.8,0,0,0,.636-.514l1.429-3.862a.626.626,0,0,0,0-.454s2.382-6.181,3.658-9.5l.041-.107c.422-1.094.713-1.854.743-1.933l.571,1.862A.158.158,0,0,1,213.828,243.181Z" transform="translate(-192.096 -240.467)" fill="url(#linear-gradient-20)" style="mix-blend-mode: multiply;isolation: isolate"/>
    </g>
    <path id="Path_3085" data-name="Path 3085" d="M292.546,265.826l-1.83,3.214-3.22-.1Z" transform="translate(-111.758 -98.132)" fill="#ffb7b0"/>
    <path id="Path_3086" data-name="Path 3086" d="M290.716,313.174l-1.123,4.767-2.1-4.869Z" transform="translate(-111.758 -142.266)" fill="#ec5648"/>
    <path id="Path_3087" data-name="Path 3087" d="M324.384,316.285l-5.049,3.111,1.123-4.767Z" transform="translate(-141.5 -143.722)" fill="#ab0a09"/>
    <g id="Group_717" data-name="Group 717" transform="translate(182.523 164.444)">
      <path id="Path_3088" data-name="Path 3088" d="M485.36,216.487c.022-.063.486.049.592.074.569.137.853.2.942.4.043.093.029.169-.221.861-.225.623-.27.717-.3.711-.079-.015-.047-.556-.043-.609.029-.46.121-.554.038-.723-.032-.065-.072-.1-.488-.364S485.349,216.521,485.36,216.487Z" transform="translate(-479.116 -216.468)" fill="#fff" opacity="0.75" style="mix-blend-mode: screen;isolation: isolate"/>
      <path id="Path_3089" data-name="Path 3089" d="M392.7,462.113a3.56,3.56,0,0,1-.209.9c-.2.693-.269.778-.364.829-.051.028-.157.07-.878-.137-.258-.074-.725-.214-.713-.273,0-.011.023-.032.737-.025a1.06,1.06,0,0,0,.565-.069.8.8,0,0,0,.288-.316A6.3,6.3,0,0,1,392.7,462.113Z" transform="translate(-390.539 -445.937)" fill="#fff" opacity="0.75" style="mix-blend-mode: screen;isolation: isolate"/>
    </g>
    <g id="Group_718" data-name="Group 718" transform="translate(167.881 178.434)">
      <path id="Path_3090" data-name="Path 3090" d="M170.679,432.18a3.668,3.668,0,0,1-1.6-1.046,3.724,3.724,0,0,1-.9-2.207.712.712,0,0,0,.513.522l.01,0,1.544.379a.4.4,0,0,0-.482.474s0,0,0,0a4.89,4.89,0,0,0,.143.485c.009.025.019.053.031.082a4.381,4.381,0,0,0,.178.418h0A4.744,4.744,0,0,0,170.679,432.18Z" transform="translate(-168.179 -428.927)" fill="url(#linear-gradient)"/>
      <path id="Path_3091" data-name="Path 3091" d="M170.679,432.18a3.668,3.668,0,0,1-1.6-1.046,3.724,3.724,0,0,1-.9-2.207.712.712,0,0,0,.513.522l.01,0,1.544.379a.4.4,0,0,0-.482.474s0,0,0,0a4.89,4.89,0,0,0,.143.485c.009.025.019.053.031.082a4.381,4.381,0,0,0,.178.418h0A4.744,4.744,0,0,0,170.679,432.18Z" transform="translate(-168.179 -428.927)" fill="url(#linear-gradient)" style="mix-blend-mode: multiply;isolation: isolate"/>
    </g>
  </g>
</svg>
