<svg xmlns="http://www.w3.org/2000/svg" width="414" height="41" viewBox="0 0 414 41">
  <g id="Group_7693" data-name="Group 7693" transform="translate(0 -141)">
    <path id="Rectangle_35466" data-name="Rectangle 35466" d="M0,0H25A16,16,0,0,1,41,16v0A16,16,0,0,1,25,32H0a0,0,0,0,1,0,0V0A0,0,0,0,1,0,0Z" transform="translate(255 141) rotate(90)" fill="#f51000"/>
    <path id="Rectangle_35479" data-name="Rectangle 35479" d="M0,0H25A16,16,0,0,1,41,16v0A16,16,0,0,1,25,32H0a0,0,0,0,1,0,0V0A0,0,0,0,1,0,0Z" transform="translate(64 141) rotate(90)" fill="#f51000"/>
    <path id="Rectangle_35471" data-name="Rectangle 35471" d="M0,0H25.5A15.5,15.5,0,0,1,41,15.5v0A15.5,15.5,0,0,1,25.5,31H0a0,0,0,0,1,0,0V0A0,0,0,0,1,0,0Z" transform="translate(318 141) rotate(90)" fill="#f51000"/>
    <path id="Rectangle_35477" data-name="Rectangle 35477" d="M0,0H25.5A15.5,15.5,0,0,1,41,15.5v0A15.5,15.5,0,0,1,25.5,31H0a0,0,0,0,1,0,0V0A0,0,0,0,1,0,0Z" transform="translate(127 141) rotate(90)" fill="#f51000"/>
    <path id="Rectangle_35473" data-name="Rectangle 35473" d="M0,0H25A16,16,0,0,1,41,16v0A16,16,0,0,1,25,32H0a0,0,0,0,1,0,0V0A0,0,0,0,1,0,0Z" transform="translate(382 141) rotate(90)" fill="#f51000"/>
    <path id="Rectangle_35474" data-name="Rectangle 35474" d="M0,0H25A16,16,0,0,1,41,16v0A16,16,0,0,1,25,32H0a0,0,0,0,1,0,0V0A0,0,0,0,1,0,0Z" transform="translate(191 141) rotate(90)" fill="#f51000"/>
    <path id="Rectangle_35467" data-name="Rectangle 35467" d="M0,0H25A16,16,0,0,1,41,16v0A16,16,0,0,1,25,32H0a0,0,0,0,1,0,0V0A0,0,0,0,1,0,0Z" transform="translate(287 141) rotate(90)" fill="#d30e00"/>
    <path id="Rectangle_35478" data-name="Rectangle 35478" d="M0,0H25A16,16,0,0,1,41,16v0A16,16,0,0,1,25,32H0a0,0,0,0,1,0,0V0A0,0,0,0,1,0,0Z" transform="translate(96 141) rotate(90)" fill="#d30e00"/>
    <path id="Rectangle_35480" data-name="Rectangle 35480" d="M0,0H25A16,16,0,0,1,41,16v0A16,16,0,0,1,25,32H0a0,0,0,0,1,0,0V0A0,0,0,0,1,0,0Z" transform="translate(32 141) rotate(90)" fill="#d30e00"/>
    <path id="Rectangle_35470" data-name="Rectangle 35470" d="M0,0H25A16,16,0,0,1,41,16v0A16,16,0,0,1,25,32H0a0,0,0,0,1,0,0V0A0,0,0,0,1,0,0Z" transform="translate(350 141) rotate(90)" fill="#d30e00"/>
    <path id="Rectangle_35476" data-name="Rectangle 35476" d="M0,0H25A16,16,0,0,1,41,16v0A16,16,0,0,1,25,32H0a0,0,0,0,1,0,0V0A0,0,0,0,1,0,0Z" transform="translate(159 141) rotate(90)" fill="#d30e00"/>
    <path id="Rectangle_35472" data-name="Rectangle 35472" d="M0,0H25A16,16,0,0,1,41,16v0A16,16,0,0,1,25,32H0a0,0,0,0,1,0,0V0A0,0,0,0,1,0,0Z" transform="translate(414 141) rotate(90)" fill="#d30e00"/>
    <path id="Rectangle_35475" data-name="Rectangle 35475" d="M0,0H25A16,16,0,0,1,41,16v0A16,16,0,0,1,25,32H0a0,0,0,0,1,0,0V0A0,0,0,0,1,0,0Z" transform="translate(223 141) rotate(90)" fill="#d30e00"/>
  </g>
</svg>
