<svg xmlns="http://www.w3.org/2000/svg" width="2335" height="41" viewBox="0 0 2335 41">
  <g id="Group_7715" data-name="Group 7715" transform="translate(-5086 -1107)">
    <g id="Group_7709" data-name="Group 7709" transform="translate(5468 966)">
      <path id="Rectangle_35466" data-name="Rectangle 35466" d="M0,0H25A16,16,0,0,1,41,16v0A16,16,0,0,1,25,32H0a0,0,0,0,1,0,0V0A0,0,0,0,1,0,0Z" transform="translate(255 141) rotate(90)" fill="#f51000"/>
      <path id="Rectangle_35479" data-name="Rectangle 35479" d="M0,0H25A16,16,0,0,1,41,16v0A16,16,0,0,1,25,32H0a0,0,0,0,1,0,0V0A0,0,0,0,1,0,0Z" transform="translate(64 141) rotate(90)" fill="#f51000"/>
      <path id="Rectangle_35471" data-name="Rectangle 35471" d="M0,0H25.5A15.5,15.5,0,0,1,41,15.5v0A15.5,15.5,0,0,1,25.5,31H0a0,0,0,0,1,0,0V0A0,0,0,0,1,0,0Z" transform="translate(318 141) rotate(90)" fill="#f51000"/>
      <path id="Rectangle_35477" data-name="Rectangle 35477" d="M0,0H25.5A15.5,15.5,0,0,1,41,15.5v0A15.5,15.5,0,0,1,25.5,31H0a0,0,0,0,1,0,0V0A0,0,0,0,1,0,0Z" transform="translate(127 141) rotate(90)" fill="#f51000"/>
      <path id="Rectangle_35473" data-name="Rectangle 35473" d="M0,0H25A16,16,0,0,1,41,16v0A16,16,0,0,1,25,32H0a0,0,0,0,1,0,0V0A0,0,0,0,1,0,0Z" transform="translate(382 141) rotate(90)" fill="#f51000"/>
      <path id="Rectangle_35474" data-name="Rectangle 35474" d="M0,0H25A16,16,0,0,1,41,16v0A16,16,0,0,1,25,32H0a0,0,0,0,1,0,0V0A0,0,0,0,1,0,0Z" transform="translate(191 141) rotate(90)" fill="#f51000"/>
      <path id="Rectangle_35467" data-name="Rectangle 35467" d="M0,0H25A16,16,0,0,1,41,16v0A16,16,0,0,1,25,32H0a0,0,0,0,1,0,0V0A0,0,0,0,1,0,0Z" transform="translate(287 141) rotate(90)" fill="#d30e00"/>
      <path id="Rectangle_35478" data-name="Rectangle 35478" d="M0,0H25A16,16,0,0,1,41,16v0A16,16,0,0,1,25,32H0a0,0,0,0,1,0,0V0A0,0,0,0,1,0,0Z" transform="translate(96 141) rotate(90)" fill="#d30e00"/>
      <path id="Rectangle_35480" data-name="Rectangle 35480" d="M0,0H25A16,16,0,0,1,41,16v0A16,16,0,0,1,25,32H0a0,0,0,0,1,0,0V0A0,0,0,0,1,0,0Z" transform="translate(32 141) rotate(90)" fill="#d30e00"/>
      <path id="Rectangle_35470" data-name="Rectangle 35470" d="M0,0H25A16,16,0,0,1,41,16v0A16,16,0,0,1,25,32H0a0,0,0,0,1,0,0V0A0,0,0,0,1,0,0Z" transform="translate(350 141) rotate(90)" fill="#d30e00"/>
      <path id="Rectangle_35476" data-name="Rectangle 35476" d="M0,0H25A16,16,0,0,1,41,16v0A16,16,0,0,1,25,32H0a0,0,0,0,1,0,0V0A0,0,0,0,1,0,0Z" transform="translate(159 141) rotate(90)" fill="#d30e00"/>
      <path id="Rectangle_35472" data-name="Rectangle 35472" d="M0,0H25A16,16,0,0,1,41,16v0A16,16,0,0,1,25,32H0a0,0,0,0,1,0,0V0A0,0,0,0,1,0,0Z" transform="translate(414 141) rotate(90)" fill="#d30e00"/>
      <path id="Rectangle_35475" data-name="Rectangle 35475" d="M0,0H25A16,16,0,0,1,41,16v0A16,16,0,0,1,25,32H0a0,0,0,0,1,0,0V0A0,0,0,0,1,0,0Z" transform="translate(223 141) rotate(90)" fill="#d30e00"/>
    </g>
    <g id="Group_7710" data-name="Group 7710" transform="translate(5850 966)">
      <path id="Rectangle_35466-2" data-name="Rectangle 35466" d="M0,0H25A16,16,0,0,1,41,16v0A16,16,0,0,1,25,32H0a0,0,0,0,1,0,0V0A0,0,0,0,1,0,0Z" transform="translate(255 141) rotate(90)" fill="#f51000"/>
      <path id="Rectangle_35479-2" data-name="Rectangle 35479" d="M0,0H25A16,16,0,0,1,41,16v0A16,16,0,0,1,25,32H0a0,0,0,0,1,0,0V0A0,0,0,0,1,0,0Z" transform="translate(64 141) rotate(90)" fill="#f51000"/>
      <path id="Rectangle_35471-2" data-name="Rectangle 35471" d="M0,0H25.5A15.5,15.5,0,0,1,41,15.5v0A15.5,15.5,0,0,1,25.5,31H0a0,0,0,0,1,0,0V0A0,0,0,0,1,0,0Z" transform="translate(318 141) rotate(90)" fill="#f51000"/>
      <path id="Rectangle_35477-2" data-name="Rectangle 35477" d="M0,0H25.5A15.5,15.5,0,0,1,41,15.5v0A15.5,15.5,0,0,1,25.5,31H0a0,0,0,0,1,0,0V0A0,0,0,0,1,0,0Z" transform="translate(127 141) rotate(90)" fill="#f51000"/>
      <path id="Rectangle_35473-2" data-name="Rectangle 35473" d="M0,0H25A16,16,0,0,1,41,16v0A16,16,0,0,1,25,32H0a0,0,0,0,1,0,0V0A0,0,0,0,1,0,0Z" transform="translate(382 141) rotate(90)" fill="#f51000"/>
      <path id="Rectangle_35474-2" data-name="Rectangle 35474" d="M0,0H25A16,16,0,0,1,41,16v0A16,16,0,0,1,25,32H0a0,0,0,0,1,0,0V0A0,0,0,0,1,0,0Z" transform="translate(191 141) rotate(90)" fill="#f51000"/>
      <path id="Rectangle_35467-2" data-name="Rectangle 35467" d="M0,0H25A16,16,0,0,1,41,16v0A16,16,0,0,1,25,32H0a0,0,0,0,1,0,0V0A0,0,0,0,1,0,0Z" transform="translate(287 141) rotate(90)" fill="#d30e00"/>
      <path id="Rectangle_35478-2" data-name="Rectangle 35478" d="M0,0H25A16,16,0,0,1,41,16v0A16,16,0,0,1,25,32H0a0,0,0,0,1,0,0V0A0,0,0,0,1,0,0Z" transform="translate(96 141) rotate(90)" fill="#d30e00"/>
      <path id="Rectangle_35480-2" data-name="Rectangle 35480" d="M0,0H25A16,16,0,0,1,41,16v0A16,16,0,0,1,25,32H0a0,0,0,0,1,0,0V0A0,0,0,0,1,0,0Z" transform="translate(32 141) rotate(90)" fill="#d30e00"/>
      <path id="Rectangle_35470-2" data-name="Rectangle 35470" d="M0,0H25A16,16,0,0,1,41,16v0A16,16,0,0,1,25,32H0a0,0,0,0,1,0,0V0A0,0,0,0,1,0,0Z" transform="translate(350 141) rotate(90)" fill="#d30e00"/>
      <path id="Rectangle_35476-2" data-name="Rectangle 35476" d="M0,0H25A16,16,0,0,1,41,16v0A16,16,0,0,1,25,32H0a0,0,0,0,1,0,0V0A0,0,0,0,1,0,0Z" transform="translate(159 141) rotate(90)" fill="#d30e00"/>
      <path id="Rectangle_35472-2" data-name="Rectangle 35472" d="M0,0H25A16,16,0,0,1,41,16v0A16,16,0,0,1,25,32H0a0,0,0,0,1,0,0V0A0,0,0,0,1,0,0Z" transform="translate(414 141) rotate(90)" fill="#d30e00"/>
      <path id="Rectangle_35475-2" data-name="Rectangle 35475" d="M0,0H25A16,16,0,0,1,41,16v0A16,16,0,0,1,25,32H0a0,0,0,0,1,0,0V0A0,0,0,0,1,0,0Z" transform="translate(223 141) rotate(90)" fill="#d30e00"/>
    </g>
    <g id="Group_7711" data-name="Group 7711" transform="translate(6231 966)">
      <path id="Rectangle_35466-3" data-name="Rectangle 35466" d="M0,0H25A16,16,0,0,1,41,16v0A16,16,0,0,1,25,32H0a0,0,0,0,1,0,0V0A0,0,0,0,1,0,0Z" transform="translate(255 141) rotate(90)" fill="#f51000"/>
      <path id="Rectangle_35479-3" data-name="Rectangle 35479" d="M0,0H25A16,16,0,0,1,41,16v0A16,16,0,0,1,25,32H0a0,0,0,0,1,0,0V0A0,0,0,0,1,0,0Z" transform="translate(64 141) rotate(90)" fill="#f51000"/>
      <path id="Rectangle_35471-3" data-name="Rectangle 35471" d="M0,0H25.5A15.5,15.5,0,0,1,41,15.5v0A15.5,15.5,0,0,1,25.5,31H0a0,0,0,0,1,0,0V0A0,0,0,0,1,0,0Z" transform="translate(318 141) rotate(90)" fill="#f51000"/>
      <path id="Rectangle_35477-3" data-name="Rectangle 35477" d="M0,0H25.5A15.5,15.5,0,0,1,41,15.5v0A15.5,15.5,0,0,1,25.5,31H0a0,0,0,0,1,0,0V0A0,0,0,0,1,0,0Z" transform="translate(127 141) rotate(90)" fill="#f51000"/>
      <path id="Rectangle_35473-3" data-name="Rectangle 35473" d="M0,0H25A16,16,0,0,1,41,16v0A16,16,0,0,1,25,32H0a0,0,0,0,1,0,0V0A0,0,0,0,1,0,0Z" transform="translate(382 141) rotate(90)" fill="#f51000"/>
      <path id="Rectangle_35474-3" data-name="Rectangle 35474" d="M0,0H25A16,16,0,0,1,41,16v0A16,16,0,0,1,25,32H0a0,0,0,0,1,0,0V0A0,0,0,0,1,0,0Z" transform="translate(191 141) rotate(90)" fill="#f51000"/>
      <path id="Rectangle_35467-3" data-name="Rectangle 35467" d="M0,0H25A16,16,0,0,1,41,16v0A16,16,0,0,1,25,32H0a0,0,0,0,1,0,0V0A0,0,0,0,1,0,0Z" transform="translate(287 141) rotate(90)" fill="#d30e00"/>
      <path id="Rectangle_35478-3" data-name="Rectangle 35478" d="M0,0H25A16,16,0,0,1,41,16v0A16,16,0,0,1,25,32H0a0,0,0,0,1,0,0V0A0,0,0,0,1,0,0Z" transform="translate(96 141) rotate(90)" fill="#d30e00"/>
      <path id="Rectangle_35480-3" data-name="Rectangle 35480" d="M0,0H25A16,16,0,0,1,41,16v0A16,16,0,0,1,25,32H0a0,0,0,0,1,0,0V0A0,0,0,0,1,0,0Z" transform="translate(32 141) rotate(90)" fill="#d30e00"/>
      <path id="Rectangle_35470-3" data-name="Rectangle 35470" d="M0,0H25A16,16,0,0,1,41,16v0A16,16,0,0,1,25,32H0a0,0,0,0,1,0,0V0A0,0,0,0,1,0,0Z" transform="translate(350 141) rotate(90)" fill="#d30e00"/>
      <path id="Rectangle_35476-3" data-name="Rectangle 35476" d="M0,0H25A16,16,0,0,1,41,16v0A16,16,0,0,1,25,32H0a0,0,0,0,1,0,0V0A0,0,0,0,1,0,0Z" transform="translate(159 141) rotate(90)" fill="#d30e00"/>
      <path id="Rectangle_35472-3" data-name="Rectangle 35472" d="M0,0H25A16,16,0,0,1,41,16v0A16,16,0,0,1,25,32H0a0,0,0,0,1,0,0V0A0,0,0,0,1,0,0Z" transform="translate(414 141) rotate(90)" fill="#d30e00"/>
      <path id="Rectangle_35475-3" data-name="Rectangle 35475" d="M0,0H25A16,16,0,0,1,41,16v0A16,16,0,0,1,25,32H0a0,0,0,0,1,0,0V0A0,0,0,0,1,0,0Z" transform="translate(223 141) rotate(90)" fill="#d30e00"/>
    </g>
    <g id="Group_7712" data-name="Group 7712" transform="translate(5086 966)">
      <path id="Rectangle_35466-4" data-name="Rectangle 35466" d="M0,0H25A16,16,0,0,1,41,16v0A16,16,0,0,1,25,32H0a0,0,0,0,1,0,0V0A0,0,0,0,1,0,0Z" transform="translate(255 141) rotate(90)" fill="#f51000"/>
      <path id="Rectangle_35479-4" data-name="Rectangle 35479" d="M0,0H25A16,16,0,0,1,41,16v0A16,16,0,0,1,25,32H0a0,0,0,0,1,0,0V0A0,0,0,0,1,0,0Z" transform="translate(64 141) rotate(90)" fill="#f51000"/>
      <path id="Rectangle_35471-4" data-name="Rectangle 35471" d="M0,0H25.5A15.5,15.5,0,0,1,41,15.5v0A15.5,15.5,0,0,1,25.5,31H0a0,0,0,0,1,0,0V0A0,0,0,0,1,0,0Z" transform="translate(318 141) rotate(90)" fill="#f51000"/>
      <path id="Rectangle_35477-4" data-name="Rectangle 35477" d="M0,0H25.5A15.5,15.5,0,0,1,41,15.5v0A15.5,15.5,0,0,1,25.5,31H0a0,0,0,0,1,0,0V0A0,0,0,0,1,0,0Z" transform="translate(127 141) rotate(90)" fill="#f51000"/>
      <path id="Rectangle_35473-4" data-name="Rectangle 35473" d="M0,0H25A16,16,0,0,1,41,16v0A16,16,0,0,1,25,32H0a0,0,0,0,1,0,0V0A0,0,0,0,1,0,0Z" transform="translate(382 141) rotate(90)" fill="#f51000"/>
      <path id="Rectangle_35474-4" data-name="Rectangle 35474" d="M0,0H25A16,16,0,0,1,41,16v0A16,16,0,0,1,25,32H0a0,0,0,0,1,0,0V0A0,0,0,0,1,0,0Z" transform="translate(191 141) rotate(90)" fill="#f51000"/>
      <path id="Rectangle_35467-4" data-name="Rectangle 35467" d="M0,0H25A16,16,0,0,1,41,16v0A16,16,0,0,1,25,32H0a0,0,0,0,1,0,0V0A0,0,0,0,1,0,0Z" transform="translate(287 141) rotate(90)" fill="#d30e00"/>
      <path id="Rectangle_35478-4" data-name="Rectangle 35478" d="M0,0H25A16,16,0,0,1,41,16v0A16,16,0,0,1,25,32H0a0,0,0,0,1,0,0V0A0,0,0,0,1,0,0Z" transform="translate(96 141) rotate(90)" fill="#d30e00"/>
      <path id="Rectangle_35480-4" data-name="Rectangle 35480" d="M0,0H25A16,16,0,0,1,41,16v0A16,16,0,0,1,25,32H0a0,0,0,0,1,0,0V0A0,0,0,0,1,0,0Z" transform="translate(32 141) rotate(90)" fill="#d30e00"/>
      <path id="Rectangle_35470-4" data-name="Rectangle 35470" d="M0,0H25A16,16,0,0,1,41,16v0A16,16,0,0,1,25,32H0a0,0,0,0,1,0,0V0A0,0,0,0,1,0,0Z" transform="translate(350 141) rotate(90)" fill="#d30e00"/>
      <path id="Rectangle_35476-4" data-name="Rectangle 35476" d="M0,0H25A16,16,0,0,1,41,16v0A16,16,0,0,1,25,32H0a0,0,0,0,1,0,0V0A0,0,0,0,1,0,0Z" transform="translate(159 141) rotate(90)" fill="#d30e00"/>
      <path id="Rectangle_35472-4" data-name="Rectangle 35472" d="M0,0H25A16,16,0,0,1,41,16v0A16,16,0,0,1,25,32H0a0,0,0,0,1,0,0V0A0,0,0,0,1,0,0Z" transform="translate(414 141) rotate(90)" fill="#d30e00"/>
      <path id="Rectangle_35475-4" data-name="Rectangle 35475" d="M0,0H25A16,16,0,0,1,41,16v0A16,16,0,0,1,25,32H0a0,0,0,0,1,0,0V0A0,0,0,0,1,0,0Z" transform="translate(223 141) rotate(90)" fill="#d30e00"/>
    </g>
    <g id="Group_7713" data-name="Group 7713" transform="translate(6623 966)">
      <path id="Rectangle_35466-5" data-name="Rectangle 35466" d="M0,0H25A16,16,0,0,1,41,16v0A16,16,0,0,1,25,32H0a0,0,0,0,1,0,0V0A0,0,0,0,1,0,0Z" transform="translate(255 141) rotate(90)" fill="#f51000"/>
      <path id="Rectangle_35479-5" data-name="Rectangle 35479" d="M0,0H25A16,16,0,0,1,41,16v0A16,16,0,0,1,25,32H0a0,0,0,0,1,0,0V0A0,0,0,0,1,0,0Z" transform="translate(64 141) rotate(90)" fill="#f51000"/>
      <path id="Rectangle_35471-5" data-name="Rectangle 35471" d="M0,0H25.5A15.5,15.5,0,0,1,41,15.5v0A15.5,15.5,0,0,1,25.5,31H0a0,0,0,0,1,0,0V0A0,0,0,0,1,0,0Z" transform="translate(318 141) rotate(90)" fill="#f51000"/>
      <path id="Rectangle_35477-5" data-name="Rectangle 35477" d="M0,0H25.5A15.5,15.5,0,0,1,41,15.5v0A15.5,15.5,0,0,1,25.5,31H0a0,0,0,0,1,0,0V0A0,0,0,0,1,0,0Z" transform="translate(127 141) rotate(90)" fill="#f51000"/>
      <path id="Rectangle_35473-5" data-name="Rectangle 35473" d="M0,0H25A16,16,0,0,1,41,16v0A16,16,0,0,1,25,32H0a0,0,0,0,1,0,0V0A0,0,0,0,1,0,0Z" transform="translate(382 141) rotate(90)" fill="#f51000"/>
      <path id="Rectangle_35474-5" data-name="Rectangle 35474" d="M0,0H25A16,16,0,0,1,41,16v0A16,16,0,0,1,25,32H0a0,0,0,0,1,0,0V0A0,0,0,0,1,0,0Z" transform="translate(191 141) rotate(90)" fill="#f51000"/>
      <path id="Rectangle_35467-5" data-name="Rectangle 35467" d="M0,0H25A16,16,0,0,1,41,16v0A16,16,0,0,1,25,32H0a0,0,0,0,1,0,0V0A0,0,0,0,1,0,0Z" transform="translate(287 141) rotate(90)" fill="#d30e00"/>
      <path id="Rectangle_35478-5" data-name="Rectangle 35478" d="M0,0H25A16,16,0,0,1,41,16v0A16,16,0,0,1,25,32H0a0,0,0,0,1,0,0V0A0,0,0,0,1,0,0Z" transform="translate(96 141) rotate(90)" fill="#d30e00"/>
      <path id="Rectangle_35480-5" data-name="Rectangle 35480" d="M0,0H25A16,16,0,0,1,41,16v0A16,16,0,0,1,25,32H0a0,0,0,0,1,0,0V0A0,0,0,0,1,0,0Z" transform="translate(32 141) rotate(90)" fill="#d30e00"/>
      <path id="Rectangle_35470-5" data-name="Rectangle 35470" d="M0,0H25A16,16,0,0,1,41,16v0A16,16,0,0,1,25,32H0a0,0,0,0,1,0,0V0A0,0,0,0,1,0,0Z" transform="translate(350 141) rotate(90)" fill="#d30e00"/>
      <path id="Rectangle_35476-5" data-name="Rectangle 35476" d="M0,0H25A16,16,0,0,1,41,16v0A16,16,0,0,1,25,32H0a0,0,0,0,1,0,0V0A0,0,0,0,1,0,0Z" transform="translate(159 141) rotate(90)" fill="#d30e00"/>
      <path id="Rectangle_35472-5" data-name="Rectangle 35472" d="M0,0H25A16,16,0,0,1,41,16v0A16,16,0,0,1,25,32H0a0,0,0,0,1,0,0V0A0,0,0,0,1,0,0Z" transform="translate(414 141) rotate(90)" fill="#d30e00"/>
      <path id="Rectangle_35475-5" data-name="Rectangle 35475" d="M0,0H25A16,16,0,0,1,41,16v0A16,16,0,0,1,25,32H0a0,0,0,0,1,0,0V0A0,0,0,0,1,0,0Z" transform="translate(223 141) rotate(90)" fill="#d30e00"/>
    </g>
    <g id="Group_7714" data-name="Group 7714" transform="translate(7007 966)">
      <path id="Rectangle_35466-6" data-name="Rectangle 35466" d="M0,0H25A16,16,0,0,1,41,16v0A16,16,0,0,1,25,32H0a0,0,0,0,1,0,0V0A0,0,0,0,1,0,0Z" transform="translate(255 141) rotate(90)" fill="#f51000"/>
      <path id="Rectangle_35479-6" data-name="Rectangle 35479" d="M0,0H25A16,16,0,0,1,41,16v0A16,16,0,0,1,25,32H0a0,0,0,0,1,0,0V0A0,0,0,0,1,0,0Z" transform="translate(64 141) rotate(90)" fill="#f51000"/>
      <path id="Rectangle_35471-6" data-name="Rectangle 35471" d="M0,0H25.5A15.5,15.5,0,0,1,41,15.5v0A15.5,15.5,0,0,1,25.5,31H0a0,0,0,0,1,0,0V0A0,0,0,0,1,0,0Z" transform="translate(318 141) rotate(90)" fill="#f51000"/>
      <path id="Rectangle_35477-6" data-name="Rectangle 35477" d="M0,0H25.5A15.5,15.5,0,0,1,41,15.5v0A15.5,15.5,0,0,1,25.5,31H0a0,0,0,0,1,0,0V0A0,0,0,0,1,0,0Z" transform="translate(127 141) rotate(90)" fill="#f51000"/>
      <path id="Rectangle_35473-6" data-name="Rectangle 35473" d="M0,0H25A16,16,0,0,1,41,16v0A16,16,0,0,1,25,32H0a0,0,0,0,1,0,0V0A0,0,0,0,1,0,0Z" transform="translate(382 141) rotate(90)" fill="#f51000"/>
      <path id="Rectangle_35474-6" data-name="Rectangle 35474" d="M0,0H25A16,16,0,0,1,41,16v0A16,16,0,0,1,25,32H0a0,0,0,0,1,0,0V0A0,0,0,0,1,0,0Z" transform="translate(191 141) rotate(90)" fill="#f51000"/>
      <path id="Rectangle_35467-6" data-name="Rectangle 35467" d="M0,0H25A16,16,0,0,1,41,16v0A16,16,0,0,1,25,32H0a0,0,0,0,1,0,0V0A0,0,0,0,1,0,0Z" transform="translate(287 141) rotate(90)" fill="#d30e00"/>
      <path id="Rectangle_35478-6" data-name="Rectangle 35478" d="M0,0H25A16,16,0,0,1,41,16v0A16,16,0,0,1,25,32H0a0,0,0,0,1,0,0V0A0,0,0,0,1,0,0Z" transform="translate(96 141) rotate(90)" fill="#d30e00"/>
      <path id="Rectangle_35480-6" data-name="Rectangle 35480" d="M0,0H25A16,16,0,0,1,41,16v0A16,16,0,0,1,25,32H0a0,0,0,0,1,0,0V0A0,0,0,0,1,0,0Z" transform="translate(32 141) rotate(90)" fill="#d30e00"/>
      <path id="Rectangle_35470-6" data-name="Rectangle 35470" d="M0,0H25A16,16,0,0,1,41,16v0A16,16,0,0,1,25,32H0a0,0,0,0,1,0,0V0A0,0,0,0,1,0,0Z" transform="translate(350 141) rotate(90)" fill="#d30e00"/>
      <path id="Rectangle_35476-6" data-name="Rectangle 35476" d="M0,0H25A16,16,0,0,1,41,16v0A16,16,0,0,1,25,32H0a0,0,0,0,1,0,0V0A0,0,0,0,1,0,0Z" transform="translate(159 141) rotate(90)" fill="#d30e00"/>
      <path id="Rectangle_35472-6" data-name="Rectangle 35472" d="M0,0H25A16,16,0,0,1,41,16v0A16,16,0,0,1,25,32H0a0,0,0,0,1,0,0V0A0,0,0,0,1,0,0Z" transform="translate(414 141) rotate(90)" fill="#d30e00"/>
      <path id="Rectangle_35475-6" data-name="Rectangle 35475" d="M0,0H25A16,16,0,0,1,41,16v0A16,16,0,0,1,25,32H0a0,0,0,0,1,0,0V0A0,0,0,0,1,0,0Z" transform="translate(223 141) rotate(90)" fill="#d30e00"/>
    </g>
  </g>
</svg>
