<svg xmlns="http://www.w3.org/2000/svg" width="120" height="162.648" viewBox="0 0 120 162.648">
  <g id="Group_7694" data-name="Group 7694" transform="translate(-147 -190)">
    <g id="Group_1168" data-name="Group 1168" transform="translate(-500.498 -10.404)">
      <g id="Group_1160" data-name="Group 1160" transform="translate(647.498 200.404)">
        <g id="Group_1071" data-name="Group 1071" transform="translate(2.081 2.082)">
          <g id="Group_1036" data-name="Group 1036">
            <g id="Group_998" data-name="Group 998" transform="translate(4.461 4.46)">
              <rect id="Rectangle_31702" data-name="Rectangle 31702" width="106.917" height="151.646" rx="4.813" fill="#352325"/>
            </g>
            <g id="Group_999" data-name="Group 999" transform="translate(4.461 4.46)">
              <path id="Path_3294" data-name="Path 3294" d="M755.668,213.55V353.3H660.644V213.55Zm1.573-5.947H659.07a4.374,4.374,0,0,0-4.373,4.373v142.9a4.374,4.374,0,0,0,4.373,4.373h98.17a4.374,4.374,0,0,0,4.373-4.373v-142.9a4.374,4.374,0,0,0-4.373-4.373Z" transform="translate(-654.697 -207.603)" fill="#231b1c"/>
            </g>
            <g id="Group_1000" data-name="Group 1000" transform="translate(4.461 138.071)">
              <path id="Path_3295" data-name="Path 3295" d="M759.83,355.528V368.3a2.589,2.589,0,0,1-2.59,2.589H659.07a2.589,2.589,0,0,1-2.59-2.589v-3.117a.882.882,0,0,0-.894-.883h-.017a.883.883,0,0,0-.872.882V368.3a4.374,4.374,0,0,0,4.373,4.373h98.17a4.374,4.374,0,0,0,4.373-4.373V355.525a.886.886,0,0,0-1.032-.871l-.017,0A.883.883,0,0,0,759.83,355.528Z" transform="translate(-654.697 -354.642)" fill="#7f3333"/>
            </g>
            <g id="Group_1034" data-name="Group 1034">
              <g id="Group_1002" data-name="Group 1002">
                <g id="Group_1001" data-name="Group 1001">
                  <path id="Path_3296" data-name="Path 3296" d="M765.626,301.564V211.528a8.834,8.834,0,0,0-8.834-8.833H701.684a1.012,1.012,0,0,0-.714.3l-1.5,1.5a.525.525,0,0,1-.744,0l-1.5-1.5a1.01,1.01,0,0,0-.714-.3H658.622a8.834,8.834,0,0,0-8.834,8.833v142.9a8.834,8.834,0,0,0,8.834,8.833h98.17a8.834,8.834,0,0,0,8.834-8.833V307.666a1.626,1.626,0,0,0-.476-1.149l-1.5-1.5a.572.572,0,0,1,0-.811l1.5-1.5A1.623,1.623,0,0,0,765.626,301.564Zm-4.461,52.864a4.374,4.374,0,0,1-4.373,4.373h-98.17a4.374,4.374,0,0,1-4.373-4.373v-142.9a4.374,4.374,0,0,1,4.373-4.373h98.17a4.374,4.374,0,0,1,4.373,4.373Z" transform="translate(-649.788 -202.695)" fill="#e4843f"/>
                </g>
              </g>
              <g id="Group_1003" data-name="Group 1003" transform="translate(1.487 1.487)">
                <path id="Path_3297" data-name="Path 3297" d="M763.8,304.359l.225-.225a.892.892,0,0,0,.261-.631V211.678a7.346,7.346,0,0,0-7.347-7.347h-56.9a.26.26,0,0,0-.185.077l-.232.231a.525.525,0,0,1-.744,0l-.155-.154a.522.522,0,0,0-.372-.154H658.772a7.346,7.346,0,0,0-7.347,7.347v142.9a7.346,7.346,0,0,0,7.347,7.347h98.17a7.346,7.346,0,0,0,7.347-7.347V306.026a.892.892,0,0,0-.261-.631l-.225-.225A.572.572,0,0,1,763.8,304.359Zm-2.487,50.218a4.374,4.374,0,0,1-4.373,4.373h-98.17a4.374,4.374,0,0,1-4.373-4.373v-142.9a4.374,4.374,0,0,1,4.373-4.373h98.17a4.374,4.374,0,0,1,4.373,4.373Z" transform="translate(-651.425 -204.331)" fill="#e4843f"/>
              </g>
              <g id="Group_1008" data-name="Group 1008" transform="translate(1.487 14.261)">
                <g id="Group_1007" data-name="Group 1007">
                  <g id="Group_1004" data-name="Group 1004" transform="translate(109.89 15.454)">
                    <path id="Path_3298" data-name="Path 3298" d="M772.359,236.874v31.615a1.477,1.477,0,0,0,1.526,1.471h.029a1.468,1.468,0,0,0,1.418-1.471V236.871a1.471,1.471,0,0,0-1.6-1.468l-.03,0A1.478,1.478,0,0,0,772.359,236.874Z" transform="translate(-772.359 -235.396)" fill="#ed913e"/>
                  </g>
                  <g id="Group_1005" data-name="Group 1005">
                    <path id="Path_3299" data-name="Path 3299" d="M653.521,218.531l-.03-.013a1.471,1.471,0,0,0-2.066,1.348v35.011a1.471,1.471,0,0,0,1.234,1.451l.03,0a1.47,1.47,0,0,0,1.709-1.451v-35A1.48,1.48,0,0,0,653.521,218.531Z" transform="translate(-651.425 -218.389)" fill="#f4a845"/>
                  </g>
                  <g id="Group_1006" data-name="Group 1006" transform="translate(0 46.041)">
                    <path id="Path_3300" data-name="Path 3300" d="M652.963,269.059h-.03a1.474,1.474,0,0,0-1.508,1.474v5.232a1.475,1.475,0,0,0,1.557,1.47l.03,0a1.47,1.47,0,0,0,1.386-1.47v-5.229A1.475,1.475,0,0,0,652.963,269.059Z" transform="translate(-651.425 -269.057)" fill="#f4a845"/>
                  </g>
                </g>
              </g>
              <g id="Group_1011" data-name="Group 1011" transform="translate(1.487 89.809)">
                <g id="Group_1010" data-name="Group 1010">
                  <g id="Group_1009" data-name="Group 1009">
                    <path id="Path_3301" data-name="Path 3301" d="M658.772,367.827a4.374,4.374,0,0,1-4.373-4.373V303.025a1.48,1.48,0,0,0-.674-1.239l-.029-.018a1.473,1.473,0,0,0-2.27,1.239v60.447a7.346,7.346,0,0,0,7.347,7.347h17.309q.335-1.48.567-2.973Z" transform="translate(-651.425 -301.53)" fill="#d06440"/>
                  </g>
                </g>
              </g>
              <g id="Group_1015" data-name="Group 1015" transform="translate(15.701 43.124)">
                <g id="Group_1014" data-name="Group 1014">
                  <g id="Group_1012" data-name="Group 1012" transform="translate(0 15.345)">
                    <path id="Path_3302" data-name="Path 3302" d="M765.231,310.086l.225-.225a.892.892,0,0,0,.261-.631V268.518a1.472,1.472,0,0,0-1.259-1.457l-.028,0a1.473,1.473,0,0,0-1.687,1.457V360.3a4.374,4.374,0,0,1-4.373,4.373H667.86q-.391,1.487-.793,2.973h91.3a7.346,7.346,0,0,0,7.347-7.347V311.753a.892.892,0,0,0-.261-.631l-.225-.225A.572.572,0,0,1,765.231,310.086Z" transform="translate(-667.067 -267.041)" fill="#d06440"/>
                  </g>
                  <g id="Group_1013" data-name="Group 1013" transform="translate(95.677)">
                    <path id="Path_3303" data-name="Path 3303" d="M772.359,251.626v7.229a1.472,1.472,0,0,0,1.189,1.443l.03.005a1.469,1.469,0,0,0,1.755-1.442v-7.236a1.473,1.473,0,0,0-1.467-1.473h-.03A1.472,1.472,0,0,0,772.359,251.626Z" transform="translate(-772.359 -250.153)" fill="#e57f39"/>
                  </g>
                </g>
              </g>
              <g id="Group_1018" data-name="Group 1018" transform="translate(1.487 101.973)">
                <g id="Group_1017" data-name="Group 1017">
                  <g id="Group_1016" data-name="Group 1016">
                    <path id="Path_3304" data-name="Path 3304" d="M653.068,314.926l-.03,0a1.472,1.472,0,0,0-1.613,1.467V331.7a1.472,1.472,0,0,0,1.135,1.435l.029.007A1.475,1.475,0,0,0,654.4,331.7V316.393A1.475,1.475,0,0,0,653.068,314.926Z" transform="translate(-651.425 -314.916)" fill="#e4843f"/>
                  </g>
                </g>
              </g>
              <g id="Group_1022" data-name="Group 1022" transform="translate(1.487 116.43)">
                <g id="Group_1021" data-name="Group 1021">
                  <g id="Group_1019" data-name="Group 1019" transform="translate(0 14.782)">
                    <path id="Path_3305" data-name="Path 3305" d="M658.772,374.961h98.17a7.346,7.346,0,0,0,7.347-7.347V348.572a1.463,1.463,0,0,0-1.212-1.448l-.065-.011a1.469,1.469,0,0,0-1.7,1.456v19.046a4.374,4.374,0,0,1-4.373,4.373h-98.17a4.374,4.374,0,0,1-4.373-4.373v-6.363a1.472,1.472,0,0,0-2.282-1.229l-.03.019a1.466,1.466,0,0,0-.662,1.229v6.343A7.346,7.346,0,0,0,658.772,374.961Z" transform="translate(-651.425 -347.094)" fill="#b54b33"/>
                  </g>
                  <g id="Group_1020" data-name="Group 1020" transform="translate(109.89)">
                    <path id="Path_3306" data-name="Path 3306" d="M772.359,332.3v5.075a1.471,1.471,0,0,0,1.228,1.451l.029.005a1.472,1.472,0,0,0,1.716-1.451v-5.07a1.48,1.48,0,0,0-1.014-1.4l-.03-.01A1.471,1.471,0,0,0,772.359,332.3Z" transform="translate(-772.359 -330.826)" fill="#b54b33"/>
                  </g>
                </g>
              </g>
              <g id="Group_1023" data-name="Group 1023" transform="translate(0 53.124)">
                <path id="Path_3307" data-name="Path 3307" d="M651.276,359.767a7.346,7.346,0,0,0,7.347,7.347h78.672q.086.744.167,1.487h-78.84a8.834,8.834,0,0,1-8.834-8.833V261.9a.739.739,0,0,1,1.077-.656l.009.005a.74.74,0,0,1,.4.658Z" transform="translate(-649.788 -261.158)" fill="#e4843f"/>
              </g>
              <g id="Group_1024" data-name="Group 1024" transform="translate(114.351 15.133)">
                <path id="Path_3308" data-name="Path 3308" d="M775.631,220.087V230.6a.734.734,0,0,0,.739.736h.026a.735.735,0,0,0,.722-.736V220.088a.737.737,0,0,0-.686-.735l-.015,0A.737.737,0,0,0,775.631,220.087Z" transform="translate(-775.631 -219.349)" fill="#b54b33"/>
              </g>
              <g id="Group_1025" data-name="Group 1025" transform="translate(86.065)">
                <path id="Path_3309" data-name="Path 3309" d="M756.284,203.491v-.015a.744.744,0,0,0-.743-.781h-10.31a.728.728,0,0,0-.725.667l0,.015a.742.742,0,0,0,.74.8h10.314A.727.727,0,0,0,756.284,203.491Z" transform="translate(-744.502 -202.695)" fill="#fcd575"/>
              </g>
              <g id="Group_1028" data-name="Group 1028">
                <g id="Group_1026" data-name="Group 1026">
                  <path id="Path_3310" data-name="Path 3310" d="M696.513,202.7H658.622a8.834,8.834,0,0,0-8.834,8.833V326.871a.738.738,0,0,0,1.14.617l.012-.008a.739.739,0,0,0,.335-.619V211.528a7.346,7.346,0,0,1,7.347-7.347h39.162a.262.262,0,0,0,.185-.448l-.742-.743A1.01,1.01,0,0,0,696.513,202.7Z" transform="translate(-649.788 -202.695)" fill="#fcd575"/>
                </g>
                <g id="Group_1027" data-name="Group 1027" transform="translate(50.362)">
                  <path id="Path_3311" data-name="Path 3311" d="M735.323,202.7H706.746a1.012,1.012,0,0,0-.714.3l-.742.743a.262.262,0,0,0,.186.448h29.853a.732.732,0,0,0,.729-.664V203.5A.738.738,0,0,0,735.323,202.7Z" transform="translate(-705.212 -202.695)" fill="#fcd575"/>
                </g>
              </g>
              <g id="Group_1029" data-name="Group 1029" transform="translate(0 128.7)">
                <path id="Path_3312" data-name="Path 3312" d="M649.788,345.067v5.195a.737.737,0,0,0,1.14.617l.012-.007a.74.74,0,0,0,.335-.619v-5.186a.738.738,0,0,0-.74-.738h-.015A.738.738,0,0,0,649.788,345.067Z" transform="translate(-649.788 -344.329)" fill="#f4a845"/>
              </g>
              <g id="Group_1030" data-name="Group 1030" transform="translate(0 28.26)">
                <path id="Path_3313" data-name="Path 3313" d="M650.431,237.411l.015,0a.738.738,0,0,0,.83-.731v-2.151a.74.74,0,0,0-.777-.735h-.015a.734.734,0,0,0-.7.735v2.148A.735.735,0,0,0,650.431,237.411Z" transform="translate(-649.788 -233.795)" fill="#fcf0d2"/>
              </g>
              <g id="Group_1031" data-name="Group 1031">
                <path id="Path_3314" data-name="Path 3314" d="M658.622,202.7a8.834,8.834,0,0,0-8.834,8.833v11.381a.739.739,0,0,0,.654.732l.015,0a.737.737,0,0,0,.819-.732V211.528a7.346,7.346,0,0,1,7.347-7.347h8.671a.735.735,0,0,0,.722-.6l0-.015a.736.736,0,0,0-.723-.873Z" transform="translate(-649.788 -202.695)" fill="#fcf0d2"/>
              </g>
              <g id="Group_1032" data-name="Group 1032" transform="translate(100.239)">
                <path id="Path_3315" data-name="Path 3315" d="M775.7,211.528a8.834,8.834,0,0,0-8.834-8.833h-6.029a.735.735,0,0,0-.735.773v.015a.736.736,0,0,0,.735.7h6.028a7.346,7.346,0,0,1,7.347,7.347v64.9a.735.735,0,0,0,.827.729l.017,0a.736.736,0,0,0,.643-.729Z" transform="translate(-760.101 -202.695)" fill="#f4a845"/>
              </g>
              <g id="Group_1033" data-name="Group 1033" transform="translate(114.351 79.598)">
                <path id="Path_3316" data-name="Path 3316" d="M775.631,291.029v11.337a.738.738,0,0,0,.742.738h.015a.738.738,0,0,0,.73-.738V291.033a.736.736,0,0,0-.589-.721l-.015,0A.736.736,0,0,0,775.631,291.029Z" transform="translate(-775.631 -290.293)" fill="#f4a845"/>
              </g>
            </g>
            <g id="Group_1035" data-name="Group 1035" transform="translate(0.001)">
              <path id="Path_3317" data-name="Path 3317" d="M765.625,226.063l-4.46-3.572V211.528a4.374,4.374,0,0,0-4.373-4.373H745.829l-3.572-4.46h-2.664l1.849,2.311a1.323,1.323,0,0,1-1.033,2.149H675a1.323,1.323,0,0,1-1.032-2.149l1.849-2.311h-2.664l-3.572,4.46H658.622a4.374,4.374,0,0,0-4.373,4.373v10.963l-4.46,3.572v2.664l2.31-1.849a1.323,1.323,0,0,1,2.15,1.033V354.428a4.374,4.374,0,0,0,4.373,4.373h98.17a4.374,4.374,0,0,0,4.373-4.373V227.912a1.323,1.323,0,0,1,2.15-1.033l2.31,1.849Zm-6.244,128.364a2.593,2.593,0,0,1-2.59,2.589h-98.17a2.593,2.593,0,0,1-2.59-2.589V223.73h0v-2.667h0v-9.535a2.593,2.593,0,0,1,2.59-2.589h98.17a2.592,2.592,0,0,1,2.59,2.589v9.535h0v2.667h0Z" transform="translate(-649.789 -202.695)" fill="#9e3c3c"/>
            </g>
          </g>
        </g>
        <g id="Group_1083" data-name="Group 1083" transform="translate(94.046)">
          <g id="Group_1073" data-name="Group 1073" transform="translate(15.718)">
            <g id="Group_1072" data-name="Group 1072">
              <path id="Path_3344" data-name="Path 3344" d="M778.529,206.3v18.974a1.078,1.078,0,0,1-1.752.841l-7.52-6.024a2.566,2.566,0,0,1-.964-2.005V201.646a1.242,1.242,0,0,1,1.242-1.242h3.094A5.9,5.9,0,0,1,778.529,206.3Z" transform="translate(-768.293 -200.404)" fill="#d06440"/>
            </g>
          </g>
          <g id="Group_1075" data-name="Group 1075" transform="translate(2.602 1.487)">
            <g id="Group_1074" data-name="Group 1074">
              <path id="Path_3345" data-name="Path 3345" d="M754.48,202.04a.621.621,0,0,0-.483,1.009l4.044,5.05c.06-.107.118-.216.183-.322a8.516,8.516,0,0,1,3-2.936l.041-.024c.081-.046.162-.091.244-.134l.142-.076.148-.072c.083-.041.165-.08.249-.118l.045-.019a8.5,8.5,0,0,1,4.127-.7c.16.013.319.03.478.053a.849.849,0,0,0,.958-.694l0-.019a.854.854,0,0,0-.839-1Z" transform="translate(-753.859 -202.04)" fill="#e4843f"/>
            </g>
          </g>
          <g id="Group_1077" data-name="Group 1077">
            <g id="Group_1076" data-name="Group 1076">
              <path id="Path_3346" data-name="Path 3346" d="M771.05,201.891a4.419,4.419,0,0,1,4.413,4.413v16.831a.62.62,0,0,1-1.008.484l-5.849-4.684a1.083,1.083,0,0,1-.406-.845v-8.937h-8.937a1.082,1.082,0,0,1-.845-.406l-4.683-5.848a.621.621,0,0,1,.483-1.009H771.05Zm0-1.487H752.076a1.078,1.078,0,0,0-.841,1.752l6.024,7.521a2.57,2.57,0,0,0,2.005.963h7.45v7.45a2.566,2.566,0,0,0,.964,2.005l7.521,6.024a1.06,1.06,0,0,0,.668.239,1.079,1.079,0,0,0,1.083-1.08V206.3a5.9,5.9,0,0,0-5.9-5.9Z" transform="translate(-750.995 -200.404)" fill="#f4a845"/>
            </g>
          </g>
          <g id="Group_1080" data-name="Group 1080">
            <g id="Group_1078" data-name="Group 1078" transform="translate(20.447 0.123)">
              <path id="Path_3347" data-name="Path 3347" d="M776.407,202.263l.035-.073a.7.7,0,0,0-.255-.9,5.845,5.845,0,0,0-1.836-.736.706.706,0,0,0-.853.691v.075a.715.715,0,0,0,.572.69,4.369,4.369,0,0,1,1.328.538A.7.7,0,0,0,776.407,202.263Z" transform="translate(-773.497 -200.539)" fill="#fcd575"/>
            </g>
            <g id="Group_1079" data-name="Group 1079">
              <path id="Path_3348" data-name="Path 3348" d="M753.735,202.9a.621.621,0,0,1,.483-1.009h14.29a.737.737,0,0,0,.732-.656v-.005a.744.744,0,0,0-.739-.825H752.076a1.078,1.078,0,0,0-.841,1.752l2.543,3.176a.734.734,0,0,0,.781.244l.01,0a.741.741,0,0,0,.368-1.173Z" transform="translate(-750.995 -200.404)" fill="#fcd575"/>
            </g>
          </g>
          <g id="Group_1081" data-name="Group 1081" transform="translate(21.308 17.743)">
            <path id="Path_3349" data-name="Path 3349" d="M776.6,221.009a1.078,1.078,0,1,1-1.079-1.079A1.078,1.078,0,0,1,776.6,221.009Z" transform="translate(-774.445 -219.93)" fill="#f4a845"/>
          </g>
          <g id="Group_1082" data-name="Group 1082" transform="translate(6.056 2.491)">
            <circle id="Ellipse_591" data-name="Ellipse 591" cx="1.078" cy="1.078" r="1.078" fill="#fcd575"/>
          </g>
        </g>
        <g id="Group_1114" data-name="Group 1114" transform="translate(99.759 3.116)">
          <g id="Group_1099" data-name="Group 1099" transform="translate(2.317 2.318)">
            <g id="Group_1085" data-name="Group 1085" transform="translate(0.977 0.976)">
              <g id="Group_1084" data-name="Group 1084">
                <path id="Path_3350" data-name="Path 3350" d="M767.043,207.53a5.269,5.269,0,1,0,4.332,6.064A5.275,5.275,0,0,0,767.043,207.53Z" transform="translate(-760.907 -207.458)" fill="#9e1838"/>
              </g>
            </g>
            <g id="Group_1086" data-name="Group 1086" transform="translate(4.777 5.226)" opacity="0.7">
              <path id="Path_3351" data-name="Path 3351" d="M771.033,215.619a2.992,2.992,0,1,1-2.459-3.443A2.992,2.992,0,0,1,771.033,215.619Z" transform="translate(-765.09 -212.135)" fill="#e03459"/>
            </g>
            <g id="Group_1087" data-name="Group 1087" transform="translate(7.409 7.075)">
              <path id="Path_3352" data-name="Path 3352" d="M770.353,215.557a1.192,1.192,0,1,1-.98-1.371A1.19,1.19,0,0,1,770.353,215.557Z" transform="translate(-767.986 -214.169)" fill="#ff4072"/>
            </g>
            <g id="Group_1088" data-name="Group 1088" transform="translate(3.856 5.117)">
              <path id="Path_3353" data-name="Path 3353" d="M770.881,212.041l-.013,0a.638.638,0,0,0-.456.675,3.968,3.968,0,0,1-5.445,4.1.642.642,0,0,0-.792.264l-.007.012a.643.643,0,0,0,.3.927,5.268,5.268,0,0,0,7.233-5.441A.642.642,0,0,0,770.881,212.041Z" transform="translate(-764.076 -212.014)" fill="#8e1031"/>
            </g>
            <g id="Group_1089" data-name="Group 1089" transform="translate(0.976 0.976)">
              <path id="Path_3354" data-name="Path 3354" d="M762.263,212.075a3.972,3.972,0,0,1,4.566-3.261,3.919,3.919,0,0,1,.669.172.645.645,0,0,0,.793-.318l.005-.011a.646.646,0,0,0-.363-.9,5.273,5.273,0,0,0-7.019,5.247.645.645,0,0,0,.958.529l.012-.006a.641.641,0,0,0,.331-.592A3.955,3.955,0,0,1,762.263,212.075Z" transform="translate(-760.907 -207.458)" fill="#e03459"/>
            </g>
            <g id="Group_1090" data-name="Group 1090">
              <path id="Path_3355" data-name="Path 3355" d="M766.945,207.432a5.269,5.269,0,1,1-6.064,4.332,5.276,5.276,0,0,1,6.064-4.332Zm.16-.962a6.245,6.245,0,1,0,5.134,7.187,6.245,6.245,0,0,0-5.134-7.187Z" transform="translate(-759.832 -206.383)" fill="#8e1031"/>
            </g>
            <g id="Group_1097" data-name="Group 1097" transform="translate(0.001)">
              <g id="Group_1091" data-name="Group 1091" transform="translate(2.357 10.4)">
                <path id="Path_3356" data-name="Path 3356" d="M764.406,219.068l0-.006a.486.486,0,0,0-.268-.589,5.243,5.243,0,0,1-.938-.551.483.483,0,0,0-.673.1l-.006.009a.483.483,0,0,0,.1.676,6.218,6.218,0,0,0,1.12.656A.486.486,0,0,0,764.406,219.068Z" transform="translate(-762.427 -217.829)" fill="#720d2e"/>
              </g>
              <g id="Group_1092" data-name="Group 1092" transform="translate(0 3.089)">
                <path id="Path_3357" data-name="Path 3357" d="M760.882,212.074a5.253,5.253,0,0,1,.481-1.484,3.523,3.523,0,0,1-.673-.807,6.254,6.254,0,0,0-.855,3.21.484.484,0,0,0,.6.461l.009,0a.482.482,0,0,0,.364-.476A5.245,5.245,0,0,1,760.882,212.074Z" transform="translate(-759.834 -209.783)" fill="#9e1838"/>
              </g>
              <g id="Group_1093" data-name="Group 1093" transform="translate(0.855)">
                <path id="Path_3358" data-name="Path 3358" d="M767.191,206.469a6.247,6.247,0,0,0-6.416,3,3.523,3.523,0,0,0,.673.807,5.267,5.267,0,0,1,6.391-2.646.483.483,0,0,0,.6-.26l0-.009a.486.486,0,0,0-.293-.657A6.306,6.306,0,0,0,767.191,206.469Z" transform="translate(-760.775 -206.383)" fill="#9e1838"/>
              </g>
              <g id="Group_1094" data-name="Group 1094" transform="translate(1.971 0.279)">
                <path id="Path_3359" data-name="Path 3359" d="M762.164,208.681l.008.007a.484.484,0,0,0,.643,0,5.315,5.315,0,0,1,1.84-1.044.484.484,0,0,0,.33-.547l0-.01a.483.483,0,0,0-.623-.374,6.276,6.276,0,0,0-2.192,1.242A.485.485,0,0,0,762.164,208.681Z" transform="translate(-762.003 -206.69)" fill="#b21844"/>
              </g>
              <g id="Group_1095" data-name="Group 1095" transform="translate(9.203 1.146)">
                <path id="Path_3360" data-name="Path 3360" d="M770.033,207.887l-.005.008a.482.482,0,0,0,.123.625c.1.076.2.155.3.238a.482.482,0,0,0,.622.01l.008-.007a.484.484,0,0,0,.01-.741q-.169-.146-.348-.28A.482.482,0,0,0,770.033,207.887Z" transform="translate(-769.962 -207.645)" fill="#9e1838"/>
              </g>
              <g id="Group_1096" data-name="Group 1096" transform="translate(5.296 5.567)">
                <path id="Path_3361" data-name="Path 3361" d="M772.328,212.512h-.01a.482.482,0,0,0-.441.494,5.268,5.268,0,0,1-5.685,5.435.489.489,0,0,0-.524.4v0a.486.486,0,0,0,.442.564,6.245,6.245,0,0,0,6.661-5.2,6.183,6.183,0,0,0,.082-1.241A.482.482,0,0,0,772.328,212.512Z" transform="translate(-765.661 -212.51)" fill="#720d2e"/>
              </g>
            </g>
            <g id="Group_1098" data-name="Group 1098" transform="translate(2.795 2.151)">
              <circle id="Ellipse_592" data-name="Ellipse 592" cx="0.858" cy="0.858" r="0.858" transform="translate(0 1.624) rotate(-71.155)" fill="#ffd4ee"/>
            </g>
          </g>
          <g id="Group_1107" data-name="Group 1107" transform="translate(1.12 1.12)">
            <g id="Group_1101" data-name="Group 1101">
              <g id="Group_1100" data-name="Group 1100">
                <path id="Path_3362" data-name="Path 3362" d="M767.182,205.168a7.443,7.443,0,1,0,6.118,8.565A7.452,7.452,0,0,0,767.182,205.168Zm-2.25,13.5a6.245,6.245,0,1,1,7.187-5.134A6.245,6.245,0,0,1,764.932,218.67Z" transform="translate(-758.515 -205.066)" fill="#ed913e"/>
              </g>
            </g>
            <g id="Group_1106" data-name="Group 1106" transform="translate(0 0)">
              <g id="Group_1102" data-name="Group 1102" transform="translate(3.694 12.921)">
                <path id="Path_3363" data-name="Path 3363" d="M764.5,219.78a6.2,6.2,0,0,1-1.047-.427.594.594,0,0,0-.831.312l0,.007a.591.591,0,0,0,.273.737,7.37,7.37,0,0,0,1.256.514.594.594,0,0,0,.743-.4l0-.012A.591.591,0,0,0,764.5,219.78Z" transform="translate(-762.58 -219.285)" fill="#ffbe55"/>
              </g>
              <g id="Group_1103" data-name="Group 1103" transform="translate(7.536 6.778)">
                <path id="Path_3364" data-name="Path 3364" d="M774.057,214.414a7.446,7.446,0,0,0,.1-1.3.594.594,0,0,0-.7-.578l-.013,0a.589.589,0,0,0-.481.582,6.253,6.253,0,0,1-5.613,6.284.593.593,0,0,0-.532.5l0,.019a.589.589,0,0,0,.639.672A7.456,7.456,0,0,0,774.057,214.414Z" transform="translate(-766.808 -212.525)" fill="#ffbe55"/>
              </g>
              <g id="Group_1104" data-name="Group 1104">
                <path id="Path_3365" data-name="Path 3365" d="M766.953,205.771a.593.593,0,0,0-.549-.691,7.442,7.442,0,0,0-7.706,9.069.591.591,0,0,0,.81.406l.011-.005a.588.588,0,0,0,.345-.668,6.248,6.248,0,0,1,6.469-7.606.593.593,0,0,0,.618-.492Z" transform="translate(-758.515 -205.066)" fill="#d06440"/>
              </g>
              <g id="Group_1105" data-name="Group 1105" transform="translate(9.663 0.606)">
                <path id="Path_3366" data-name="Path 3366" d="M771.407,206.626a7.427,7.427,0,0,0-1.419-.841.592.592,0,0,0-.805.358l0,.014a.591.591,0,0,0,.317.72,6.185,6.185,0,0,1,1.192.705.592.592,0,0,0,.858-.146l.007-.01A.6.6,0,0,0,771.407,206.626Z" transform="translate(-769.15 -205.732)" fill="#d06440"/>
              </g>
            </g>
          </g>
          <g id="Group_1113" data-name="Group 1113">
            <g id="Group_1109" data-name="Group 1109" transform="translate(0.001 0.002)">
              <g id="Group_1108" data-name="Group 1108">
                <path id="Path_3367" data-name="Path 3367" d="M769.669,204.735a8.563,8.563,0,1,0,3.839,11.485A8.574,8.574,0,0,0,769.669,204.735Zm-7.146,14.322a7.443,7.443,0,1,1,9.983-3.337A7.451,7.451,0,0,1,762.523,219.056Z" transform="translate(-757.284 -203.835)" fill="#f4a845"/>
              </g>
            </g>
            <g id="Group_1112" data-name="Group 1112" opacity="0.8">
              <g id="Group_1110" data-name="Group 1110">
                <path id="Path_3368" data-name="Path 3368" d="M767.253,203.95a8.559,8.559,0,0,0-9.218,11.95.554.554,0,0,0,.717.281l.011,0a.553.553,0,0,0,.293-.737,7.439,7.439,0,0,1,8.013-10.385c.208.035.413.078.613.129a.554.554,0,0,0,.673-.406l0-.012a.556.556,0,0,0-.407-.67C767.724,204.038,767.49,203.989,767.253,203.95Z" transform="translate(-757.282 -203.833)" fill="#fcd575"/>
              </g>
              <g id="Group_1111" data-name="Group 1111" transform="translate(3.742 6.847)">
                <path id="Path_3369" data-name="Path 3369" d="M773.953,211.4l-.011,0a.555.555,0,0,0-.359.6,7.437,7.437,0,0,1-10.683,7.736,7.091,7.091,0,0,1-.641-.36.556.556,0,0,0-.8.236l0,.011a.552.552,0,0,0,.206.7,8.356,8.356,0,0,0,.741.416,8.557,8.557,0,0,0,12.29-8.909A.554.554,0,0,0,773.953,211.4Z" transform="translate(-761.4 -211.368)" fill="#ab463d"/>
              </g>
            </g>
          </g>
        </g>
        <g id="Group_1128" data-name="Group 1128">
          <g id="Group_1116" data-name="Group 1116">
            <g id="Group_1115" data-name="Group 1115">
              <path id="Path_3370" data-name="Path 3370" d="M647.5,206.3v18.974a1.077,1.077,0,0,0,1.751.841l7.521-6.024a2.566,2.566,0,0,0,.964-2.005V201.646a1.242,1.242,0,0,0-1.242-1.242H653.4A5.9,5.9,0,0,0,647.5,206.3Z" transform="translate(-647.498 -200.404)" fill="#e4843f"/>
            </g>
          </g>
          <g id="Group_1118" data-name="Group 1118" transform="translate(9.545 1.487)">
            <g id="Group_1117" data-name="Group 1117">
              <path id="Path_3371" data-name="Path 3371" d="M671.188,202.04a.621.621,0,0,1,.484,1.009l-4.045,5.05c-.06-.107-.118-.216-.183-.322a8.516,8.516,0,0,0-2.995-2.936l-.041-.024c-.081-.046-.163-.091-.244-.134-.047-.026-.094-.052-.143-.076s-.1-.048-.147-.072c-.083-.041-.165-.08-.249-.118l-.045-.019a8.5,8.5,0,0,0-4.127-.7c-.16.013-.319.03-.478.053a.849.849,0,0,1-.958-.694l0-.019a.855.855,0,0,1,.84-1Z" transform="translate(-658.002 -202.04)" fill="#d06440"/>
            </g>
          </g>
          <g id="Group_1120" data-name="Group 1120">
            <g id="Group_1119" data-name="Group 1119">
              <path id="Path_3372" data-name="Path 3372" d="M653.4,201.891h16.831a.621.621,0,0,1,.484,1.009l-4.683,5.848a1.082,1.082,0,0,1-.845.406h-8.938v8.937a1.083,1.083,0,0,1-.405.845l-5.849,4.684a.62.62,0,0,1-1.008-.484V206.3a4.419,4.419,0,0,1,4.414-4.413Zm0-1.487a5.9,5.9,0,0,0-5.9,5.9v18.974a1.079,1.079,0,0,0,1.083,1.08,1.059,1.059,0,0,0,.668-.239l7.521-6.024a2.566,2.566,0,0,0,.964-2.005v-7.45h7.45a2.57,2.57,0,0,0,2.005-.963l6.024-7.521a1.078,1.078,0,0,0-.841-1.752H653.4Z" transform="translate(-647.498 -200.404)" fill="#f4a845"/>
            </g>
          </g>
          <g id="Group_1122" data-name="Group 1122" transform="translate(0 0.371)">
            <g id="Group_1121" data-name="Group 1121">
              <path id="Path_3373" data-name="Path 3373" d="M648.985,206.341v6.787a.737.737,0,0,1-.532.709l-.015,0a.737.737,0,0,1-.94-.708v-6.791a5.9,5.9,0,0,1,3.858-5.529,6.211,6.211,0,0,1,.816,1.293A4.418,4.418,0,0,0,648.985,206.341Z" transform="translate(-647.498 -200.812)" fill="#fcd575"/>
            </g>
          </g>
          <g id="Group_1125" data-name="Group 1125" transform="translate(2.494)">
            <g id="Group_1123" data-name="Group 1123" transform="translate(0 0.123)">
              <path id="Path_3374" data-name="Path 3374" d="M650.347,202.263l-.035-.073a.7.7,0,0,1,.255-.9,5.846,5.846,0,0,1,1.836-.736.706.706,0,0,1,.853.691v.075a.715.715,0,0,1-.572.69,4.371,4.371,0,0,0-1.328.538A.7.7,0,0,1,650.347,202.263Z" transform="translate(-650.243 -200.539)" fill="#fcf0d2"/>
            </g>
            <g id="Group_1124" data-name="Group 1124" transform="translate(5.21)">
              <path id="Path_3375" data-name="Path 3375" d="M671.487,202.9a.621.621,0,0,0-.484-1.009H656.714a.737.737,0,0,1-.732-.656v-.005a.743.743,0,0,1,.739-.825h16.427a1.078,1.078,0,0,1,.841,1.752l-2.542,3.176a.734.734,0,0,1-.781.244l-.01,0a.741.741,0,0,1-.368-1.173Z" transform="translate(-655.976 -200.404)" fill="#fcd575"/>
            </g>
          </g>
          <g id="Group_1126" data-name="Group 1126" transform="translate(2.49 17.743)">
            <path id="Path_3376" data-name="Path 3376" d="M650.238,221.009a1.078,1.078,0,1,0,1.079-1.079A1.078,1.078,0,0,0,650.238,221.009Z" transform="translate(-650.238 -219.93)" fill="#fcd575"/>
          </g>
          <g id="Group_1127" data-name="Group 1127" transform="translate(17.743 2.491)">
            <circle id="Ellipse_593" data-name="Ellipse 593" cx="1.078" cy="1.078" r="1.078" fill="#f4a845"/>
          </g>
        </g>
        <g id="Group_1159" data-name="Group 1159" transform="translate(3.116 3.116)">
          <g id="Group_1144" data-name="Group 1144" transform="translate(2.318 2.318)">
            <g id="Group_1130" data-name="Group 1130" transform="translate(0.938 0.938)">
              <g id="Group_1129" data-name="Group 1129">
                <circle id="Ellipse_594" data-name="Ellipse 594" cx="5.269" cy="5.269" r="5.269" transform="matrix(1, -0.007, 0.007, 1, 0, 0.078)" fill="#9e1838"/>
              </g>
            </g>
            <g id="Group_1131" data-name="Group 1131" transform="translate(4.776 5.226)" opacity="0.7">
              <path id="Path_3377" data-name="Path 3377" d="M664.678,215.619a2.992,2.992,0,1,1-2.46-3.443A2.992,2.992,0,0,1,664.678,215.619Z" transform="translate(-658.734 -212.135)" fill="#e03459"/>
            </g>
            <g id="Group_1132" data-name="Group 1132" transform="translate(7.409 7.075)">
              <path id="Path_3378" data-name="Path 3378" d="M664,215.557a1.192,1.192,0,1,1-.98-1.371A1.191,1.191,0,0,1,664,215.557Z" transform="translate(-661.631 -214.169)" fill="#ff4072"/>
            </g>
            <g id="Group_1133" data-name="Group 1133" transform="translate(3.856 5.117)">
              <path id="Path_3379" data-name="Path 3379" d="M664.526,212.041l-.013,0a.639.639,0,0,0-.457.675,3.968,3.968,0,0,1-5.445,4.1.642.642,0,0,0-.791.264l-.006.012a.643.643,0,0,0,.3.927,5.268,5.268,0,0,0,7.233-5.441A.641.641,0,0,0,664.526,212.041Z" transform="translate(-657.721 -212.014)" fill="#8e1031"/>
            </g>
            <g id="Group_1134" data-name="Group 1134" transform="translate(0.976 0.976)">
              <path id="Path_3380" data-name="Path 3380" d="M655.907,212.075a3.972,3.972,0,0,1,5.236-3.09.643.643,0,0,0,.792-.318l.005-.011a.646.646,0,0,0-.363-.9,5.27,5.27,0,0,0-7.018,5.247.644.644,0,0,0,.957.529l.013-.006a.64.64,0,0,0,.33-.592A4.009,4.009,0,0,1,655.907,212.075Z" transform="translate(-654.552 -207.458)" fill="#e03459"/>
            </g>
            <g id="Group_1135" data-name="Group 1135">
              <path id="Path_3381" data-name="Path 3381" d="M660.589,207.432a5.269,5.269,0,1,1-6.064,4.332,5.275,5.275,0,0,1,6.064-4.332Zm.161-.962a6.245,6.245,0,1,0,5.133,7.187,6.246,6.246,0,0,0-5.133-7.187Z" transform="translate(-653.477 -206.383)" fill="#8e1031"/>
            </g>
            <g id="Group_1142" data-name="Group 1142" transform="translate(0)">
              <g id="Group_1136" data-name="Group 1136" transform="translate(2.357 10.4)">
                <path id="Path_3382" data-name="Path 3382" d="M658.051,219.068l0-.006a.486.486,0,0,0-.267-.589,5.253,5.253,0,0,1-.939-.551.482.482,0,0,0-.672.1l-.006.009a.483.483,0,0,0,.1.676,6.245,6.245,0,0,0,1.12.656A.486.486,0,0,0,658.051,219.068Z" transform="translate(-656.072 -217.829)" fill="#720d2e"/>
              </g>
              <g id="Group_1137" data-name="Group 1137" transform="translate(0 3.089)">
                <path id="Path_3383" data-name="Path 3383" d="M654.526,212.074a5.255,5.255,0,0,1,.482-1.484,3.551,3.551,0,0,1-.674-.807,6.28,6.28,0,0,0-.855,3.21.484.484,0,0,0,.6.461l.01,0a.482.482,0,0,0,.363-.476A5.251,5.251,0,0,1,654.526,212.074Z" transform="translate(-653.478 -209.783)" fill="#9e1838"/>
              </g>
              <g id="Group_1138" data-name="Group 1138" transform="translate(0.855)">
                <path id="Path_3384" data-name="Path 3384" d="M660.836,206.469a6.248,6.248,0,0,0-6.417,3,3.551,3.551,0,0,0,.674.807,5.279,5.279,0,0,1,5.582-2.848,5.2,5.2,0,0,1,.808.2.483.483,0,0,0,.6-.26l0-.009a.486.486,0,0,0-.292-.657A6.36,6.36,0,0,0,660.836,206.469Z" transform="translate(-654.419 -206.383)" fill="#9e1838"/>
              </g>
              <g id="Group_1139" data-name="Group 1139" transform="translate(1.971 0.279)">
                <path id="Path_3385" data-name="Path 3385" d="M655.808,208.681l.008.007a.485.485,0,0,0,.644,0,5.311,5.311,0,0,1,1.839-1.044.485.485,0,0,0,.331-.547l0-.01a.484.484,0,0,0-.624-.374,6.283,6.283,0,0,0-2.192,1.242A.485.485,0,0,0,655.808,208.681Z" transform="translate(-655.647 -206.69)" fill="#b21844"/>
              </g>
              <g id="Group_1140" data-name="Group 1140" transform="translate(9.204 1.146)">
                <path id="Path_3386" data-name="Path 3386" d="M663.677,207.887l0,.008a.481.481,0,0,0,.123.625c.1.076.2.155.3.238a.482.482,0,0,0,.622.01l.008-.007a.484.484,0,0,0,.011-.741q-.169-.146-.349-.28A.482.482,0,0,0,663.677,207.887Z" transform="translate(-663.607 -207.645)" fill="#9e1838"/>
              </g>
              <g id="Group_1141" data-name="Group 1141" transform="translate(5.296 5.567)">
                <path id="Path_3387" data-name="Path 3387" d="M665.972,212.512h-.01a.482.482,0,0,0-.441.494,5.268,5.268,0,0,1-5.684,5.435.488.488,0,0,0-.524.4v0a.487.487,0,0,0,.443.564,6.252,6.252,0,0,0,6.743-6.44A.483.483,0,0,0,665.972,212.512Z" transform="translate(-659.306 -212.51)" fill="#720d2e"/>
              </g>
            </g>
            <g id="Group_1143" data-name="Group 1143" transform="translate(3.025 2.382)">
              <path id="Path_3388" data-name="Path 3388" d="M658.512,210a.858.858,0,1,1-.705-.987A.859.859,0,0,1,658.512,210Z" transform="translate(-656.807 -209.005)" fill="#ffd4ee"/>
            </g>
          </g>
          <g id="Group_1152" data-name="Group 1152" transform="translate(1.12 1.12)">
            <g id="Group_1146" data-name="Group 1146">
              <g id="Group_1145" data-name="Group 1145">
                <path id="Path_3389" data-name="Path 3389" d="M660.826,205.168a7.443,7.443,0,1,0,6.118,8.565A7.451,7.451,0,0,0,660.826,205.168Zm-2.25,13.5a6.245,6.245,0,1,1,7.187-5.134A6.245,6.245,0,0,1,658.576,218.67Z" transform="translate(-652.16 -205.066)" fill="#ed913e"/>
              </g>
            </g>
            <g id="Group_1151" data-name="Group 1151" transform="translate(0 0)">
              <g id="Group_1147" data-name="Group 1147" transform="translate(3.694 12.921)">
                <path id="Path_3390" data-name="Path 3390" d="M658.147,219.78a6.236,6.236,0,0,1-1.048-.427.594.594,0,0,0-.831.312l0,.007a.59.59,0,0,0,.273.737,7.4,7.4,0,0,0,1.256.514.593.593,0,0,0,.743-.4l0-.012A.591.591,0,0,0,658.147,219.78Z" transform="translate(-656.225 -219.285)" fill="#ffbe55"/>
              </g>
              <g id="Group_1148" data-name="Group 1148" transform="translate(7.535 6.778)">
                <path id="Path_3391" data-name="Path 3391" d="M667.7,214.414a7.366,7.366,0,0,0,.1-1.3.594.594,0,0,0-.7-.578l-.013,0a.59.59,0,0,0-.481.582,6.169,6.169,0,0,1-.085,1.1,6.246,6.246,0,0,1-5.527,5.188.593.593,0,0,0-.532.5l0,.019a.59.59,0,0,0,.64.672A7.455,7.455,0,0,0,667.7,214.414Z" transform="translate(-660.452 -212.525)" fill="#ffbe55"/>
              </g>
              <g id="Group_1149" data-name="Group 1149">
                <path id="Path_3392" data-name="Path 3392" d="M660.6,205.771a.593.593,0,0,0-.548-.691,7.442,7.442,0,0,0-7.706,9.069.59.59,0,0,0,.809.406l.012-.005a.589.589,0,0,0,.345-.668,6.248,6.248,0,0,1,6.468-7.606.592.592,0,0,0,.618-.492Z" transform="translate(-652.16 -205.066)" fill="#d06440"/>
              </g>
              <g id="Group_1150" data-name="Group 1150" transform="translate(9.663 0.606)">
                <path id="Path_3393" data-name="Path 3393" d="M665.052,206.626a7.4,7.4,0,0,0-1.42-.841.591.591,0,0,0-.805.358l0,.014a.59.59,0,0,0,.318.72,6.2,6.2,0,0,1,1.191.705.593.593,0,0,0,.859-.146l.006-.01A.6.6,0,0,0,665.052,206.626Z" transform="translate(-662.794 -205.732)" fill="#d06440"/>
              </g>
            </g>
          </g>
          <g id="Group_1158" data-name="Group 1158">
            <g id="Group_1154" data-name="Group 1154" transform="translate(0.001 0.002)">
              <g id="Group_1153" data-name="Group 1153">
                <path id="Path_3394" data-name="Path 3394" d="M663.313,204.735a8.563,8.563,0,1,0,3.839,11.485A8.573,8.573,0,0,0,663.313,204.735Zm-7.146,14.322a7.443,7.443,0,1,1,9.983-3.337A7.451,7.451,0,0,1,656.167,219.056Z" transform="translate(-650.928 -203.835)" fill="#f4a845"/>
              </g>
            </g>
            <g id="Group_1157" data-name="Group 1157" opacity="0.8">
              <g id="Group_1155" data-name="Group 1155">
                <path id="Path_3395" data-name="Path 3395" d="M660.9,203.95a8.559,8.559,0,0,0-9.218,11.95.553.553,0,0,0,.717.281l.01,0a.553.553,0,0,0,.294-.737,7.439,7.439,0,0,1,8.012-10.385c.208.035.413.078.614.129a.555.555,0,0,0,.673-.406l0-.012a.556.556,0,0,0-.407-.67Q661.253,204.009,660.9,203.95Z" transform="translate(-650.927 -203.833)" fill="#fcd575"/>
              </g>
              <g id="Group_1156" data-name="Group 1156" transform="translate(3.742 6.847)">
                <path id="Path_3396" data-name="Path 3396" d="M667.6,211.4l-.011,0a.554.554,0,0,0-.359.6,7.439,7.439,0,0,1-10.684,7.736,7.2,7.2,0,0,1-.64-.36.557.557,0,0,0-.8.236l0,.011a.553.553,0,0,0,.206.7c.238.149.485.289.741.416a8.557,8.557,0,0,0,12.29-8.909A.554.554,0,0,0,667.6,211.4Z" transform="translate(-655.045 -211.368)" fill="#ab463d"/>
              </g>
            </g>
          </g>
        </g>
      </g>
    </g>
    <g id="Group_1169" data-name="Group 1169" transform="translate(-68.49 192.884)">
      <g id="Group_41" data-name="Group 41" transform="translate(241.49 121.316)">
        <circle id="Ellipse_486" data-name="Ellipse 486" cx="8.18" cy="8.18" r="8.18" transform="translate(2.261 16.598) rotate(-80.913)" fill="#a66300"/>
        <path id="Path_25" data-name="Path 25" d="M337.76,157.484l-2.372-.208.292,2.629,2.692.135A8.133,8.133,0,0,0,337.76,157.484Z" transform="translate(-318.587 -150.842)" fill="#804e04"/>
        <path id="Path_26" data-name="Path 26" d="M325.215,196.455l-.438,1.314,2.5.847a8.217,8.217,0,0,0,1.371-1.813Z" transform="translate(-309.875 -183.01)" fill="#804e04"/>
        <circle id="Ellipse_487" data-name="Ellipse 487" cx="8.18" cy="8.18" r="8.18" transform="matrix(0.225, -0.974, 0.974, 0.225, 0, 15.939)" fill="#ffbc26"/>
        <path id="Path_27" data-name="Path 27" d="M261.5,149.858a8.214,8.214,0,0,0,2.221,1.833l10.839-11.633a8.222,8.222,0,0,0-2.412-2.379Z" transform="translate(-257.916 -134.75)" fill="#ffc673"/>
        <path id="Path_28" data-name="Path 28" d="M252.191,139.353l3.568.723,2.191-2.848-1-3.3A8.2,8.2,0,0,0,252.191,139.353Z" transform="translate(-250.276 -131.671)" fill="#fafff3"/>
        <path id="Path_29" data-name="Path 29" d="M277.23,147.708,265.272,158.8a8.178,8.178,0,0,0,11.958-11.091Z" transform="translate(-261.017 -142.986)" fill="#f90"/>
        <circle id="Ellipse_488" data-name="Ellipse 488" cx="5.908" cy="5.908" r="5.908" transform="translate(2.72 14.229) rotate(-76.906)" fill="#bd7100"/>
        <path id="Path_30" data-name="Path 30" d="M276.552,150.339a5.946,5.946,0,0,0-6.04,6.04,5.879,5.879,0,0,0,1.122,3.331.15.15,0,0,0,.033.033A5.878,5.878,0,0,0,275,160.864a5.946,5.946,0,0,0,6.04-6.04,5.877,5.877,0,0,0-1.122-3.331.147.147,0,0,0-.033-.033A5.877,5.877,0,0,0,276.552,150.339Z" transform="translate(-265.318 -145.145)" fill="#ff9a14"/>
        <path id="Path_31" data-name="Path 31" d="M284.934,160.052c0-.032,0-.063-.006-.1,0-.048,0-.1-.009-.144s-.008-.079-.012-.118-.007-.079-.012-.118-.013-.092-.02-.138-.009-.064-.014-.1c-.008-.048-.017-.1-.026-.143-.006-.029-.01-.058-.016-.087-.01-.05-.022-.1-.033-.149-.006-.026-.011-.052-.018-.078-.013-.053-.028-.106-.042-.158-.006-.022-.011-.043-.017-.065-.016-.056-.033-.11-.051-.165-.006-.018-.011-.036-.017-.054-.019-.057-.039-.112-.059-.168l-.017-.048c-.021-.057-.044-.113-.067-.169l-.017-.043c-.024-.057-.049-.114-.075-.17l-.017-.038c-.026-.057-.054-.113-.082-.169l-.017-.035c-.029-.056-.059-.112-.09-.167l-.018-.032c-.031-.055-.063-.109-.1-.163l-.019-.032c-.033-.054-.067-.107-.1-.159l-.02-.031c-.034-.051-.07-.1-.106-.152l-.02-.029c-2.03,1.794-6.308,5.723-8.559,7.8.09.148.185.292.286.431.068.05.137.1.208.145l.031.02c.058.038.116.076.176.112l.061.036c.05.03.1.059.152.087l.073.04.147.076.078.039.15.069.078.035c.055.024.11.046.166.068l.065.026q.233.089.476.158l.075.02c.056.015.111.03.168.043l.094.021.154.032.1.018.153.025.1.014.158.018.1.01.174.012.085.005q.13.006.262.006a5.908,5.908,0,0,0,5.908-5.908Q284.939,160.173,284.934,160.052Z" transform="translate(-269.218 -150.481)" fill="#d48014"/>
        <path id="Path_32" data-name="Path 32" d="M285.74,149.522l-4.674,3.578,1.552,2.486-1.917,3.283,5.112-2.994-1.534-3.213Z" transform="translate(-273.685 -144.475)" fill="#ffbc26"/>
        <path id="Path_33" data-name="Path 33" d="M286.178,150.179l-.438-.657-1.46,3.14,1.534,3.213-5.112,2.994.895.22,4.947-2.922-1.387-3.651Z" transform="translate(-273.685 -144.475)" fill="#a66300"/>
        <path id="Path_34" data-name="Path 34" d="M285.74,149.522l-3.979,3.779,1.5,2.213-2.559,3.354,1.917-3.283-1.552-2.486Z" transform="translate(-273.685 -144.475)" fill="#fafff3"/>
        <path id="Path_35" data-name="Path 35" d="M293.3,169.618l-1.878,4.628,3.194-1.871Z" transform="translate(-282.484 -160.975)" fill="#ffc673"/>
      </g>
    </g>
    <text id="_20_P." data-name="20 P." transform="translate(220 329)" fill="#ffbc26" font-size="26" font-family="Gamer"><tspan x="-21.125" y="0">20 P.</tspan></text>
    <text id="Healing_potion" data-name="Healing
potion" transform="translate(207 222)" fill="#fff" font-size="24" font-family="Gamer"><tspan x="-31.5" y="0">HEALING</tspan><tspan x="-27.75" y="16">POTION</tspan></text>
    <circle id="Ellipse_595" data-name="Ellipse 595" cx="24" cy="24" r="24" transform="translate(181 258)" fill="#231b1c" opacity="0.796"/>
    <g id="Group_1170" data-name="Group 1170" transform="translate(184.761 247.975)">
      <path id="Path_2352" data-name="Path 2352" d="M676.3,636.969a22.472,22.472,0,1,1,0-31.775A22.4,22.4,0,0,1,676.3,636.969Z" transform="translate(-637.902 -589.813)" fill="#4c4e6c"/>
      <path id="Path_2353" data-name="Path 2353" d="M662.75,651.636A22.833,22.833,0,0,1,644.5,645.18a21.281,21.281,0,0,1-6.456-18.249,22.468,22.468,0,0,1,24.7,24.7Z" transform="translate(-637.888 -598.02)" fill="#4c4e6c"/>
      <path id="Path_2354" data-name="Path 2354" d="M675.2,635.878a18.79,18.79,0,1,1,0-26.57A18.729,18.729,0,0,1,675.2,635.878Z" transform="translate(-639.413 -591.324)" fill="#3f2f3d"/>
      <path id="Path_2355" data-name="Path 2355" d="M680.706,630.307H643.13a18.788,18.788,0,0,0,37.576.059Z" transform="translate(-639.414 -599.039)" fill="#f48400"/>
      <path id="Path_2356" data-name="Path 2356" d="M680.7,626.714c0,1.685-1.568,3.234-4.181,4.448-3.444,1.6-8.7,2.624-14.607,2.624s-11.163-1.023-14.607-2.624c-2.617-1.214-4.186-2.763-4.186-4.448,0-3.9,8.414-7.07,18.793-7.07S680.7,622.811,680.7,626.714Z" transform="translate(-639.412 -595.935)" fill="#f4ff00"/>
      <path id="Path_2357" data-name="Path 2357" d="M664.939,622.034c-6.311,0-11.428,1.925-11.428,4.3,0,1.024.954,1.966,2.545,2.705a25.519,25.519,0,0,0,17.765,0c1.589-.739,2.542-1.681,2.542-2.705C676.364,623.959,671.251,622.034,664.939,622.034Zm3.809,5.46a10.948,10.948,0,0,1-7.619,0c-.683-.317-1.092-.721-1.092-1.161,0-1.018,2.194-1.843,4.9-1.843s4.9.825,4.9,1.843C669.838,626.773,669.429,627.177,668.748,627.494Z" transform="translate(-642.436 -596.631)" fill="#ffa100"/>
      <path id="Path_2358" data-name="Path 2358" d="M663.445,613.838a2.862,2.862,0,1,1,0-4.047A2.861,2.861,0,0,1,663.445,613.838Z" transform="translate(-643.906 -592.823)" fill="#646694"/>
      <path id="Path_2359" data-name="Path 2359" d="M674.621,634.265l-7.147-1.352-10.595-6.55-8.182-11.93-.926-9.258,1.207-4.439-.7-.7-5.636,5.637h0c-5.237,5.237-1.911,17.053,7.428,26.392s21.155,12.665,26.392,7.428h0l5.637-5.636-.635-.635Z" transform="translate(-638.551 -590.229)" fill="#b02929"/>
      <path id="Path_2360" data-name="Path 2360" d="M685.747,620.381a15.563,15.563,0,0,1-3.167,9.514h0a6.255,6.255,0,0,1-.469.532c-4.4,4.4-14.48,1.454-22.514-6.581s-10.981-18.114-6.581-22.514a6.335,6.335,0,0,1,1.19-.927h0l.011,0a7.2,7.2,0,0,1,1.847-.788,21.73,21.73,0,0,1,7.92-1.6c-5.517-2.038-10.566-1.81-13.52,1.145-5.237,5.237-1.911,17.053,7.428,26.392s21.156,12.665,26.393,7.428C687.07,630.19,687.43,625.534,685.747,620.381Z" transform="translate(-640.826 -589.25)" fill="#ff4848"/>
      <path id="Path_2361" data-name="Path 2361" d="M660.767,642.611a1.9,1.9,0,1,1-1.9-1.9A1.9,1.9,0,0,1,660.767,642.611Z" transform="translate(-643.441 -602.067)" fill="#ff4848"/>
      <path id="Path_2362" data-name="Path 2362" d="M672.109,649.388a1.8,1.8,0,1,1-2.3,0A1.642,1.642,0,0,1,672.109,649.388Z" transform="translate(-646.97 -604.457)" fill="#ff4848"/>
      <path id="Path_2363" data-name="Path 2363" d="M650.5,628.831a1.8,1.8,0,1,1-2,1.143A1.643,1.643,0,0,1,650.5,628.831Z" transform="translate(-640.937 -598.587)" fill="#ff4848"/>
      <path id="Path_2364" data-name="Path 2364" d="M684.255,653.446c.41.537.113,1.455-.664,2.049s-1.741.642-2.152.106-.113-1.454.664-2.049S683.844,652.909,684.255,653.446Z" transform="translate(-650.511 -605.666)" fill="#ff4848"/>
      <ellipse id="Ellipse_563" data-name="Ellipse 563" cx="1.773" cy="1.224" rx="1.773" ry="1.224" transform="translate(3.224 23.652) rotate(-67.607)" fill="#ff4848"/>
      <g id="Group_557" data-name="Group 557" transform="translate(26.439 0)">
        <path id="Path_2365" data-name="Path 2365" d="M680.947,600.377l-4.686,4.685.006.006a2.715,2.715,0,0,0-.236.2c-1.788,1.788-.652,5.822,2.537,9.011s7.222,4.324,9.01,2.536l3.891-4.172Z" transform="translate(-675.184 -590.327)" fill="#4c4e6c"/>
        <path id="Path_2366" data-name="Path 2366" d="M680.719,600.7l-4.458,4.457.006.006a2.725,2.725,0,0,0-.236.2c-1.2,1.2-1.078,3.4.085,5.686l5.109-5.109Z" transform="translate(-675.185 -590.421)" fill="#fff"/>
        <path id="Path_2367" data-name="Path 2367" d="M703.6,595.382c.7.695.929,1.589.522,2s-1.3.174-2-.522-.929-1.589-.522-2S702.9,594.686,703.6,595.382Z" transform="translate(-682.816 -588.663)" fill="#7ba847"/>
        <g id="Group_553" data-name="Group 553" transform="translate(2.04 9.794)">
          <path id="Path_2368" data-name="Path 2368" d="M678.061,600.017h0Z" transform="translate(-678.061 -600.017)" fill="#bac6cc"/>
          <path id="Path_2369" data-name="Path 2369" d="M699.922,621.878h0Z" transform="translate(-684.424 -606.38)" fill="#bac6cc"/>
        </g>
        <g id="Group_554" data-name="Group 554" transform="translate(3.085 6.476)">
          <path id="Path_2370" data-name="Path 2370" d="M696.17,611.97c-2.4,2.4-7.814.876-12.094-3.4s-5.8-9.694-3.4-12.094,7.814-.876,12.094,3.4S698.57,609.57,696.17,611.97Z" transform="translate(-679.536 -595.335)" fill="#bac6cc"/>
        </g>
        <g id="Group_555" data-name="Group 555" transform="translate(3.144)">
          <ellipse id="Ellipse_564" data-name="Ellipse 564" cx="6.145" cy="10.959" rx="6.145" ry="10.959" transform="matrix(0.707, -0.707, 0.707, 0.707, 0, 8.69)" fill="#fff"/>
        </g>
        <g id="Group_556" data-name="Group 556" transform="translate(9.978 2.914)">
          <path id="Path_2371" data-name="Path 2371" d="M703.031,601.431l-3.061,3.062-.012-.012a1.559,1.559,0,0,1-.873.334l-3.7.211a1.551,1.551,0,0,1-1.192-.454l-4.474-4.473a1.54,1.54,0,0,1-.454-1.192l.208-3.706a1.566,1.566,0,0,1,.337-.87l-.011-.011,3.061-3.062,2.335,2.335a1.547,1.547,0,0,1,.651.381l4.473,4.474a1.505,1.505,0,0,1,.378.647Z" transform="translate(-689.258 -590.586)" fill="#b1b2c9"/>
          <path id="Path_2372" data-name="Path 2372" d="M704.136,603.464l-3.061,3.062-.012-.012a1.56,1.56,0,0,1-.873.334l-3.7.211a1.551,1.551,0,0,1-1.192-.454l-2.239-2.238,6.126-6.126,2.238,2.238a1.505,1.505,0,0,1,.378.647Z" transform="translate(-690.364 -592.619)" fill="#4c4e6c"/>
          <rect id="Rectangle_9519" data-name="Rectangle 9519" width="6.327" height="4.143" transform="translate(3.385 6.583) rotate(45)" fill="#646694"/>
          <path id="Path_2373" data-name="Path 2373" d="M693.391,595.7l.213-3.708a1.56,1.56,0,0,1,1.468-1.468l3.708-.212a1.557,1.557,0,0,1,1.192.454l4.475,4.474a1.562,1.562,0,0,1,.454,1.192l-.213,3.708a1.559,1.559,0,0,1-1.468,1.468l-3.708.212a1.557,1.557,0,0,1-1.192-.454l-4.475-4.474A1.564,1.564,0,0,1,693.391,595.7Z" transform="translate(-690.461 -590.311)" fill="#9597b6"/>
          <path id="Path_2374" data-name="Path 2374" d="M696.275,596.672l.137-2.391a1.006,1.006,0,0,1,.946-.947l2.39-.137a1.007,1.007,0,0,1,.769.293l2.885,2.885a1,1,0,0,1,.293.768l-.137,2.391a1.006,1.006,0,0,1-.946.947l-2.391.137a1.008,1.008,0,0,1-.769-.294l-2.885-2.885A1.006,1.006,0,0,1,696.275,596.672Z" transform="translate(-691.3 -591.151)" fill="#646694"/>
        </g>
      </g>
    </g>
  </g>
</svg>
